<?xml version="1.0" encoding="utf-8"?>
<!-- Generator: Adobe Illustrator 21.0.2, SVG Export Plug-In . SVG Version: 6.00 Build 0)  -->
<!DOCTYPE svg PUBLIC "-//W3C//DTD SVG 1.1//EN" "http://www.w3.org/Graphics/SVG/1.1/DTD/svg11.dtd">
<svg version="1.1" id="Layer_1" xmlns="http://www.w3.org/2000/svg" xmlns:xlink="http://www.w3.org/1999/xlink" x="0px" y="0px"
	 viewBox="0 0 945 126.2" style="enable-background:new 0 0 945 126.2;" xml:space="preserve">
<style type="text/css">
	.st0{fill:none;}
	.st1{fill:#F5AE1B;}
	.st2{fill:#FFFFFF;}
	.st3{fill-rule:evenodd;clip-rule:evenodd;fill:#FFFFFF;}
</style>
<title>dash</title>
<line class="st0" x1="0" y1="63.1" x2="945" y2="63.1"/>
<path class="st1" d="M916,77.4c-0.8-3.5,4.3-3.4,6.3-5.2c0.5-4.8-5-3.7,0.3-7.1c-0.7-4.7,11.9-1.1,9.4-6.9
	c-3.6-12.7,19.8-31.7,11-47.8c-5.5-2.8-17.1-2.4-21.2-5.9c-56.1-4.9-105.8-3.1-168.2-3c-58.9,4.2-119,3.5-177.7,5.7
	C443.3,6.8,330.6,6.3,193.2,7C135.2,4.1,68.3,5,6.8,0C-4.3,9.4,0.4,22.3,5.6,30.3c-1,13.6,6.3,29.1,1.6,39.2
	c13,13.1,0.8,29.7,13.8,41.4c69.7,3.2,148.7,4.6,223.3,2.7c9.2-0.3,18.5,0.6,27.5,2.6c6.7-3.1,22.5-0.6,33.7-0.8
	c6.5-3.8,16.5,3,21.5-3c4,0.1,2.7,3.2,6,3.7c9.7-6,20.2,0.1,36.8-2.5c8.7-1.2,7.8,2.8,15.2,2.2c8.8-5.8,19.1,0.7,30.7-2.7
	c4,0.1,2.7,3.2,6,3.7c-3.6-5.1,10.1-4.6,6.1,0.2c5.7-0.9,12.2-2.7,18.5-3c30.1-1.9,41.8,1,64.2,1.9c9.4,1.6,6.1-4.7,15.4-3.1
	c29.6,4.3,64.2-3.5,101-0.7c11.3-4.1,23.1-2.6,46-2.3c8.1-4,14.3-3.8,21.6-4.7c10-0.7,14.2,1.6,21.3,2.4c2.8-5.1,4.7-1.9,12.3-1.4
	c7.8,0,10.8-3,15.5-4.9c-3.6-0.4-8.7,0.1-9.1-2c9.8-2.3,17.9,8.7,18.4,0.5c11.7-2.7-6.5-3.1-5.9-5.5c17.3-2.3,34.7-3,52.1-2.1
	c6.3,0.7-4.7,4.7,5.9,5.6c11.3-8.7,44.3-3.9,61.5-9c-3.6-0.4-8.7,0.1-9.1-2c14.3,2.9,6.9-7.8,15.6-8.5c2.8,1.2,11.1,4.5,9.2-1.5
	c-3.3,0-7.7-1.1-3-1.9C886.6,78.2,903.9,76.4,916,77.4z M725.3,102.3c-3.5-0.4-1.6-1.9,0.1-1.8c-2.5-2.7-7.6-4-15.2-4
	c-9.4-2,22-2.9,18.4-1.2c6.4-0.8,10.1-4.8,15.4-1.4C740.7,98.5,729.7,98.3,725.3,102.3z M695,94.3c6.2-0.4,9.5,0.6,9,3.8l-9.2-0.3
	C694.9,96.6,695,95.5,695,94.3z M691.8,97.7C684.4,103.3,679.7,91.1,691.8,97.7z M676.5,99.1c0.2-0.8,1.1-1.2,1.9-1.1
	c0.6,0.1,1.1,0.6,1.2,1.2c-0.2,0.8-1,1.3-1.9,1.1C677,100.1,676.6,99.7,676.5,99.1L676.5,99.1z M700.8,101.6
	c-1.5-0.9,2.3-2.2,3.1-1.7C705.5,100.8,701.7,102.1,700.8,101.6L700.8,101.6z M719.3,100.3c-2.1,2.3-6.7,3.1-12.4,3.2
	C704,98.1,713.8,100.6,719.3,100.3z M670.2,102.5C679.7,97.8,661.7,107.6,670.2,102.5z M630.2,108.4c-1.5-0.9,2.3-2.2,3.1-1.7
	C634.9,107.8,631,109,630.2,108.4L630.2,108.4z M431.1,111.7c-1.5-0.9,2.3-2.2,3.1-1.7C435.8,111.1,431.9,112.3,431.1,111.7
	L431.1,111.7z"/>
<g>
	<g>
		<path class="st2" d="M472.4,99.5c-6.6-6.2-13.2-12.1-19.4-18.3c-4.8-4.7-9.4-9.6-13.7-14.8c-4.2-5.1-6.5-11.1-6.6-17.8
			c-0.2-8.3,3.7-14.5,10.4-18.9c8.1-5.3,18.8-3.6,25.6,3.8c1.3,1.4,2.4,2.9,3.6,4.4c1.6-1.8,3.1-3.8,4.9-5.4c6-5.4,13-7.5,20.7-4.5
			c8,3,12.9,9.1,14.1,17.6c0.9,6.3-0.7,12.3-4.3,17.5c-2.8,4.2-6,8.2-9.6,11.8C489.8,83.3,481.1,91.3,472.4,99.5z"/>
		<g>
			<g>
				<path class="st3" d="M448.8,23.1c-0.4,0,0.5-0.2,0.7-0.2C449.9,22.9,449,23.1,448.8,23.1z"/>
				<path class="st3" d="M444.1,77.9c0.2,0.3-0.4-0.3-0.5-0.4C443.4,77.2,444,77.7,444.1,77.9z"/>
				<path class="st3" d="M445.3,24.3c0.1-0.2,1.3-0.6,1.4-0.5C446.1,24.1,445.5,24.4,445.3,24.3z"/>
				<path class="st3" d="M446.4,80C444.8,78.6,447.6,80.9,446.4,80L446.4,80z"/>
				<path class="st3" d="M466.6,27.3c-0.3-0.2,0.5,0.2,0.6,0.3C467.5,27.9,466.8,27.4,466.6,27.3z"/>
				<path class="st3" d="M446.2,79.3c0.2,0.3-0.4-0.3-0.5-0.4C445.5,78.6,446.1,79.1,446.2,79.3z"/>
				<path class="st3" d="M450.7,83.5c0.2,0.3-0.4-0.2-0.5-0.4C450,82.9,450.6,83.4,450.7,83.5z"/>
				<path class="st3" d="M509.4,31.9c0.2,0,0.5,0.5,0.5,0.5C509.7,32.4,509.3,32,509.4,31.9z"/>
				<path class="st3" d="M451.7,84.4c-0.2,0-0.5-0.4-0.5-0.5C451.3,83.9,451.7,84.3,451.7,84.4z"/>
				<path class="st3" d="M491.5,23.6c0.6-0.2,0.9,0.2,0.7,0.3C491.6,24.1,491.3,23.7,491.5,23.6z"/>
				<path class="st3" d="M452.7,85.2c-0.8-0.8,0-0.2,0.2-0.2c0.9,0.8,1,1,1.9,1.8C454.9,87.4,452.5,84.7,452.7,85.2z"/>
				<path class="st3" d="M447.8,80.3c-0.2,0-0.9-0.8-0.9-0.9C447.4,79.7,447.8,80.1,447.8,80.3z"/>
				<path class="st3" d="M453.4,85.4l0.3-0.3c1,0.9,3.4,3.6,3.4,3c0.6,0.7,0.8,1.1,0.7,1.3C456.9,88.8,455.3,87.1,453.4,85.4z"/>
				<path class="st3" d="M450.3,82.2c-0.1,0-0.6-0.5-0.9-0.8C449.4,81.3,449.9,81.8,450.3,82.2z"/>
				<path class="st3" d="M448.1,80c-0.5-0.5-0.3-0.5-0.3-0.6l1.3,1.3C448.9,80.7,448.2,80.1,448.1,80z"/>
				<path class="st3" d="M446.5,78.2c-0.1,0-0.5-0.4-0.4-0.4C446.2,77.8,446.5,78.1,446.5,78.2z"/>
				<path class="st3" d="M468.3,29.7c0.5,0.5,0.3,0.4,0.9,1C468.8,30.7,467.6,29.4,468.3,29.7z"/>
				<path class="st3" d="M450.8,82.5c-0.5-0.5-0.4-0.6,0-0.3c0.3,0.2,0.9,0.7,1.6,1.4C452.1,83.6,451,82.5,450.8,82.5z"/>
				<path class="st3" d="M487.9,87.8c-0.1,0.2-0.5,0.5-0.5,0.4C487.5,88.1,487.9,87.8,487.9,87.8z"/>
				<path class="st3" d="M450.1,81.5c-0.1,0-0.5-0.4-0.4-0.4C449.8,81.1,450.1,81.5,450.1,81.5z"/>
				<path class="st3" d="M448.3,79.8C446.8,78.4,449.6,80.6,448.3,79.8L448.3,79.8z"/>
				<path class="st3" d="M485.1,90.3c0.3-0.2-0.3,0.4-0.4,0.5C484.4,91,484.9,90.4,485.1,90.3z"/>
				<path class="st3" d="M494.8,25.2c0.1,0,0.4,0,0.7,0.1c0.4,0.1,0.8,0.2,1.2,0.3C496.6,25.7,495.6,25.3,494.8,25.2z"/>
				<path class="st3" d="M459.3,89.1c0.1-0.2,2.6,1.7-0.7-1.3c0.1-0.1,1.3,1.1,1.1,0.6c0.5,0.5,0.9,1,0.8,1.1c2.3,2,2.5,2.5,4.1,4
					c0.3,0.4-2.2-1.9-1.9-1.7C461.8,91.2,461.2,90.9,459.3,89.1z"/>
				<path class="st3" d="M432.1,55c0,0.3-0.2-0.4-0.2-0.6C431.8,54.1,432.1,54.8,432.1,55z"/>
				<path class="st3" d="M454.4,84.2c0.2,0.3-0.4-0.2-0.5-0.4C453.7,83.5,454.3,84,454.4,84.2z"/>
				<path class="st3" d="M457,85.9c-1.1-1.1,0.1-0.3,1,0.6C457.8,86.5,457.2,85.9,457,85.9z"/>
				<path class="st3" d="M460.3,88.7c0.2,0.3-0.4-0.2-0.5-0.4C459.6,88.1,460.1,88.5,460.3,88.7z"/>
				<path class="st3" d="M471.1,98.5c-0.1,0-0.8-0.7-1.3-1.2C469.8,97.3,470.6,98,471.1,98.5z"/>
				<path class="st3" d="M465.7,93.5c0-0.2,0.4,0.1,1.4,1C466.6,94.1,466.9,94.6,465.7,93.5z"/>
				<path class="st3" d="M465,90.4c0.2,0.2-0.3-0.2-0.4-0.3C464.3,89.9,464.9,90.3,465,90.4z"/>
				<path class="st3" d="M493.6,28.7c0.1-0.1,0.6,0.1,0.5,0.1C494,28.9,493.6,28.7,493.6,28.7z"/>
				<path class="st3" d="M495.7,29.2c0.6-0.1,1,0.4,1.6,0.6c-0.1,0-0.6-0.1-0.6,0c-0.3-0.1-0.7-0.3-1-0.3
					C495.6,29.2,496.6,29.5,495.7,29.2z"/>
				<path class="st3" d="M500.9,31.3c0.8,0.5,0.5,0.4,0.2,0.3c-0.3-0.1-0.7-0.2,0.1,0.3c-0.3-0.1-1.1-0.6-1.1-0.4
					C498.8,30.7,500.6,31.3,500.9,31.3z"/>
				<path class="st3" d="M506.2,36.2c-0.1-0.3,0.3,0.3,0.4,0.4C506.7,36.8,506.2,36.3,506.2,36.2z"/>
				<path class="st3" d="M483.5,86.2c0.2-0.2-0.3,0.4-0.4,0.5C482.9,86.8,483.4,86.3,483.5,86.2z"/>
				<path class="st3" d="M486.1,29.6c-0.4,0.3-1.5,0.7-2.9,1.4c-2,1.2-0.2-0.1,0.9-0.6C485.2,30,485.1,29.9,486.1,29.6z"/>
				<path class="st3" d="M436,41.7c-0.1,0.2,0-0.4,0.1-0.5C436.2,40.9,436,41.6,436,41.7z"/>
				<path class="st3" d="M496.6,30c-0.3-0.1,0.4,0,0.5,0.1C497.4,30.3,496.7,30.1,496.6,30z"/>
				<path class="st3" d="M497.8,71.8c-0.1,0.3-0.4,0.4-0.5,0.4C497.5,71.8,497.8,71.7,497.8,71.8z"/>
				<path class="st3" d="M467.6,36.3c-0.2-0.3,0.3,0.3,0.4,0.4C468.2,37,467.7,36.5,467.6,36.3z"/>
				<path class="st3" d="M508.3,56.7c-0.4,0.9-0.6,1.1-0.7,0.9c0.5-1.3,0.9-2.7,1.1-2.5C508.5,55.8,508.2,56.5,508.3,56.7z"/>
				<path class="st3" d="M486.6,82.5c0.2-0.2-0.3,0.4-0.4,0.5C486,83.1,486.5,82.6,486.6,82.5z"/>
				<path class="st3" d="M499.1,69.8c0.2-0.2-0.2,0.4-0.3,0.5C498.5,70.4,499,69.9,499.1,69.8z"/>
				<path class="st3" d="M452.7,29.7c0.1-0.1,0.5-0.1,0.5,0C453.2,29.7,452.7,29.7,452.7,29.7z"/>
				<path class="st3" d="M460.8,31.4c0.1,0,0.5,0.2,0.5,0.2C461.1,31.7,460.7,31.5,460.8,31.4z"/>
				<path class="st3" d="M465.5,34.7c0.1,0,0.4,0.3,0.4,0.4C465.7,35,465.5,34.7,465.5,34.7z"/>
				<path class="st3" d="M499,69.7c-0.1,0.3-0.3,0.4-0.8,0.9C498.2,70.4,498.9,69.6,499,69.7z"/>
				<path class="st3" d="M443.7,33.1c0-0.1,0.5-0.4,0.9-0.7C444.6,32.5,444.1,32.8,443.7,33.1z"/>
				<path class="st3" d="M509.1,50.3c0.1-0.3,0.1,0.4,0,0.5C509.1,51.1,509,50.4,509.1,50.3z"/>
				<path class="st3" d="M447.2,70.8c0.2,0.3-0.4-0.3-0.5-0.4C446.6,70.2,447.1,70.7,447.2,70.8z"/>
				<path class="st3" d="M475.5,39c-0.2,0.2,0.2-0.4,0.3-0.5C476.1,38.3,475.6,38.9,475.5,39z"/>
				<path class="st3" d="M445.7,69c0.2,0.3-0.4-0.3-0.5-0.4C445,68.3,445.6,68.8,445.7,69z"/>
				<path class="st3" d="M448.8,30.7c0-0.1,0.6-0.2,0.9-0.3C449.8,30.5,449.2,30.6,448.8,30.7z"/>
				<path class="st3" d="M506.6,57.7c0.1-0.4,0.1-0.7-0.1-0.6c0.8-1.7,0.4-1.4,0.9-2.9C507.4,54.9,507.2,56.1,506.6,57.7z"/>
				<path class="st3" d="M430.2,49.4c0.3,2.4,0.8,4.3,1.4,5.7c-0.1,0,0,0.9,0.3,1.9c0.2,1,0.6,2,0.8,2.6c-0.2-0.3-0.4-0.6-0.7-1.2
					c-0.6-1.6-0.6-3-1-3.8c0.3,1.9,0.6,3.3,1,4.8c0.4,1.5,1.1,3.3,2.7,5.8c0.2,0.7,0.5,1.8,1.9,3.6c0.1,0,0.3,0,0.9,0.8
					c0.9,1.4,2,2.3,2.9,3.2c0.4,0.4,0.5,0.6,0.8,1c0.2,0.2,0.5,0.3,0.9,0.8c0.1,0.3,0.4,0.7,1.1,1.5c0.9,0.8,2.1,1.9,2.8,2.4
					c-0.9-1.2,1.2,0.6-0.9-1.7c-0.3-0.1,0.5,0.8-0.2,0.2c-0.4-0.4-0.5-0.5-0.9-0.8c-0.9-1.4-2.1-3-1.8-3.3c-1.1-1.2-1.1-1.8-2.3-2.9
					c-0.4-0.9-0.7-1.6-2.4-3.7c0.6,0.4-0.8-1.4-0.4-1.3c1.4,1.9,1.6,2.3,2.1,3.1c1.8,2,2.1,2.7,4,4.6c-0.2,0.1,1.5,2,2,2.3
					c0.1,0.3,1.1,1.4,0.6,1.2c1.5,1.7,1.1,0.8,2.3,2c0.3,0.6,1.5,1.9,1.9,2.4c0.1,0,0.6,0.5,0.4,0.5c1.6,1.7,1.4,1.1,2.8,2.5
					c0,0.2,0.7,0.8,0.8,1c-0.7-0.7-1.6-1.5-1.5-1.2c1.1,1.2,1.4,1.3,2.8,2.7c0.1,0,0.1-0.1,0.6,0.3c1.8,1.6,2.2,2,3.3,3
					c0.4,0.5,0.3,0.7,1.3,1.6c0.7,0.5,3.7,2.9,1.6,0.9c0.1,0.3-0.8-0.4-2-1.5c1.6,0.9-2.3-2.4-2.5-3.1c-0.4-0.1-1-0.6-2-1.5
					c-0.7-1,2.3,1.7,0.7,0.1c-1.6-0.9-2.2-2.3-4.5-4.4c0.7,0.3-0.5-0.8-0.6-1.1c0-0.5,0.6-0.8,2.7,1.6c0.1-0.1,0.5,0.2,1,0.7
					c1.4,1.5,0.5,0.8,1.5,2c1.4,1.4,1.2,0.9,1.9,1.5c-0.2,0,0.5,0.7,0.9,0.9c-1-0.9,0.7,0.4,0.2-0.3c2.2,2,2.9,2.1,4.2,3.2
					c1.5,1.6,2.2,1.9,4.7,4.5c-0.1,0.1-0.1,0.3,0.8,1.2c-0.7-1,1,0.2-1.2-2c-0.2-0.5,0.9,0.6,1.3,0.9c1.5,1.7,2.3,2.1,3.3,3
					c-1.1-1.3-3.9-4.1-5.3-5.7c0.9,1.3-0.2,0.3-1.4-0.6c0.7,0.6,0.6,1.1-0.1,0.4c-0.8-1-1.8-2.1-3.2-3.6c-1.1-1.1-1-0.7-2.2-1.8
					c-0.5-0.1,0.5,0.7,0.2,0.7c-0.8-1-1.1-1.1-1.8-1.6c-1.3-1.3-2.5-2.5-3.2-3.5c1,0.9,0.4-0.1,0.8,0c-0.9-1-1.5-1.7-2.2-2.6
					c-0.7-0.9-1.4-1.8-2.4-2.9c0.1,0,0.6,0.5,0.6,0.3c-1.4-1.4-2-1.8-3.5-3.3c0.3-0.1,2.3,2.2,2.8,2.3c-1.2-1.2-0.7-1.6-2.3-2.8
					c0.8,1-2-1.8-2.7-2.4c0.3,0.4,0.8,0.9,0.8,0.9c-1.8-1.9-1.5-0.9-2.5-1.7c-0.5-0.9-2.1-2.6-1.6-2.6c1.3,1.4,0.9,1.2,1.5,1.9
					c-0.2-0.6,0.3-0.3,0-0.8c-1.6-1.6-0.8-1-1.8-2.4c-1.4-1.1-3-2.9-4.3-5.1c-1.3-2.2-2.2-4.5-2.8-6c0-0.8-0.6-2.2-0.5-2.8
					c0.2,0,0.3,0.9,0.5,1.7c0.2,0.9,0.5,1.8,0.7,1.9c-0.4-1.1-0.4-1.6-0.4-2.1c0-0.5-0.1-1-0.3-2.3c-0.3-0.7-0.1,1.4-0.3,0
					c0-0.5,0.1-1.1,0.1-1.7c-0.5-1.7-1-3.2-0.8-5.5c0.2-0.2,0.4-1,0.8-2.1c0.4-1.1,0.9-2.4,1.6-3.5l0.1,0.1c0.7-1.1,0.5-1.1,1.5-2.3
					c-0.1,0.6,0.4,0.5,1.7-0.7c-0.2,0.2,0.2-0.2,0.4-0.4c0.2-0.2,0.3-0.1,0.8-0.7c-0.6,0.8,0,0.4,1.4-0.8c0-0.2-0.3-0.2-0.7,0
					c1.1-0.9,1.5-1.5,2.5-2.2c1-0.4,0.1,0.5,1.6-0.3c-0.4-0.2,0.3-0.5,1.3-0.8l-0.1-0.3c1.1-0.4,1.5-0.5,1.8-0.7
					c0.4-0.2,0.7-0.3,1.7-0.5c0.5,0,0.9,0.2,1.6,0.2c-0.1-0.2,0.6-0.2,1.5-0.1c0.9,0.1,1.8,0.3,2.1,0.4c0.5,0,1.1,0.1,1.6,0.2
					c0.5,0.1,1,0.3,1.4,0.6c-0.3-0.4,0.1-0.3,0.7-0.2c0.6,0.2,1.5,0.5,1.9,0.7c0.1,0.1-0.1,0.1,0.4,0.4c0.5,0.1,0.1-0.2-0.3-0.5
					c-0.3-0.3-0.7-0.5,0-0.1c-0.1,0.1,1.3,0.8,1.3,1c-0.3,0.1,0.6,0.8,1,1.3c0-0.2,0.3,0,0.6,0.3c0.2,0.1,0.3,0.3,0.5,0.5
					c0.2,0.2,0.4,0.4,0.6,0.6c0.1,0,0.1-0.1,0.5,0.3c0.9,1.1,1.4,1.3,2.7,3c1,1.7-1.3-0.6-0.6,0.5c0.5,0.5,1,0.8,1.5,1.2l3,2.1
					l1-2.1c0.4-0.8,0.8-1.7,1.5-2.8c1.3-1.8,1.8-1.9,2.3-2.5c-0.7,0.7,0-0.5,0.6-1c1.4-0.9,2.4-1.9,3.1-2.5c2.9-1.8,5.1-2,5.8-1.8
					c1.9-0.4,2.3-0.4,2.4-0.6c0-0.2-0.4-0.4-0.3-0.6c1.6,0.2,1.5-0.2,2.8-0.1c-0.1,0.1,0.3,0.1,0.7,0.2c0.4,0.1,0.9,0.2,0.9,0.3
					c-0.2,0.1-0.9-0.1-1.1,0c1.7,0.3,1.5,0,2.8,0.3c0.2,0.3,2,0.9,3.1,1.5c0.1,0,0-0.2,0.6,0c2.1,1,2.8,1.7,2.3,1.7
					c1.1,0.7,1.3,1,1.5,1.3c0.2,0.3,0.4,0.5,1.3,1.4c-0.3-0.8-0.6-1.3,0.8,0c0.7,0.9,0.1,0.6,0.8,1.5c0.1,0,0.1-0.2,0.5,0.3
					c0.3,0.4,0.6,1.1,0.9,1.7c0.3,0.6,0.5,1.1,0.5,1.4c-0.1,0-0.7-1.2-0.7-0.9c0.4,0.6,0.6,1.1,0.7,1.4c0.1,0.3,0.2,0.5,0.2,0.7
					c0,0.4,0.1,0.8,0.5,2c-0.1,0.4,0.2,2.4,0.2,3.3c0,0.7-0.3,0.1-0.2,1.1c0.2,0.3,0.4,1.8,0.4,3.1c0,1.3-0.2,2.5,0,2.3
					c-0.1,0.7-0.2,0.7-0.4,1.6c0.2,0,0.1,0.6-0.3,1.6c0.2,0,0,0.7-0.2,1.5c-0.3,0.8-0.7,1.7-0.8,2.2c-0.9,1-1.9,2.1-4,4.9
					c0,0.1,0.2,0-0.2,0.6c-0.8,1-1.3,1.3-1.7,1.6c0.8-1.3,0.6-1.6,1.5-3.2c1.2-1.7,1.3-2.3,1.9-3.5c-0.3,0.5-0.6,0.8-0.8,1.2
					c-0.2,0.4-0.4,0.7-0.5,0.9c-0.3,0.5-0.6,1-1.2,1.6c-0.2,0.5-0.3,0.9-1.2,2c0.7-0.5,0.1,0.3,0.4,0.3c-0.3,0.7-1.4,1.7-1.4,1.9
					c1-1-0.7,1.4-0.3,1.3c-0.7,0.9-0.8,1.2-1.8,2.3l0.2,0.2c-1.3,1.4-1,1.6-2.2,2.8c-0.1,0-0.4,0.3-0.9,0.8c-0.6,0.7-0.5,0.9-1,1.5
					c-2.1,1.7-5.2,4.7-6.7,5.6c-0.7,0.8-1.1,1.3-2,2.2c-0.1,0.3,0.2,0.2,0.6-0.1c-2.5,2.6-0.6,1.9-3.9,5c-0.4,0.6-1.4,1.8-1.1,1.9
					c-3.4,3.4-6,6.3-8.9,9.2c0.7-0.6,0.4-0.2,0.5-0.1c2.6-2.4,2.4-2.3,4.5-4.4c0.3,0.1,3.1-2.6,3.8-2.9c0.4-0.6,1.3-1,1.9-1.6
					c0.1-0.2,1.1-1.5,1.3-1.4c-0.4,0.5-1.2,1.4-0.8,1.3c1.5-1.3,3.1-3.3,2.3-2.2c1.7-1.7,1.8-2.1,3.7-3.6c0.1-0.1-0.1-0.1,0.4-0.6
					c3-2.7,2.9-2.7,5.5-5.3c-1.1,1.3,1.6-1.2,0.3,0.4c1.1-1,1.1-1.2,2.2-2.3c-0.1,0.1,0.5-0.4,1-0.8c0.7-0.7,1.5-1.8,2-2.4
					c1.6-1.8,3.1-3.6,5.1-6.3c0.1-0.1,0.1,0.1,0.5-0.4c0-0.2,0.8-1.1,1.1-1.5c-0.2-0.2,0.5-1.1,1.2-2.3c0.8-1.2,1.7-2.8,2.1-3.8
					c0.4-0.2,1.2-2.2,1.2-1.6c0.7-1.8,1.4-3.6,1.8-5.4c0.4-1.8,0.5-3.5,0.4-4.8c0.1,0.4,0.2-0.3,0.2-0.9c0-0.7,0-1.3,0.1-1.1
					c0.1,1.2,0,1.7,0.1,2c0-1.9,0.2-1.9,0.3-2.7c-0.2-2.1-0.6-3-0.7-2.6c0.2,1.3,0.3,1.3,0.5,2c-0.2-0.1-0.1,0.8-0.2,0.7
					c-0.1-0.9-0.3-1.8-0.4-2.6c-0.2,0.8-0.8-1.9-1-1.1c-0.4-1.6-0.7-1.9-1-2.4c0.4,1.3,0.7,3.1,0.8,4.5c-0.1,0.2-0.1,2.4-0.3,1.3
					c-0.2-2.5-0.7-4.4-2.1-7.2c0.2,0.2,0.2-0.1,0.1-0.4c-0.1-0.3-0.3-0.8-0.3-0.9c-1.5-2.9-3-4.5-3.5-5.5c0.6,0.6,1.1,1,1.6,1.4
					c0.4,0.4,0.8,0.8,1.2,1.5c0.1,0,0.1-0.3-0.2-0.7c0.6,0.9,1,1.3,1.3,1.9c0.4,0.5,0.7,1.1,1.2,2.1c0.3,0.9-0.2,0.2,0.3,1.3
					c0.2,0.1,0.7,1.2,1,1.8c-0.5-2,0.5-0.8,0.7,1.2c0.4,0.7,0.3,0.3,0.2-0.8c-0.2-0.8-0.4-1.4-0.6-1.9c-0.2-0.5-0.4-1-0.6-1.3
					c-0.4-0.7-0.7-1.2-1.1-1.7c0-0.3-0.3-0.9-0.9-1.9c0.1-0.1,0.3-0.1-0.6-1.3c-0.8-0.8-1.4-1.2-1.7-1.3c1.4,1.7,1.1,0.9,1.9,2
					c-0.2-0.1,1.4,2.3,0.9,1.9c-0.2-0.2-0.6-0.7-1.3-1.6c0.3,0.3,1.2,1.1-0.2-0.7c-1.3-1.6,0.3,0.6-0.2,0.2c-0.8-1-1.3-1.5-1.8-1.9
					c-0.4-0.4-0.8-0.8-1.5-1.5c0-0.3,1.1,0.5,0.9,0c0.6,0.5,2.5,2.2,1.2,0.7c-0.6-0.5-1.6-1.3-2.6-2c-1-0.8-2.2-1.4-3.1-1.8
					c-0.2-0.2-0.5-0.5-1.1-0.8c0,0.2-2.2-1-3.2-1.2c-0.2,0.2,1.6,1.1-0.8,0.3c-1.6-0.6,0.7-0.4-0.6-0.5c-0.8-0.2-0.8-0.1-0.7,0
					c-1.5-0.4-2.5-0.4-3.6-0.5c-1.1,0-2.2-0.1-3.9-0.1c0-0.1,0.3-0.1,0.6-0.2c0.3,0,0.7-0.1,0.8-0.1c-2.7,0.1-5.6,1-8.3,2.4
					c-1.3,0.7-2.6,1.6-3.8,2.5c-1.2,1-2.3,1.9-3.3,3c-1.4,1.3-2.8,3.1-4.2,4.6l3.5,0.1c-1.2-1.4-2.3-3.1-3.4-4.4
					c-0.8-0.8-0.9-0.6-1.6-1.2c-1.1-1.1-1.6-1.4-2-1.7c-0.2-0.1-0.5-0.3-0.8-0.5c-0.3-0.2-0.8-0.5-1.5-0.9c0-0.1-0.4-0.4-0.5-0.5
					c1.2,0.6,2.2,0.5,1.6-0.1c-0.3,0.2-0.4-0.2-1.2-0.7c-0.1,0,0,0.2-0.7-0.1c-0.3-0.6,1-0.1,1-0.4c-2.3-1-0.3-0.4-1.8-1.2
					c-1-0.2-2.3-0.7-4.1-1.2c-0.1,0.1,0,0.3-1.5-0.1c-1.5-0.6,1.5,0.1,0.1-0.4c-3-0.5-0.7,0.2-0.8,0.3c-1-0.1-1.6-0.1-2.1-0.1
					c0.3-0.1,0.9-0.1,0-0.2c-1.1,0-1.7,0-2.4,0.1c-0.6,0.1-1.3,0.1-2.6,0.4c-0.4,0.2,0.9,0.3-0.6,0.5c-0.8,0.2-1.5,0.3-2,0.5
					c-0.5,0.2-0.9,0.3-1.3,0.5c-0.4,0.1-0.8,0.3-1.3,0.6c-0.5,0.3-1.2,0.5-1.9,1c-0.9,0.7-0.2,0.7-1.9,2c-0.4,0.1-1.2,0.7-1.9,1.4
					c-0.7,0.7-1.4,1.4-1.7,1.5l-0.1-0.1c1.5-1.4,2.6-2.3,3.1-3c0.5-0.6,0.6-0.8,0.1-0.6c-1.4,1.2-2.8,2.9-3.6,3.2
					c-0.5,0.7-0.4,0.8,0.3,0.3c-1.2,1.2-1.5,1.9-2,2.8c-1.4,1.9-1.9,3.1-2.2,4.2c-0.3,1.1-0.6,2.1-1.1,4c-0.5,1-0.9,3.5-1,5.3
					c0-0.4-0.1-0.8-0.1,0C430.3,47.7,430.1,48.3,430.2,49.4z M494.2,24.7c1.1,0.2,2.2,0.5,3.3,0.8c0.1,0.3,1.3,0.8,1.7,1.2
					c1.1,0.3,1.8,0.5,2.6,0.7c0.8,0.5,0.5,0.5,0.1,0.4c-0.4-0.1-1-0.3-1-0.1c-1.3-0.7-1.7-0.7-2.2-0.8c-0.2-0.1-0.5-0.1-0.9-0.2
					c-0.4-0.1-0.9-0.3-1.8-0.5c-0.4-0.4,1.3,0,0.1-0.5c-0.9-0.1-2.2-0.2-3.7-0.2c-1.5,0-3.2,0.2-4.8,0.5c-0.6-0.2,0.5-0.5,1.9-0.6
					c-0.9,0-1-0.3,0-0.5c1.9,0-1,0.3,0.7,0.3c0.5-0.1,1-0.2,1.6-0.3c0.6-0.1,1.3,0,2.4,0.3L494.2,24.7z M433.9,61.8
					c0.3,0.8,0.1,0.3-0.3-0.4c-0.3-0.7-0.7-1.7-0.7-2c-0.7-1.9-0.6-2.1-1.2-4.4c0.1-0.4,0-1.3-0.2-2.6c0.1,0.5,0.3,0.6,0.4,0.6
					c0.3,1.4,0.3,1.7,0.8,3c-0.1-0.6-0.4-1.6-0.6-2.5c-0.3-1-0.5-1.9-0.6-2.4c-0.1-1.5-0.1-2.4,0-4.4c0.1,0.3,0.1,1.4,0.2,2.4
					c0.1,1,0.2,2.1,0.4,2.6c0.2,1.9,0.4,1.8,0.8,3.6c0,0.5,0.2,1.1,0.4,1.8c-0.3,0.1-0.8-1.6-1-1c0.4,1.5,1,3.9,1.3,4.3
					C434.4,62.1,433.1,60.3,433.9,61.8z M472.6,35.4c0.5,0.7,0.6,1.1,0.4,1.2c-0.9-1.2-1.2-1.7-2-2.3
					C470,32.7,472.4,35.5,472.6,35.4z M506.8,67.4c0.2-0.2-0.2,0.4-0.3,0.5C506.3,68.2,506.7,67.6,506.8,67.4z M485.7,88.6
					C484.2,90.2,486.7,87.3,485.7,88.6L485.7,88.6z M465.2,29.5c0.1-0.1,0.7,0.4,1.1,0.7C466.2,30.2,465.6,29.7,465.2,29.5z
					 M466.8,30.5l1,0.8l-0.1,0.1l-1-0.8L466.8,30.5z M435.1,61.9c-0.9-1.6-0.3-1.1-0.3-1.3c0.5,1,0.5,1.2,1.1,2.2
					C435.6,62.6,435.1,61.7,435.1,61.9z M453,81.1l0.2-0.2c0.8,0.8,1.5,1.3,1.9,1.5c1.2,1.2-0.1,0.2-1-0.7
					C453.9,81.7,454.3,82.4,453,81.1z M451.8,79.7c0.2,0.3-0.4-0.2-0.5-0.4C451.2,79.1,451.7,79.6,451.8,79.7z M450.1,78
					c-0.7-0.8-0.9-1.1-0.6-1.1C450.8,78.3,450.9,78.6,450.1,78z M436.1,61.4c-0.9-1.9-1.5-3.8-1.2-4c0.7,2.2,0.8,2,1.3,3.3
					C434.8,58.4,436.7,61.9,436.1,61.4z M452.9,80.4c0.2,0.2-0.4-0.2-0.5-0.4C452.2,79.8,452.8,80.3,452.9,80.4z M510.2,40.5
					c0.1,0.1,0.2,0.5,0.2,0.6C510.2,41,510.1,40.5,510.2,40.5z M456.8,84.1c-1.3-1.1-1-1.5,0.1-0.2L456.8,84.1z M434.1,55.1
					C434.3,56.8,433.9,53.3,434.1,55.1L434.1,55.1z M495.5,27.9c0.2-0.1,1.2,0.2,1.1,0.3C496.1,28.1,495.6,28,495.5,27.9z
					 M506.5,34.5c0.9,1,0.4,0.7,1,1.5c-0.2,0-0.5-0.5-0.7-0.9C506.4,34.7,506.2,34.3,506.5,34.5z M485.2,28.5
					c0.9-0.2,2.4-0.6,4.5-0.8c0,0.2-0.5,0.3-1.3,0.3c-0.8,0.1-2,0.3-3.1,0.8L485.2,28.5z M486.8,28.1c-0.3,0,0.4-0.2,0.5-0.2
					C487.7,27.8,487,28,486.8,28.1z M510,42.4c0.2,0.1,0.4,1.1,0.3,1.1C510.2,43,510,42.5,510,42.4z M474.5,37.4
					c-0.2,0.2,0.2-0.4,0.3-0.5C475,36.6,474.6,37.2,474.5,37.4z M484.8,29.1c0.5-0.1,1-0.3,1.1-0.4c0.9-0.3,1,0.1,0.1,0.3l-1.1,0.4
					L484.8,29.1z M510.5,44c0.1,0.5,0.1,0.9,0.2,1.7c-0.1,0.7-0.4-1.8-0.5-1.1C509.9,43.5,510.4,44.4,510.5,44z M509.5,41.3
					c0.1,0,0.3,0.6,0.4,1.1C509.8,42.4,509.6,41.8,509.5,41.3z M477,34.8c-0.2,0.2,0.2-0.4,0.3-0.5C477.6,34.2,477.1,34.7,477,34.8z
					 M506.3,62.6c0.2-0.2-0.2,0.4-0.3,0.5C505.8,63.3,506.1,62.7,506.3,62.6z M434.5,44.7c-0.1,0.3,0-0.4,0-0.6
					C434.7,43.9,434.6,44.6,434.5,44.7z M444.2,69.5l-0.8-0.9l0.2-0.2c0.3,0.4,0.6,0.8,1.1,1.4C444.6,69.8,444.2,69.5,444.2,69.5z
					 M508.8,56.9c0.1-0.3,0,0.4-0.1,0.6C508.6,57.7,508.8,57,508.8,56.9z M445.9,71.2c0.1-0.2,0.5,0.2,1.4,1.2
					C446.8,71.9,446.9,72.4,445.9,71.2z M434.6,47c-0.1,0.3-0.1-0.4,0-0.6C434.6,46.1,434.7,46.8,434.6,47z M448.4,29.4l1.1-0.3
					l0,0.2l-1,0.3L448.4,29.4z M509.6,54.2c-0.2,0.1,0-0.8,0.2-2.2C510,52,510,53.3,509.6,54.2z"/>
				<path class="st3" d="M445.7,77.2c-0.4-0.6-1.7-1.9-1.5-2C444.7,75.8,445.9,77.1,445.7,77.2z"/>
				<path class="st3" d="M467,95c-0.6-0.6,0-0.2,0.5,0.3c-0.2-0.5,0.2-0.4,1,0.2c0.8,0.8,0.3,0.7,0.8,1.4
					C468.1,95.8,467.7,95.6,467,95z"/>
				<path class="st3" d="M504.1,34.4c0.8,0.5,0.6,0.9,1.3,1.7c-0.2-0.1-0.4-0.4-0.7-0.8C504.5,35,504.2,34.6,504.1,34.4z"/>
				<path class="st3" d="M457.9,30.2c1.3,0.4-0.7-0.1-0.1,0.3C456.6,30.1,457.7,30.2,457.9,30.2z"/>
				<path class="st3" d="M454.8,29.8C456.4,29.7,453.4,29.9,454.8,29.8L454.8,29.8z"/>
				<path class="st3" d="M506.8,57.8C506.3,59.3,507.2,56.4,506.8,57.8L506.8,57.8z"/>
			</g>
		</g>
	</g>
</g>
</svg>
