<svg xmlns="http://www.w3.org/2000/svg" viewBox="0 0 80.55 78.43"><title>illustration</title><path d="M5,49.54a5.3,5.3,0,0,0,.25,1.67,9.76,9.76,0,0,1,.33,1.49c.08.65.11,1.26.2,1.83L6,56.17c.18,1,.24,2,.47,2.93a4.23,4.23,0,0,1,.56,1.28c.27.58.33-.05.64.74L8,62c.25,0,.64.54,1.09,1.3l.71,1.25.36.66.41.61c.47,1.19,1.5,3.08,2,4.1a46.07,46.07,0,0,0,7.21,7.64c.72.5,1,.55,1.93,1.23.42.29.8.62,1.21.89l1.18.79a10.49,10.49,0,0,0,2.24,1.24,3.1,3.1,0,0,0,.71.63,11.27,11.27,0,0,1,2,.74c.76.34,1.5.47,1.53.28a19.56,19.56,0,0,0-3.56-2c.18-.08-.15-.3-.48-.52s-.63-.5-.45-.56c.76.45,1.67.8,2.5,1.2L29.9,82a10,10,0,0,0,1.14.37c.81.39,1.48.68,2.23,1s1.6.53,2.75.93c0-.25.67-.18,1.29-.13s1.23,0,1.05-.32a5.38,5.38,0,0,1-2-.58,10.33,10.33,0,0,0-1.28-.62c.05-.16,1.16.19.92-.12a17.46,17.46,0,0,0-1.73-.28,11.56,11.56,0,0,1-1.64-.39c.19-.14-1.13-.52-1.12-.68s-.33-.47-.7-.74a4.94,4.94,0,0,1-.9-.88,6.4,6.4,0,0,1,1.07.24l.59.14c.41.17.82.33,1.23.48a.41.41,0,0,0,.19.39,14.6,14.6,0,0,0,1.71.68c.56.18,1,.36,1,.51.72.12,1.34.26,1.89.38a9,9,0,0,0,1.43.17c-1.53-.31,0-.31.48-.36a8.35,8.35,0,0,1,2,.44,7.53,7.53,0,0,0,1.7.3c.46-.12,1-.21,1.48-.34l.61,0a36.69,36.69,0,0,0,4.89-.34,16,16,0,0,0,1.82.12c-.49.33-.95.66-1.15.78-.62.1-1.2.17-1.74.24l-1.52,0a7.27,7.27,0,0,0-2.24.34c1.28,0-.41.2,0,.34a12.27,12.27,0,0,1,2.58.13,7.28,7.28,0,0,0,2.22.13c0,.15,2-.45,2.61-.31-.35.15-.53.32-.36.49,2.95-.72,4.7-.95,6.29-1.34a15.18,15.18,0,0,0,2.42-.66,20.43,20.43,0,0,0,2.8-1.47,23.85,23.85,0,0,0,4-2c1.42-1,3-2,4.14-3-.17-.34-.88.05-1.23,0,.54-.57.94-1.07,1.33-1.55s.78-1,1.21-1.57c.51-.23.45-.1,1.31-1.19.21,0,.95-.77,1.14-.78-.3.42-.21.46-.08.51a16.16,16.16,0,0,1,1.16-1.37c-.67.19-.86,0-.49-.92a17.12,17.12,0,0,1,1-1.41c.33-.49.69-1,1.06-1.46l1.14-1.54c.34-.56.67-1.16,1-1.8A5,5,0,0,0,80.9,62a12.83,12.83,0,0,1,.52-1.48,11.41,11.41,0,0,0,1.17-2.15,15.41,15.41,0,0,0,.87-3.25,3.46,3.46,0,0,0,.83-1.81c.12-.48.23-1,.34-1.69a12.58,12.58,0,0,0,.24-2.17,23.83,23.83,0,0,0,.68-5c-.17-1.18-.49.37-.54-.43.22-.88-.2-2-.37-3.14s-.29-2.19-.45-3.06-.29-1.62-.38-2.31a8.07,8.07,0,0,0-.38-1.18c-.15-.29-.29-.54-.45-.94a7.23,7.23,0,0,0-.54-2.22,17.87,17.87,0,0,0-1.63-2.74,8.62,8.62,0,0,0-.52-1.26,10,10,0,0,1-.63-1.2c.66.75.21-.19.13-.61-.47-.73-.84-1.37-1.23-1.9L77.44,22l-1.06-1.36c-.41-.44-.86-.88-1.38-1.4-.5.11,0,1.12-.63.58-1-1-.2-.82-1.28-1.87a11.49,11.49,0,0,1-1.59-1.37l-1.06-1-1.05-.89a4.7,4.7,0,0,1-1.69-.73A16.14,16.14,0,0,0,65,11.83c-.5-.37-1-.71-1.36-1s-.6-.5-.6-.66c-1.1-.43-1.85-.84-2.62-1.1S58.94,8.57,58,8.28c0-.11-.06-.25-.81-.47a13.19,13.19,0,0,1-2.61-.43c-.47-.1-1-.26-1.51-.33s-1.11-.14-1.73-.18c-.93-.21-2-.47-2.67-.59-.4.23-1.46-.13-2.27-.12,0,.21-.13.37-.48.49a4.73,4.73,0,0,1-.7.14c-.29.06-.64.11-1.06.15-3,0-4.06-.19-7.19.32,0,.14.22.27-.36.44-.89.2-.91,0-1.81.2-.59.21,0,.34-.78.56-3.8,1.25-5.44,1.23-9.15,3.7A16.52,16.52,0,0,0,22,13.66,12,12,0,0,0,20,15.43a10,10,0,0,0-1.8,1.39c.09.09,0,.29-.22.6s-.62.71-1,1.33c.36.08-.35,1-.82,1.67.25,0,.71-.3.74.07a10.78,10.78,0,0,0-1.1,1.34A10.28,10.28,0,0,0,14,23.77,4.85,4.85,0,0,0,12.67,25c-.44.76-1.29,1.43-1.3,1.8.94-1.08-.4,1.39-.58,2.19a12.12,12.12,0,0,0-1.73,3.55c-.13-.08-.28,0-.47.3A11.6,11.6,0,0,1,7.9,34.5c-.28-.09-.67,1.67-1,2l-.39,1.52c-.11.51-.17,1-.26,1.55L6,41.18a11.7,11.7,0,0,0-.18,1.56c-.16,1.08-.34,2.17-.42,3.59A9.62,9.62,0,0,0,5,49.54ZM20.43,76.12c.2-.17.17-.57.78-.26l1.39,1c.37.49,0,.64.3,1.08C22.07,77.36,21.24,76.76,20.43,76.12Zm32.09,6.8c.16-.15.37,0,.83-.18C53.27,82.88,52.54,83,52.52,82.92ZM68.94,17.31c.15.17-.31-.1-.39-.19S68.86,17.22,68.94,17.31Zm-6.71-4.45c.51.27.22.34.22.49C61.1,12.77,61.93,12.78,62.23,12.85Zm-.77-.37c.18.14-.32,0-.42-.11S61.37,12.41,61.46,12.49Z" transform="translate(-4.99 -6.16)" style="fill:#f5ae1b;fill-rule:evenodd"/><path d="M44.89,78A32.41,32.41,0,1,1,77.3,45.55,32.45,32.45,0,0,1,44.89,78Zm0-62.59A30.18,30.18,0,1,0,75.07,45.55,30.21,30.21,0,0,0,44.89,15.37Z" transform="translate(-4.99 -6.16)" style="fill:#fff"/><path d="M45.45,29.56v11a.84.84,0,0,0,.51.77,3.41,3.41,0,1,1-2.72,0,.84.84,0,0,0,.51-.77v-11a.85.85,0,0,0-1.55-.49L34.82,39.6a8.47,8.47,0,0,0-1.31,6.8l2.54,10.9h17.4l2.21-10.9a8.47,8.47,0,0,0-1.31-6.8L47,29.07A.85.85,0,0,0,45.45,29.56Z" transform="translate(-4.99 -6.16)" style="fill:#fff"/><path d="M70.71,43.37A25.69,25.69,0,0,0,47,20.29V18.73H42.58v1.62a25.7,25.7,0,0,0-22.93,23,2.22,2.22,0,1,0,1.49.08,24.21,24.21,0,0,1,21.44-21.6v1.35H47V21.78A24.2,24.2,0,0,1,69.23,43.44a2.25,2.25,0,1,0,1.49-.08Z" transform="translate(-4.99 -6.16)" style="fill:#fff"/><path d="M36.12,58.81H53.46v2.57a8.73,8.73,0,0,1-3.58,7.05l-5.09,3.72L39.7,68.43a8.73,8.73,0,0,1-3.58-7.05Z" transform="translate(-4.99 -6.16)" style="fill:#fff"/></svg>