<svg xmlns="http://www.w3.org/2000/svg" viewBox="0 0 80.55 78.43"><title>logodesign</title><path d="M85.21,40.8A5.3,5.3,0,0,0,85,39.13a9.76,9.76,0,0,1-.33-1.49c-.08-.65-.11-1.26-.2-1.83l-.27-1.64c-.18-1-.24-2-.47-2.93A4.23,4.23,0,0,1,83.14,30c-.27-.58-.33.05-.64-.74l-.32-.86c-.25,0-.64-.54-1.09-1.3l-.71-1.25L80,25.15l-.41-.61c-.47-1.19-1.5-3.08-2-4.1a46.07,46.07,0,0,0-7.21-7.64c-.72-.5-1-.55-1.93-1.23-.42-.29-.8-.62-1.21-.89L66,9.91a10.49,10.49,0,0,0-2.24-1.24A3.1,3.1,0,0,0,63.09,8a11.27,11.27,0,0,1-2-.74c-.76-.34-1.5-.47-1.53-.28a19.56,19.56,0,0,0,3.56,2c-.18.08.15.3.48.52s.63.5.45.56c-.76-.45-1.67-.8-2.5-1.2l-1.23-.54A10,10,0,0,0,59.17,8c-.81-.39-1.48-.68-2.23-1S55.34,6.45,54.2,6c0,.25-.67.18-1.29.13s-1.23,0-1.05.32a5.38,5.38,0,0,1,2,.58,10.33,10.33,0,0,0,1.28.62c-.05.16-1.16-.19-.92.12a17.46,17.46,0,0,0,1.73.28,11.56,11.56,0,0,1,1.64.39c-.19.14,1.13.52,1.12.68s.33.47.7.74a4.94,4.94,0,0,1,.9.88,6.4,6.4,0,0,1-1.07-.24l-.59-.14c-.41-.17-.82-.33-1.23-.48a.41.41,0,0,0-.19-.39,14.6,14.6,0,0,0-1.71-.68c-.56-.18-1-.36-1-.51-.72-.12-1.34-.26-1.89-.38a9,9,0,0,0-1.43-.17c1.53.31,0,.31-.48.36a8.35,8.35,0,0,1-2-.44,7.53,7.53,0,0,0-1.7-.3c-.46.12-1,.21-1.48.34l-.61,0A36.69,36.69,0,0,0,40,8.07a16,16,0,0,0-1.82-.12c.49-.33.95-.66,1.15-.78.62-.1,1.2-.17,1.74-.24l1.52,0a7.27,7.27,0,0,0,2.24-.34c-1.28,0,.41-.2,0-.34a12.27,12.27,0,0,1-2.58-.13,7.28,7.28,0,0,0-2.22-.13c0-.15-2,.45-2.61.31.35-.15.53-.32.36-.49-2.95.72-4.7.95-6.29,1.34a15.18,15.18,0,0,0-2.42.66,20.43,20.43,0,0,0-2.8,1.47,23.85,23.85,0,0,0-4,2c-1.42,1-3,2-4.14,3,.17.34.88-.05,1.23,0-.54.57-.94,1.07-1.33,1.55s-.78,1-1.21,1.57c-.51.23-.45.1-1.31,1.19-.21,0-.95.77-1.14.78.3-.42.21-.46.08-.51a16.16,16.16,0,0,1-1.16,1.37c.67-.19.86,0,.49.92a17.12,17.12,0,0,1-1,1.41c-.33.49-.69,1-1.06,1.46l-1.14,1.54c-.34.56-.67,1.16-1,1.8a5,5,0,0,0-.32,1.06,12.83,12.83,0,0,1-.52,1.48A11.41,11.41,0,0,0,7.62,32a15.41,15.41,0,0,0-.87,3.25,3.46,3.46,0,0,0-.83,1.81c-.12.48-.23,1-.34,1.69a12.58,12.58,0,0,0-.24,2.17,23.83,23.83,0,0,0-.68,5c.17,1.18.49-.37.54.43-.22.88.2,2,.37,3.14s.29,2.19.45,3.06.29,1.62.38,2.31A8.07,8.07,0,0,0,6.8,56c.15.29.29.54.45.94a7.23,7.23,0,0,0,.54,2.22,17.87,17.87,0,0,0,1.63,2.74,8.62,8.62,0,0,0,.52,1.26,10,10,0,0,1,.63,1.2c-.66-.75-.21.19-.13.61.47.73.84,1.37,1.23,1.9l1.1,1.46,1.06,1.36c.41.44.86.88,1.38,1.4.5-.11,0-1.12.63-.58,1,1,.2.82,1.28,1.87a11.49,11.49,0,0,1,1.59,1.37l1.06,1,1.05.89a4.7,4.7,0,0,1,1.69.73,16.14,16.14,0,0,0,2.66,2.08c.5.37,1,.71,1.36,1s.6.5.6.66c1.1.43,1.85.84,2.62,1.1s1.51.54,2.49.83c0,.11.06.25.81.47a13.19,13.19,0,0,1,2.61.43c.47.1,1,.26,1.51.33s1.11.14,1.73.18c.93.21,2,.47,2.67.59.4-.23,1.46.13,2.27.12,0-.21.13-.37.48-.49a4.73,4.73,0,0,1,.7-.14c.29-.06.64-.11,1.06-.15,3,0,4.06.19,7.19-.32,0-.14-.22-.27.36-.44.89-.2.91,0,1.81-.2.59-.21,0-.34.78-.56,3.8-1.25,5.44-1.23,9.15-3.7a16.52,16.52,0,0,0,2.79-1.52,12,12,0,0,0,2.07-1.77A10,10,0,0,0,72,73.52c-.09-.09,0-.29.22-.6s.62-.71,1-1.33c-.36-.08.35-1,.82-1.67-.25,0-.71.3-.74-.07a10.78,10.78,0,0,0,1.1-1.34,10.28,10.28,0,0,0,1.77-1.94,4.85,4.85,0,0,0,1.28-1.25c.44-.76,1.29-1.43,1.3-1.8-.94,1.08.4-1.39.58-2.19a12.12,12.12,0,0,0,1.73-3.55c.13.08.28,0,.47-.3a11.6,11.6,0,0,1,.69-1.64c.28.09.67-1.67,1-2l.39-1.52c.11-.51.17-1,.26-1.55l.24-1.56a11.7,11.7,0,0,0,.18-1.56c.16-1.08.34-2.17.42-3.59A9.62,9.62,0,0,0,85.21,40.8ZM69.78,14.22c-.2.17-.17.57-.78.26l-1.39-1c-.37-.49,0-.64-.3-1.08C68.14,13,69,13.58,69.78,14.22ZM37.69,7.42c-.16.15-.37,0-.83.18C36.94,7.46,37.67,7.32,37.69,7.42ZM21.27,73c-.15-.17.31.1.39.19S21.35,73.12,21.27,73ZM28,77.48c-.51-.27-.22-.34-.22-.49C29.11,77.57,28.28,77.56,28,77.48Zm.77.37c-.18-.14.32,0,.42.11S28.84,77.93,28.75,77.85Z" transform="translate(-4.67 -5.75)" style="fill:#f5ae1b;fill-rule:evenodd"/><path d="M44.95,77.38A32.41,32.41,0,1,1,77.36,45,32.45,32.45,0,0,1,44.95,77.38Zm0-62.59A30.18,30.18,0,1,0,75.13,45,30.21,30.21,0,0,0,44.95,14.79Z" transform="translate(-4.67 -5.75)" style="fill:#fff"/><path d="M66.71,37.28c-.2-7.35-3.67-15-16.52-17a15.74,15.74,0,0,0-16.1,6.81h0s-1.16-.5-2.71,2.37a1.5,1.5,0,0,0-1.7,2.46,2.41,2.41,0,0,1-.37-.09.76.76,0,0,0-.47,1.41,12.31,12.31,0,0,0,2.55.74,7.5,7.5,0,0,0-1.7,1.74s-.36.77.85,1.33c0,0,.28.23,0,.36s-.57-.27-1.21.82c0,0-.21.23,0,.93,0,0-.34.15-1.63,2.32a1.23,1.23,0,0,1-.16.74,1.64,1.64,0,0,0-.4.5q-.71-.26-1.45-.57a.57.57,0,0,0-.75.29h0a.57.57,0,0,0,.17.78l.11.06.68.27-1,3.29L24,46.49a.52.52,0,0,0-.71.19l0,.05c-.24.5.45.95,1,1.13l.24.1-.73,2.35a.57.57,0,0,0,0,.43c.46.93,2.84,2.17,6.24,2.17,3.76,0,4.33-2.37,4.33-2.37s.05-.2.15-.54h.31a14.45,14.45,0,0,1,.71,5.38s-.18.45-1.42.06a.6.6,0,0,0,0,.4s-.38.13-1.37-.48c0,0,.19,1.7,2.9,2.27a2,2,0,0,0,.57.76s-.19.89.62,1a6.7,6.7,0,0,0,4.13-.71A34.42,34.42,0,0,0,40.84,63c.27,2.7,2.62,6.9,2.62,6.9,3.91-7,7.73-9,7.73-9a10.47,10.47,0,0,0,3.91-2.71,5.28,5.28,0,0,1-.94,2.41s2.84-1.65,5-7.38a4.93,4.93,0,0,1,0,1.49A4.71,4.71,0,0,0,60.53,52a10.75,10.75,0,0,1,1,.9l1.74-1.62,1.16-3.53L64,47.09A19.87,19.87,0,0,0,66.71,37.28ZM27,44l.49.18a6.24,6.24,0,0,0,.41,2.27,7.15,7.15,0,0,1,.69-1.87l1.23.41a5.19,5.19,0,0,0,.65,2.77s.37-1.75,1.07-2.08c0,0,1.3,1.58,2.17,2.68l-.11.33a27.52,27.52,0,0,1-7.64-1.41Zm3.86,7.6a7.33,7.33,0,0,1-5.46-1.1.61.61,0,0,1-.25-.7l.43-1.36a27.52,27.52,0,0,0,7.57,1.54A3.1,3.1,0,0,1,30.85,51.55Z" transform="translate(-4.67 -5.75)" style="fill:#fff"/></svg>