<?xml version="1.0" encoding="utf-8"?>
<!-- Generator: Adobe Illustrator 21.0.2, SVG Export Plug-In . SVG Version: 6.00 Build 0)  -->
<!DOCTYPE svg PUBLIC "-//W3C//DTD SVG 1.0//EN" "http://www.w3.org/TR/2001/REC-SVG-20010904/DTD/svg10.dtd">
<svg version="1.0" xmlns="http://www.w3.org/2000/svg" xmlns:xlink="http://www.w3.org/1999/xlink" x="0px" y="0px"
	 viewBox="0 0 994 600" enable-background="new 0 0 994 600" xml:space="preserve">
<g id="Layer_2">
</g>
<g id="Layer_1">
	<path fill="#FFFFFF" d="M621.8,293.8c1.5,0,1.2-0.1-1.5-0.1c-1.7,0.2-1.7,0.2,0,0.4c-4.4,0.1-6.6,0.3-13.2,0.3
		c1.6-0.4-5.2-0.4-1.5-0.6h-7.4c-2,0.3,7.8,0.2,2.9,0.4c-10.4,0.1-12.5-0.3-19.1-0.4c-6.8,0.4-15.4,0.1-23.5,0.3
		c0.5-0.2-2-0.2-2.9-0.3c-8.5-0.2-17.6,0.2-26.5-0.1c-3.7,0-4.6,0.2-7.3,0.2c-5.9-0.6-15.6,0-22,0.2c-2.9-0.1-8.9-0.4-11.8-0.2
		c2.4,0,2.4,0.5,0,0.5c-4.6-0.3-16.2-0.2-23.5-0.4c-4.9,0.2-13.1-0.2-20.6,0c-0.5-0.2-4.5-0.2-5.9-0.4c-5.4,0.2-8.8-0.1-16.2,0
		c-2,0-1.4-0.2-3-0.2c-1,0.1-3.1,0.2-5.9,0.2c-14.4-0.1-15.7,0-30.9,0c0,0.5-6.9,0.5-11.8,0.6c-2.4-0.2-7.9-0.2-7.4-0.6
		c-7.4-0.1-15.9-0.2-22-0.4c-3.8,0.5-14-0.3-20.6,0.1c-3-0.2-15.2-0.4-17.6,0c-2-0.3-8.2-0.2-11.8-0.4c-1,0.1-2,0.1-2.9,0.1
		c-4.9,0.2,3.6,0.4,0,0.5c-6.8,0-9.8-0.2-16.2-0.2c-3.4,0.4-6.9,0.6-10.3,0.6c-2-0.1-5.5-0.1-5.9-0.3c3.1-0.2,1.1-0.7-1.5-0.8
		c-4.6,0-3.3,0.3-8.8,0.2l-13.2-0.3c-9.4,0.1-13.5,0.2-23.5,0.1c-1.2,0.3,2.1,0.3,1.5,0.5c-3.8,0.2-6.5,0.6-11.8,0.7h-5.9
		c-5.7,0.2-11.6,0.2-20.6,0.4c-4.9-0.3-14.6-0.2-17.6-0.6c-10.7,0.1-15.6-0.3-23.5-0.4c-1.5,0-3,0.1-4.4,0.4c-1.7,0-4.2,0-4.4,0.1
		c4.5,0.1-0.7,0.3-1.5,0.4c2.6,0,3.3,0.2,2.9,0.4c-3.6,0-7.1,0-8.8,0.1c0.2-0.2-1.5-0.2-4.4-0.2c2.6,0.2-0.2,0.6,1.5,0.7
		c2.4-0.2,4.9-0.3,7.3-0.3c0.8,0.2,2.2,0.2,2.9,0.4c-6.3,0.1-1.3,0.4-5.9,0.6c-0.3,0.2,1.7,0.2,1.5,0.4c-2.9-0.2-5.9-0.1-8.8,0.2
		c6.7,0.2,2,0.3,0,0.6c8.4,0.2,11,0.8,17.6,1.2c-1.9,0.3-3.7,0.6-4.4,0.7c-8.6,0-15.2-0.2-19.1,0.2c4.4,0.1-1.4,0.2,0,0.4
		c8.4,0,9.5,0.5,16.2,0.7c0,0.2,6.9-0.2,8.8,0.1c-1.2,0.1-1.9,0.3-1.5,0.5c20.1-0.2,23.2,1.2,39.7,0.6c7,0.4,21.1,0.4,30.9,0.7
		c0.3-0.4-2.3-0.6-2.9-1c5.1-0.1,8.3-0.4,13.2-0.6c1.7,0.3,1.3,0.3,5.9,0.2c0.4,0.2,4,0.2,4.4,0.4c-1.7,0-1.6,0.2-1.5,0.3
		c2.6,0,4.6,0,5.9,0.1c-1.8-0.5-1.9-0.8,1.5-1.1c7.8-0.2,15.5,0.4,25,0.5c3.6-0.1,3.1-0.4,8.8-0.3c6.4,0.5,12.7,0.6,19.1,0.4
		c1.9,0.5,8.6,0.7,19.1,0.6c4.7,0.3,10.2,0.5,16.2,0.7c3.8-0.1-1.1-0.6,1.5-0.6c2.8,0.3,6.4-0.2,10.3-0.1c7.8,0,13.1,0.1,17.6,0.3
		c3.6,0,4.5-0.2,7.4-0.2c2.4,0.2,4.9,0.3,7.4,0.3c3.2-0.1,8.3-0.2,10.3-0.4c1.9,0.1,6.9,0.1,8.8,0.2c-3.2,0.2,0.2,0.3,1.5,0.5
		c11.1-0.1,15.6,0,25-0.2c0.8-0.5-2.8-0.9,0-1c4.7,0,2.4,0.4,7.4,0.4c2.1-0.2,10.8,0,16.2,0.1c1.9-0.3,3.9-0.5,5.9-0.5
		c4.9,0.4,18.2,0.3,19.1,1c7.6-0.2,11-0.1,17.6-0.2c0.2,0.1,0.4,0.2,3,0.2c5.1-0.4,11.2-0.2,19.1-0.4c3.1,0.1,6.5,0.2,8.8,0.3
		c1.2-0.3,4.7,0.1,7.4,0c-0.2-0.5,1.8-0.8,7.4-0.9c9.9,0.1,13.2,0.6,23.5,0.6c0.2-0.1-0.5-0.4,1.5-0.4c3,0,2.9,0.3,5.9,0.3
		c2-0.1,0.2-0.4,2.9-0.4c13.2,0,17.9,0.7,32.3,0.4c3.7,0.1,5.8,0.3,10.3,0.3c5.1,0.1,6.2-0.1,8.8-0.2c2.8,0,2.7,0.3,7.4,0.2
		c0-0.3,2.5-0.4,7.4-0.6c-0.7-0.4,3.1-0.4,5.9-0.6c-0.5-0.2-2.3-0.4-1.5-0.7c2.6,0,4.6,0,5.9-0.1c2.5,0.1,3.9,0.3,8.8,0.3
		c1.3,0.2,3.3,0.3,5.9,0.4c2.9,0,6.3,0.4,7.4,0.2c-4.7-0.3,4.7-0.5,7.3-0.6c2.4,0.2,7.4,0.2,13.2,0.2c-0.1,0.2,0.3,0.3,1.5,0.4
		c2.6,0,4.6,0,5.9,0.1c0,0.3,5.9,0.3,7.3,0.5h20.6c3.6,0.1,7.1,0.2,11.8,0.3c3.4,0.4,6.9,0.7,10.3,0.7c5.4,0.1,5.6-0.2,10.3-0.2
		c8.4,0.1,14.7,0.4,20.6,0.7c1.5-0.1,2.9-0.2,4.4-0.1c2-0.1,0.2-0.4,2.9-0.4h2.9c0.5-0.5,8.6-0.6,14.7-0.7
		c4.1,0.2,11.1,0.3,14.7,0.6c8.8,0,24.8-0.1,33.8,0c2.8,0,3.7-0.2,7.3-0.2c6.6-0.1,12.5,0.3,17.6,0c1,0.2,2,0.3,3,0.3
		c2.3-0.3,12-0.1,11.8-0.6c-4.4-0.4-8.8-0.5-13.2-0.4c0.8-0.3-5.2-0.2-4.4-0.6c5.9-0.1,12.8-0.1,17.6-0.2c6,0.2,9.7,0.2,17.6,0.4
		c-0.5-0.6,8.9-0.5,7.3-1.1c-7.2,0.1-7.6-0.3-11.8-0.5c0-0.2,4-0.1,2.9-0.4c-4.9,0.1-7.2,0.3-11.8,0.4c0.5-0.2-4.2-0.1-4.4-0.3
		c-0.5-0.5-5.6-0.6-7.3-1c2-0.2,5.2-0.4,8.8-0.5c-1.5,0-1.8-0.2,0-0.2c2.7,0.1,1.2,0.5,2.9,0.7c3.7,0.1,10.1,0,10.3,0.4
		c5-0.2,9-0.1,11.8-0.2c-5.5-0.1-0.3-0.4,1.5-0.5c7.4-0.1,7.3,0.4,13.2,0.4c2.8-0.3,7.3-0.5,7.3-1c-4.8,0-7.3-0.2-5.9-0.7
		c-4.8-0.3-19.1,0-20.6-0.6c-5.2,0.3-5-0.5-10.3-0.5c-1.3-0.3-2.2,0.2-5.9,0.1c-3.5-0.4-8.5-0.7-13.2-1c-9.9,0.1-26.1-0.2-36.8-0.4
		c-9.2,0.8-27.5,0.3-39.7,0.4c-2.3,0.6-10.3,0.3-13.2,0.7c-5.3-0.2-0.3-0.7-2.9-1c-7.4,0-10.3-0.2-17.6-0.2
		c-2.5-0.3-6.7-0.5-10.3-0.7c-15.5,0.1-27.5-0.1-38.2-0.4c-4.8,0.1-9.8,0.3-16.2,0.3c-5.7-0.1-11.2-0.3-14.7,0
		c0.5-0.4-5.4-0.3-8.8-0.4c-2.4,0.2-4.9,0.2-7.4,0.1c0.5,0.3-3.1,0.3-5.9,0.3c-4.4,0-7.5-0.1-10.3-0.3
		C635.3,293.5,626,293.9,621.8,293.8z M683.6,295.3c1-0.1,2-0.1,2.9,0C685.6,295.4,684.6,295.4,683.6,295.3L683.6,295.3z M688,295.4
		h2.9v0.2H688V295.4z M263.1,295.9c14.2,0.2,18.4-0.4,30.9-0.3c2,0.1,0.2,0.4,2.9,0.4c-1.1,0.2-4.7-0.3-10.3-0.1
		c-1.4,0-1.1,0.1-1.5,0.2c-2.9-0.1-5.9-0.1-8.8,0.1C271.7,296.1,265.6,296.4,263.1,295.9L263.1,295.9z M439.6,295.6
		c3.7,0,5.7,0.1,5.9,0.4C439.6,296.1,436.9,295.8,439.6,295.6L439.6,295.6z M241.1,296.1c-0.8-0.1,1.1-0.1,1.5-0.1
		C243.3,296,241.5,296.1,241.1,296.1L241.1,296.1z M244,296.1c1-0.1,2-0.1,2.9-0.1c2.6,0,5.3,0.1,7.4,0.2c1.1,0,5.7,0.1,4.4,0.3
		C251.2,296.5,247.9,296.2,244,296.1L244,296.1z M313.1,295.9c2.8,0,3.7,0.2,7.4,0.2c-2.7,0.2-8.9,0.1-11.8,0.3
		C305.9,296.4,312.9,296.1,313.1,295.9L313.1,295.9z M235.2,296.2c-0.8-0.1,1.1-0.1,1.5-0.1C237.4,296.1,235.6,296.2,235.2,296.2
		L235.2,296.2z M446.9,296c5.9,0,8.3,0.7,11.8,0.5c4.1,0.2-3.7,0.5-8.8,0.5c-1.5-0.3-2.9-0.4-4.4-0.3
		C445.4,296.4,444.9,296.1,446.9,296z M461.6,296.1c0.6-0.3,4.6,0,2.9,0.2c1.5,0.1,3,0,4.4-0.3c5.4-0.1,5.6,0.2,10.3,0.2
		c-1.5,0.3-5.8,0.3-7.4,0.6c-4.9,0-5-0.3-10.3-0.3C462,296.4,465.2,296.1,461.6,296.1L461.6,296.1z M298.4,296.2
		c-0.4-0.2,7.9-0.1,4.4,0.1C303.4,296.3,298.4,296.2,298.4,296.2L298.4,296.2z M565.9,296c-1.6,0.4,3.7,0.3,3,0.6
		c-3.5,0-3.2-0.2-7.3-0.1c-0.2-0.1,0.3-0.2,1.5-0.2c-1-0.1-2-0.1-2.9-0.1C561,296.1,563.2,296.1,565.9,296L565.9,296z M748.2,296.9
		c-1.8,0.5-12.8,0.5-16.2,0.1c1.5-0.2,2.9-0.3,4.4-0.2c-1.1-0.2-8.2,0-11.8-0.1c0.2-0.2-1.8-0.2-1.5-0.4c1.5-0.1,2.9,0,4.4,0.1
		c3.2,0,2.8-0.3,4.4-0.3C739.7,296.1,741.6,296.8,748.2,296.9L748.2,296.9z M357.2,296.5c1.6-0.2,12.2-0.2,10.3,0.2
		C364.1,296.6,360,296.6,357.2,296.5L357.2,296.5z M570.3,296.7c0.2-0.2,5,0,5.9,0C575.3,297,573.1,296.6,570.3,296.7L570.3,296.7z
		 M446.9,298.7c5.1-0.1,2.5,0.3,1.5,0.4C446.3,299.1,447.1,298.9,446.9,298.7L446.9,298.7z M420.4,299c-0.8-0.1,1.1-0.1,1.5-0.1
		C422.6,299,420.9,299.1,420.4,299L420.4,299z M127.8,299.3c1-0.1,2-0.1,2.9,0C129.8,299.4,128.8,299.4,127.8,299.3z M451.3,299.1
		c-0.8-0.1,1.1-0.1,1.5-0.1C453.5,299.1,451.7,299.2,451.3,299.1z M827.6,299.9h5.9c2,0.2,1.4,0.6,2.9,0.8h-10.3
		C826.3,300.4,825.4,300.1,827.6,299.9L827.6,299.9z"/>
	<path fill="#FFFFFF" d="M35.2,256.9c-0.4,0.4,0.3-0.7,0.5-0.9C36.1,255.6,35.4,256.7,35.2,256.9z"/>
	<path fill="#FFFFFF" d="M31.9,329.4c0.2,0.5-0.5-0.6-0.6-0.9C31,328,31.7,329.1,31.9,329.4z"/>
	<path fill="#FFFFFF" d="M38.6,254.3c-0.4,0.4,0.3-0.7,0.5-0.9C39.5,253,38.9,254.1,38.6,254.3z"/>
	<path fill="#FFFFFF" d="M64.5,355.7c0.4,0.3-0.7-0.2-0.9-0.3C63.1,355.1,64.2,355.5,64.5,355.7z"/>
	<path fill="#FFFFFF" d="M115.6,236.2c-0.4-0.2,0.7,0.1,0.9,0.2C117,236.7,115.8,236.3,115.6,236.2z"/>
	<path fill="#FFFFFF" d="M115.6,236.4c-0.4-0.2,0.7,0.1,0.9,0.2C116.9,236.9,115.8,236.5,115.6,236.4z"/>
	<path fill="#FFFFFF" d="M93,232.5c0.3-0.1,0.7-0.1,1,0C93.7,232.6,93.4,232.6,93,232.5z"/>
	<path fill="#FFFFFF" d="M97.8,232.7c0.6-0.1,1.3-0.1,1.9,0C99.1,232.7,98.5,232.7,97.8,232.7z"/>
	<path fill="#FFFFFF" d="M121.7,239.1l1.7,0.9l-0.1,0.2l-1.7-0.9L121.7,239.1z"/>
	<path fill="#FFFFFF" d="M116.3,237.1c-0.4-0.2,0.7,0.1,0.9,0.2C117.7,237.6,116.5,237.2,116.3,237.1z"/>
	<path fill="#FFFFFF" d="M38.9,280.5c0-0.3,0.1-0.6,0.2-0.8C39.1,280,39,280.3,38.9,280.5z"/>
	<g>
		<path fill="#FFFFFF" d="M85,231.7c-0.2,0-0.4,0.1-0.6,0.1c0,0,0.1,0,0.1,0c0.2,0,0.4-0.1,0.7-0.1C85.1,231.7,85.1,231.7,85,231.7z
			"/>
		<path fill="#FFFFFF" d="M157.7,312.7c-0.4,0.6-0.8,1.2-1,1.9c-0.4,1-0.9,2.3-1.4,3.5c-0.8,2.2-1.8,4.2-3.2,6.1
			c0.1-0.3,0.2-0.6,0.3-0.9c3.7-8.2,5.8-17.3,5.8-26.9c0-15.1-5.1-29-13.8-40c-0.1-0.2-0.3-0.4-0.4-0.6c-0.5-1.2-1.2-2.4-1.9-3.5
			c-2.5-2.8-5.2-5.5-7.9-8.1c-2.6-2.4-5.4-4.5-8.4-6.3c-0.7-0.6-1.4-1.1-2.2-1.5c-0.7-0.4-1.4-0.8-2-1.3c-2.7-1.4-6.2-2.5-7.6-3.1
			c-0.1,0.4-3.5-0.6-5-0.7c1,0.2,2,0.5,2.8,1c-2.2-0.9-4.5-1.5-6.9-1.9c-3.1-0.2-1.7,0.3-4.1,0.3c-2.6-0.5-7.2-0.4-10.8,0
			c-0.6,0-1.4,0-2.2,0s-1.8,0-2.7,0.1c-1.7,0.1-3.3,0.3-4.9,0.7c0.9-0.1,1.8-0.1,2.8,0c0.6,0.1,1.4,0.2,2,0.2
			c0.4-0.1,0.8-0.1,1.3-0.2c0.7-0.1,1.4-0.1,2.1-0.1c0.3,0,0.6,0,0.9,0c-1.3,0.1-2.5,0.2-3.7,0.3c-0.3,0-0.7,0-1,0
			c-0.6,0.1-1.2,0.2-1.8,0.3c-1.6,0.3-3.1,0.6-4.7,0.9c-0.9-0.1-0.1-0.5,0.3-1c-2.9,0.5-5.8,1.3-8.5,2.5c0.1-0.3-1.1,0.2-1.1-0.1
			c-2.9,1-5.6,2.3-8.3,3.7c-3.2,1.7-6.2,3.7-9,6c-2.8,1.9-5.3,4.1-7.5,6.6c-1.4,0.9-3.7,3.5-4.7,4c1.1-1.2,0.6-1.7-0.4-0.3
			c-0.2,0.4-0.3,0.7-0.6,1.1c-0.2,0.5-0.6,1-1,1.6c-1.4,1.6-1.6,1.4-1.7,1c-0.1-0.4-0.1-1.1-0.8-0.2c-1.7,3.3,0.7,0.3-0.6,3.3
			c-1.8,1.4-2.8,1.6-2.7-0.4c-0.2,0-1.4,2.3-1.4,1.7c0-0.6,0.3-1.6-0.3-1.4c1-2.4,2.1-4.6,3.5-6.8c-1.2,1.7-1.5,1.9-2.5,3.6
			c-0.3-0.1-1.2,1.3-2.1,2.7c-0.9,1.4-1.7,2.8-1.9,2.6c-0.7,1.2-1.3,2.6-2,4.1s-1.2,3-1.7,4.5s-1,2.8-1.3,4.1s-0.6,2.2-0.7,2.8
			c1.1-3.5-0.1,2.3,0.4,1.2c0.6-1,0.7-1,0.8,0.2c0.7-2.5,0.7,0.2,0.7,0.2c0.2,0.1,1.1-1.8,0.1,2.2c-0.5,1.1-0.6,0.3-0.6-0.6
			c0-0.9,0-1.8-0.5-0.8c-0.3,1-0.6,2.1-0.8,3.2c-0.1-0.5,0.1-2.4-0.2-2.3c-0.4,1.9-0.7,3.4-0.9,4.4c0.3,0.4,0.1,2,0.2,3.6
			c0.1,1.6,0.1,3,0.4,3.1c0,1.4,0.1,2.6,0.2,3.6c0.1,1,0.3,2,0.4,2.9l1.2,6.3c0.8,1.8,1.5,3.6,2.1,5.5c0.4,1.1,0.8,2.4,1.4,3.6
			l0.8,1.9l0.9,1.9c0.2,0,0.5,0.3,1,1c0.6,1.1,1.2,2.3,1.7,3.5c0.9,2.2,2.1,4.8,3,6.6c1.3,2-0.7-1.9,1.3,1.6c1.5,2.3-0.9-0.3,0.7,2
			c0.8,0.4,2.2,2.4,3.7,4.6c1.2,1.8,2.6,3.4,4.1,5c1.3,1,0.6,0.3-0.2-0.7s-1.8-2.2-1.3-2.1c3.3,4.1,7,7.8,11,11.2
			c4.1,3.4,8.6,6.3,13.4,8.5c0.2-0.3-1.8-1.3-2.5-1.9c4.5,1.6,9.1,2.9,13.7,3.8l2.6,0.8l2.5,0.6c2.2,0.5,4.5,0.8,6.8,0.9
			c-0.7-0.6,2.3-0.5,5.1-0.7c0.1,0.3-1.7,0.3,0,0.5c-2.6,0.3-5.3,0.3-7.9,0.2c-1.4-0.1-2.6-0.2-3.6-0.2s-1.6,0-1.8,0.2
			c0.6,0.5,5.8,1.1,6.1,1.4c1.5,0,2.9,0.1,4.3,0.1c0.7,0,1.4,0,2.1,0h2.1c1.4,0,2.9-0.1,4.4-0.1s3-0.2,4.6-0.5
			c0.9-0.8,6.5-2,6.7-2.9c1.1-0.3,2.2-0.7,3.2-1.3c1.1-0.6,2.2-1.1,3.4-1.5c-0.5,0.3-0.9,0.6-1.3,0.9s-0.8,0.5-1,0.8
			c-0.6,0.5-0.9,0.9-1,1.1c4.4-1.2,7.2-2.2,9.1-2.5c1.2-0.6,2.2-1,3.1-1.4l2.5-1.2c1.9-1,3.8-2.1,5.5-3.3c0.8-0.7,1.5-1.6,2.1-2.5
			c0.8-0.7,1.5-1.4,2.2-2.1c0.5-0.5,1-1.1,1.4-1.6c0.8-1,1.4-1.9,2.5-3.3c2.8-3.3,3.3-4.7,6.4-9.2c1.4-2.9,2.8-5.9,4.9-11.1
			c1.2-2.4,2.2-4.9,2.9-7.4C156.4,317.6,157.8,313.4,157.7,312.7z M85.2,231.4c-0.5,0,0.7-0.2,1-0.2
			C86.7,231.1,85.5,231.4,85.2,231.4z M132.2,350.2c-0.5,0.3,0.5-0.5,0.7-0.7C133.3,349.2,132.4,350.1,132.2,350.2z M124.1,238.9
			c0.9,0.5,1.9,1,3.2,1.9c0.5,0.4,0.7,0.6,0.7,0.7c-2.4-1.5-4.9-2.9-7.5-4.1c0.2,0.1,0.5,0.2,0.8,0.3L124.1,238.9z M110.4,233.3
			c0.9,0.3,2.1,0.8,3.2,1.3c-2.5-0.8-5-1.5-7.5-2c0.1,0,0.1,0,0.2,0C107.6,232.7,109,233,110.4,233.3z M93.1,362.3
			c-1.6,0.2-3.1,0.2-3.2,0.6c-2.8-0.2-5.7-0.6-8.4-1.2l-1.9-0.4l-1.7-0.5c-0.9-0.2-1.7-0.6-2.5-1c-1.3-0.4-2.6-0.8-3.9-1
			c-0.4-0.1-0.9-0.2-1.3-0.3c-0.5-0.2-0.9-0.4-1.4-0.6c-1.7-0.5-2.9-0.9-3.8-1.1c-1.2,0,3,1.8,0.6,1.1c0.3,0.3-0.7,0-1.6-0.4
			c-0.8-0.6-1.6-1-1.2-0.5c-1.1-0.6-2.1-1.2-3.1-1.9l-3.7-2.4c-2.5-2.4-4.3-4.4-7.6-8c-1.3-1-2.5-2.2-3.4-3.5
			c-1-1.4,0.6,0.2,0.5-0.4c0.4,0.5,0.9,0.9,1.3,1.4c2,2.1,4.2,4.2,5.5,5.5c1.4,1.1,1.7,1.1,1.9,0.9c7,5.2,15,9,23.8,11.1l1.9,0.6
			c0.8,0.2,1.6,0.4,2.6,0.6c0.7,0.1,1,0,1.2-0.1c3.1,0.5,6.3,0.7,9.5,0.7c0.6,0,1.1,0,1.7,0c0.4,0,0.8,0,1.1,0
			C96.1,361.9,94.7,362.1,93.1,362.3z M134,349.2c-0.2,0.4-2.1,1.8-3.2,2.5C131,351.4,132.8,350.2,134,349.2z M138.3,346.8
			c-1.6,1.8-3.4,3.2-5.5,4.2c-0.6-0.2,3.2-3,1.7-2.7c0.9-0.6,2-1.5,3-2.3s1.9-1.6,2.5-2.1C140.6,343.8,139.8,345.2,138.3,346.8z"/>
	</g>
	<g enable-background="new    ">
		<path fill="#F5AE1B" d="M73.3,301.4c-0.2,0.6-0.3,1.2-0.5,1.8c-0.1,0.4-0.2,0.7-0.4,1.1c-0.4,0.8-0.8,1.7-1.2,2.6
			c-0.1,0.3-0.4,0.5-0.6,0.7c-0.7,0.4-1.4,0.6-2.2,0.7c-0.4,0.1-0.8-0.1-1.2-0.2c-0.8-0.4-1.6-0.9-2.1-1.7c-0.2-0.3-0.3-0.6-0.1-1
			c0.1-0.1,0.1-0.2,0.1-0.4c0.2,0,0.4,0,0.4,0.2c0.1,0.3,0.4,0.5,0.6,0.7c0.6,0.8,1.3,0.9,2.2,0.6c0.9-0.3,1.6-0.8,2.1-1.6
			c0.4-0.7,0.7-1.4,0.9-2.1c0.1-0.5,0.1-0.9,0.1-1.4c0-0.4-0.2-0.7-0.6-0.8c-0.6-0.2-1.3-0.4-2-0.6c-0.2,0-0.4,0-0.5,0.2
			c-0.1,0.1-0.1,0.2-0.2,0.3c-0.4,0.4-0.9,0.4-1.3,0c-0.1-0.1-0.3-0.3-0.4-0.4l0,0c0-0.3-0.1-0.6,0.1-0.8c0.1-0.1,0.1-0.3,0.2-0.4
			c1.3-1.8,2-3.9,2.4-6.1c0-0.4,0.1-0.8,0.2-1.2c0-0.1,0-0.2,0-0.4c0,0-0.1-0.1-0.1,0c-0.1,0.1-0.2,0.2-0.3,0.4
			c-0.9,1.4-1.7,2.9-2.4,4.3c-0.4,0.7-0.8,1.4-1.1,2.2c-0.2,0.9-0.6,1.8-0.9,2.7c-0.4,0.9-0.5,1.9-0.5,2.8c0,0.2,0,0.5,0,0.6
			c-0.3,0.7-0.3,1.4-0.3,2.1c0,0.2,0,0.3-0.1,0.5c0,0,0,0-0.1,0h-0.1c0,0,0,0,0-0.1c-0.1-0.2,0.1-0.5-0.3-0.5
			c-0.2,0-0.2,0.3-0.3,0.6c0,0.1-0.1,0.3-0.1,0.5c0.1,0,0.1,0.1,0.2,0.1c0.1,0.1,0.1,0.2,0,0.3c-0.3,0.3-0.7,0.2-0.8-0.1
			c-0.2-0.6-0.4-1.2-0.5-1.9c-0.1-0.9-0.2-1.8-0.2-2.7c-0.2-2.5-0.2-4.9-0.1-7.4c0.1-2.2,0.2-4.3,0.5-6.4c0.1-1.2,0.2-2.3,0.2-3.5
			c0-0.4,0.1-0.8,0.3-1.2c0-0.1,0.1-0.2,0.3-0.2c0.6,0.2,1.1,0.5,1.6,0.9c0.1,0,0.1,0.1,0.1,0.2c0.4,1,0.7,2.1,0.6,3.2
			c0,0.2,0,0.4,0,0.6c0.1,1.1,0,2.2-0.2,3.3c0,0.1,0,0.3,0,0.5c0,0.1,0,0.4,0.1,0.4c0.2,0.1,0.3-0.2,0.4-0.3
			c0.2-0.5,0.3-0.9,0.8-1.2c0.1,0,0.1-0.2,0.2-0.3c0.5-1.1,1.4-2,1.9-3.1c0.3-0.6,0.8-0.7,1.4-0.6c0.3,0,0.5,0.2,0.7,0.5
			c0.4,0.7,0.6,1.3,0.5,2.1c-0.1,0.7-0.2,1.4-0.3,2c-0.3,1.6-0.7,3.2-1.2,4.8c-0.1,0.4-0.2,0.7,0,1.1c0.1,0.3,0.2,0.4,0.5,0.5
			c0.3,0.1,0.6,0.1,0.9,0.2c1.2,0.1,1.9,0.9,2.5,1.8C73.4,300.9,73.4,301.2,73.3,301.4z"/>
		<path fill="#F5AE1B" d="M75.7,286.4c0.5,0,0.9,0,1.4,0c0.2,0,0.4,0,0.6,0.1c0.8,0.2,1.1,0.7,1.1,1.5s0,1.5,0,2.3
			c0,0.1,0,0.3,0.1,0.4c0.2,0,0.4-0.2,0.6-0.3s0.4-0.2,0.6-0.4c0.3-0.2,0.6-0.3,0.9-0.4c0.7-0.3,1.4-0.1,2.1,0
			c0.3,0,0.5,0.2,0.6,0.5c0.4,0.9,0.6,1.9,0.4,2.9c-0.1,0.9-0.3,1.8-0.6,2.6c-0.1,0.4-0.3,0.7-0.6,1c-0.4,0.5-0.8,1-1.2,1.4
			c-0.3,0.3-0.3,0.6-0.2,0.9c0.5,1.1,0.6,2.3,1,3.4c0.2,0.8,0.5,1.6,0.8,2.4c0.4,1.2,0.9,2.4,1.4,3.6c0.1,0.4,0.3,0.7,0.3,1.1
			c0,0.1,0,0.2,0.1,0.4c0.7,1.4,1.4,2.8,2.7,3.8c0.2,0.2,0.5,0.4,0.8,0.6c0.4,0.2,0.6,0.5,0.9,0.7c0.3,0.2,0.3,0.6,0.3,0.8
			c0.1,0.3-0.3,0.5-0.6,0.4c-0.1,0-0.3-0.1-0.4-0.2c-0.9-0.8-2-1.3-2.9-2.1c-1.1-0.9-2.1-1.8-2.8-3c-0.5-0.8-1.1-1.7-1.5-2.6
			c-0.7-1.4-1.3-2.9-1.8-4.3c-0.5-1.3-0.9-2.6-1.2-4c-0.1-0.3-0.2-0.6-0.3-0.9c-0.1-0.2-0.1-0.6-0.4-0.5c-0.2,0-0.2,0.4-0.2,0.6
			l-0.4,3.5c0,0.1,0,0.3,0,0.5c-0.4,0.8-0.3,1.7-0.4,2.6c0,0.6-0.2,1.2-0.4,1.8c-0.1,0.3-0.1,0.7-0.6,0.5c0,0-0.1,0-0.2,0.1
			c-0.4,0.3-0.6,0.1-1-0.1c-0.2-0.1-0.2-0.3-0.2-0.5c0-0.5,0-1,0-1.5c-0.1-1.7,0-3.4,0.1-5.1c0.1-1.8,0.3-3.5,0.5-5.3
			c0.2-1.8,0.4-3.5,0.6-5.3c0.1-0.6,0.2-1.1,0.2-1.7c0.1-0.6,0.2-1.2,0-1.8C75.7,286.7,75.7,286.5,75.7,286.4z M78,297.3
			c0.5-0.2,1-0.2,1.4-0.2c0.2,0,0.3,0,0.4,0.2c0.1,0.3,0.2,0.3,0.5,0.2c0.4-0.2,0.6-0.4,0.7-0.8c0-0.2,0.1-0.4,0.2-0.6
			c0.7-1.5,0.9-3,0.9-4.7c0-0.1,0-0.2,0-0.3s-0.2-0.2-0.4-0.1c-0.5,0.5-1.2,0.8-1.6,1.4c-0.6,1-1.2,2-1.7,3.1
			c-0.1,0.3-0.2,0.6-0.3,0.8C78,296.7,78,297,78,297.3z"/>
		<path fill="#F5AE1B" d="M86.8,311.2c-0.5-0.6-0.7-1.3-0.8-2.1c0-0.1,0-0.2,0-0.4c0.2-1.4,0-2.9,0.1-4.3c0-1.3,0-2.7,0-4
			c0.1-2.1,0.1-4.2,0.4-6.2c0.1-1.1,0.3-2.2,0.4-3.3c0-0.3,0-0.6,0-0.8c0-0.7,0-1.3,0-2c0-0.3,0.1-0.4,0.2-0.6
			c0.1,0,0.1-0.1,0.2-0.1c0.7-0.2,1.4-0.4,2.1-0.1c0.6,0.3,1.1,0.9,1.1,1.9c0.1,1.3,0,2.5-0.2,3.8c-0.2,1.2-0.4,2.5-0.6,3.7
			c-0.2,1.4-0.4,2.9-0.6,4.3c-0.1,0.5-0.1,1.1-0.2,1.6c-0.1,1.1-0.2,2.2-0.4,3.3c-0.1,0.5,0,1-0.2,1.5c0,0.2,0,0.5-0.1,0.5
			c-0.2,0.2-0.2,0.6-0.5,0.8c-0.2,0.1-0.3,0.4-0.3,0.6C87.3,310,87,310.6,86.8,311.2z"/>
	</g>
	<g enable-background="new    ">
		<path fill="#F5AE1B" d="M89.9,303.9c0-0.8,0.1-1.5,0.3-2.3l0.2-1.3c0-0.2,0.1-0.4,0.2-0.6c0.2-0.4,0.4-0.9,0.3-1.4
			c0-0.2,0-0.4,0.1-0.5c0.3-1.4,0.7-2.7,1.1-4.1c0.1-0.4,0.2-0.8,0.3-1.2c0.1-0.5,0.4-1.1,0.6-1.6c0.1-0.2,0.2-0.3,0.4-0.3
			c0.1,0,0.2,0,0.4-0.1c0.5-0.1,1-0.3,1.4,0.1c0.1,0.1,0.3,0.1,0.4,0c0.1,0,0.2-0.1,0.3-0.1c1.6-0.8,3.3-1.3,5-2.1
			c0.6-0.3,1.3-0.4,2-0.6c0.4-0.1,0.7-0.2,1.1-0.3c0.2-0.1,0.4-0.1,0.6-0.1s0.4,0.2,0.3,0.4c-0.2,0.2-0.1,0.6-0.3,0.8
			c-0.1,0.2-0.3,0.4-0.4,0.7c0,0.2-0.3,0.3-0.5,0.4c-0.3,0.1-0.5,0.3-0.7,0.5c-0.3,0.4-0.8,0.6-1.3,0.8c-0.5,0.2-0.9,0.4-1.3,0.6
			c-1.2,0.6-2.4,1.3-3.7,1.8c-0.1,0.1-0.3,0.1-0.4,0.2c-0.6,0-0.7,0.4-0.9,0.9c-0.2,0.8-0.5,1.6-0.7,2.3l-0.4,1.4
			c0,0.1,0.1,0.2,0.2,0.2l1.8-0.5c0.5-0.1,1-0.1,1.5-0.1c0.2,0,0.3,0.1,0.2,0.3c0,0.2-0.1,0.3,0,0.5v0.1c-0.3,0.2-0.4,0.7-0.8,0.9
			c-0.2,0.1-0.5,0.2-0.5,0.6c0,0.1-0.2,0.2-0.3,0.3c-0.5,0.3-1,0.5-1.5,0.6c-0.3,0.1-0.6,0.1-1,0c-0.4-0.1-0.4-0.1-0.5,0.3
			c-0.3,0.9-0.4,1.9-0.6,2.8c0,0.2,0,0.3,0,0.5c0,0.1,0.2,0.2,0.3,0.1c0.2-0.1,0.4-0.2,0.6-0.4c1.3-1,2.7-1.8,4.2-2.4
			c0.4-0.2,0.8-0.3,1.2-0.4c0.3,0,0.4,0.1,0.5,0.4c0.1,0.4-0.1,0.7-0.1,1.1c0,0.3-0.3,0.5-0.5,0.7c-0.3,0.2-0.6,0.5-0.7,0.8
			c0,0.1-0.1,0.1-0.2,0.2c-1.1,0.7-2.2,1.5-3.3,2.2c-0.5,0.3-1,0.5-1.5,0.6c-0.1,0-0.3,0-0.4,0c-0.7,0-1.3-0.4-1.8-0.9
			c-0.6-0.7-1-1.5-1-2.5v-0.3H89.9z"/>
	</g>
	<g enable-background="new    ">
		<path fill="#F5AE1B" d="M110.6,295.8v0.5c0,0.1,0,0.2-0.1,0.3c-0.2,0.1-0.3,0.4-0.4,0.6c-0.5,0.7-0.9,1.4-1.4,2
			c-0.5,0.6-1.2,1.1-2.1,1.3c-0.1,0-0.2,0-0.3,0c-0.4-0.1-0.8-0.1-1.2-0.2c-0.5-0.1-0.6,0-0.7,0.4c-0.2,0.8-0.2,1.7-0.5,2.4
			c0,0.1-0.1,0.3-0.1,0.4c0,0.6-0.2,1.1-0.3,1.6c-0.2,0.6-0.3,1.2-0.4,1.8c-0.1,0.6-0.3,0.9-0.8,1c-0.6,0.1-0.9-0.1-1.1-0.7
			c-0.1-0.6-0.3-1.2-0.3-1.8c-0.1-1.3-0.2-2.7,0.2-4c0.3-1.2,0.5-2.4,0.7-3.6c0.1-0.7,0.3-1.3,0.5-2c0.3-1.2,0.4-2.5,0.7-3.8
			c0.1-0.5,0.2-1.1,0.4-1.6c0.2-0.6,0.5-0.7,1.1-0.6c0.7,0.1,0.9,0.4,1,1.1c0,0.3,0,0.5,0.1,0.8c0,0.1,0.2,0.2,0.3,0.1
			c0.2-0.1,0.4-0.3,0.6-0.5c2-1.8,4.2-3.2,6.5-4.6c0.9-0.6,1.9-0.9,2.9-1.3c0.3-0.1,0.7-0.2,1.1-0.3c0,0,0.2,0,0.2,0.1
			c0.1,0.4,0.4,0.9,0.1,1.3c-0.3,0.5-0.6,1-1.2,1.3s-1.2,0.7-1.8,1.1c-0.3,0.2-0.6,0.4-0.9,0.6l-3.6,2.8c-0.1,0.1-0.3,0.2-0.4,0.3
			c-0.7,0.7-1.5,1.2-2.2,1.9c-0.3,0.3-0.7,0.6-1.1,0.8c-0.2,0-0.2,0.2-0.3,0.4c-0.2,0.6-0.2,1.1-0.3,1.7c0,0.1,0.1,0.2,0.2,0.2
			c0.2,0,0.3-0.1,0.5-0.2c0.7-0.3,1.5-0.6,2.2-1c0.7-0.3,1.4-0.5,2.1-0.6C110.3,295.7,110.5,295.7,110.6,295.8z"/>
	</g>
	<path fill="#FFFFFF" d="M195.7,256.9c-0.4,0.4,0.3-0.7,0.5-0.9C196.6,255.6,195.9,256.7,195.7,256.9z"/>
	<path fill="#FFFFFF" d="M192.3,329.4c0.2,0.5-0.5-0.6-0.6-0.9C191.5,328,192.2,329.1,192.3,329.4z"/>
	<path fill="#FFFFFF" d="M199.1,254.3c-0.4,0.4,0.3-0.7,0.6-0.9C200,253,199.3,254.1,199.1,254.3z"/>
	<path fill="#FFFFFF" d="M225,355.7c0.4,0.3-0.7-0.2-0.9-0.3C223.6,355.1,224.8,355.5,225,355.7z"/>
	<path fill="#FFFFFF" d="M276.1,236.2c-0.4-0.2,0.7,0.1,0.9,0.2C277.5,236.7,276.4,236.3,276.1,236.2z"/>
	<path fill="#FFFFFF" d="M276.1,236.4c-0.4-0.2,0.7,0.1,0.9,0.2C277.4,236.9,276.3,236.5,276.1,236.4z"/>
	<path fill="#FFFFFF" d="M253.6,232.5c0.3-0.1,0.7-0.1,1,0C254.2,232.6,253.9,232.6,253.6,232.5z"/>
	<path fill="#FFFFFF" d="M258.3,232.7c0.6-0.1,1.3-0.1,1.9,0C259.6,232.7,259,232.7,258.3,232.7z"/>
	<path fill="#FFFFFF" d="M282.2,239.1l1.7,0.9l-0.1,0.2l-1.7-0.9L282.2,239.1z"/>
	<path fill="#FFFFFF" d="M276.9,237.1c-0.4-0.2,0.7,0.1,0.9,0.2C278.2,237.6,277,237.2,276.9,237.1z"/>
	<path fill="#FFFFFF" d="M199.3,280.5c0-0.3,0.1-0.6,0.2-0.8C199.6,280,199.5,280.3,199.3,280.5z"/>
	<g>
		<path fill="#FFFFFF" d="M181.9,278.9C181.9,278.9,181.9,278.9,181.9,278.9C181.9,278.9,181.9,278.9,181.9,278.9
			C181.9,278.9,181.9,278.9,181.9,278.9z"/>
		<path fill="#FFFFFF" d="M246.7,231.2c-0.3,0-1.5,0.2-1,0.2C246,231.4,247.2,231.1,246.7,231.2z"/>
		<path fill="#FFFFFF" d="M181.9,278.9c-0.1,0.3-0.1,0.6-0.2,0.8C181.8,279.4,181.8,279.1,181.9,278.9z"/>
		<path fill="#FFFFFF" d="M318.4,312.5c-0.4,0.6-0.8,1.2-1,1.9c-0.4,1-0.9,2.3-1.4,3.5c-0.8,2.2-1.8,4.2-3.2,6.1
			c0.2-0.5,0.3-1,0.5-1.5c3.5-8,5.4-16.8,5.4-26.1c0-15.9-5.7-30.5-15.2-41.8c-0.3-0.5-0.6-1-0.9-1.5c-2.5-2.8-5.2-5.5-7.9-8.1
			c-2.6-2.4-5.4-4.5-8.4-6.3c-0.7-0.6-1.4-1.1-2.2-1.5c-0.7-0.4-1.4-0.8-2-1.3c-2.6-1.3-6.1-2.4-7.5-3.1c-0.1,0.4-3.5-0.6-5-0.7
			c1,0.2,2,0.5,2.8,1c-2.2-0.9-4.5-1.5-6.9-1.9c-3.1-0.2-1.7,0.3-4.1,0.3c-2.2-0.4-5.7-0.4-8.9-0.2c-1.3,0-2.5,0.1-3.8,0.2
			c-0.1,0-0.2,0-0.3,0c-0.8,0-1.8,0-2.7,0.1c-1.7,0.1-3.3,0.3-4.9,0.7c0.6-0.1,1.2-0.1,1.8-0.1c-1.3,0.2-2.5,0.5-3.8,0.8
			c0,0,0.1-0.1,0.1-0.1c-2.9,0.5-5.8,1.4-8.5,2.5c0.1-0.3-1.1,0.2-1.1-0.1c-2.9,1-5.6,2.3-8.3,3.7c-3.2,1.7-6.2,3.7-9,6
			c-2.8,1.9-5.3,4.1-7.5,6.6c-1.4,0.9-3.7,3.5-4.6,4c1.1-1.2,0.6-1.7-0.4-0.3c-0.2,0.4-0.3,0.7-0.6,1.1c-0.2,0.5-0.6,1-1,1.6
			c-1.4,1.6-1.6,1.4-1.7,1c-0.1-0.4-0.1-1.1-0.8-0.2c-1.7,3.3,0.7,0.3-0.6,3.3c-1.8,1.4-2.8,1.6-2.7-0.4c-0.2,0-1.4,2.3-1.4,1.7
			c0-0.6,0.3-1.6-0.3-1.4c1-2.4,2.1-4.6,3.4-6.8c-1.2,1.7-1.5,1.9-2.5,3.6c-0.3-0.1-1.2,1.3-2.1,2.7c-0.9,1.4-1.7,2.8-1.9,2.6
			c-0.7,1.2-1.3,2.6-2,4.1s-1.2,3-1.7,4.5s-0.9,2.9-1.2,4.1c-0.2,0.8-0.4,1.5-0.5,2.1c-0.1,0.7-0.2,1.6,0,1.1c0.6-1,0.7-1,0.8,0.2
			c0.7-2.5,0.7,0.2,0.7,0.2c0.2,0.1,1.1-1.8,0.1,2.2c-0.6,1.1-0.6,0.3-0.6-0.6c0-0.9,0-1.8-0.6-0.8c-0.3,1-0.6,2.1-0.8,3.2
			c-0.1-0.5,0.1-2.4-0.2-2.3c-0.3,1.9-0.6,3.4-0.8,4.3c0.3,0.4,0.1,2,0.2,3.6c0.1,1.6,0.1,3,0.4,3.1c0,1.4,0.1,2.6,0.2,3.6
			s0.3,2,0.4,2.9l1.2,6.3c0.8,1.8,1.5,3.6,2.1,5.4c0.4,1.1,0.8,2.4,1.4,3.6l0.8,1.9l0.9,1.9c0.2,0,0.6,0.3,0.9,1
			c0.6,1.1,1.2,2.3,1.7,3.5c0.9,2.2,2.1,4.8,3,6.6c1.3,2-0.7-1.9,1.3,1.6c1.5,2.3-0.9-0.3,0.7,2c0.8,0.4,2.2,2.4,3.8,4.6
			c1.2,1.8,2.6,3.4,4.1,5c1.3,1,0.6,0.3-0.2-0.7s-1.8-2.2-1.3-2.1c3.3,4.1,7,7.8,11.1,11.2c4.1,3.4,8.6,6.3,13.4,8.5
			c0.2-0.3-1.8-1.3-2.5-1.9c4.5,1.6,9.1,2.9,13.7,3.8l2.6,0.8l2.5,0.6c2.2,0.5,4.5,0.8,6.8,0.9c-0.6-0.6,2.3-0.5,5.1-0.7
			c0.1,0.3-1.7,0.3,0,0.5c-2.6,0.3-5.3,0.3-7.9,0.2c-1.4-0.1-2.6-0.2-3.6-0.2s-1.6,0-1.8,0.2c0.6,0.5,5.8,1.1,6.1,1.4
			c1.5,0,2.9,0.1,4.4,0.1c0.7,0,1.4,0,2.1,0h2.1c1.4,0,2.9-0.1,4.4-0.1s3-0.2,4.6-0.5c0.9-0.8,6.5-2,6.7-2.9
			c1.1-0.3,2.2-0.7,3.1-1.3c1.1-0.6,2.2-1.1,3.4-1.5c-0.5,0.3-0.9,0.6-1.3,0.9c-0.4,0.3-0.8,0.5-1,0.8c-0.6,0.5-0.9,0.9-1,1.1
			c4.4-1.2,7.2-2.2,9.1-2.5c1.2-0.6,2.2-1,3.1-1.4l2.5-1.2c1.9-1,3.8-2.1,5.5-3.3c0.8-0.7,1.5-1.6,2.1-2.5c0.8-0.7,1.5-1.4,2.2-2.1
			c0.5-0.5,1-1.1,1.4-1.6c0.8-1,1.4-1.9,2.5-3.3c2.8-3.3,3.3-4.7,6.4-9.2c1.4-2.9,2.8-5.9,5-11.1c1.2-2.4,2.2-4.9,2.9-7.4
			C317.1,317.4,318.5,313.2,318.4,312.5z M292.7,350.2c-0.5,0.3,0.5-0.5,0.7-0.7C293.9,349.2,292.9,350.1,292.7,350.2z M253.6,362.2
			c-1.6,0.2-3.1,0.2-3.2,0.6c-2.8-0.2-5.7-0.6-8.4-1.2l-1.9-0.4l-1.7-0.5c-0.9-0.2-1.7-0.6-2.5-1c-1.3-0.4-2.6-0.8-3.9-1
			c-0.4-0.1-0.9-0.2-1.3-0.3c-0.5-0.2-0.9-0.4-1.4-0.6c-1.7-0.5-2.9-0.9-3.8-1.1c-1.2,0,3,1.8,0.6,1.1c0.3,0.3-0.7,0-1.6-0.4
			c-0.9-0.4-1.6-0.9-1.3-0.5c-1.1-0.6-2.1-1.2-3.1-1.9l-3.7-2.4c-2.5-2.4-4.3-4.4-7.6-8c-1.3-1-2.5-2.2-3.5-3.5
			c-1.1-1.5,0.8,0.4,0.5-0.5c2.2,2.6,5.3,5.4,6.8,7c1.5,1.1,1.8,1.1,1.9,0.8c7.2,5.4,15.6,9.4,24.7,11.4l1,0.3
			c0.8,0.2,1.6,0.4,2.6,0.6c0.6,0.1,0.9,0,1.1,0c3.2,0.5,6.4,0.7,9.7,0.7c0.9,0,1.9,0,2.8-0.1C256.5,361.8,255.2,362,253.6,362.2z
			 M294.4,349.1c0,0.5-2,1.9-3.2,2.5C291.3,351.3,293.2,350.1,294.4,349.1z M298.7,346.8c-1.5,1.8-3.4,3.2-5.5,4.2
			c-0.6-0.2,3.2-3,1.7-2.7c0.9-0.6,2-1.5,3-2.3s1.9-1.6,2.5-2.1C301,343.8,300.2,345.2,298.7,346.8z"/>
		<path fill="#FFFFFF" d="M181.9,278.9C182.2,277.5,182,278.1,181.9,278.9L181.9,278.9z"/>
	</g>
	<g enable-background="new    ">
		<path fill="#F5AE1B" d="M208.8,283.9c0.5,0,0.9,0,1.4,0c0.2,0,0.4,0,0.6,0.1c0.8,0.2,1.1,0.7,1.1,1.5s0,1.5,0,2.3
			c0,0.1,0,0.3,0.1,0.4c0.2,0,0.4-0.2,0.6-0.3c0.2-0.1,0.4-0.2,0.6-0.4c0.3-0.2,0.6-0.3,0.9-0.4c0.7-0.3,1.4-0.1,2.1,0
			c0.3,0,0.5,0.2,0.6,0.5c0.4,0.9,0.6,1.9,0.4,2.9c-0.1,0.9-0.3,1.8-0.6,2.6c-0.1,0.4-0.3,0.7-0.6,1c-0.4,0.5-0.8,1-1.2,1.4
			c-0.3,0.3-0.3,0.6-0.2,0.9c0.5,1.1,0.6,2.3,1,3.4c0.2,0.8,0.5,1.6,0.8,2.4c0.4,1.2,0.9,2.4,1.4,3.6c0.1,0.4,0.3,0.7,0.3,1.1
			c0,0.1,0,0.2,0.1,0.4c0.7,1.4,1.4,2.8,2.7,3.8c0.2,0.2,0.5,0.4,0.8,0.6c0.4,0.2,0.6,0.5,0.9,0.7c0.3,0.2,0.3,0.6,0.3,0.8
			c0.1,0.3-0.3,0.5-0.6,0.4c-0.1,0-0.3-0.1-0.4-0.2c-0.9-0.8-2-1.3-2.9-2.1c-1.1-0.9-2.1-1.8-2.8-3c-0.5-0.8-1.1-1.7-1.5-2.6
			c-0.7-1.4-1.3-2.9-1.8-4.3c-0.5-1.3-0.9-2.6-1.2-4c-0.1-0.3-0.2-0.6-0.3-0.9c-0.1-0.2-0.1-0.6-0.4-0.5c-0.2,0-0.2,0.4-0.2,0.6
			l-0.4,3.5c0,0.1,0,0.3,0,0.5c-0.4,0.8-0.3,1.7-0.4,2.6c0,0.6-0.2,1.2-0.4,1.8c-0.1,0.3-0.1,0.7-0.6,0.5c0,0-0.1,0-0.2,0.1
			c-0.4,0.3-0.6,0.1-1-0.1c-0.2-0.1-0.2-0.3-0.2-0.5c0-0.5,0-1,0-1.5c-0.1-1.7,0-3.4,0.1-5.1c0.1-1.8,0.3-3.5,0.5-5.3
			s0.4-3.5,0.6-5.3c0.1-0.6,0.2-1.1,0.2-1.7c0.1-0.6,0.2-1.2,0-1.8C208.8,284.1,208.8,284,208.8,283.9z M211.1,294.8
			c0.5-0.2,1-0.2,1.4-0.2c0.2,0,0.3,0,0.4,0.2c0.1,0.3,0.2,0.3,0.5,0.2c0.4-0.2,0.6-0.4,0.7-0.8c0-0.2,0.1-0.4,0.2-0.6
			c0.7-1.5,0.9-3,0.9-4.7c0-0.1,0-0.2,0-0.3s-0.2-0.2-0.4-0.1c-0.5,0.5-1.2,0.8-1.6,1.4c-0.6,1-1.2,2-1.7,3.1
			c-0.1,0.3-0.2,0.6-0.3,0.8C211.1,294.2,211.1,294.4,211.1,294.8z"/>
	</g>
	<g enable-background="new    ">
		<path fill="#F5AE1B" d="M217.2,301.4c0-0.8,0.1-1.5,0.3-2.3l0.2-1.3c0-0.2,0.1-0.4,0.2-0.6c0.2-0.4,0.4-0.9,0.3-1.4
			c0-0.2,0-0.4,0.1-0.5c0.3-1.4,0.7-2.7,1.1-4.1c0.1-0.4,0.2-0.8,0.3-1.2c0.1-0.5,0.4-1.1,0.6-1.6c0.1-0.2,0.2-0.3,0.4-0.3
			c0.1,0,0.2,0,0.4-0.1c0.5-0.1,1-0.3,1.4,0.1c0.1,0.1,0.3,0.1,0.4,0c0.1,0,0.2-0.1,0.3-0.1c1.6-0.8,3.3-1.3,5-2.1
			c0.6-0.3,1.3-0.4,2-0.6c0.4-0.1,0.7-0.2,1.1-0.3c0.2-0.1,0.4-0.1,0.6-0.1c0.2,0,0.4,0.2,0.3,0.4c-0.2,0.2-0.1,0.6-0.3,0.8
			c-0.1,0.2-0.3,0.4-0.4,0.7c0,0.2-0.3,0.3-0.5,0.4c-0.3,0.1-0.5,0.3-0.7,0.5c-0.3,0.4-0.8,0.6-1.3,0.8c-0.5,0.2-0.9,0.4-1.3,0.6
			c-1.2,0.6-2.4,1.3-3.7,1.8c-0.1,0.1-0.3,0.1-0.4,0.2c-0.6,0-0.7,0.4-0.9,0.9c-0.2,0.8-0.5,1.6-0.7,2.3l-0.4,1.4
			c0,0.1,0.1,0.2,0.2,0.2l1.8-0.5c0.5-0.1,1-0.1,1.5-0.1c0.2,0,0.3,0.1,0.2,0.3c0,0.2-0.1,0.3,0,0.5v0.1c-0.3,0.2-0.4,0.7-0.8,0.9
			c-0.2,0.1-0.5,0.2-0.5,0.6c0,0.1-0.2,0.2-0.3,0.3c-0.5,0.3-1,0.5-1.5,0.6c-0.3,0.1-0.6,0.1-1,0s-0.4-0.1-0.5,0.3
			c-0.3,0.9-0.4,1.9-0.6,2.8c0,0.2,0,0.3,0,0.5c0,0.1,0.2,0.2,0.3,0.1c0.2-0.1,0.4-0.2,0.6-0.4c1.3-1,2.7-1.8,4.2-2.4
			c0.4-0.2,0.8-0.3,1.2-0.4c0.3,0,0.4,0.1,0.5,0.4c0.1,0.4-0.1,0.7-0.1,1.1c0,0.3-0.3,0.5-0.5,0.7c-0.3,0.2-0.6,0.5-0.7,0.8
			c0,0.1-0.1,0.1-0.2,0.2c-1.1,0.7-2.2,1.5-3.3,2.2c-0.5,0.3-1,0.5-1.5,0.6c-0.1,0-0.3,0-0.4,0c-0.7,0-1.3-0.4-1.8-0.9
			c-0.6-0.7-1-1.5-1-2.5v-0.3H217.2z"/>
		<path fill="#F5AE1B" d="M237.9,286.5c-0.2,0.6-0.4,1.3-0.9,1.8c-0.1,0.2-0.2,0.3-0.3,0.5c-0.2,0.5-0.6,0.6-1,0.3c0,0,0,0-0.1,0
			c-0.4-0.2-0.6-0.6-0.4-1c0.2-0.5,0.3-0.9,0.3-1.4c0-0.2,0.1-0.5,0.1-0.7c0.1-0.5-0.2-0.9-0.7-0.9c-0.6,0-1.1,0.2-1.4,0.7
			c-0.5,0.7-0.5,1.5-0.8,2.2c0,0.1,0,0.2,0,0.3c0,1,0.1,1.9,0.7,2.8c0.3,0.5,0.5,1.1,0.7,1.6s0.6,0.9,0.9,1.5
			c0.2,0.5,0.4,1.1,0.5,1.6c0,0.4,0.2,0.7,0.3,1.1c0.5,1,0.7,2.1,0.7,3.2c0,0.5,0,1,0,1.4c-0.1,1.3-0.6,2.5-1.2,3.6c0,0,0,0,0,0.1
			c-0.3,0.9-1.1,1.3-1.8,1.7c-0.4,0.2-0.9,0.5-1.4,0.7c-0.3,0.2-0.6,0.4-0.9,0.3c-0.4,0-0.7-0.1-1-0.3c-0.1,0-0.2-0.1-0.3-0.1
			c-0.6,0-1-0.3-1.3-0.7l0,0c-0.1-0.1-0.2-0.1-0.4-0.2c-0.1-0.1-0.1-0.1,0-0.2c0.1,0,0.2,0,0.2-0.1c0-0.1-0.1-0.1-0.2-0.1
			c-0.3,0-0.4-0.2-0.5-0.4c-0.1-0.3-0.2-0.5-0.4-0.8c-0.3-0.5-0.4-1.1-0.3-1.7c0.1-0.6,0.2-1.1,0.6-1.6c0.5-0.6,1-1.2,1.2-2
			c0.3-0.3,0.4-0.7,0.7-1.1c0.3-0.3,0.6-0.5,1.1-0.4l0,0c-0.2,0.2-0.3,0.5-0.4,0.7c-0.4,0.8-0.7,1.6-1.2,2.3
			c-0.3,0.5-0.5,1.1-0.8,1.6c-0.1,0.2-0.1,0.4,0,0.6c0.2,0.2,0.2,0.6,0.3,0.9c0.1,0.5,0.2,0.9,0.6,1.2c0.4,0.3,0.7,0.3,1-0.1
			s0.6-0.7,0.9-1c0.3-0.3,0.5-0.5,0.6-0.9c0.5-1.1,1-2.1,1.2-3.3c0.3-1.4,0.2-2.7-0.4-4c0-0.1-0.1-0.2-0.2-0.2
			c-0.1,0-0.1,0.1-0.2,0.1c-0.1,0.2-0.2,0.4-0.3,0.6c-0.1-0.3-0.2-1.3-0.2-1.4c0-0.2,0.2-0.4,0.3-0.5c0.1-0.3,0.2-0.5,0-0.8
			c0-0.1,0-0.2-0.1-0.3c-0.4-0.9-0.7-1.9-0.9-2.9c-0.3-1-0.3-2.1,0-3.1c0.1-0.4,0.2-0.7,0.3-1.1c0.2-0.9,0.7-1.7,1.5-2.2
			c0.1-0.1,0.2-0.2,0.4-0.2c0.7-0.2,1.4-0.3,2-0.2c0.5,0.1,1,0.1,1.4,0.2c0.5,0.1,0.9,0.3,1.2,0.7c0,0.1,0.2,0.2,0.3,0.3
			C237.9,285.7,238.1,286,237.9,286.5z M228.8,306.8h-0.1c-0.1,0-0.1,0.1-0.2,0.1c0.1,0,0.1,0,0.2,0
			C228.7,306.9,228.8,306.9,228.8,306.8z"/>
	</g>
	<g enable-background="new    ">
		<path fill="#F5AE1B" d="M236.9,301.4c0-0.8,0.1-1.5,0.3-2.3l0.2-1.3c0-0.2,0.1-0.4,0.2-0.6c0.2-0.4,0.4-0.9,0.3-1.4
			c0-0.2,0-0.4,0.1-0.5c0.3-1.4,0.7-2.7,1.1-4.1c0.1-0.4,0.2-0.8,0.3-1.2c0.1-0.5,0.4-1.1,0.6-1.6c0.1-0.2,0.2-0.3,0.4-0.3
			c0.1,0,0.2,0,0.4-0.1c0.5-0.1,1-0.3,1.4,0.1c0.1,0.1,0.3,0.1,0.4,0c0.1,0,0.2-0.1,0.3-0.1c1.6-0.8,3.3-1.3,5-2.1
			c0.6-0.3,1.3-0.4,2-0.6c0.4-0.1,0.7-0.2,1.1-0.3c0.2-0.1,0.4-0.1,0.6-0.1c0.2,0,0.4,0.2,0.3,0.4c-0.2,0.2-0.1,0.6-0.3,0.8
			c-0.1,0.2-0.3,0.4-0.4,0.7c0,0.2-0.3,0.3-0.5,0.4c-0.3,0.1-0.5,0.3-0.7,0.5c-0.3,0.4-0.8,0.6-1.3,0.8c-0.5,0.2-0.9,0.4-1.3,0.6
			c-1.2,0.6-2.4,1.3-3.7,1.8c-0.1,0.1-0.3,0.1-0.4,0.2c-0.6,0-0.7,0.4-0.9,0.9c-0.2,0.8-0.5,1.6-0.7,2.3l-0.4,1.4
			c0,0.1,0.1,0.2,0.2,0.2l1.8-0.5c0.5-0.1,1-0.1,1.5-0.1c0.2,0,0.3,0.1,0.2,0.3c0,0.2-0.1,0.3,0,0.5v0.1c-0.3,0.2-0.4,0.7-0.8,0.9
			c-0.2,0.1-0.5,0.2-0.5,0.6c0,0.1-0.2,0.2-0.3,0.3c-0.5,0.3-1,0.5-1.5,0.6c-0.3,0.1-0.6,0.1-1,0s-0.4-0.1-0.5,0.3
			c-0.3,0.9-0.4,1.9-0.6,2.8c0,0.2,0,0.3,0,0.5c0,0.1,0.2,0.2,0.3,0.1c0.2-0.1,0.4-0.2,0.6-0.4c1.3-1,2.7-1.8,4.2-2.4
			c0.4-0.2,0.8-0.3,1.2-0.4c0.3,0,0.4,0.1,0.5,0.4c0.1,0.4-0.1,0.7-0.1,1.1c0,0.3-0.3,0.5-0.5,0.7c-0.3,0.2-0.6,0.5-0.7,0.8
			c0,0.1-0.1,0.1-0.2,0.2c-1.1,0.7-2.2,1.5-3.3,2.2c-0.5,0.3-1,0.5-1.5,0.6c-0.1,0-0.3,0-0.4,0c-0.7,0-1.3-0.4-1.8-0.9
			c-0.6-0.7-1-1.5-1-2.5v-0.3H236.9z"/>
	</g>
	<path fill="#F5AE1B" d="M257.4,289.8c0,1.8-0.1,3.1-0.3,4.4c0,0.2,0,0.4,0,0.6c0,1.8-0.3,3.5-0.6,5.3c0,0.4-0.1,0.8-0.1,1.3
		c0,0.6-0.1,1.1-0.2,1.6c-0.1,0.2-0.1,0.4-0.1,0.7c0,0.3,0,0.6-0.3,0.9c-0.2,0.2-0.2,0.6-0.1,0.8c0.1,0.7-0.3,1.2-0.7,1.7
		c0,0.1-0.1,0.1-0.2,0.2c-0.1,0.2-0.3,0.1-0.4,0c-0.6-0.5-1-1-1.1-1.8c-0.1-0.7-0.2-1.3-0.1-2c0.1-0.5,0.1-0.9,0.1-1.4
		c0-1.1,0.2-2.1,0.2-3.2c0-0.2-0.1-0.3-0.3-0.2c-0.7,0.2-1.5,0.1-2.2-0.1c-0.2,0-0.4-0.1-0.7-0.1c-0.4-0.1-0.4-0.1-0.6,0.3
		c-0.3,0.7-0.6,1.4-0.8,2.2c-0.5,1.2-0.9,2.4-1.4,3.6c-0.1,0.2-0.2,0.4-0.3,0.6c-0.3,0.6-0.8,0.8-1.4,0.9c-0.1,0-0.3,0-0.4-0.1
		c-0.4-0.4-0.7-0.8-0.8-1.3c0,0,0-0.1,0-0.2c0.5-0.7,0.6-1.6,0.9-2.4c0.4-1.1,0.8-2.3,1.2-3.4c0.2-0.5,0.3-1,0.6-1.4
		c0.2-0.2-0.3-0.6,0.1-0.8c0.3-0.2,0.4-0.5,0.5-0.8c0.3-0.7,0.6-1.5,1-2.3l1.6-3.6c0.6-1.3,1.2-2.6,1.8-3.9c0.1-0.3,0.2-0.6,0.2-0.9
		c0-0.3,0.2-0.6,0.6-0.7c0.3-0.1,0.7-0.1,1-0.5c0,0,0.1-0.1,0.2,0c0.7,0.1,1.4,0.2,1.8,0.9c0.6,0.9,1.1,1.8,1.2,2.9
		C257.3,288.4,257.4,289.3,257.4,289.8z M250.8,295.9c0.5,0.2,1.1,0.4,1.6,0.7c0.2,0.1,0.5,0.1,0.7,0c0.3,0,0.4-0.1,0.5-0.4
		c0-0.3,0-0.5,0-0.8c0-1.6,0-3.1,0.1-4.7c0-0.6,0-1.2,0-1.9c0,0,0-0.1-0.1-0.1c-0.1-0.1-0.2,0-0.2,0.1c-0.3,0.7-0.7,1.5-1,2.3
		c-0.2,0.4-0.4,0.7-0.4,1.1c-0.1,0.5-0.2,0.9-0.4,1.3l-0.7,1.7C250.9,295.4,250.8,295.6,250.8,295.9z"/>
	<path fill="#F5AE1B" d="M258.2,283.9c0.5,0,0.9,0,1.4,0c0.2,0,0.4,0,0.6,0.1c0.8,0.2,1.1,0.7,1.1,1.5s0,1.5,0,2.3
		c0,0.1,0,0.3,0.1,0.4c0.2,0,0.4-0.2,0.6-0.3s0.4-0.2,0.6-0.4c0.3-0.2,0.6-0.3,0.9-0.4c0.7-0.3,1.4-0.1,2.1,0c0.3,0,0.5,0.2,0.6,0.5
		c0.4,0.9,0.6,1.9,0.4,2.9c-0.1,0.9-0.3,1.8-0.6,2.6c-0.1,0.4-0.3,0.7-0.6,1c-0.4,0.5-0.8,1-1.2,1.4c-0.3,0.3-0.3,0.6-0.2,0.9
		c0.5,1.1,0.6,2.3,1,3.4c0.2,0.8,0.5,1.6,0.8,2.4c0.4,1.2,0.9,2.4,1.4,3.6c0.1,0.4,0.3,0.7,0.3,1.1c0,0.1,0,0.2,0.1,0.4
		c0.7,1.4,1.4,2.8,2.7,3.8c0.2,0.2,0.5,0.4,0.8,0.6c0.4,0.2,0.6,0.5,0.9,0.7c0.3,0.2,0.3,0.6,0.3,0.8c0.1,0.3-0.3,0.5-0.6,0.4
		c-0.1,0-0.3-0.1-0.4-0.2c-0.9-0.8-2-1.3-2.9-2.1c-1.1-0.9-2.1-1.8-2.8-3c-0.5-0.8-1.1-1.7-1.5-2.6c-0.7-1.4-1.3-2.9-1.8-4.3
		c-0.5-1.3-0.9-2.6-1.2-4c-0.1-0.3-0.2-0.6-0.3-0.9c-0.1-0.2-0.1-0.6-0.4-0.5c-0.2,0-0.2,0.4-0.2,0.6l-0.4,3.5c0,0.1,0,0.3,0,0.5
		c-0.4,0.8-0.3,1.7-0.4,2.6c0,0.6-0.2,1.2-0.4,1.8c-0.1,0.3-0.1,0.7-0.6,0.5c0,0-0.1,0-0.2,0.1c-0.4,0.3-0.6,0.1-1-0.1
		c-0.2-0.1-0.2-0.3-0.2-0.5c0-0.5,0-1,0-1.5c-0.1-1.7,0-3.4,0.1-5.1c0.1-1.8,0.3-3.5,0.5-5.3c0.2-1.8,0.4-3.5,0.6-5.3
		c0.1-0.6,0.2-1.1,0.2-1.7c0.1-0.6,0.2-1.2,0-1.8C258.2,284.1,258.2,284,258.2,283.9z M260.5,294.8c0.5-0.2,1-0.2,1.4-0.2
		c0.2,0,0.3,0,0.4,0.2c0.1,0.3,0.2,0.3,0.5,0.2c0.4-0.2,0.6-0.4,0.7-0.8c0-0.2,0.1-0.4,0.2-0.6c0.7-1.5,0.9-3,0.9-4.7
		c0-0.1,0-0.2,0-0.3s-0.2-0.2-0.4-0.1c-0.5,0.5-1.2,0.8-1.6,1.4c-0.6,1-1.2,2-1.7,3.1c-0.1,0.3-0.2,0.6-0.3,0.8
		C260.5,294.2,260.5,294.4,260.5,294.8z"/>
	<g enable-background="new    ">
		<path fill="#F5AE1B" d="M275.8,300c0,0.2,0.1,0.4,0.1,0.6c0,0.2,0,0.5,0,0.7c-0.1,0.3-0.3,0.6-0.4,0.9c-0.1,0.3,0,0.6-0.2,0.8
			c-0.1,0.1-0.1,0.1-0.1,0.2c-0.1,0.7-0.5,1.3-0.9,1.9c-0.1,0.2-0.1,0.3-0.2,0.5c0,0.1-0.1,0.3-0.2,0.4c-0.1,0.1-0.2,0.2-0.4,0.3
			c-0.6,0.2-1,0.8-1.8,0.7c-0.1,0-0.3-0.1-0.4-0.2c0-0.1-0.1-0.2-0.2-0.2c-0.7,0.1-1-0.6-1.6-0.9l-0.1-0.1c-0.7-1.2-1.2-2.4-1.1-3.9
			c0.1-1.1,0.1-2.3,0.2-3.4c0.1-0.9,0.2-1.8,0.3-2.7c0-0.3,0.1-0.6,0.1-0.9c0-0.6,0.2-1.3,0.4-1.9c0.3-1.6,0.7-3.2,1.3-4.8
			c0.5-1.3,1.1-2.6,2.1-3.6c0.1-0.1,0.2-0.3,0.3-0.4c0.1-0.2,0.3-0.4,0.5-0.4c0.7-0.1,1.5-0.5,2.3-0.3c0.9,0.2,1.6,0.9,1.7,1.9
			c0,0.9,0.1,1.8-0.1,2.7c0,0.1,0,0.3,0,0.4c0,0.9-0.1,1.8-0.1,2.7c0,0.9-0.2,1.7-0.2,2.5c0,0.6-0.5,0.8-0.8,1.1h-0.2
			c-0.5-0.1-0.9-0.3-1.1-0.8c-0.1-0.4-0.3-0.8,0-1.2c0.1-0.1,0.1-0.3,0.1-0.5c0-0.9,0.1-1.8,0.2-2.6c0-0.7,0.1-1.5,0.1-2.2
			c0-0.5,0-1-0.1-1.4c0-0.1-0.1-0.2-0.1-0.2c-0.1,0-0.2,0-0.2,0c-0.3,0.3-0.5,0.6-0.7,1c-0.5,1.2-1,2.4-1.3,3.6
			c-0.1,0.3-0.1,0.7-0.2,1c-0.2,0.8-0.5,1.7-0.7,2.5c-0.4,1.4-0.7,2.8-0.8,4.2c-0.1,0.8-0.3,1.6-0.3,2.4c0,1.1-0.3,2.1,0,3.2
			c0.1,0.4,0.2,0.8,0.4,1.2c0.1,0.3,0.3,0.3,0.6,0.1c0.3-0.2,0.6-0.4,0.8-0.7c0.9-1.1,1.8-2.2,2.6-3.5c0.1-0.2,0.2-0.3,0.4-0.5
			C275.6,300.3,275.6,300,275.8,300z"/>
		<path fill="#F5AE1B" d="M291.4,294.1c-0.5,0.3-0.6,0.9-1,1.2c-0.1,0.1-0.1,0.3-0.1,0.5c-0.2,0.9-0.3,1.9-0.5,2.8
			c-0.1,0.5-0.3,1-0.4,1.5c-0.1,0.3-0.2,0.7-0.4,1c-0.3,0.6-0.5,1.2-0.6,1.9c-0.2,0.7-0.6,1.2-0.9,1.8c-0.1,0.2-0.2,0.3-0.1,0.6
			c0,0.3-0.2,0.3-0.4,0.3c0-0.1,0-0.2-0.1-0.2c-0.5-0.1-0.6-0.5-0.6-0.9c0-0.6,0-1.1,0.1-1.7c0.3-1.8,0.6-3.6,0.9-5.4v-0.1
			c0.1-0.7,0-0.7-0.7-0.5l-0.8,0.2c-0.8,0.2-1.6,0.4-2.4,0.5c-0.4,0.1-0.5,0.3-0.6,0.6c-0.1,0.4-0.2,0.8-0.2,1.2
			c-0.2,1.1-0.3,2.1-0.7,3.2c-0.1,0.3-0.2,0.6-0.2,1s-0.2,0.7-0.4,1.1c0,0.2-0.3,0.2-0.4,0.1c-0.4-0.2-0.7-0.6-0.9-1
			c-0.4-1-0.5-2.1-0.5-3.1c0-0.5,0-1,0-1.5c0-0.2-0.1-0.3-0.3-0.2c-0.3,0-0.6,0.1-0.8,0.2c-0.5,0.2-0.9,0.1-1.4,0.1
			c-0.6,0-1-0.3-1.3-0.8c-0.1-0.3-0.3-0.5-0.5-0.8c-0.1-0.2-0.1-0.4,0.1-0.6c0.1,0,0.2-0.1,0.3-0.1c1.2-0.4,2.3-0.8,3.5-1.2
			c0.1,0,0.2,0,0.3-0.1c0.4-0.1,0.7-0.4,0.7-0.9c0.3-1.9,0.6-3.7,0.9-5.6c0.1-1,0.2-2,0.4-3c0-0.5,0-0.9-0.1-1.4
			c-0.1-0.6,0-0.6,0.6-0.9c0.6-0.3,1.1-0.1,1.6,0.3c0.5,0.4,0.8,0.9,0.9,1.6c0.1,0.8,0.1,1.6,0,2.5c-0.3,1.9-0.5,3.8-0.9,5.7
			c0,0.1,0,0.2,0,0.3c0,0.2,0.1,0.3,0.3,0.3c0.5,0,1,0,1.4-0.1c0.5-0.1,1-0.1,1.5-0.1c0.2,0,0.4,0,0.6-0.1c0.3,0,0.4-0.2,0.4-0.5
			c0.1-0.8,0.2-1.5,0.3-2.3c0.1-1,0.3-2,0.4-3c0.1-0.5,0.1-0.9,0-1.3c-0.2-0.5,0.3-0.9,0.8-0.8c1.7,0.3,2.4,1.6,2.2,2.9
			c-0.2,1-0.3,2-0.5,3l-0.2,1.3c0,0.1,0.1,0.2,0.2,0.2c0.2,0,0.3,0,0.5,0.1C291.4,293.9,291.4,294.1,291.4,294.1z M286.8,305.6
			L286.8,305.6L286.8,305.6L286.8,305.6z"/>
	</g>
	<path fill="#FFFFFF" d="M360.9,256.9c-0.4,0.4,0.3-0.7,0.5-0.9C361.7,255.6,361,256.7,360.9,256.9z"/>
	<path fill="#FFFFFF" d="M357.4,329.4c0.2,0.5-0.5-0.6-0.6-0.9C356.6,328,357.3,329.1,357.4,329.4z"/>
	<path fill="#FFFFFF" d="M364.2,254.3c-0.4,0.4,0.3-0.7,0.5-0.9C365.1,253,364.4,254.1,364.2,254.3z"/>
	<path fill="#FFFFFF" d="M390.1,355.7c0.4,0.3-0.7-0.2-0.9-0.3C388.7,355.1,389.9,355.5,390.1,355.7z"/>
	<path fill="#FFFFFF" d="M441.2,236.2c-0.4-0.2,0.7,0.1,0.9,0.2C442.6,236.7,441.5,236.3,441.2,236.2z"/>
	<path fill="#FFFFFF" d="M441.2,236.4c-0.4-0.2,0.7,0.1,0.9,0.2C442.5,236.9,441.4,236.5,441.2,236.4z"/>
	<path fill="#FFFFFF" d="M418.7,232.5c0.3-0.1,0.7-0.1,1,0C419.3,232.6,419,232.6,418.7,232.5z"/>
	<path fill="#FFFFFF" d="M423.4,232.7c0.6-0.1,1.3-0.1,1.9,0C424.7,232.7,424.1,232.7,423.4,232.7z"/>
	<path fill="#FFFFFF" d="M447.3,239.1l1.7,0.9l-0.1,0.2l-1.7-0.9L447.3,239.1z"/>
	<path fill="#FFFFFF" d="M441.9,237.1c-0.4-0.2,0.7,0.1,0.9,0.2C443.3,237.6,442.1,237.2,441.9,237.1z"/>
	<path fill="#FFFFFF" d="M364.4,280.5c0-0.3,0.1-0.6,0.2-0.8C364.7,280,364.6,280.3,364.4,280.5z"/>
	<g>
		<path fill="#FFFFFF" d="M411.9,231.2C411.9,231.2,411.9,231.2,411.9,231.2C412,231.2,412,231.2,411.9,231.2z"/>
		<path fill="#FFFFFF" d="M483.5,312.5c-0.4,0.6-0.8,1.2-1,1.9c-0.4,1-0.9,2.3-1.4,3.5c-0.8,2.2-1.8,4.2-3.2,6.1
			c0.2-0.5,0.3-1,0.5-1.5c3.5-8,5.4-16.8,5.4-26.1c0-15.8-5.6-30.3-15-41.6c-0.3-0.6-0.7-1.2-1.1-1.8c-2.5-2.8-5.2-5.5-7.9-8.1
			c-2.6-2.4-5.4-4.5-8.4-6.3c-0.7-0.6-1.4-1.1-2.2-1.5c-0.7-0.4-1.4-0.8-2-1.3c-2.6-1.3-6.1-2.4-7.5-3.1c-0.1,0.4-3.5-0.6-5-0.7
			c1,0.2,2,0.5,2.8,1c-2.2-0.9-4.5-1.5-6.9-1.9c-3.1-0.2-1.7,0.3-4.1,0.3c-2.5-0.5-6.9-0.4-10.5,0c-0.3,0-0.6,0-0.9,0
			c-0.5,0-1.1,0-1.6,0c-0.8,0-1.8,0-2.7,0.1c-1.7,0-3.3,0.2-4.9,0.6c0.9-0.1,1.7-0.1,2.7,0c-1.7,0.3-3.3,0.6-4.9,1
			c0.1-0.1,0.3-0.2,0.4-0.4c-2.9,0.5-5.8,1.4-8.5,2.5c0.1-0.3-1.1,0.2-1.1-0.1c-2.9,1-5.6,2.3-8.3,3.7c-3.2,1.7-6.2,3.7-9,6
			c-2.8,1.9-5.3,4.1-7.5,6.6c-1.4,0.9-3.7,3.5-4.6,4c1.1-1.2,0.6-1.7-0.4-0.3c-0.2,0.4-0.3,0.7-0.6,1.1c-0.2,0.5-0.6,1-1,1.6
			c-1.4,1.6-1.6,1.4-1.7,1c-0.1-0.4-0.1-1.1-0.8-0.2c-1.7,3.3,0.7,0.3-0.6,3.3c-1.8,1.4-2.8,1.6-2.7-0.4c-0.2,0-1.4,2.3-1.4,1.7
			c0-0.6,0.3-1.6-0.3-1.4c1-2.3,2.2-4.6,3.5-6.8c-1.2,1.7-1.5,1.9-2.5,3.6c-0.3-0.1-1.2,1.3-2.1,2.7c-0.9,1.4-1.7,2.8-1.9,2.6
			c-0.7,1.2-1.3,2.6-2,4.1s-1.2,3-1.7,4.5s-1,2.9-1.2,4.1s-0.6,2.2-0.7,2.9c0.8-4.2-0.5,1.6,0.1,0.5c0.6-1,0.7-1,0.8,0.2
			c0.7-2.5,0.7,0.2,0.7,0.2c0.2,0.1,1.1-1.8,0.1,2.2c-0.5,1.1-0.6,0.3-0.6-0.6c0-0.9,0-1.8-0.5-0.8c-0.3,1-0.6,2.1-0.8,3.2
			c-0.1-0.5,0.1-2.4-0.2-2.3c-0.3,1.9-0.6,3.4-0.8,4.3c0.3,0.4,0.1,2,0.2,3.6c0.1,1.6,0.1,3,0.4,3.1c0,1.4,0.1,2.6,0.2,3.6
			c0.1,1,0.3,2,0.4,2.9l1.2,6.3c0.8,1.8,1.5,3.6,2.1,5.4c0.4,1.1,0.8,2.4,1.4,3.6l0.8,1.9l0.9,1.9c0.2,0,0.5,0.3,1,1
			c0.6,1.1,1.2,2.3,1.7,3.5c0.9,2.2,2.1,4.8,3,6.6c1.3,2-0.7-1.9,1.3,1.6c1.5,2.3-0.9-0.3,0.7,2c0.8,0.4,2.2,2.4,3.8,4.6
			c1.2,1.8,2.6,3.4,4.1,5c1.3,1,0.6,0.3-0.2-0.7c-0.8-1-1.8-2.2-1.3-2.1c3.3,4.1,7,7.8,11,11.2c4.1,3.4,8.6,6.3,13.4,8.5
			c0.2-0.3-1.8-1.3-2.5-1.9c4.5,1.6,9.1,2.9,13.7,3.8l2.6,0.8l2.5,0.6c2.2,0.5,4.5,0.8,6.8,0.9c-0.6-0.6,2.3-0.5,5-0.7
			c0.1,0.3-1.7,0.3,0,0.5c-2.6,0.3-5.3,0.3-7.9,0.2c-1.4-0.1-2.6-0.2-3.6-0.2s-1.6,0-1.8,0.2c0.6,0.5,5.8,1.1,6.1,1.4
			c1.5,0,2.9,0.1,4.4,0.1c0.7,0,1.4,0,2.1,0h2.1c1.4,0,2.9-0.1,4.4-0.1s3-0.2,4.6-0.5c0.9-0.8,6.5-2,6.7-2.9
			c1.1-0.3,2.2-0.7,3.1-1.3c1.1-0.6,2.2-1.1,3.4-1.5c-0.5,0.3-0.9,0.6-1.3,0.9c-0.4,0.3-0.8,0.5-1,0.8c-0.6,0.5-0.9,0.9-1,1.1
			c4.4-1.2,7.2-2.2,9.1-2.5c1.2-0.6,2.2-1,3.1-1.4l2.5-1.2c1.9-1,3.8-2.1,5.5-3.3c0.8-0.7,1.5-1.6,2.1-2.5c0.8-0.7,1.5-1.4,2.2-2.1
			c0.5-0.5,1-1.1,1.4-1.6c0.8-1,1.4-1.9,2.5-3.3c2.8-3.3,3.3-4.7,6.4-9.2c1.4-2.9,2.8-5.9,5-11.1c1.2-2.4,2.2-4.9,2.9-7.4
			C482.2,317.4,483.6,313.2,483.5,312.5z M457.8,350.2c-0.5,0.3,0.5-0.5,0.7-0.7C459,349.2,458,350.1,457.8,350.2z M418.7,362.1
			c-1.6,0.2-3.1,0.2-3.2,0.6c-2.8-0.2-5.7-0.6-8.5-1.2l-1.9-0.4l-1.7-0.5c-0.9-0.2-1.7-0.6-2.5-1c-1.3-0.4-2.6-0.8-3.9-1
			c-0.4-0.1-0.9-0.2-1.3-0.3c-0.5-0.2-0.9-0.4-1.4-0.6c-1.7-0.5-2.9-0.9-3.8-1.1c-1.2,0,3,1.8,0.6,1.1c0.3,0.3-0.7,0-1.6-0.4
			c-0.9-0.4-1.5-0.8-1.1-0.4c-1.1-0.6-2.1-1.2-3.1-1.9l-3.7-2.4c-2.5-2.4-4.3-4.4-7.6-8c-1.3-1-2.5-2.2-3.5-3.5
			c-1-1.4,0.6,0.2,0.5-0.4c0.4,0.4,0.7,0.8,1.1,1.2c2,2.2,4.4,4.4,5.7,5.7c1.4,1,1.7,1.1,1.8,0.9c7.6,5.7,16.4,9.8,26,11.7
			c0.7,0.2,1.4,0.3,2.2,0.5c0.3,0,0.6,0,0.8,0c3.3,0.5,6.6,0.8,10,0.8c0.9,0,1.9,0,2.8-0.1C421.4,361.7,420.1,361.9,418.7,362.1z
			 M459.6,349.1c-0.1,0.5-2.1,1.9-3.2,2.5C456.5,351.3,458.4,350.1,459.6,349.1z M463.9,346.8c-1.6,1.8-3.4,3.2-5.5,4.2
			c-0.6-0.2,3.2-3,1.7-2.7c0.9-0.6,2-1.5,3-2.3s1.9-1.6,2.5-2.1C466.2,343.8,465.4,345.2,463.9,346.8z"/>
		<path fill="#FFFFFF" d="M411.9,231.2c-0.3,0-1.5,0.2-1,0.2C411,231.4,411.7,231.3,411.9,231.2z"/>
	</g>
	<g enable-background="new    ">
		<path fill="#F5AE1B" d="M392.4,289.4c-0.2,0.6-0.4,1.3-0.9,1.8c-0.1,0.2-0.2,0.3-0.3,0.5c-0.2,0.5-0.6,0.6-1,0.3c0,0,0,0-0.1,0
			c-0.4-0.2-0.6-0.6-0.4-1c0.2-0.5,0.3-0.9,0.3-1.4c0-0.2,0.1-0.5,0.1-0.7c0.1-0.5-0.2-0.9-0.7-0.9c-0.6,0-1.1,0.2-1.4,0.7
			c-0.5,0.7-0.5,1.5-0.8,2.2c0,0.1,0,0.2,0,0.3c0,1,0.1,1.9,0.7,2.8c0.3,0.5,0.5,1.1,0.7,1.6s0.6,0.9,0.9,1.5
			c0.2,0.5,0.4,1.1,0.5,1.6c0,0.4,0.2,0.7,0.3,1.1c0.5,1,0.7,2.1,0.7,3.2c0,0.5,0,1,0,1.4c-0.1,1.3-0.6,2.5-1.2,3.6c0,0,0,0,0,0.1
			c-0.3,0.9-1.1,1.3-1.8,1.7c-0.4,0.2-0.9,0.5-1.4,0.7c-0.3,0.2-0.6,0.4-0.9,0.3c-0.4,0-0.7-0.1-1-0.3c-0.1,0-0.2-0.1-0.3-0.1
			c-0.6,0-1-0.3-1.3-0.7l0,0c-0.1-0.1-0.2-0.1-0.4-0.2c-0.1-0.1-0.1-0.1,0-0.2c0.1,0,0.2,0,0.2-0.1c0-0.1-0.1-0.1-0.2-0.1
			c-0.3,0-0.4-0.2-0.5-0.4c-0.1-0.3-0.2-0.5-0.4-0.8c-0.3-0.5-0.4-1.1-0.3-1.7c0.1-0.6,0.2-1.1,0.6-1.6c0.5-0.6,1-1.2,1.2-2
			c0.3-0.3,0.4-0.7,0.7-1.1c0.3-0.3,0.6-0.5,1.1-0.4l0,0c-0.2,0.2-0.3,0.5-0.4,0.7c-0.4,0.8-0.7,1.6-1.2,2.3
			c-0.3,0.5-0.5,1.1-0.8,1.6c-0.1,0.2-0.1,0.4,0,0.6c0.2,0.2,0.2,0.6,0.3,0.9c0.1,0.5,0.2,0.9,0.6,1.2c0.4,0.3,0.7,0.3,1-0.1
			c0.3-0.4,0.6-0.7,0.9-1c0.3-0.3,0.5-0.5,0.6-0.9c0.5-1.1,1-2.1,1.2-3.3c0.3-1.4,0.2-2.7-0.4-4c0-0.1-0.1-0.2-0.2-0.2
			s-0.1,0.1-0.2,0.1c-0.1,0.2-0.2,0.4-0.3,0.6c-0.1-0.3-0.2-1.3-0.2-1.4c0-0.2,0.2-0.4,0.3-0.5c0.1-0.3,0.2-0.5,0-0.8
			c0-0.1,0-0.2-0.1-0.3c-0.4-0.9-0.7-1.9-0.9-2.9c-0.3-1-0.3-2.1,0-3.1c0.1-0.4,0.2-0.7,0.3-1.1c0.2-0.9,0.7-1.7,1.5-2.2
			c0.1-0.1,0.2-0.2,0.4-0.2c0.7-0.2,1.4-0.3,2-0.2c0.5,0.1,1,0.1,1.4,0.2c0.5,0.1,0.9,0.3,1.2,0.7c0,0.1,0.2,0.2,0.3,0.3
			C392.5,288.5,392.6,288.9,392.4,289.4z M383.3,309.7h-0.1c-0.1,0-0.1,0.1-0.2,0.1c0.1,0,0.1,0,0.2,0
			C383.2,309.8,383.3,309.8,383.3,309.7z"/>
		<path fill="#F5AE1B" d="M396.2,298.5C396.2,298.5,396.2,298.6,396.2,298.5c0.3,0.6,0.2,1.2,0.8,1.6c0.5,0.3,0.8,0.9,1.2,1.3
			c0.6,0.7,1.3,1.3,1.9,2.1s1.1,1.7,1.6,2.6c0.2,0.4,0.4,0.8,0.6,1.2c0.3,0.6,0.7,1.2,1.2,1.6c0.4,0.3,0.3,0.7,0,1
			c-0.3,0.2-0.7,0.3-1,0.4c-0.1,0-0.2,0-0.3-0.1c-0.7-0.3-1.3-0.6-1.8-1.2l-1.1-1.6c-0.4-0.6-0.8-1.3-1.3-1.9
			c-0.7-0.9-1.4-1.7-2.1-2.5c-0.3-0.3-0.4-0.8-0.9-0.9c-0.1,0-0.1,0.1-0.1,0.2c0,0.4-0.1,0.7-0.2,1c-0.2,0.5-0.3,1.1-0.5,1.6
			c-0.1,0.4-0.4,0.9-0.4,1.4c0,0.1,0,0.1,0,0.2c0,0.5-0.1,0.9-0.5,0.9l-0.1,0.1c0,0-0.1,0-0.1-0.1s-0.6-0.2-0.6-0.2
			c-0.1-1.2,0-2.4,0-3.6c0-1.2,0.2-2.4,0.1-3.7c0-1,0.1-1.9,0.3-2.9c0.2-2.2,0.7-4.3,1.1-6.5c0.1-0.8,0.3-1.5,0.2-2.3
			c0-0.1,0-0.2,0-0.3c0.1-0.1,0.2-0.2,0.3-0.1c0.4,0.2,0.8,0.5,1.1,0.9c0.7,1,0.9,2.1,0.7,3.4c-0.1,0.5-0.1,1-0.1,1.4
			c0,0.4,0,0.8-0.1,1.3c0,0.1-0.1,0.4,0.1,0.5s0.3-0.1,0.4-0.2c0.5-0.5,1.1-0.9,1.6-1.4c1.1-1.1,2.2-2.2,3.3-3.3
			c0.1-0.1,0.2-0.1,0.3-0.2c0.2-0.1,0.4-0.1,0.5,0c0,0,0,0,0.1,0c0.3,0.2,0.6,0.4,0.6,0.8c0,0.5-0.1,1-0.5,1.3l-1.3,1.3
			c-1,1-2.1,2-3.1,3c-0.3,0.4-0.6,0.8-0.9,1.1C396.9,297.9,396.5,298.1,396.2,298.5z"/>
		<path fill="#F5AE1B" d="M402.4,304.3c0-0.8,0.1-1.5,0.3-2.3l0.2-1.3c0-0.2,0.1-0.4,0.2-0.6c0.2-0.4,0.4-0.9,0.3-1.4
			c0-0.2,0-0.4,0.1-0.5c0.3-1.4,0.7-2.7,1.1-4.1c0.1-0.4,0.2-0.8,0.3-1.2c0.1-0.5,0.4-1.1,0.6-1.6c0.1-0.2,0.2-0.3,0.4-0.3
			c0.1,0,0.2,0,0.4-0.1c0.5-0.1,1-0.3,1.4,0.1c0.1,0.1,0.3,0.1,0.4,0c0.1,0,0.2-0.1,0.3-0.1c1.6-0.8,3.3-1.3,5-2.1
			c0.6-0.3,1.3-0.4,2-0.6c0.4-0.1,0.7-0.2,1.1-0.3c0.2-0.1,0.4-0.1,0.6-0.1s0.4,0.2,0.3,0.4c-0.2,0.2-0.1,0.6-0.3,0.8
			c-0.1,0.2-0.3,0.4-0.4,0.7c0,0.2-0.3,0.3-0.5,0.4c-0.3,0.1-0.5,0.3-0.7,0.5c-0.3,0.4-0.8,0.6-1.3,0.8c-0.5,0.2-0.9,0.4-1.3,0.6
			c-1.2,0.6-2.4,1.3-3.7,1.8c-0.1,0.1-0.3,0.1-0.4,0.2c-0.6,0-0.7,0.4-0.9,0.9c-0.2,0.8-0.5,1.6-0.7,2.3l-0.4,1.4
			c0,0.1,0.1,0.2,0.2,0.2l1.8-0.5c0.5-0.1,1-0.1,1.5-0.1c0.2,0,0.3,0.1,0.2,0.3c0,0.2-0.1,0.3,0,0.5v0.1c-0.3,0.2-0.4,0.7-0.8,0.9
			c-0.2,0.1-0.5,0.2-0.5,0.6c0,0.1-0.2,0.2-0.3,0.3c-0.5,0.3-1,0.5-1.5,0.6c-0.3,0.1-0.6,0.1-1,0c-0.4-0.1-0.4-0.1-0.5,0.3
			c-0.3,0.9-0.4,1.9-0.6,2.8c0,0.2,0,0.3,0,0.5c0,0.1,0.2,0.2,0.3,0.1c0.2-0.1,0.4-0.2,0.6-0.4c1.3-1,2.7-1.8,4.2-2.4
			c0.4-0.2,0.8-0.3,1.2-0.4c0.3,0,0.4,0.1,0.5,0.4c0.1,0.4-0.1,0.7-0.1,1.1c0,0.3-0.3,0.5-0.5,0.7c-0.3,0.2-0.6,0.5-0.7,0.8
			c0,0.1-0.1,0.1-0.2,0.2c-1.1,0.7-2.2,1.5-3.3,2.2c-0.5,0.3-1,0.5-1.5,0.6c-0.1,0-0.3,0-0.4,0c-0.7,0-1.3-0.4-1.8-0.9
			c-0.6-0.7-1-1.5-1-2.5v-0.3H402.4z"/>
		<path fill="#F5AE1B" d="M431.4,289.2c-0.5,0.2-1,0.4-1.5,0.6c-0.3,0.1-0.6,0.3-0.8,0.5c-0.5,0.6-1.1,0.9-1.8,1.2
			c-0.2,0.1-0.4,0.1-0.6,0.2c-1,0.7-2.2,1.1-3.2,1.6l-1.7,0.8c-0.4,0.1-0.6,0.4-0.6,0.8c0,1.5-0.2,3-0.6,4.4c0,0.2-0.1,0.3-0.1,0.5
			c-0.1,1.1-0.4,2.1-0.7,3.1c-0.3,1.1-0.6,2.3-0.9,3.5c-0.1,0.5-0.3,0.9-0.5,1.3c-0.3,0.5-0.5,1.1-0.8,1.6c-0.1,0.2-0.3,0.3-0.4,0.4
			c-0.3,0.2-0.7,0.1-0.8-0.3c-0.1-0.2-0.1-0.4-0.1-0.6c0-0.6,0-1.1,0.1-1.7c0.2-0.8,0.2-1.7,0.4-2.5c0.2-1.2,0.5-2.3,0.8-3.4
			c0.4-1.4,0.8-2.8,1.2-4.2c0.1-0.4,0.3-0.8,0.2-1.3c-0.3,0-0.5,0.1-0.6,0.2c-0.6,0.4-1.1,0.8-1.7,1.1c-0.9,0.5-1.8,0.8-2.8,0.9
			c-0.7,0.1-1.2-0.2-1.8-0.5H412c0-0.5-0.4-0.7-0.6-1.1c0-0.1,0-0.2,0.1-0.3c1.1-0.2,2-0.9,3-1.5l1.2-0.6c2.5-1.3,5.2-2.4,7.9-3.5
			c1.9-0.7,3.9-1.3,5.9-1.9c0.8-0.2,1.6-0.4,2.4-0.6c0.1,0,0.3,0,0.4,0l0.1,0.1v0.1c0,0.1-0.1,0.1-0.2,0.2c-0.4,0.2-0.7,0.3-1.1,0.5
			c-0.2,0.1-0.2,0.1,0,0.3C431.3,289.1,431.3,289.2,431.4,289.2z"/>
		<path fill="#F5AE1B" d="M432,302.8c0,0.2,0.1,0.4,0.1,0.6c0,0.2,0,0.5,0,0.7c-0.1,0.3-0.3,0.6-0.4,0.9s0,0.6-0.2,0.8
			c-0.1,0.1-0.1,0.1-0.1,0.2c-0.1,0.7-0.5,1.3-0.9,1.9c-0.1,0.2-0.1,0.3-0.2,0.5c0,0.1-0.1,0.3-0.2,0.4c-0.1,0.1-0.2,0.2-0.4,0.3
			c-0.6,0.2-1,0.8-1.8,0.7c-0.1,0-0.3-0.1-0.4-0.2c0-0.1-0.1-0.2-0.2-0.2c-0.7,0.1-1-0.6-1.6-0.9l-0.1-0.1c-0.7-1.2-1.2-2.4-1.1-3.9
			c0.1-1.1,0.1-2.3,0.2-3.4c0.1-0.9,0.2-1.8,0.3-2.7c0-0.3,0.1-0.6,0.1-0.9c0-0.6,0.2-1.3,0.4-1.9c0.3-1.6,0.7-3.2,1.3-4.8
			c0.5-1.3,1.1-2.6,2.1-3.6c0.1-0.1,0.2-0.3,0.3-0.4c0.1-0.2,0.3-0.4,0.5-0.4c0.7-0.1,1.5-0.5,2.3-0.3c0.9,0.2,1.6,0.9,1.7,1.9
			c0,0.9,0.1,1.8-0.1,2.7c0,0.1,0,0.3,0,0.4c0,0.9-0.1,1.8-0.1,2.7c0,0.9-0.2,1.7-0.2,2.5c0,0.6-0.5,0.8-0.8,1.1h-0.2
			c-0.5-0.1-0.9-0.3-1.1-0.8c-0.1-0.4-0.3-0.8,0-1.2c0.1-0.1,0.1-0.3,0.1-0.5c0-0.9,0.1-1.8,0.2-2.6c0-0.7,0.1-1.5,0.1-2.2
			c0-0.5,0-1-0.1-1.4c0-0.1-0.1-0.2-0.1-0.2c-0.1,0-0.2,0-0.2,0c-0.3,0.3-0.5,0.6-0.7,1c-0.5,1.2-1,2.4-1.3,3.6
			c-0.1,0.3-0.1,0.7-0.2,1c-0.2,0.8-0.5,1.7-0.7,2.5c-0.4,1.4-0.7,2.8-0.8,4.2c-0.1,0.8-0.3,1.6-0.3,2.4c0,1.1-0.3,2.1,0,3.2
			c0.1,0.4,0.2,0.8,0.4,1.2c0.1,0.3,0.3,0.3,0.6,0.1c0.3-0.2,0.6-0.4,0.8-0.7c0.9-1.1,1.8-2.2,2.6-3.5c0.1-0.2,0.2-0.3,0.4-0.5
			C431.9,303.1,431.8,302.9,432,302.8z"/>
		<path fill="#F5AE1B" d="M447.6,297c-0.5,0.3-0.6,0.9-1,1.2c-0.1,0.1-0.1,0.3-0.1,0.5c-0.2,0.9-0.3,1.9-0.5,2.8
			c-0.1,0.5-0.3,1-0.4,1.5c-0.1,0.3-0.2,0.7-0.4,1c-0.3,0.6-0.5,1.2-0.6,1.9c-0.2,0.7-0.6,1.2-0.9,1.8c-0.1,0.2-0.2,0.3-0.1,0.6
			c0,0.3-0.2,0.3-0.4,0.3c0-0.1,0-0.2-0.1-0.2c-0.5-0.1-0.6-0.5-0.6-0.9c0-0.6,0-1.1,0.1-1.7c0.3-1.8,0.6-3.6,0.9-5.4v-0.1
			c0.1-0.7,0-0.7-0.7-0.5L442,300c-0.8,0.2-1.6,0.4-2.4,0.5c-0.4,0.1-0.5,0.3-0.6,0.6c-0.1,0.4-0.2,0.8-0.2,1.2
			c-0.2,1.1-0.3,2.1-0.7,3.2c-0.1,0.3-0.2,0.6-0.2,1s-0.2,0.7-0.4,1.1c0,0.2-0.3,0.2-0.4,0.1c-0.4-0.2-0.7-0.6-0.9-1
			c-0.4-1-0.5-2.1-0.5-3.1c0-0.5,0-1,0-1.5c0-0.2-0.1-0.3-0.3-0.2c-0.3,0-0.6,0.1-0.8,0.2c-0.5,0.2-0.9,0.1-1.4,0.1
			c-0.6,0-1-0.3-1.3-0.8c-0.1-0.3-0.3-0.5-0.5-0.8c-0.1-0.2-0.1-0.4,0.1-0.6c0.1,0,0.2-0.1,0.3-0.1c1.2-0.4,2.3-0.8,3.5-1.2
			c0.1,0,0.2,0,0.3-0.1c0.4-0.1,0.7-0.4,0.7-0.9c0.3-1.9,0.6-3.7,0.9-5.6c0.1-1,0.2-2,0.4-3c0-0.5,0-0.9-0.1-1.4
			c-0.1-0.6,0-0.6,0.6-0.9c0.6-0.3,1.1-0.1,1.6,0.3s0.8,0.9,0.9,1.6c0.1,0.8,0.1,1.6,0,2.5c-0.3,1.9-0.5,3.8-0.9,5.7
			c0,0.1,0,0.2,0,0.3c0,0.2,0.1,0.3,0.3,0.3c0.5,0,1,0,1.4-0.1c0.5-0.1,1-0.1,1.5-0.1c0.2,0,0.4,0,0.6-0.1c0.3,0,0.4-0.2,0.4-0.5
			c0.1-0.8,0.2-1.5,0.3-2.3c0.1-1,0.3-2,0.4-3c0.1-0.5,0.1-0.9,0-1.3c-0.2-0.5,0.3-0.9,0.8-0.8c1.7,0.3,2.4,1.6,2.2,2.9
			c-0.2,1-0.3,2-0.5,3l-0.2,1.3c0,0.1,0.1,0.2,0.2,0.2c0.2,0,0.3,0,0.5,0.1C447.7,296.8,447.7,296.9,447.6,297z M443.1,308.5
			L443.1,308.5L443.1,308.5L443.1,308.5z"/>
	</g>
	<path fill="#FFFFFF" d="M760.3,365.6c0.5,0-0.7,0.3-1,0.3C758.8,365.9,760,365.6,760.3,365.6z"/>
	<path fill="#FFFFFF" d="M813.6,316.5c0.2-0.5-0.1,0.8-0.2,1C813.2,318,813.5,316.8,813.6,316.5z"/>
	<path fill="#FFFFFF" d="M756,365.1c0.5,0-0.7,0.2-1,0.2C754.5,365.3,755.7,365.1,756,365.1z"/>
	<path fill="#FFFFFF" d="M808.9,274.8c-0.1-0.5,0.4,0.6,0.4,0.9C809.4,276.2,809,275,808.9,274.8z"/>
	<path fill="#FFFFFF" d="M688.5,323.8c0.1,0.5-0.4-0.6-0.5-0.8C687.8,322.5,688.5,323.5,688.5,323.8z"/>
	<path fill="#FFFFFF" d="M688.8,323.7c0.2,0.5-0.4-0.6-0.5-0.8C688.1,322.4,688.7,323.4,688.8,323.7z"/>
	<path fill="#FFFFFF" d="M702,342.3c-0.3-0.2-0.5-0.4-0.7-0.7C701.6,341.8,701.8,342,702,342.3z"/>
	<path fill="#FFFFFF" d="M698.7,338.8c-0.1,0.1-0.8-0.8-1.3-1.4C697.9,337.9,698.3,338.3,698.7,338.8z"/>
	<path fill="#FFFFFF" d="M686.3,317.5l-0.6-1.8l0.2-0.1l0.6,1.8L686.3,317.5z"/>
	<path fill="#FFFFFF" d="M688.7,322.7c0.1,0.5-0.4-0.6-0.5-0.8C688.1,321.4,688.6,322.4,688.7,322.7z"/>
	<path fill="#FFFFFF" d="M774.3,346.3c-0.2,0.2-0.4,0.4-0.7,0.4C773.8,346.5,774,346.3,774.3,346.3z"/>
	<g>
		<path fill="#FFFFFF" d="M706,348.1c0.1,0.2,0.8,0.6,0.9,0.6c-0.2-0.2-0.4-0.3-0.6-0.5C706,348,705.8,347.9,706,348.1z"/>
		<path fill="#FFFFFF" d="M815.2,299c-0.2-1.6-0.2-0.6-0.3,0.6c-0.1,1.3-0.3,2.8-0.5,2.4c0.5-5.3,0.5-10.5,0-15.8
			c-0.5-5.3-1.7-10.5-3.5-15.5c-0.3,0.1,0.3,2.2,0.4,3.1c-2-4.3-4.4-8.4-7.1-12.3l-1.3-2.4l-1.3-2.2c-1-1.7-2.3-3.2-3.6-4.8
			c0.5,0.5,1,1,1.4,1.5c0.9,1,1.8,2,2.4,2.6c0.6,0.6,1.2,1.1,1.4,1.1c0-0.8-3.4-4.9-3.3-5.3c-1-1.1-2-2.1-3-3.1
			c-0.5-0.5-1-1-1.5-1.5l-1.5-1.5c-1-1-2.1-1.9-3.2-3c-1.1-1.1-2.3-2-3.6-2.9c-1.1-0.1-6-3.1-6.8-2.6c-1-0.6-2-1-3.1-1.3
			c-1.2-0.3-2.4-0.8-3.5-1.3l1.6,0.2c0.5,0.1,0.9,0.2,1.3,0.2c0.5,0.1,1,0.1,1.5-0.1c-4-2.2-6.6-3.5-8.2-4.6
			c-1.2-0.4-2.3-0.8-3.2-1.1l-2.7-0.9c-2-0.7-4.1-1.2-6.2-1.5c-1.1,0-2.2,0.1-3.2,0.3c-1-0.1-2.1-0.1-3.1-0.1
			c-0.7,0-1.4,0.1-2.2,0.2c-1.3,0.2-2.3,0.4-4.1,0.6c-4.3,0.4-5.6,1-11.1,2c-3,1.1-6.1,2.2-11.3,4.4c-2.5,0.8-5,1.9-7.3,3.2
			c1.1-0.1-2.8,1.8-3.2,2.4c0.7-0.1,1.4-0.3,2.1-0.7c1-0.4,2.2-1,3.5-1.5c2.1-1,4.3-1.7,6.6-2.1c-0.1,0.1-0.3,0.1-0.4,0.2
			c-8.6,3.2-16.6,8.3-23.5,15.2c-11.3,11.4-17.4,25.9-18.6,40.7c-0.2,0.6-0.3,1.2-0.4,1.8c-0.2,3.8-0.2,7.5,0,11.3
			c0.1,3.5,0.7,7,1.5,10.4c0,0.9,0.2,1.7,0.5,2.6c0.3,0.8,0.4,1.6,0.5,2.4c1,2.8,2.7,6.1,3.2,7.4c0.4-0.2,2.1,2.9,3.1,4
			c-0.6-0.8-1-1.7-1.3-2.7c1,2.1,2.1,4.2,3.5,6.1c2.1,2.3,1.5,0.9,3.2,2.6c1.5,2.2,4.8,5.3,7.6,7.5c0,0,0.1,0.1,0.1,0.1
			c0.4,0.5,1,1,1.5,1.5c0.4,0.4,0.8,0.8,1.2,1.2c0.2,0.1,0.4,0.3,0.5,0.4c0.1,0.1,0.1,0.1,0.1,0.1c0.1,0.1,0.1,0.1,0.2,0.2
			c1.2,1.1,2.6,2.1,4,3c-0.7-0.6-1.4-1.2-2-1.9c-0.1-0.1-0.1-0.1-0.2-0.2c1.5,1.1,3.1,2.1,4.7,3.1c-0.2,0-0.6,0-0.9,0
			c2.4,1.7,5.1,3.1,7.8,4.2c-0.3,0.1,0.9,0.7,0.7,0.8c2.8,1.3,5.6,2.3,8.5,3.2c3.5,1,7,1.7,10.7,2c3.3,0.6,6.7,0.8,10,0.6
			c1.6,0.3,5.1,0.1,6.1,0.4c-1.7,0.1-1.6,0.8,0.1,0.5c0.4-0.2,0.8-0.3,1.2-0.4c0.5-0.1,1.1-0.3,1.8-0.5c2.1-0.2,2.1,0.1,1.9,0.5
			c-0.2,0.4-0.7,0.8,0.4,0.8c3.6-1.2-0.3-0.7,2.8-1.9c2.2,0.3,3.1,0.9,1.7,2.1c0.1,0.2,2.6-0.6,2.2-0.2c-0.4,0.4-1.3,0.9-0.8,1.2
			c-2.4,1-4.8,1.8-7.3,2.4c2-0.4,2.4-0.3,4.3-0.8c0.2,0.3,1.8-0.1,3.5-0.4s3.2-0.8,3.2-0.5c1.3-0.4,2.8-1,4.3-1.5s3-1.3,4.4-2
			s2.7-1.4,3.8-2.1s2-1.2,2.5-1.6c-4,2,1-1.2-0.2-0.8c-1.2,0.3-1.2,0.2-0.5-0.7c-2.3,1.3-0.4-0.6-0.4-0.6c0-0.2-2.1,0.5,1.5-1.7
			c1.2-0.4,0.7,0.2,0.1,0.9s-1.2,1.2-0.2,0.9c1-0.5,1.9-1.1,2.8-1.7c-0.2,0.5-1.8,1.6-1.5,1.8c1.6-1.1,2.8-1.9,3.6-2.5
			c0.1-0.5,1.3-1.5,2.4-2.7s2.1-2.2,1.9-2.5c1-1,1.8-1.9,2.4-2.7s1.2-1.6,1.7-2.3l3.6-5.3c0.7-1.8,1.4-3.6,2.3-5.4
			c0.5-1.1,1.1-2.3,1.6-3.5l0.8-1.9l0.7-1.9c-0.2-0.2-0.2-0.6,0-1.4c0.3-1.2,0.8-2.5,1.3-3.7c0.9-2.1,1.9-4.9,2.5-6.7
			c0.4-2.4-0.9,1.8,0.2-2.1c0.5-2.7,0.4,0.9,0.9-1.9c-0.3-0.8,0.2-3.3,0.5-5.9C815,303.3,815.2,301.2,815.2,299z M793.6,248.2
			c1.3,1.1,2.6,2.2,3.8,3.4c-0.1,0.7-2.1-1.4-4.1-3.1C793.5,248.2,794.7,249.5,793.6,248.2z M757,231.1c0.4,0.1-0.8,0-1,0
			C755.5,231,756.7,231.1,757,231.1z M759,231.1c-0.3,0.1-2.5-0.4-4-0.5C755.3,230.3,757.7,230.7,759,231.1z M750.3,229.1
			c2.3-0.1,4.6,0.2,6.8,0.9c0.3,0.5-4.4-0.1-3.1,0.7c-1-0.2-2.4-0.3-3.7-0.5c-1.3-0.2-2.6-0.1-3.3-0.2
			C746.5,229.6,748.1,229.2,750.3,229.1z M812.6,298.9c-0.2,1.7-0.3-0.5-0.6-0.1c0-0.4,0-0.8,0-1.2c0.1-3.1-0.1-6.6-0.1-8.5
			c-0.2-1.6-0.4-1.9-0.6-1.9c-1.5-9.7-5.1-19.1-11-27.5c-0.2-0.4-0.5-0.7-0.7-1.2c-0.2-0.2-0.3-0.4-0.5-0.5
			c-1.9-2.6-4.1-5.1-6.4-7.4c-0.4-0.4-0.9-0.8-1.3-1.2c-0.3-0.3-0.6-0.6-0.9-1c0.1-0.4,1.3,0.5,2.5,1.4c1.2,0.9,2.4,2,2.6,1.8
			c1.9,2.2,3.6,4.4,5.2,6.8l1,1.6l0.8,1.5c0.5,0.8,0.8,1.6,1.1,2.4c0.6,1.2,1.3,2.4,2.1,3.5c0.3,0.4,0.5,0.7,0.7,1.1
			c0.2,0.5,0.4,0.9,0.5,1.4c0.8,1.5,1.4,2.7,1.9,3.5c0.8,0.9-0.9-3.4,0.3-1.2c0.1-0.4,0.5,0.5,0.8,1.4c0.3,0.9,1,2.1,1.1,1.5
			c0.3,1.2,0.6,2.3,0.8,3.5l0.9,4.3c0.1,3.4-0.1,6.1-0.2,11.1C812.8,295.6,812.8,297.3,812.6,298.9z"/>
	</g>
	<g enable-background="new    ">
		<path fill="#F5AE1B" d="M717.6,287.5c0.5,0,0.9,0,1.4,0c0.2,0,0.4,0,0.6,0.1c0.8,0.2,1.1,0.7,1.1,1.5c0,0.8,0,1.5,0,2.3
			c0,0.1,0,0.3,0.1,0.4c0.2,0,0.4-0.2,0.6-0.3c0.2-0.1,0.4-0.2,0.6-0.4c0.3-0.2,0.6-0.3,0.9-0.4c0.7-0.3,1.4-0.1,2.1,0
			c0.3,0,0.5,0.2,0.6,0.5c0.4,0.9,0.6,1.9,0.4,2.9c-0.1,0.9-0.3,1.8-0.6,2.6c-0.1,0.4-0.3,0.7-0.6,1c-0.4,0.5-0.8,1-1.2,1.4
			c-0.3,0.3-0.3,0.6-0.2,0.9c0.5,1.1,0.6,2.3,1,3.4c0.2,0.8,0.5,1.6,0.8,2.4c0.4,1.2,0.9,2.4,1.4,3.6c0.1,0.4,0.3,0.7,0.3,1.1
			c0,0.1,0,0.2,0.1,0.4c0.7,1.4,1.4,2.8,2.7,3.8c0.2,0.2,0.5,0.4,0.8,0.6c0.4,0.2,0.6,0.5,0.9,0.7c0.3,0.2,0.3,0.6,0.3,0.8
			c0.1,0.3-0.3,0.5-0.6,0.4c-0.1,0-0.3-0.1-0.4-0.2c-0.9-0.8-2-1.3-2.9-2.1c-1.1-0.9-2.1-1.8-2.8-3c-0.5-0.8-1.1-1.7-1.5-2.6
			c-0.7-1.4-1.3-2.9-1.8-4.3c-0.5-1.3-0.9-2.6-1.2-4c-0.1-0.3-0.2-0.6-0.3-0.9c-0.1-0.2-0.1-0.6-0.4-0.5c-0.2,0-0.2,0.4-0.2,0.6
			l-0.4,3.5c0,0.1,0,0.3,0,0.5c-0.4,0.8-0.3,1.7-0.4,2.6c0,0.6-0.2,1.2-0.4,1.8c-0.1,0.3-0.1,0.7-0.6,0.5c0,0-0.1,0-0.2,0.1
			c-0.4,0.3-0.6,0.1-1-0.1c-0.2-0.1-0.2-0.3-0.2-0.5c0-0.5,0-1,0-1.5c-0.1-1.7,0-3.4,0.1-5.1c0.1-1.8,0.3-3.5,0.5-5.3
			c0.2-1.8,0.4-3.5,0.6-5.3c0.1-0.6,0.2-1.1,0.2-1.7c0.1-0.6,0.2-1.2,0-1.8C717.5,287.7,717.6,287.6,717.6,287.5z M719.9,298.4
			c0.5-0.2,1-0.2,1.4-0.2c0.2,0,0.3,0,0.4,0.2c0.1,0.3,0.2,0.3,0.5,0.2c0.4-0.2,0.6-0.4,0.7-0.8c0-0.2,0.1-0.4,0.2-0.6
			c0.7-1.5,0.9-3,0.9-4.7c0-0.1,0-0.2,0-0.3c0-0.1-0.2-0.2-0.4-0.1c-0.5,0.5-1.2,0.8-1.6,1.4c-0.6,1-1.2,2-1.7,3.1
			c-0.1,0.3-0.2,0.6-0.3,0.8C719.8,297.7,719.8,298,719.9,298.4z"/>
	</g>
	<g enable-background="new    ">
		<path fill="#F5AE1B" d="M725.9,305c0-0.8,0.1-1.5,0.3-2.3l0.2-1.3c0-0.2,0.1-0.4,0.2-0.6c0.2-0.4,0.4-0.9,0.3-1.4
			c0-0.2,0-0.4,0.1-0.5c0.3-1.4,0.7-2.7,1.1-4.1c0.1-0.4,0.2-0.8,0.3-1.2c0.1-0.5,0.4-1.1,0.6-1.6c0.1-0.2,0.2-0.3,0.4-0.3
			c0.1,0,0.2,0,0.4-0.1c0.5-0.1,1-0.3,1.4,0.1c0.1,0.1,0.3,0.1,0.4,0c0.1,0,0.2-0.1,0.3-0.1c1.6-0.8,3.3-1.3,5-2.1
			c0.6-0.3,1.3-0.4,2-0.6c0.4-0.1,0.7-0.2,1.1-0.3c0.2-0.1,0.4-0.1,0.6-0.1c0.2,0,0.4,0.2,0.3,0.4c-0.2,0.2-0.1,0.6-0.3,0.8
			c-0.1,0.2-0.3,0.4-0.4,0.7c0,0.2-0.3,0.3-0.5,0.4c-0.3,0.1-0.5,0.3-0.7,0.5c-0.3,0.4-0.8,0.6-1.3,0.8c-0.5,0.2-0.9,0.4-1.3,0.6
			c-1.2,0.6-2.4,1.3-3.7,1.8c-0.1,0.1-0.3,0.1-0.4,0.2c-0.6,0-0.7,0.4-0.9,0.9c-0.2,0.8-0.5,1.6-0.7,2.3l-0.4,1.4
			c0,0.1,0.1,0.2,0.2,0.2l1.8-0.5c0.5-0.1,1-0.1,1.5-0.1c0.2,0,0.3,0.1,0.2,0.3c0,0.2-0.1,0.3,0,0.5v0.1c-0.3,0.2-0.4,0.7-0.8,0.9
			c-0.2,0.1-0.5,0.2-0.5,0.6c0,0.1-0.2,0.2-0.3,0.3c-0.5,0.3-1,0.5-1.5,0.6c-0.3,0.1-0.6,0.1-1,0s-0.4-0.1-0.5,0.3
			c-0.3,0.9-0.4,1.9-0.6,2.8c0,0.2,0,0.3,0,0.5c0,0.1,0.2,0.2,0.3,0.1c0.2-0.1,0.4-0.2,0.6-0.4c1.3-1,2.7-1.8,4.2-2.4
			c0.4-0.2,0.8-0.3,1.2-0.4c0.3,0,0.4,0.1,0.5,0.4c0.1,0.4-0.1,0.7-0.1,1.1c0,0.3-0.3,0.5-0.5,0.7c-0.3,0.2-0.6,0.5-0.7,0.8
			c0,0.1-0.1,0.1-0.2,0.2c-1.1,0.7-2.2,1.5-3.3,2.2c-0.5,0.3-1,0.5-1.5,0.6c-0.1,0-0.3,0-0.4,0c-0.7,0-1.3-0.4-1.8-0.9
			c-0.6-0.7-1-1.5-1-2.5V305H725.9z"/>
	</g>
	<g enable-background="new    ">
		<path fill="#F5AE1B" d="M746.7,296.8v0.5c0,0.1,0,0.2-0.1,0.3c-0.2,0.1-0.3,0.4-0.4,0.6c-0.5,0.7-0.9,1.4-1.4,2
			c-0.5,0.6-1.2,1.1-2.1,1.3c-0.1,0-0.2,0-0.3,0c-0.4-0.1-0.8-0.1-1.2-0.2c-0.5-0.1-0.6,0-0.7,0.4c-0.2,0.8-0.2,1.7-0.5,2.4
			c0,0.1-0.1,0.3-0.1,0.4c0,0.6-0.2,1.1-0.3,1.6c-0.2,0.6-0.3,1.2-0.4,1.8c-0.1,0.6-0.3,0.9-0.8,1c-0.6,0.1-0.9-0.1-1.1-0.7
			c-0.1-0.6-0.3-1.2-0.3-1.8c-0.1-1.3-0.2-2.7,0.2-4c0.3-1.2,0.5-2.4,0.7-3.6c0.1-0.7,0.3-1.3,0.5-2c0.3-1.2,0.4-2.5,0.7-3.8
			c0.1-0.5,0.2-1.1,0.4-1.6c0.2-0.6,0.5-0.7,1.1-0.6c0.7,0.1,0.9,0.4,1,1.1c0,0.3,0,0.5,0.1,0.8c0,0.1,0.2,0.2,0.3,0.1
			c0.2-0.1,0.4-0.3,0.6-0.5c2-1.8,4.2-3.2,6.5-4.6c0.9-0.6,1.9-0.9,2.9-1.3c0.3-0.1,0.7-0.2,1.1-0.3c0,0,0.2,0,0.2,0.1
			c0.1,0.4,0.4,0.9,0.1,1.3c-0.3,0.5-0.6,1-1.2,1.3c-0.6,0.3-1.2,0.7-1.8,1.1c-0.3,0.2-0.6,0.4-0.9,0.6l-3.6,2.8
			c-0.1,0.1-0.3,0.2-0.4,0.3c-0.7,0.7-1.5,1.2-2.2,1.9c-0.3,0.3-0.7,0.6-1.1,0.8c-0.2,0-0.2,0.2-0.3,0.4c-0.2,0.6-0.2,1.1-0.3,1.7
			c0,0.1,0.1,0.2,0.2,0.2c0.2,0,0.3-0.1,0.5-0.2c0.7-0.3,1.5-0.6,2.2-1C745.2,297.1,745.9,296.9,746.7,296.8
			C746.4,296.7,746.5,296.7,746.7,296.8z"/>
		<path fill="#F5AE1B" d="M749.2,312.2c-0.5-0.6-0.7-1.3-0.8-2.1c0-0.1,0-0.2,0-0.4c0.2-1.4,0-2.9,0.1-4.3c0-1.3,0-2.7,0-4
			c0.1-2.1,0.1-4.2,0.4-6.2c0.1-1.1,0.3-2.2,0.4-3.3c0-0.3,0-0.6,0-0.8c0-0.7,0-1.3,0-2c0-0.3,0.1-0.4,0.2-0.6
			c0.1,0,0.1-0.1,0.2-0.1c0.7-0.2,1.4-0.4,2.1-0.1c0.6,0.3,1.1,0.9,1.1,1.9c0.1,1.3,0,2.5-0.2,3.8c-0.2,1.2-0.4,2.5-0.6,3.7
			c-0.2,1.4-0.4,2.9-0.6,4.3c-0.1,0.5-0.1,1.1-0.2,1.6c-0.1,1.1-0.2,2.2-0.4,3.3c-0.1,0.5,0,1-0.2,1.5c0,0.2,0,0.5-0.1,0.5
			c-0.2,0.2-0.2,0.6-0.5,0.8c-0.2,0.1-0.3,0.4-0.3,0.6C749.8,311.1,749.5,311.6,749.2,312.2z"/>
		<path fill="#F5AE1B" d="M768.3,291.2c-0.3,0.1-0.4,0.4-0.4,0.7c0,0.4-0.2,0.7-0.4,1.1c-0.5,0.8-0.9,1.7-1.4,2.6
			c-0.5,0.9-0.8,1.8-1.2,2.7c0,0.1-0.1,0.2-0.1,0.3c0,0.6-0.3,1.1-0.4,1.7c-0.2,0.6-0.6,1.2-0.7,1.9c-0.3,1.1-0.7,2.1-0.9,3.3
			c0,0.2-0.1,0.4-0.1,0.6c-0.1,0.3-0.1,0.6,0.1,0.9c0.1,0.1,0.1,0.2,0.1,0.3c0,0.2,0,0.5-0.2,0.6c-0.2,0.2-0.5,0.3-0.8,0.4
			c-0.3,0.1-0.6,0.1-0.9-0.1c-0.2-0.1-0.5-0.2-0.7-0.3c-0.4-0.1-0.7-0.4-0.9-0.9c-0.4-0.9-0.6-1.8-0.7-2.7c-0.2-1.3-0.4-2.6-0.7-4
			c-0.1-0.4-0.2-0.7-0.3-1.1l-0.1-0.1c0,0-0.1,0-0.1,0.1c-0.2,1-0.4,1.9-0.5,2.9c-0.1,0.9-0.3,1.8-0.6,2.7c-0.1,0.3-0.1,0.6-0.2,0.9
			c0,0.1,0,0.2-0.1,0.3c-0.5,0.6-0.7,1.4-1,2.1c-0.2,0.4-0.3,0.9-0.4,1.3c-0.1,0.1-0.2,0.2-0.3,0.3c-0.1,0-0.2,0-0.2,0
			c-0.2-0.3-0.5-0.5-0.6-0.8c-0.1-0.6-0.3-1.2-0.3-1.9c0-1.6-0.1-3.3,0.2-4.9c0.2-1.6,0.4-3.2,0.5-4.8l0.2-1
			c0.1-0.5,0.1-1.1,0.2-1.6c0-0.8,0.2-1.6,0.4-2.4c0.1-0.5,0.4-0.7,0.8-0.7c0.5,0,1-0.1,1.4,0c0.4,0.2,0.8,0.4,1,0.8
			c0.1,0.3,0.3,0.6,0.6,0.8c0.4,0.3,0.6,0.8,0.8,1.3c0.6,1.3,1.1,2.7,1.6,4.1c0.2,0.6,0.4,1.2,0.4,1.9c0,0.3,0,0.6,0.3,0.9
			c0.4-0.8,1.1-1.5,1.6-2.3c0.1-0.1,0.2-0.3,0.2-0.5c0.7-2,1.9-3.7,2.8-5.6c0-0.1,0.1-0.2,0.1-0.2c0.5-0.5,0.9-1.1,1.2-1.7
			C767.8,291.1,768.1,291.1,768.3,291.2z"/>
		<path fill="#F5AE1B" d="M765.1,305c0-0.8,0.1-1.5,0.3-2.3l0.2-1.3c0-0.2,0.1-0.4,0.2-0.6c0.2-0.4,0.4-0.9,0.3-1.4
			c0-0.2,0-0.4,0.1-0.5c0.3-1.4,0.7-2.7,1.1-4.1c0.1-0.4,0.2-0.8,0.3-1.2c0.1-0.5,0.4-1.1,0.6-1.6c0.1-0.2,0.2-0.3,0.4-0.3
			c0.1,0,0.2,0,0.4-0.1c0.5-0.1,1-0.3,1.4,0.1c0.1,0.1,0.3,0.1,0.4,0c0.1,0,0.2-0.1,0.3-0.1c1.6-0.8,3.3-1.3,5-2.1
			c0.6-0.3,1.3-0.4,2-0.6c0.4-0.1,0.7-0.2,1.1-0.3c0.2-0.1,0.4-0.1,0.6-0.1c0.2,0,0.4,0.2,0.3,0.4c-0.2,0.2-0.1,0.6-0.3,0.8
			c-0.1,0.2-0.3,0.4-0.4,0.7c0,0.2-0.3,0.3-0.5,0.4c-0.3,0.1-0.5,0.3-0.7,0.5c-0.3,0.4-0.8,0.6-1.3,0.8c-0.5,0.2-0.9,0.4-1.3,0.6
			c-1.2,0.6-2.4,1.3-3.7,1.8c-0.1,0.1-0.3,0.1-0.4,0.2c-0.6,0-0.7,0.4-0.9,0.9c-0.2,0.8-0.5,1.6-0.7,2.3l-0.4,1.4
			c0,0.1,0.1,0.2,0.2,0.2l1.8-0.5c0.5-0.1,1-0.1,1.5-0.1c0.2,0,0.3,0.1,0.2,0.3c0,0.2-0.1,0.3,0,0.5v0.1c-0.3,0.2-0.4,0.7-0.8,0.9
			c-0.2,0.1-0.5,0.2-0.5,0.6c0,0.1-0.2,0.2-0.3,0.3c-0.5,0.3-1,0.5-1.5,0.6c-0.3,0.1-0.6,0.1-1,0s-0.4-0.1-0.5,0.3
			c-0.3,0.9-0.4,1.9-0.6,2.8c0,0.2,0,0.3,0,0.5c0,0.1,0.2,0.2,0.3,0.1c0.2-0.1,0.4-0.2,0.6-0.4c1.3-1,2.7-1.8,4.2-2.4
			c0.4-0.2,0.8-0.3,1.2-0.4c0.3,0,0.4,0.1,0.5,0.4c0.1,0.4-0.1,0.7-0.1,1.1c0,0.3-0.3,0.5-0.5,0.7c-0.3,0.2-0.6,0.5-0.7,0.8
			c0,0.1-0.1,0.1-0.2,0.2c-1.1,0.7-2.2,1.5-3.3,2.2c-0.5,0.3-1,0.5-1.5,0.6c-0.1,0-0.3,0-0.4,0c-0.7,0-1.3-0.4-1.8-0.9
			c-0.6-0.7-1-1.5-1-2.5V305H765.1z"/>
	</g>
	<path fill="#FFFFFF" d="M858.2,256.9c-0.4,0.4,0.3-0.7,0.5-0.9C859,255.6,858.4,256.7,858.2,256.9z"/>
	<path fill="#FFFFFF" d="M854.8,329.4c0.2,0.5-0.5-0.6-0.6-0.9C854,328,854.7,329.1,854.8,329.4z"/>
	<path fill="#FFFFFF" d="M861.6,254.3c-0.4,0.4,0.3-0.7,0.5-0.9C862.5,253,861.8,254.1,861.6,254.3z"/>
	<path fill="#FFFFFF" d="M887.4,355.7c0.4,0.3-0.7-0.2-0.9-0.3C886.1,355.1,887.2,355.5,887.4,355.7z"/>
	<path fill="#FFFFFF" d="M938.6,236.2c-0.4-0.2,0.7,0.1,0.9,0.2C940,236.7,938.8,236.3,938.6,236.2z"/>
	<path fill="#FFFFFF" d="M938.5,236.4c-0.4-0.2,0.7,0.1,0.9,0.2C939.8,236.9,938.8,236.5,938.5,236.4z"/>
	<path fill="#FFFFFF" d="M916,232.5c0.3-0.1,0.7-0.1,1,0C916.7,232.6,916.3,232.6,916,232.5z"/>
	<path fill="#FFFFFF" d="M920.8,232.7c0.6-0.1,1.3-0.1,1.9,0C922.1,232.7,921.4,232.7,920.8,232.7z"/>
	<path fill="#FFFFFF" d="M944.7,239.1l1.7,0.9l-0.1,0.2l-1.7-0.9L944.7,239.1z"/>
	<path fill="#FFFFFF" d="M939.3,237.1c-0.4-0.2,0.7,0.1,0.9,0.2C940.6,237.6,939.5,237.2,939.3,237.1z"/>
	<path fill="#FFFFFF" d="M861.8,280.5c0-0.3,0.1-0.6,0.2-0.8C862.1,280,862,280.3,861.8,280.5z"/>
	<g>
		<path fill="#FFFFFF" d="M907.4,231.8c0.3,0,0.5,0,0.7,0c-0.1,0-0.3,0-0.4,0C907.6,231.8,907.5,231.8,907.4,231.8z"/>
		<path fill="#FFFFFF" d="M980.8,312.6c-0.4,0.6-0.8,1.2-1,1.9c-0.4,1-0.8,2.3-1.4,3.5c-0.8,2.2-1.8,4.2-3.2,6.1
			c0.2-0.6,0.4-1.2,0.6-1.8c3.4-7.9,5.3-16.7,5.3-25.9c0-7.1-1.2-13.9-3.3-20.3c-0.2-1-0.8-2.7-0.8-3.3c-0.5-0.8-0.9-1.7-1.4-2.6
			c-0.8-1.9-1.8-3.8-2.8-5.6c-1.5-3.1-3.3-6-5.4-8.7c-0.5-1.2-1.2-2.4-1.9-3.5c-2.5-2.8-5.2-5.5-7.9-8.1c-2.6-2.4-5.4-4.5-8.4-6.3
			c-0.7-0.6-1.4-1.1-2.2-1.5c-0.7-0.4-1.4-0.8-2-1.3c-2.6-1.3-6.2-2.4-7.5-3.1c-0.1,0.4-3.5-0.6-5-0.7c1,0.2,2,0.5,2.8,1
			c-2.2-0.9-4.5-1.5-6.9-1.9c-3.1-0.2-1.7,0.3-4.1,0.3c-2.6-0.5-7.2-0.4-10.8,0c-0.6,0-1.4,0-2.2,0s-1.8,0-2.7,0.1
			c-1.7,0.1-3.3,0.3-4.9,0.7c0.9-0.1,1.8-0.1,2.8,0c0.4,0.1,0.8,0.1,1.2,0.1c0.5-0.1,1-0.2,1.6-0.2c0.7-0.1,1.4-0.1,2.1-0.1
			c0.3,0,0.6,0,0.8,0c-1.3,0.1-2.6,0.2-3.8,0.3c-0.1,0-0.2,0-0.3,0c0,0,0.1,0,0.1,0c-2.4,0.3-4.8,0.7-7.1,1.3
			c-0.1-0.2,0.4-0.5,0.7-0.8c-2.9,0.5-5.8,1.3-8.5,2.5c0.1-0.3-1.1,0.2-1.1-0.1c-2.9,1-5.6,2.3-8.3,3.7c-3.2,1.7-6.2,3.7-9,6
			c-2.8,1.9-5.4,4.1-7.6,6.7c-1.4,0.9-3.7,3.5-4.7,4c1.1-1.2,0.6-1.7-0.4-0.3c-0.2,0.4-0.3,0.7-0.6,1.1c-0.2,0.5-0.6,1-1,1.6
			c-1.4,1.6-1.6,1.4-1.7,1c-0.1-0.4-0.1-1.1-0.8-0.2c-1.7,3.3,0.7,0.3-0.7,3.3c-1.8,1.4-2.8,1.6-2.7-0.4c-0.2,0-1.4,2.3-1.4,1.7
			s0.3-1.6-0.3-1.4c1-2.4,2.1-4.6,3.5-6.8c-1.2,1.7-1.5,1.9-2.5,3.6c-0.3-0.1-1.2,1.3-2.1,2.7c-0.9,1.4-1.6,2.8-1.8,2.6
			c-0.7,1.2-1.3,2.6-2,4.1s-1.2,3-1.7,4.5s-1,2.9-1.2,4.1c-0.2,1.2-0.6,2.2-0.7,2.9c0.6-3.8-0.7,2-0.1,0.9c0.6-1,0.7-1,0.8,0.2
			c0.7-2.5,0.7,0.2,0.7,0.2c0.2,0.1,1.1-1.8,0.1,2.2c-0.5,1.1-0.6,0.3-0.6-0.6c0-0.9,0-1.8-0.5-0.8c-0.3,1-0.6,2.1-0.8,3.2
			c-0.1-0.5,0.1-2.4-0.2-2.3c-0.3,1.9-0.6,3.4-0.8,4.3c0.3,0.4,0.1,2,0.2,3.6c0.1,1.6,0.1,3,0.4,3.1c0,1.4,0.1,2.6,0.2,3.6
			s0.3,2,0.4,2.9l1.2,6.3c0.8,1.8,1.5,3.6,2.1,5.5c0.4,1.1,0.8,2.4,1.4,3.6l0.8,1.9l0.8,1.9c0.2,0,0.5,0.3,1,1
			c0.6,1.1,1.2,2.3,1.7,3.5c0.8,2.2,2.1,4.8,3,6.6c1.3,2-0.7-1.9,1.3,1.6c1.5,2.3-0.9-0.3,0.7,2c0.8,0.4,2.2,2.4,3.8,4.6
			c1.2,1.8,2.6,3.4,4.1,5c1.3,1,0.6,0.3-0.2-0.7s-1.8-2.2-1.3-2.1c3.3,4.1,7,7.8,11,11.2c4.1,3.4,8.6,6.3,13.4,8.5
			c0.2-0.3-1.8-1.3-2.5-1.9c4.5,1.6,9.1,2.9,13.7,3.8l2.6,0.8l2.5,0.6c2.2,0.5,4.5,0.8,6.8,0.9c-0.7-0.6,2.3-0.5,5-0.7
			c0.1,0.3-1.7,0.3,0,0.5c-2.6,0.3-5.3,0.3-7.9,0.2c-1.4-0.1-2.6-0.2-3.6-0.2s-1.6,0-1.8,0.2c0.6,0.5,5.8,1.1,6.1,1.4
			c1.5,0,2.9,0.1,4.3,0.1c0.7,0,1.4,0,2.1,0h2.1c1.4,0,2.9-0.1,4.4-0.1s3-0.2,4.6-0.5c0.9-0.8,6.5-2,6.7-2.9
			c1.1-0.3,2.2-0.7,3.2-1.3c1.1-0.6,2.2-1.1,3.4-1.5c-0.5,0.3-0.9,0.6-1.3,0.9s-0.8,0.5-1,0.8c-0.6,0.5-0.9,0.9-1,1.1
			c4.4-1.2,7.2-2.2,9.1-2.5c1.2-0.6,2.2-1,3.1-1.4l2.5-1.2c1.9-1,3.8-2.1,5.5-3.3c0.8-0.7,1.5-1.6,2.1-2.5c0.8-0.7,1.5-1.4,2.2-2.1
			c0.5-0.5,1-1.1,1.4-1.6c0.8-1,1.4-1.9,2.5-3.3c2.8-3.3,3.3-4.7,6.4-9.2c1.4-2.9,2.8-5.9,5-11.1c1.2-2.4,2.2-4.9,2.9-7.4
			C979.5,317.5,980.9,313.3,980.8,312.6z M908.2,231.4c-0.5,0,0.7-0.2,1-0.2C909.7,231.1,908.5,231.4,908.2,231.4z M955.2,350.2
			c-0.5,0.3,0.4-0.5,0.7-0.7C956.4,349.2,955.4,350.1,955.2,350.2z M947.2,238.9c0.9,0.5,1.9,1,3.2,1.9c0.8,0.6,0.8,0.7,0.6,0.7
			c-2.5-1.6-5.1-3-7.9-4.3c0.4,0.1,0.8,0.2,1.3,0.4L947.2,238.9z M933.5,233.3c1,0.4,2.6,1,3.7,1.6c-2.7-0.9-5.5-1.7-8.3-2.3
			c0.1,0,0.2,0,0.3,0C930.7,232.7,932.1,233,933.5,233.3z M915.7,362.1c-1.6,0.2-3.1,0.2-3.2,0.6c-2.8-0.2-5.7-0.6-8.5-1.2l-1.9-0.4
			l-1.7-0.5c-0.9-0.2-1.7-0.6-2.5-1c-1.3-0.4-2.6-0.8-3.9-1c-0.4-0.1-0.9-0.2-1.3-0.3c-0.5-0.2-0.9-0.4-1.4-0.6
			c-1.7-0.5-2.9-0.9-3.8-1.1c-1.2,0,3,1.8,0.6,1.1c0.3,0.3-0.7,0-1.6-0.4c-0.9-0.4-1.2-0.8-0.8-0.4c-1.1-0.6-2.1-1.2-3.1-1.9
			l-3.8-2.4c-2.5-2.4-4.3-4.4-7.7-8c-1.3-1-2.5-2.2-3.5-3.5c-1.1-1.5,0.8,0.4,0.5-0.5c2.2,2.6,5.3,5.4,6.8,7c1.6,1.2,1.8,1,1.9,0.8
			c0.4,0.3,0.9,0.7,1.4,1c0,0,0.1,0.1,0.1,0.1c0.1,0.1,0.2,0.1,0.4,0.2c6.9,4.9,14.8,8.4,23.4,10.3l0.4,0.1c0.8,0.2,1.6,0.4,2.6,0.6
			c0.4,0.1,0.7,0,0.9,0c3.3,0.5,6.7,0.8,10.1,0.8c0.8,0,1.7,0,2.5-0.1C918.4,361.7,917.1,361.9,915.7,362.1z M956.9,349.1
			c-0.1,0.5-2.1,1.9-3.2,2.5C953.9,351.3,955.7,350.1,956.9,349.1z M961.3,346.8c-1.6,1.8-3.5,3.2-5.5,4.2c-0.6-0.2,3.2-3,1.7-2.7
			c0.9-0.6,2-1.5,3-2.3s1.9-1.6,2.5-2.1C963.6,343.8,962.8,345.2,961.3,346.8z"/>
	</g>
	<g enable-background="new    ">
		<path fill="#F5AE1B" d="M872.5,300.8c0,0.3,0.4,0.4,0.1,0.6c0.1,0.5-0.1,0.9,0,1.4c0.1,0.8,0,1.5-0.4,2.3
			c-0.1,0.2-0.3,0.4-0.3,0.7c0,0.2-0.1,0.4-0.3,0.6c-0.2,0.3-0.4,0.6-0.5,1c0,0.1-0.1,0.3-0.2,0.4c-0.5,0.5-0.8,1.2-1.2,1.8
			c-0.7,1-2.2,1.5-3.4,1.1c-0.5-0.2-0.9-0.5-1.2-0.9c-0.7-1-1.1-2.1-1.3-3.2c-0.4-1.7-0.3-3.3-0.2-5c0.1-0.9,0.3-1.8,0.6-2.7
			c0.7-2.3,1.6-4.6,2.7-6.7c0.7-1.6,1.7-3,2.8-4.3c0.2-0.3,0.5-0.5,0.7-0.7c0.7-0.8,2.4-0.7,3.1-0.2c0.2,0.2,0.5,0.3,0.7,0.5
			c0.7,0.5,1,1.1,1,1.8c-0.1,1.6-0.4,3.1-1,4.6c-0.1,0.4-0.3,0.8-0.4,1.2c-0.2,0.7-0.7,1.2-1.2,1.6c-0.1,0.1-0.3,0.2-0.5,0.1
			c-0.2-0.1-0.2-0.3-0.1-0.5c0.2-0.3,0.1-0.6,0.2-0.9c0-0.8,0.4-1.6,0.7-2.4c0.4-1,0.5-2,0.3-3.1c-0.1-0.3,0-0.7,0-1
			c0,0,0-0.1-0.1-0.1c0,0-0.1,0-0.2,0c-0.5,0.6-1,1.1-1.2,1.8c-0.2,0.7-0.5,1.3-0.8,1.9c-0.9,1.8-1.8,3.6-2.5,5.5
			c-0.3,0.8-0.6,1.7-0.8,2.5c-0.3,1.1-0.6,2.1-0.8,3.3c-0.2,1.3-0.2,2.7,0,4c0,0,0,0.1,0,0.2c0,0.2,0.2,0.3,0.4,0.2
			c0.3-0.1,0.5-0.3,0.7-0.5c1.6-1.3,2.8-3,3.4-4.9C871.8,302,872.2,301.5,872.5,300.8z"/>
		<path fill="#F5AE1B" d="M883.9,297.3c0.2,1-0.1,2-0.2,3.1c-0.1,0.8-0.5,1.6-0.9,2.3c-0.4,0.6-0.8,1.2-1.2,1.8
			c-0.2,0.3-0.5,0.5-0.8,0.7c-0.6,0.6-1.3,1.2-1.9,1.8c-0.7,0.7-1.5,0.9-2.3,1.2c-0.7,0.2-1.4,0-2-0.4c-0.1,0-0.2-0.1-0.2-0.2
			c-0.6-0.7-1.2-1.3-1.4-2.3c-0.3-1-0.4-1.9-0.5-2.9c0-1.4,0.2-2.8,0.6-4.1c0.6-2,1.5-3.9,2.4-5.7c0.4-0.8,0.8-1.5,1.4-2.2
			c0.3-0.3,0.6-0.6,1-0.6c0.2,0,0.3,0,0.5-0.1c0.2-0.1,0.4-0.1,0.6,0c0.3,0.1,0.5,0.1,0.7,0.1c0.6-0.1,1.3,0.6,1.2,1.3
			c0,0.4,0.1,0.6,0.4,0.7c0.5,0.1,0.9,0.4,1.1,1c0,0.1,0.1,0.2,0.2,0.3c1,1.1,1.2,2.5,1.1,4V297.3z M878.3,298.7
			c-0.5-0.2-0.8-0.4-1.2-0.8c-0.2-0.2-0.4-0.1-0.5,0.2c-0.2,0.6-0.4,1.2-0.6,1.8c-0.5,1.1-0.6,2.3-0.7,3.6c0,0.5,0.1,0.9,0.1,1.3
			c0,0.3,0.2,0.5,0.4,0.6c0.2,0.3,0.4,0.3,0.7,0.1c0.2-0.1,0.5-0.3,0.7-0.5c1.4-1.3,2.7-2.8,3.6-4.6c0.7-1.3,1.1-2.8,1.2-4.4
			c0-0.6,0-1.2-0.1-1.8c-0.1-0.3-0.2-0.6-0.3-0.8c-0.2-0.2-0.3-0.3-0.5-0.1c-0.5,0.4-0.9,0.7-1.2,1.3c-0.4,0.8-0.8,1.6-1.2,2.5
			C878.6,297.6,878.2,298,878.3,298.7z"/>
		<path fill="#F5AE1B" d="M894,300.8c0.3-0.2,0.5-0.4,0.7-0.6c1.2-1.3,2.2-2.7,3.2-4.1c0.4-0.5,0.8-1.1,1.2-1.6
			c0.3-0.4,0.6-0.6,1.2-0.6c0.4,0,0.8,0,1.2,0.1c0.2,0.1,0.3,0.1,0.3,0.3c0,0.4,0.2,0.7,0.4,1c0.3,0.4,0.3,0.9,0.1,1.3
			c-0.2,0.5-0.4,0.9-0.5,1.4c-0.1,0.6-0.3,1.2-0.3,1.8c0,0.9-0.2,1.8-0.3,2.6c-0.1,1.3-0.2,2.5-0.3,3.8c0,0.2,0.1,0.3,0.3,0.3
			c0.1,0,0.1,0,0.2,0c0.2,0,0.3-0.1,0.5,0c0.1,0.1,0,0.4-0.2,0.6c-0.4,0.3-0.7,0.7-1.1,1.1c-0.1,0.2-0.4,0.2-0.6,0.1
			c-0.1-0.1-0.2-0.1-0.4-0.1c-0.2,0-0.5-0.1-0.6-0.2c-0.2-0.2-0.5-0.4-0.7-0.6c-0.2-0.1-0.3-0.2-0.3-0.4c-0.1-0.7-0.5-1.3-0.5-2.1
			c0.1-1.1,0-2.1,0.1-3.2c0-0.2,0-0.4,0-0.6c0-0.1-0.2-0.2-0.3-0.1c-0.5,0.4-1.1,0.8-1.6,1.3c-0.4,0.4-0.8,0.7-1.2,1.1
			c-0.3,0.3-0.6,0.6-0.9,0.9c-0.5,0.6-1.1,0.6-1.6,0.2c-0.4-0.4-0.6-0.9-0.6-1.4c0-0.1,0-0.3,0.1-0.3c0.3-0.2,0.3-0.5,0.1-0.7
			c-0.1-0.1-0.1-0.3-0.1-0.4l0.5-3.4c0.1-0.5,0.2-1.1,0.3-1.6c0-0.1,0-0.3,0-0.4c0,0-0.1-0.1-0.1-0.1c0,0-0.1,0-0.1,0.1
			c-0.1,0.1-0.2,0.2-0.2,0.4c-0.3,0.6-0.5,1.2-0.8,1.9c-0.1,0.3-0.2,0.6-0.3,0.8c-0.6,0.9-1.1,1.9-1.8,2.8c-0.4,0.5-0.7,1.1-0.7,1.7
			c0,1-0.2,1.9-0.3,2.9c0,0.2,0,0.5,0,0.7c0,0.3-0.1,0.5-0.4,0.6c-0.1,0-0.2,0-0.2,0.1c-0.4,0.4-0.8,0.3-1.2,0.1
			c-0.3-0.1-0.6-0.3-0.8-0.6c-0.1-0.1-0.2-0.2-0.2-0.4c-0.1-0.6-0.3-1.2-0.2-1.8c0.1-0.2,0.1-0.4,0.1-0.6c-0.1-1.3,0.1-2.6,0.3-3.8
			c0.2-1.4,0.4-2.7,0.6-4.1c0.2-1.3,0.4-2.6,0.6-3.9c0.1-0.9,0.3-1.7,0.4-2.6c0-0.3,0-0.6-0.1-0.8c-0.1-0.4,0-0.4,0.4-0.7
			c0.5-0.3,1-0.3,1.6-0.1c0.8,0.2,1.2,0.8,1.3,1.6c0.1,0.5,0.1,1,0.1,1.5c0,0.7,0,1.4-0.2,2c-0.1,0.6-0.1,1.2-0.2,1.8
			c-0.1,0.5-0.3,1-0.4,1.6c0,0.1,0,0.2,0,0.2c0,0,0.1,0.1,0.1,0c0,0,0.1-0.1,0.1-0.1c0.3-0.5,0.6-0.9,0.9-1.4
			c0.3-0.6,0.6-1.2,1.1-1.7c0,0,0.1-0.1,0.1-0.1c0.2-0.9,0.8-1.5,1.2-2.2c0.2-0.4,0.6-0.5,1-0.6c0.3-0.1,0.5,0.2,0.8,0.2
			c0,0,0.1,0.1,0.2,0.2c0.1,0.4,0.3,0.7,0.2,1.2c-0.1,0.8-0.3,1.6-0.3,2.4c0,0.9-0.2,1.8-0.4,2.7c-0.1,0.8-0.3,1.6-0.4,2.4
			C893.9,300.6,894,300.7,894,300.8z"/>
		<path fill="#F5AE1B" d="M913.3,298.3c0.3-1,0.8-1.9,1.2-2.8c0.5-0.9,0.5-1.8,0.5-2.8c0-0.3-0.2-0.5-0.5-0.3
			c-0.8,0.3-1.4,0.7-1.9,1.3c-0.8,0.8-1.6,1.5-2.4,2.4c-0.5,0.5-0.9,1-1.3,1.6c-0.4,0.5-0.5,1.1-0.6,1.7c-0.5,1.7-0.8,3.4-1.5,5
			c-0.1,0.1-0.1,0.3-0.1,0.5c-0.2,0.6-0.3,1.3-0.5,2c-0.1,0.2-0.1,0.4-0.1,0.7c0,0.5-0.1,0.9-0.5,1.2c-0.1,0.1-0.3,0.3-0.4,0.4
			c-0.8-0.8-1.3-1.8-1.4-2.9c-0.1-1.2,0-2.5,0.1-3.7c0.2-1.6,0.6-3.1,0.9-4.7c0.2-1,0.4-2,0.7-2.9c0.5-1.5,0.7-3,1.1-4.5
			c0.1-0.5,0.2-1,0.1-1.6c-0.1-0.5,0.4-0.9,0.9-0.7c0.9,0.2,1.5,0.7,1.9,1.5c0.1,0.2,0.2,0.4,0.3,0.6c0.5,0.9,0.5,1.8,0.2,2.7
			c-0.1,0.5-0.2,0.9-0.3,1.5c0.4-0.1,0.6-0.4,0.9-0.6c0.4-0.5,0.9-0.9,1.3-1.3c0.6-0.6,1.2-0.9,2-1.2c1.1-0.3,1.9,0,2.6,0.8
			c0.7,0.8,1,1.7,0.8,2.8c0,0.1,0,0.3,0,0.4c0.1,1-0.4,1.8-0.8,2.7c-0.3,0.6-0.7,1.3-1,1.9c-0.4,0.9-1.1,1.6-1.8,2.2
			c-0.1,0.1-0.2,0.2-0.3,0.2c-0.5,0-0.8,0.2-1.2,0.4c-0.5,0.3-0.9,0.3-1.4,0c-0.2-0.1-0.4-0.3-0.7-0.4c-0.1,0-0.2-0.1-0.2-0.2
			c-0.3-0.6-0.8-1.1-0.9-1.8c0-0.1,0-0.2,0-0.3c0,0,0-0.1,0.1-0.2c0,0,0.1,0,0.2,0c0.3,0.2,0.6,0.4,0.9,0.6c0.8,0.4,1.2,0.3,1.8-0.3
			C912.4,299.6,912.9,299,913.3,298.3C913.3,298.3,913.3,298.3,913.3,298.3L913.3,298.3z"/>
		<path fill="#F5AE1B" d="M924.7,307c-0.2,0.3-0.4,0.5-0.7,0.6c-0.4,0.2-0.8,0.4-1.2,0.6c-0.4,0.1-0.9,0.3-1.3,0.4
			c-0.4,0.1-0.9,0.2-1.3,0.2c-1.1,0-2-0.3-2.7-1.2c-0.5-0.6-0.8-1.2-1.1-1.8c-0.1-0.3-0.2-0.6-0.2-0.9c0.2-1.8,0.5-3.6,0.8-5.3
			c0.3-1.8,0.6-3.6,0.9-5.4c0.2-1.4,0.5-2.8,0.7-4.1c0.1-0.5,0.1-1,0.1-1.4c0-0.4,0.2-0.5,0.6-0.4c0.4,0.1,0.7,0.2,1.1,0.3
			c1,0.2,1.9,1.2,1.9,2.5c0,0.8-0.2,1.5-0.3,2.3c-0.1,0.6-0.3,1.2-0.4,1.8c-0.2,1-0.4,2-0.6,3l-0.4,2.3c-0.2,1.5-0.5,2.9-0.7,4.4
			c-0.1,0.4-0.1,0.8-0.2,1.2c0,0.5,0.1,0.6,0.5,0.7c1.3,0.4,2.7,0.5,4.1,0.2c0.1,0,0.2,0,0.2,0C924.6,307,924.6,307,924.7,307z"/>
		<path fill="#F5AE1B" d="M924.5,304.1c0-0.8,0.1-1.5,0.3-2.3l0.2-1.3c0-0.2,0.1-0.4,0.2-0.6c0.2-0.4,0.4-0.9,0.3-1.4
			c0-0.2,0-0.4,0.1-0.5c0.3-1.4,0.7-2.7,1.1-4.1c0.1-0.4,0.2-0.8,0.3-1.2c0.1-0.5,0.4-1.1,0.6-1.6c0.1-0.2,0.2-0.3,0.4-0.3
			c0.1,0,0.2,0,0.4-0.1c0.5-0.1,1-0.3,1.4,0.1c0.1,0.1,0.3,0.1,0.4,0c0.1,0,0.2-0.1,0.3-0.1c1.6-0.8,3.3-1.3,5-2.1
			c0.6-0.3,1.3-0.4,2-0.6c0.4-0.1,0.7-0.2,1.1-0.3c0.2-0.1,0.4-0.1,0.6-0.1c0.2,0,0.4,0.2,0.3,0.4c-0.2,0.2-0.1,0.6-0.3,0.8
			c-0.1,0.2-0.3,0.4-0.4,0.7c0,0.2-0.3,0.3-0.5,0.4c-0.3,0.1-0.5,0.3-0.7,0.5c-0.3,0.4-0.8,0.6-1.3,0.8c-0.5,0.2-0.9,0.4-1.3,0.6
			c-1.2,0.6-2.4,1.3-3.7,1.8c-0.1,0.1-0.3,0.1-0.4,0.2c-0.6,0-0.7,0.4-0.9,0.9c-0.2,0.8-0.5,1.6-0.7,2.3l-0.4,1.4
			c0,0.1,0.1,0.2,0.2,0.2l1.8-0.5c0.5-0.1,1-0.1,1.5-0.1c0.2,0,0.3,0.1,0.2,0.3c0,0.2-0.1,0.3,0,0.5c0,0,0,0.1,0,0.1
			c-0.3,0.2-0.4,0.7-0.8,0.9c-0.2,0.1-0.5,0.2-0.5,0.6c0,0.1-0.2,0.2-0.3,0.3c-0.5,0.3-1,0.5-1.5,0.6c-0.3,0.1-0.6,0.1-1,0
			c-0.4-0.1-0.4-0.1-0.5,0.3c-0.3,0.9-0.4,1.9-0.6,2.8c0,0.2,0,0.3,0,0.5c0,0.1,0.2,0.2,0.3,0.1c0.2-0.1,0.4-0.2,0.6-0.4
			c1.3-1,2.7-1.8,4.2-2.4c0.4-0.2,0.8-0.3,1.2-0.4c0.3,0,0.4,0.1,0.5,0.4c0.1,0.4-0.1,0.7-0.1,1.1c0,0.3-0.3,0.5-0.5,0.7
			c-0.3,0.2-0.6,0.5-0.7,0.8c0,0.1-0.1,0.1-0.2,0.2c-1.1,0.7-2.2,1.5-3.3,2.2c-0.5,0.3-1,0.5-1.5,0.6c-0.1,0-0.3,0-0.4,0
			c-0.7,0-1.3-0.4-1.8-0.9c-0.6-0.7-1-1.5-1-2.5V304.1z"/>
		<path fill="#F5AE1B" d="M953.4,289c-0.5,0.2-1,0.4-1.5,0.6c-0.3,0.1-0.6,0.3-0.8,0.5c-0.5,0.6-1.1,0.9-1.8,1.2
			c-0.2,0.1-0.4,0.1-0.6,0.2c-1,0.7-2.2,1.1-3.2,1.6l-1.7,0.8c-0.4,0.1-0.6,0.4-0.6,0.8c0,1.5-0.2,3-0.6,4.4c0,0.2-0.1,0.3-0.1,0.5
			c-0.1,1.1-0.4,2.1-0.7,3.1c-0.3,1.1-0.6,2.3-0.9,3.5c-0.1,0.5-0.3,0.9-0.5,1.3c-0.3,0.5-0.5,1.1-0.8,1.6c-0.1,0.2-0.3,0.3-0.4,0.4
			c-0.3,0.2-0.7,0.1-0.8-0.3c-0.1-0.2-0.1-0.4-0.1-0.6c0-0.6,0-1.1,0.1-1.7c0.2-0.8,0.2-1.7,0.4-2.5c0.2-1.2,0.5-2.3,0.8-3.4
			c0.4-1.4,0.8-2.8,1.2-4.2c0.1-0.4,0.3-0.8,0.2-1.3c-0.3,0-0.5,0.1-0.6,0.2c-0.6,0.4-1.1,0.8-1.7,1.1c-0.9,0.5-1.8,0.8-2.8,0.9
			c-0.7,0.1-1.2-0.2-1.8-0.5c0,0-0.1,0-0.1,0c0-0.5-0.4-0.7-0.6-1.1c0-0.1,0-0.2,0.1-0.3c1.1-0.2,2-0.9,3-1.5l1.2-0.6
			c2.5-1.3,5.2-2.4,7.9-3.5c1.9-0.7,3.9-1.3,5.9-1.9c0.8-0.2,1.6-0.4,2.4-0.6c0.1,0,0.3,0,0.4,0c0,0,0.1,0.1,0.1,0.1s0,0.1,0,0.1
			c0,0.1-0.1,0.1-0.2,0.2c-0.4,0.2-0.7,0.3-1.1,0.5c-0.2,0.1-0.2,0.1,0,0.3C953.3,288.9,953.4,288.9,953.4,289z"/>
		<path fill="#F5AE1B" d="M945.6,304.1c0-0.8,0.1-1.5,0.3-2.3l0.2-1.3c0-0.2,0.1-0.4,0.2-0.6c0.2-0.4,0.4-0.9,0.3-1.4
			c0-0.2,0-0.4,0.1-0.5c0.3-1.4,0.7-2.7,1.1-4.1c0.1-0.4,0.2-0.8,0.3-1.2c0.1-0.5,0.4-1.1,0.6-1.6c0.1-0.2,0.2-0.3,0.4-0.3
			c0.1,0,0.2,0,0.4-0.1c0.5-0.1,1-0.3,1.4,0.1c0.1,0.1,0.3,0.1,0.4,0c0.1,0,0.2-0.1,0.3-0.1c1.6-0.8,3.3-1.3,5-2.1
			c0.6-0.3,1.3-0.4,2-0.6c0.4-0.1,0.7-0.2,1.1-0.3c0.2-0.1,0.4-0.1,0.6-0.1c0.2,0,0.4,0.2,0.3,0.4c-0.2,0.2-0.1,0.6-0.3,0.8
			c-0.1,0.2-0.3,0.4-0.4,0.7c0,0.2-0.3,0.3-0.5,0.4c-0.3,0.1-0.5,0.3-0.7,0.5c-0.3,0.4-0.8,0.6-1.3,0.8c-0.5,0.2-0.9,0.4-1.3,0.6
			c-1.2,0.6-2.4,1.3-3.7,1.8c-0.1,0.1-0.3,0.1-0.4,0.2c-0.6,0-0.7,0.4-0.9,0.9c-0.2,0.8-0.5,1.6-0.7,2.3l-0.4,1.4
			c0,0.1,0.1,0.2,0.2,0.2l1.8-0.5c0.5-0.1,1-0.1,1.5-0.1c0.2,0,0.3,0.1,0.2,0.3c0,0.2-0.1,0.3,0,0.5c0,0,0,0.1,0,0.1
			c-0.3,0.2-0.4,0.7-0.8,0.9c-0.2,0.1-0.5,0.2-0.5,0.6c0,0.1-0.2,0.2-0.3,0.3c-0.5,0.3-1,0.5-1.5,0.6c-0.3,0.1-0.6,0.1-1,0
			c-0.4-0.1-0.4-0.1-0.5,0.3c-0.3,0.9-0.4,1.9-0.6,2.8c0,0.2,0,0.3,0,0.5c0,0.1,0.2,0.2,0.3,0.1c0.2-0.1,0.4-0.2,0.6-0.4
			c1.3-1,2.7-1.8,4.2-2.4c0.4-0.2,0.8-0.3,1.2-0.4c0.3,0,0.4,0.1,0.5,0.4c0.1,0.4-0.1,0.7-0.1,1.1c0,0.3-0.3,0.5-0.5,0.7
			c-0.3,0.2-0.6,0.5-0.7,0.8c0,0.1-0.1,0.1-0.2,0.2c-1.1,0.7-2.2,1.5-3.3,2.2c-0.5,0.3-1,0.5-1.5,0.6c-0.1,0-0.3,0-0.4,0
			c-0.7,0-1.3-0.4-1.8-0.9c-0.6-0.7-1-1.5-1-2.5V304.1z"/>
	</g>
	<path fill="#FFFFFF" d="M594.6,231.3c-0.5-0.1,0.8-0.1,1.1,0C596.2,231.4,594.8,231.3,594.6,231.3z"/>
	<path fill="#FFFFFF" d="M530.2,264.5c-0.3,0.4,0.3-0.7,0.5-0.9C531,263.2,530.4,264.3,530.2,264.5z"/>
	<path fill="#FFFFFF" d="M598.6,232.9c-0.5-0.1,0.8,0,1,0C600.2,233.1,598.8,233,598.6,232.9z"/>
	<path fill="#FFFFFF" d="M523.7,306c0,0.5-0.2-0.7-0.2-1C523.6,304.5,523.7,305.7,523.7,306z"/>
	<path fill="#FFFFFF" d="M652.8,290.5c0-0.5,0.2,0.7,0.3,0.9C653.1,292,652.8,290.8,652.8,290.5z"/>
	<path fill="#FFFFFF" d="M652.5,290.6c0-0.5,0.2,0.7,0.3,0.9C652.8,292,652.5,290.9,652.5,290.6z"/>
	<path fill="#FFFFFF" d="M644.7,269.1c0.2,0.2,0.4,0.5,0.5,0.8C644.9,269.7,644.8,269.4,644.7,269.1z"/>
	<path fill="#FFFFFF" d="M646.9,273.4c0.4,0.5,0.7,1.1,0.9,1.7C647.5,274.5,647.2,274,646.9,273.4z"/>
	<path fill="#FFFFFF" d="M653.3,297.2l0.1,1.9h-0.2l-0.1-1.9H653.3z"/>
	<path fill="#FFFFFF" d="M652.3,291.6c0-0.5,0.2,0.7,0.3,0.9C652.6,293,652.3,291.9,652.3,291.6z"/>
	<path fill="#FFFFFF" d="M576,246.2c0.2-0.2,0.5-0.2,0.8-0.2C576.6,246.2,576.3,246.2,576,246.2z"/>
	<g>
		<path fill="#FFFFFF" d="M642.5,262.5c-0.1-0.1-0.2-0.2-0.3-0.4C642.3,262.3,642.3,262.4,642.5,262.5
			C642.5,262.7,642.6,262.7,642.5,262.5z"/>
		<path fill="#FFFFFF" d="M655.8,294.4c-0.2-2.9-1-6.6-1.1-8c-0.4,0.1-1.2-3.3-1.9-4.7c0.4,1,0.5,2,0.5,3c-0.4-2.3-1-4.6-1.8-6.8
			c-1.4-2.8-1.2-1.3-2.3-3.4c-0.9-2.5-3.3-6.5-5.4-9.4c-0.3-0.6-0.7-1.2-1.1-2c-0.1-0.2-0.2-0.3-0.3-0.5c-0.2-0.2-0.6-0.6-0.6-0.8
			c-0.2-0.3,0.1,0,0.4,0.3c-0.3-0.5-0.6-0.9-0.9-1.3c-0.9-1.4-1.9-2.7-3-3.9c0.6,0.7,1,1.5,1.4,2.4c0.1,0.3,0.3,0.6,0.4,1
			c-1.3-1.7-2.7-3.2-4.2-4.7c0.2-0.1,0.7,0.1,1,0.2c-1.9-2.3-4.1-4.3-6.5-6.1c0.3,0-0.7-0.9-0.5-1c-2.3-2-4.8-3.7-7.4-5.3
			c-3.1-1.9-6.3-3.5-9.7-4.8c-3-1.5-6.2-2.6-9.5-3.2c-1.5-0.8-4.9-1.5-5.8-2c1.6,0.3,1.7-0.3,0.1-0.5c-0.4,0-0.8,0.1-1.2,0
			c-0.5,0-1.1,0-1.9,0c-2.1-0.4-2-0.6-1.7-1c0.3-0.4,0.9-0.6-0.2-0.9c-3.8,0.2,0.1,0.8-3.2,1.1c-2.1-0.9-2.8-1.7-1-2.5
			c-0.1-0.2-2.7-0.1-2.1-0.3c0.6-0.2,1.5-0.6,1.1-1c2.5-0.3,5.1-0.5,7.6-0.4c-2.1-0.2-2.4-0.3-4.4-0.4c-0.1-0.3-1.8-0.4-3.4-0.5
			c-1.6-0.1-3.3-0.1-3.2-0.4c-1.4,0-2.9,0.2-4.5,0.3c-1.6,0.1-3.3,0.4-4.8,0.8s-3,0.6-4.2,1s-2.2,0.6-2.8,0.8c4.4-0.3-1.2,1.5,0,1.5
			s1.2,0.1,0.2,0.8c2.5-0.6,0.2,0.7,0.2,0.7c0,0.2,2.1,0-1.9,1.2c-1.2,0.1-0.6-0.4,0.2-0.8s1.5-0.9,0.4-0.9
			c-1.1,0.2-2.1,0.5-3.2,0.9c0.4-0.4,2.1-1.1,1.9-1.3c-1.8,0.7-3.2,1.1-4.2,1.5c-0.2,0.4-1.7,1.1-3,1.9c-1.3,0.8-2.6,1.6-2.5,1.9
			c-1.2,0.7-2.2,1.3-3,2s-1.5,1.2-2.3,1.8l-4.9,4.2c-1.1,1.6-2.3,3.1-3.6,4.6c-0.8,0.9-1.6,1.9-2.5,3l-1.3,1.6l-1.2,1.7
			c0.1,0.2,0,0.6-0.4,1.3c-0.7,1.1-1.4,2.2-2.2,3.2c-1.5,1.8-3.1,4.2-4.2,5.8c-1,2.2,1.3-1.5-0.7,2c-1.2,2.5-0.2-0.9-1.4,1.6
			c0,0.8-1,3.1-2.1,5.5c-0.9,1.9-1.7,3.9-2.3,6c-0.3,1.6,0.1,0.7,0.5-0.5c0.4-1.2,1.1-2.6,1.2-2.2c-1.9,4.9-3.3,10-4.2,15.2
			c-0.9,5.2-1.1,10.6-0.6,15.9c0.4,0,0.2-2.2,0.4-3.1c0.8,4.7,2,9.3,3.6,13.8l0.7,2.6l0.7,2.5c0.5,1.7,1.2,3.3,1.9,4.8
			c-0.2-0.4-0.4-0.7-0.6-1.1c-0.6-1.2-1.2-2.4-1.7-3.2s-0.8-1.4-1.1-1.4c-0.2,0.8,2,5.6,1.8,6c0.7,1.3,1.4,2.6,2.1,3.8
			c0.3,0.6,0.7,1.2,1,1.9l1.1,1.8c0.7,1.2,1.5,2.4,2.3,3.7s1.7,2.5,2.7,3.8c1.1,0.4,5,4.6,5.9,4.3c0.8,0.8,1.7,1.5,2.7,2.1
			c1.1,0.7,2.1,1.4,3,2.2c-0.5-0.2-1-0.5-1.5-0.7s-0.8-0.4-1.2-0.5c-0.4-0.2-1-0.3-1.5-0.3c3.2,3.2,5.5,5.1,6.7,6.6
			c1.1,0.7,2,1.4,2.8,1.9l2.3,1.6c1.8,1.2,3.7,2.2,5.6,3.1c1,0.3,2.1,0.5,3.2,0.6c1,0.4,2,0.7,3,0.9c0.7,0.2,1.4,0.3,2.1,0.4
			c1.3,0.1,2.4,0.3,4.2,0.5c4.2,0.7,5.7,0.5,11.2,1c3.2-0.3,6.5-0.6,12.1-1.3c2.7-0.1,5.3-0.5,7.9-1.2c-1.1-0.2,3.2-1,3.7-1.5
			c-0.7-0.1-1.5-0.1-2.2,0.1c-1.1,0.1-2.4,0.4-3.8,0.6c-2.3,0.4-4.6,0.5-6.9,0.3c0.3-0.1,0.7-0.2,1-0.2c8.9-0.9,17.8-3.6,26.1-8.4
			c16.7-9.6,27.5-25.5,31.2-43c0.4-1.5,0.8-3,1.1-4.5c0.8-3.4,1.2-6.9,1.3-10.5c0.2-0.9,0.3-1.7,0.2-2.6
			C655.7,296,655.7,295.2,655.8,294.4z M562.3,361.9c-0.5-0.3,0.7,0.1,1,0.3C563.8,362.5,562.6,362.1,562.3,361.9z M641.4,261.9
			c0.1,0.1,0.1,0.2,0.2,0.3c-0.4-0.6-0.8-1.1-1.2-1.6C640.7,261,641.1,261.4,641.4,261.9z M531.4,335.8c-1-1.4-1.9-2.8-2.8-4.3
			c0.3-0.5,1.6,2,3.2,4.1C531.6,335.8,530.7,334.3,531.4,335.8z M532.5,334.1c-0.9-1.2-1.7-2.6-2.1-2.4c-1.2-2.6-2.3-5.2-3.2-7.9
			l-0.6-1.9l-0.4-1.7c-0.2-0.9-0.3-1.7-0.4-2.6c-0.3-1.3-0.6-2.6-1.1-3.9c-0.2-0.4-0.3-0.8-0.4-1.3c-0.1-0.5-0.1-1-0.1-1.5
			c-0.4-1.7-0.6-3-1-3.9c-0.6-1.1-0.1,3.6-0.6,1.1c-0.2,0.4-0.3-0.6-0.4-1.6c-0.1-1-0.3-1.9-0.5-1.4c0-1.2,0-2.4,0.1-3.6l0.2-4.4
			c0.8-3.3,1.7-5.9,3.1-10.6c0.2-1.6,0.6-3.2,1.3-4.8c0.7-1.7,0.1,0.9,0.7,0.2c-1.2,3.2-2,7.3-2.6,9.4c-0.3,2.1,0,2.1,0.3,2
			c-0.1,0.5-0.1,1-0.1,1.4c0,0.1-0.1,0.3-0.1,0.4c0,0.3,0,0.5,0,0.7c-0.7,8.3,0.3,16.8,2.9,25l0.1,0.4c0.2,0.8,0.5,1.6,0.8,2.6
			c0.2,0.4,0.3,0.6,0.5,0.8c1.2,3,2.6,6,4.3,8.8c0.4,0.8,0.9,1.5,1.4,2.3c0,0.1,0.1,0.1,0.1,0.2
			C534.3,336.5,533.4,335.3,532.5,334.1z M560.3,361.4c0.4,0,2.3,1,3.7,1.5C563.7,363.1,561.5,362.1,560.3,361.4z M568.2,365.6
			c-2.3-0.6-4.4-1.5-6.3-2.7c-0.2-0.6,4.2,1.3,3.2,0.2c1,0.5,2.3,0.9,3.5,1.4s2.4,0.8,3,1.1C572,366.1,570.3,366.1,568.2,365.6z"/>
	</g>
	<g enable-background="new    ">
		<path fill="#F5AE1B" d="M556.5,308.4c-0.8,0-1.5-0.1-2.2-0.7c-0.1-0.1-0.3-0.2-0.4-0.2c-0.4,0-0.6-0.3-0.8-0.6
			c-0.2-0.4-0.5-0.9-0.7-1.3c0-0.1-0.1-0.2-0.1-0.3c0.2-0.6-0.1-1.3-0.1-1.9s0-1.3,0-2c-0.1-1.8,0-3.6,0.1-5.3
			c0-0.4-0.1-0.8-0.2-1.1c-0.1-0.4-0.3-0.8-0.5-1.2c-0.1-0.2,0-0.4,0.2-0.4c0.6,0,0.8-0.5,1-1.1c0.1-0.9,0.3-1.7,0.1-2.6
			c-0.1-0.3,0-0.5,0.3-0.5c0.4,0,0.7-0.2,1-0.4c0.2-0.1,0.4-0.2,0.6,0c0.3,0.3,0.6,0.2,0.9-0.1c0.5-0.6,1.1-1.2,1.8-1.6
			c1.1-0.7,2.2-1.1,3.4-1.1c0.6,0,1.2,0.2,1.7,0.6c0.5,0.3,0.8,0.7,1.1,1.2c0.4,0.5,0.6,1.1,0.6,1.8c0.1,1.4,0.1,2.7-0.2,4
			c-0.3,1.6-0.8,3.2-1.2,4.8c-0.1,0.5-0.4,1-0.6,1.5c-0.5,1.5-1,3-1.5,4.5c-0.3,0.9-0.7,1.8-1.2,2.6c-0.6,1-1.3,1.5-2.4,1.6
			C557.1,308.5,556.8,308.4,556.5,308.4z M561.7,289.8v-0.4c0-0.4-0.2-0.5-0.5-0.4c-0.9,0.2-1.8,0.6-2.6,1.3c-1,0.9-1.8,2.1-2.5,3.3
			c-0.1,0.2-0.2,0.5-0.2,0.7c-0.2,1.5-0.4,2.9-0.6,4.4c-0.1,0.6-0.1,1.1-0.1,1.7c0,0.7,0,1.5,0,2.3c-0.1,1.1-0.4,2.3-0.2,3.4
			c0,0,0,0,0,0.1c-0.1,0.3,0,0.4,0.2,0.4c0.6,0.1,1.3,0,1.8-0.4c0.5-0.4,0.9-0.8,1.2-1.4c0.3-0.7,0.7-1.4,0.9-2.1
			c0.5-1.5,0.9-3,1.3-4.6c0.3-1.3,0.6-2.7,0.8-4C561.5,292.6,561.6,291.2,561.7,289.8z"/>
		<path fill="#F5AE1B" d="M564,303.5c0-0.8,0.1-1.5,0.3-2.3l0.2-1.3c0-0.2,0.1-0.4,0.2-0.6c0.2-0.4,0.4-0.9,0.3-1.4
			c0-0.2,0-0.4,0.1-0.5c0.3-1.4,0.7-2.7,1.1-4.1c0.1-0.4,0.2-0.8,0.3-1.2c0.1-0.5,0.4-1.1,0.6-1.6c0.1-0.2,0.2-0.3,0.4-0.3
			c0.1,0,0.2,0,0.4-0.1c0.5-0.1,1-0.3,1.4,0.1c0.1,0.1,0.3,0.1,0.4,0c0.1,0,0.2-0.1,0.3-0.1c1.6-0.8,3.3-1.3,5-2.1
			c0.6-0.3,1.3-0.4,2-0.6c0.4-0.1,0.7-0.2,1.1-0.3c0.2-0.1,0.4-0.1,0.6-0.1c0.2,0,0.4,0.2,0.3,0.4c-0.2,0.2-0.1,0.6-0.3,0.8
			c-0.1,0.2-0.3,0.4-0.4,0.7c0,0.2-0.3,0.3-0.5,0.4c-0.3,0.1-0.5,0.3-0.7,0.5c-0.3,0.4-0.8,0.6-1.3,0.8c-0.5,0.2-0.9,0.4-1.3,0.6
			c-1.2,0.6-2.4,1.3-3.7,1.8c-0.1,0.1-0.3,0.1-0.4,0.2c-0.6,0-0.7,0.4-0.9,0.9c-0.2,0.8-0.5,1.6-0.7,2.3l-0.4,1.4
			c0,0.1,0.1,0.2,0.2,0.2l1.8-0.5c0.5-0.1,1-0.1,1.5-0.1c0.2,0,0.3,0.1,0.2,0.3c0,0.2-0.1,0.3,0,0.5v0.1c-0.3,0.2-0.4,0.7-0.8,0.9
			c-0.2,0.1-0.5,0.2-0.5,0.6c0,0.1-0.2,0.2-0.3,0.3c-0.5,0.3-1,0.5-1.5,0.6c-0.3,0.1-0.6,0.1-1,0c-0.4-0.1-0.4-0.1-0.5,0.3
			c-0.3,0.9-0.4,1.9-0.6,2.8c0,0.2,0,0.3,0,0.5c0,0.1,0.2,0.2,0.3,0.1c0.2-0.1,0.4-0.2,0.6-0.4c1.3-1,2.7-1.8,4.2-2.4
			c0.4-0.2,0.8-0.3,1.2-0.4c0.3,0,0.4,0.1,0.5,0.4c0.1,0.4-0.1,0.7-0.1,1.1c0,0.3-0.3,0.5-0.5,0.7c-0.3,0.2-0.6,0.5-0.7,0.8
			c0,0.1-0.1,0.1-0.2,0.2c-1.1,0.7-2.2,1.5-3.3,2.2c-0.5,0.3-1,0.5-1.5,0.6c-0.1,0-0.3,0-0.4,0c-0.7,0-1.3-0.4-1.8-0.9
			c-0.6-0.7-1-1.5-1-2.5v-0.3H564z"/>
	</g>
	<g enable-background="new    ">
		<path fill="#F5AE1B" d="M586.7,287.1c-0.2,0.4-0.3,0.7-0.6,1c-0.3,0.3-0.6,0.6-0.4,1.1c0,0.1,0,0.2-0.1,0.3s-0.2,0-0.3,0
			s-0.2,0-0.2,0.2c0,0.4-0.2,0.6-0.2,1c-0.1,0.1-0.1,0.2,0,0.3l0,0c-0.1,0.1-0.1,0.3-0.2,0.5c-0.4,0.6-0.8,1.3-1.1,2.1
			c-0.4,1-0.8,1.9-1.2,2.8c-0.5,1.4-1.1,2.8-1.6,4.2c-0.6,1.4-1.1,2.8-1.6,4.2c-0.1,0.3-0.2,0.6-0.3,0.9c-0.2,0.4-0.4,0.8-0.5,1.3
			s-0.4,0.8-0.8,1.1c-0.3,0.2-0.6,0.2-0.9,0c-0.3-0.2-0.6-0.5-0.9-0.8c-0.3-0.4-0.5-0.9-0.3-1.3c0.4-1,0.4-2.1,0.4-3.1
			c0-1.3-0.2-2.6-0.1-3.9c0-1.2,0-2.4,0.1-3.5c0.1-1.3,0-2.6,0.1-3.9c0-0.5,0-1.1,0-1.6c0-0.2,0.1-0.5,0.1-0.7
			c0.1-0.5,0.1-0.5,0.6-0.3c0.2,0.1,0.4,0.1,0.6,0.3c0.8,0.5,1.2,1.2,1.4,2c0.1,0.5,0.2,1,0.1,1.5c0,1.3,0,2.6-0.2,3.9
			c-0.1,0.4,0,0.8,0,1.2c0.4-0.2,0.6-0.4,0.8-0.7c0.4-0.8,0.8-1.6,1.2-2.4c0.3-0.5,0.6-1,0.9-1.5c0.2-0.2,0.3-0.5,0.4-0.7
			c0.3-0.7,0.8-1.3,1.2-1.9c0.1-0.2,0.4-0.3,0.6-0.4c0.1-0.2,0.2-0.3,0.4-0.3v0.1c0.1,0,0.2-0.1,0.2-0.2c0.6-0.7,1.2-1.4,1.8-2.1
			C586.2,287.4,586.5,287.2,586.7,287.1z M583.6,290.1c-0.1,0.1-0.1,0.2-0.2,0.4v0.1h0.1C583.8,290.4,583.8,290.3,583.6,290.1z
			 M584,289.8L584,289.8L584,289.8z M584.9,290.7L584.9,290.7L584.9,290.7z"/>
	</g>
	<g enable-background="new    ">
		<path fill="#F5AE1B" d="M583,303.5c0-0.8,0.1-1.5,0.3-2.3l0.2-1.3c0-0.2,0.1-0.4,0.2-0.6c0.2-0.4,0.4-0.9,0.3-1.4
			c0-0.2,0-0.4,0.1-0.5c0.3-1.4,0.7-2.7,1.1-4.1c0.1-0.4,0.2-0.8,0.3-1.2c0.1-0.5,0.4-1.1,0.6-1.6c0.1-0.2,0.2-0.3,0.4-0.3
			c0.1,0,0.2,0,0.4-0.1c0.5-0.1,1-0.3,1.4,0.1c0.1,0.1,0.3,0.1,0.4,0c0.1,0,0.2-0.1,0.3-0.1c1.6-0.8,3.3-1.3,5-2.1
			c0.6-0.3,1.3-0.4,2-0.6c0.4-0.1,0.7-0.2,1.1-0.3c0.2-0.1,0.4-0.1,0.6-0.1c0.2,0,0.4,0.2,0.3,0.4c-0.2,0.2-0.1,0.6-0.3,0.8
			c-0.1,0.2-0.3,0.4-0.4,0.7c0,0.2-0.3,0.3-0.5,0.4c-0.3,0.1-0.5,0.3-0.7,0.5c-0.3,0.4-0.8,0.6-1.3,0.8c-0.5,0.2-0.9,0.4-1.3,0.6
			c-1.2,0.6-2.4,1.3-3.7,1.8c-0.1,0.1-0.3,0.1-0.4,0.2c-0.6,0-0.7,0.4-0.9,0.9c-0.2,0.8-0.5,1.6-0.7,2.3l-0.4,1.4
			c0,0.1,0.1,0.2,0.2,0.2l1.8-0.5c0.5-0.1,1-0.1,1.5-0.1c0.2,0,0.3,0.1,0.2,0.3c0,0.2-0.1,0.3,0,0.5v0.1c-0.3,0.2-0.4,0.7-0.8,0.9
			c-0.2,0.1-0.5,0.2-0.5,0.6c0,0.1-0.2,0.2-0.3,0.3c-0.5,0.3-1,0.5-1.5,0.6c-0.3,0.1-0.6,0.1-1,0c-0.4-0.1-0.4-0.1-0.5,0.3
			c-0.3,0.9-0.4,1.9-0.6,2.8c0,0.2,0,0.3,0,0.5c0,0.1,0.2,0.2,0.3,0.1c0.2-0.1,0.4-0.2,0.6-0.4c1.3-1,2.7-1.8,4.2-2.4
			c0.4-0.2,0.8-0.3,1.2-0.4c0.3,0,0.4,0.1,0.5,0.4c0.1,0.4-0.1,0.7-0.1,1.1c0,0.3-0.3,0.5-0.5,0.7c-0.3,0.2-0.6,0.5-0.7,0.8
			c0,0.1-0.1,0.1-0.2,0.2c-1.1,0.7-2.2,1.5-3.3,2.2c-0.5,0.3-1,0.5-1.5,0.6c-0.1,0-0.3,0-0.4,0c-0.7,0-1.3-0.4-1.8-0.9
			c-0.6-0.7-1-1.5-1-2.5v-0.3H583z"/>
		<path fill="#F5AE1B" d="M601.7,306.4c-0.2,0.3-0.4,0.5-0.7,0.6c-0.4,0.2-0.8,0.4-1.2,0.6c-0.4,0.1-0.9,0.3-1.3,0.4
			c-0.4,0.1-0.9,0.2-1.3,0.2c-1.1,0-2-0.3-2.7-1.2c-0.5-0.6-0.8-1.2-1.1-1.8c-0.1-0.3-0.2-0.6-0.2-0.9c0.2-1.8,0.5-3.6,0.8-5.3
			c0.3-1.8,0.6-3.6,0.9-5.4c0.2-1.4,0.5-2.8,0.7-4.1c0.1-0.5,0.1-1,0.1-1.4c0-0.4,0.2-0.5,0.6-0.4c0.4,0.1,0.7,0.2,1.1,0.3
			c1,0.2,1.9,1.2,1.9,2.5c0,0.8-0.2,1.5-0.3,2.3c-0.1,0.6-0.3,1.2-0.4,1.8c-0.2,1-0.4,2-0.6,3l-0.4,2.3c-0.2,1.5-0.5,2.9-0.7,4.4
			c-0.1,0.4-0.1,0.8-0.2,1.2c0,0.5,0.1,0.6,0.5,0.7c1.3,0.4,2.7,0.5,4.1,0.2c0.1,0,0.2,0,0.2,0C601.6,306.4,601.6,306.4,601.7,306.4
			z"/>
	</g>
	<g enable-background="new    ">
		<path fill="#F5AE1B" d="M612,296.7c0.2,1-0.1,2-0.2,3.1c-0.1,0.8-0.5,1.6-0.9,2.3c-0.4,0.6-0.8,1.2-1.2,1.8
			c-0.2,0.3-0.5,0.5-0.8,0.7c-0.6,0.6-1.3,1.2-1.9,1.8c-0.7,0.7-1.5,0.9-2.3,1.2c-0.7,0.2-1.4,0-2-0.4c-0.1,0-0.2-0.1-0.2-0.2
			c-0.6-0.7-1.2-1.3-1.4-2.3c-0.3-1-0.4-1.9-0.5-2.9c0-1.4,0.2-2.8,0.6-4.1c0.6-2,1.5-3.9,2.4-5.7c0.4-0.8,0.8-1.5,1.4-2.2
			c0.3-0.3,0.6-0.6,1-0.6c0.2,0,0.3,0,0.5-0.1s0.4-0.1,0.6,0c0.3,0.1,0.5,0.1,0.7,0.1c0.6-0.1,1.3,0.6,1.2,1.3
			c0,0.4,0.1,0.6,0.4,0.7c0.5,0.1,0.9,0.4,1.1,1c0,0.1,0.1,0.2,0.2,0.3c1,1.1,1.2,2.5,1.1,4v0.2H612z M606.4,298.1
			c-0.5-0.2-0.8-0.4-1.2-0.8c-0.2-0.2-0.4-0.1-0.5,0.2c-0.2,0.6-0.4,1.2-0.6,1.8c-0.5,1.1-0.6,2.3-0.7,3.6c0,0.5,0.1,0.9,0.1,1.3
			c0,0.3,0.2,0.5,0.4,0.6c0.2,0.3,0.4,0.3,0.7,0.1c0.2-0.1,0.5-0.3,0.7-0.5c1.4-1.3,2.7-2.8,3.6-4.6c0.7-1.3,1.1-2.8,1.2-4.4
			c0-0.6,0-1.2-0.1-1.8c-0.1-0.3-0.2-0.6-0.3-0.8c-0.2-0.2-0.3-0.3-0.5-0.1c-0.5,0.4-0.9,0.7-1.2,1.3c-0.4,0.8-0.8,1.6-1.2,2.5
			C606.7,297,606.3,297.4,606.4,298.1z"/>
	</g>
	<g enable-background="new    ">
		<path fill="#F5AE1B" d="M621.5,297.7c0.3-1,0.8-1.9,1.2-2.8c0.5-0.9,0.5-1.8,0.5-2.8c0-0.3-0.2-0.5-0.5-0.3
			c-0.8,0.3-1.4,0.7-1.9,1.3c-0.8,0.8-1.6,1.5-2.4,2.4c-0.5,0.5-0.9,1-1.3,1.6c-0.4,0.5-0.5,1.1-0.6,1.7c-0.5,1.7-0.8,3.4-1.5,5
			c-0.1,0.1-0.1,0.3-0.1,0.5c-0.2,0.6-0.3,1.3-0.5,2c-0.1,0.2-0.1,0.4-0.1,0.7c0,0.5-0.1,0.9-0.5,1.2c-0.1,0.1-0.3,0.3-0.4,0.4
			c-0.8-0.8-1.3-1.8-1.4-2.9c-0.1-1.2,0-2.5,0.1-3.7c0.2-1.6,0.6-3.1,0.9-4.7c0.2-1,0.4-2,0.7-2.9c0.5-1.5,0.7-3,1.1-4.5
			c0.1-0.5,0.2-1,0.1-1.6c-0.1-0.5,0.4-0.9,0.9-0.7c0.9,0.2,1.5,0.7,1.9,1.5c0.1,0.2,0.2,0.4,0.3,0.6c0.5,0.9,0.5,1.8,0.2,2.7
			c-0.1,0.5-0.2,0.9-0.3,1.5c0.4-0.1,0.6-0.4,0.9-0.6c0.4-0.5,0.9-0.9,1.3-1.3c0.6-0.6,1.2-0.9,2-1.2c1.1-0.3,1.9,0,2.6,0.8
			c0.7,0.8,1,1.7,0.8,2.8c0,0.1,0,0.3,0,0.4c0.1,1-0.4,1.8-0.8,2.7c-0.3,0.6-0.7,1.3-1,1.9c-0.4,0.9-1.1,1.6-1.8,2.2
			c-0.1,0.1-0.2,0.2-0.3,0.2c-0.5,0-0.8,0.2-1.2,0.4c-0.5,0.3-0.9,0.3-1.4,0c-0.2-0.1-0.4-0.3-0.7-0.4c-0.1,0-0.2-0.1-0.2-0.2
			c-0.3-0.6-0.8-1.1-0.9-1.8c0-0.1,0-0.2,0-0.3c0,0,0-0.1,0.1-0.2c0,0,0.1,0,0.2,0c0.3,0.2,0.6,0.4,0.9,0.6c0.8,0.4,1.2,0.3,1.8-0.3
			C620.6,299,621.1,298.4,621.5,297.7C621.5,297.7,621.6,297.7,621.5,297.7L621.5,297.7z"/>
	</g>
	<path fill="none" stroke="#FFFFFF" stroke-miterlimit="10" d="M588.6,298.4"/>
</g>
</svg>
