<?xml version="1.0" encoding="utf-8"?>
<!-- Generator: Adobe Illustrator 21.0.2, SVG Export Plug-In . SVG Version: 6.00 Build 0)  -->
<!DOCTYPE svg PUBLIC "-//W3C//DTD SVG 1.1//EN" "http://www.w3.org/Graphics/SVG/1.1/DTD/svg11.dtd">
<svg version="1.1" id="Layer_1" xmlns="http://www.w3.org/2000/svg" xmlns:xlink="http://www.w3.org/1999/xlink" x="0px" y="0px"
	 viewBox="0 0 994 213" style="enable-background:new 0 0 994 213;" xml:space="preserve">
<style type="text/css">
	.st0{display:none;}
	.st1{fill:#FFFFFF;}
	.st2{enable-background:new    ;}
	.st3{fill:#F5AE1B;}
	.st4{fill:none;stroke:#FFFFFF;stroke-miterlimit:10;}
</style>
<g id="Layer_2" class="st0">
</g>
<g id="Layer_1_1_">
	<path class="st1" d="M621.8,103.8c1.5,0,1.2-0.1-1.5-0.1c-1.7,0.2-1.7,0.2,0,0.4c-4.4,0.1-6.6,0.3-13.2,0.3
		c1.6-0.4-5.2-0.4-1.5-0.6h-7.4c-2,0.3,7.8,0.2,2.9,0.4c-10.4,0.1-12.5-0.3-19.1-0.4c-6.8,0.4-15.4,0.1-23.5,0.3
		c0.5-0.2-2-0.2-2.9-0.3c-8.5-0.2-17.6,0.2-26.5-0.1c-3.7,0-4.6,0.2-7.3,0.2c-5.9-0.6-15.6,0-22,0.2c-2.9-0.1-8.9-0.4-11.8-0.2
		c2.4,0,2.4,0.5,0,0.5c-4.6-0.3-16.2-0.2-23.5-0.4c-4.9,0.2-13.1-0.2-20.6,0c-0.5-0.2-4.5-0.2-5.9-0.4c-5.4,0.2-8.8-0.1-16.2,0
		c-2,0-1.4-0.2-3-0.2c-1,0.1-3.1,0.2-5.9,0.2c-14.4-0.1-15.7,0-30.9,0c0,0.5-6.9,0.5-11.8,0.6c-2.4-0.2-7.9-0.2-7.4-0.6
		c-7.4-0.1-15.9-0.2-22-0.4c-3.8,0.5-14-0.3-20.6,0.1c-3-0.2-15.2-0.4-17.6,0c-2-0.3-8.2-0.2-11.8-0.4c-1,0.1-2,0.1-2.9,0.1
		c-4.9,0.2,3.6,0.4,0,0.5c-6.8,0-9.8-0.2-16.2-0.2c-3.4,0.4-6.9,0.6-10.3,0.6c-2-0.1-5.5-0.1-5.9-0.3c3.1-0.2,1.1-0.7-1.5-0.8
		c-4.6,0-3.3,0.3-8.8,0.2l-13.2-0.3c-9.4,0.1-13.5,0.2-23.5,0.1c-1.2,0.3,2.1,0.3,1.5,0.5c-3.8,0.2-6.5,0.6-11.8,0.7h-5.9
		c-5.7,0.2-11.6,0.2-20.6,0.4c-4.9-0.3-14.6-0.2-17.6-0.6c-10.7,0.1-15.6-0.3-23.5-0.4c-1.5,0-3,0.1-4.4,0.4c-1.7,0-4.2,0-4.4,0.1
		c4.5,0.1-0.7,0.3-1.5,0.4c2.6,0,3.3,0.2,2.9,0.4c-3.6,0-7.1,0-8.8,0.1c0.2-0.2-1.5-0.2-4.4-0.2c2.6,0.2-0.2,0.6,1.5,0.7
		c2.4-0.2,4.9-0.3,7.3-0.3c0.8,0.2,2.2,0.2,2.9,0.4c-6.3,0.1-1.3,0.4-5.9,0.6c-0.3,0.2,1.7,0.2,1.5,0.4c-2.9-0.2-5.9-0.1-8.8,0.2
		c6.7,0.2,2,0.3,0,0.6c8.4,0.2,11,0.8,17.6,1.2c-1.9,0.3-3.7,0.6-4.4,0.7c-8.6,0-15.2-0.2-19.1,0.2c4.4,0.1-1.4,0.2,0,0.4
		c8.4,0,9.5,0.5,16.2,0.7c0,0.2,6.9-0.2,8.8,0.1c-1.2,0.1-1.9,0.3-1.5,0.5c20.1-0.2,23.2,1.2,39.7,0.6c7,0.4,21.1,0.4,30.9,0.7
		c0.3-0.4-2.3-0.6-2.9-1c5.1-0.1,8.3-0.4,13.2-0.6c1.7,0.3,1.3,0.3,5.9,0.2c0.4,0.2,4,0.2,4.4,0.4c-1.7,0-1.6,0.2-1.5,0.3
		c2.6,0,4.6,0,5.9,0.1c-1.8-0.5-1.9-0.8,1.5-1.1c7.8-0.2,15.5,0.4,25,0.5c3.6-0.1,3.1-0.4,8.8-0.3c6.4,0.5,12.7,0.6,19.1,0.4
		c1.9,0.5,8.6,0.7,19.1,0.6c4.7,0.3,10.2,0.5,16.2,0.7c3.8-0.1-1.1-0.6,1.5-0.6c2.8,0.3,6.4-0.2,10.3-0.1c7.8,0,13.1,0.1,17.6,0.3
		c3.6,0,4.5-0.2,7.4-0.2c2.4,0.2,4.9,0.3,7.4,0.3c3.2-0.1,8.3-0.2,10.3-0.4c1.9,0.1,6.9,0.1,8.8,0.2c-3.2,0.2,0.2,0.3,1.5,0.5
		c11.1-0.1,15.6,0,25-0.2c0.8-0.5-2.8-0.9,0-1c4.7,0,2.4,0.4,7.4,0.4c2.1-0.2,10.8,0,16.2,0.1c1.9-0.3,3.9-0.5,5.9-0.5
		c4.9,0.4,18.2,0.3,19.1,1c7.6-0.2,11-0.1,17.6-0.2c0.2,0.1,0.4,0.2,3,0.2c5.1-0.4,11.2-0.2,19.1-0.4c3.1,0.1,6.5,0.2,8.8,0.3
		c1.2-0.3,4.7,0.1,7.4,0c-0.2-0.5,1.8-0.8,7.4-0.9c9.9,0.1,13.2,0.6,23.5,0.6c0.2-0.1-0.5-0.4,1.5-0.4c3,0,2.9,0.3,5.9,0.3
		c2-0.1,0.2-0.4,2.9-0.4c13.2,0,17.9,0.7,32.3,0.4c3.7,0.1,5.8,0.3,10.3,0.3c5.1,0.1,6.2-0.1,8.8-0.2c2.8,0,2.7,0.3,7.4,0.2
		c0-0.3,2.5-0.4,7.4-0.6c-0.7-0.4,3.1-0.4,5.9-0.6c-0.5-0.2-2.3-0.4-1.5-0.7c2.6,0,4.6,0,5.9-0.1c2.5,0.1,3.9,0.3,8.8,0.3
		c1.3,0.2,3.3,0.3,5.9,0.4c2.9,0,6.3,0.4,7.4,0.2c-4.7-0.3,4.7-0.5,7.3-0.6c2.4,0.2,7.4,0.2,13.2,0.2c-0.1,0.2,0.3,0.3,1.5,0.4
		c2.6,0,4.6,0,5.9,0.1c0,0.3,5.9,0.3,7.3,0.5h20.6c3.6,0.1,7.1,0.2,11.8,0.3c3.4,0.4,6.9,0.7,10.3,0.7c5.4,0.1,5.6-0.2,10.3-0.2
		c8.4,0.1,14.7,0.4,20.6,0.7c1.5-0.1,2.9-0.2,4.4-0.1c2-0.1,0.2-0.4,2.9-0.4h2.9c0.5-0.5,8.6-0.6,14.7-0.7
		c4.1,0.2,11.1,0.3,14.7,0.6c8.8,0,24.8-0.1,33.8,0c2.8,0,3.7-0.2,7.3-0.2c6.6-0.1,12.5,0.3,17.6,0c1,0.2,2,0.3,3,0.3
		c2.3-0.3,12-0.1,11.8-0.6c-4.4-0.4-8.8-0.5-13.2-0.4c0.8-0.3-5.2-0.2-4.4-0.6c5.9-0.1,12.8-0.1,17.6-0.2c6,0.2,9.7,0.2,17.6,0.4
		c-0.5-0.6,8.9-0.5,7.3-1.1c-7.2,0.1-7.6-0.3-11.8-0.5c0-0.2,4-0.1,2.9-0.4c-4.9,0.1-7.2,0.3-11.8,0.4c0.5-0.2-4.2-0.1-4.4-0.3
		c-0.5-0.5-5.6-0.6-7.3-1c2-0.2,5.2-0.4,8.8-0.5c-1.5,0-1.8-0.2,0-0.2c2.7,0.1,1.2,0.5,2.9,0.7c3.7,0.1,10.1,0,10.3,0.4
		c5-0.2,9-0.1,11.8-0.2c-5.5-0.1-0.3-0.4,1.5-0.5c7.4-0.1,7.3,0.4,13.2,0.4c2.8-0.3,7.3-0.5,7.3-1c-4.8,0-7.3-0.2-5.9-0.7
		c-4.8-0.3-19.1,0-20.6-0.6c-5.2,0.3-5-0.5-10.3-0.5c-1.3-0.3-2.2,0.2-5.9,0.1c-3.5-0.4-8.5-0.7-13.2-1c-9.9,0.1-26.1-0.2-36.8-0.4
		c-9.2,0.8-27.5,0.3-39.7,0.4c-2.3,0.6-10.3,0.3-13.2,0.7c-5.3-0.2-0.3-0.7-2.9-1c-7.4,0-10.3-0.2-17.6-0.2
		c-2.5-0.3-6.7-0.5-10.3-0.7c-15.5,0.1-27.5-0.1-38.2-0.4c-4.8,0.1-9.8,0.3-16.2,0.3c-5.7-0.1-11.2-0.3-14.7,0
		c0.5-0.4-5.4-0.3-8.8-0.4c-2.4,0.2-4.9,0.2-7.4,0.1c0.5,0.3-3.1,0.3-5.9,0.3c-4.4,0-7.5-0.1-10.3-0.3
		C635.3,103.5,626,103.9,621.8,103.8z M683.6,105.3c1-0.1,2-0.1,2.9,0C685.6,105.4,684.6,105.4,683.6,105.3L683.6,105.3z M688,105.4
		h2.9v0.2H688V105.4z M263.1,105.9c14.2,0.2,18.4-0.4,30.9-0.3c2,0.1,0.2,0.4,2.9,0.4c-1.1,0.2-4.7-0.3-10.3-0.1
		c-1.4,0-1.1,0.1-1.5,0.2c-2.9-0.1-5.9-0.1-8.8,0.1C271.7,106.1,265.6,106.4,263.1,105.9L263.1,105.9z M439.6,105.6
		c3.7,0,5.7,0.1,5.9,0.4C439.6,106.1,436.9,105.8,439.6,105.6L439.6,105.6z M241.1,106.1c-0.8-0.1,1.1-0.1,1.5-0.1
		C243.3,106,241.5,106.1,241.1,106.1L241.1,106.1z M244,106.1c1-0.1,2-0.1,2.9-0.1c2.6,0,5.3,0.1,7.4,0.2c1.1,0,5.7,0.1,4.4,0.3
		C251.2,106.5,247.9,106.2,244,106.1L244,106.1z M313.1,105.9c2.8,0,3.7,0.2,7.4,0.2c-2.7,0.2-8.9,0.1-11.8,0.3
		C305.9,106.4,312.9,106.1,313.1,105.9L313.1,105.9z M235.2,106.2c-0.8-0.1,1.1-0.1,1.5-0.1C237.4,106.1,235.6,106.2,235.2,106.2
		L235.2,106.2z M446.9,106c5.9,0,8.3,0.7,11.8,0.5c4.1,0.2-3.7,0.5-8.8,0.5c-1.5-0.3-2.9-0.4-4.4-0.3
		C445.4,106.4,444.9,106.1,446.9,106z M461.6,106.1c0.6-0.3,4.6,0,2.9,0.2c1.5,0.1,3,0,4.4-0.3c5.4-0.1,5.6,0.2,10.3,0.2
		c-1.5,0.3-5.8,0.3-7.4,0.6c-4.9,0-5-0.3-10.3-0.3C462,106.4,465.2,106.1,461.6,106.1L461.6,106.1z M298.4,106.2
		c-0.4-0.2,7.9-0.1,4.4,0.1C303.4,106.3,298.4,106.2,298.4,106.2L298.4,106.2z M565.9,106c-1.6,0.4,3.7,0.3,3,0.6
		c-3.5,0-3.2-0.2-7.3-0.1c-0.2-0.1,0.3-0.2,1.5-0.2c-1-0.1-2-0.1-2.9-0.1C561,106.1,563.2,106.1,565.9,106L565.9,106z M748.2,106.9
		c-1.8,0.5-12.8,0.5-16.2,0.1c1.5-0.2,2.9-0.3,4.4-0.2c-1.1-0.2-8.2,0-11.8-0.1c0.2-0.2-1.8-0.2-1.5-0.4c1.5-0.1,2.9,0,4.4,0.1
		c3.2,0,2.8-0.3,4.4-0.3C739.7,106.1,741.6,106.8,748.2,106.9L748.2,106.9z M357.2,106.5c1.6-0.2,12.2-0.2,10.3,0.2
		C364.1,106.6,360,106.6,357.2,106.5L357.2,106.5z M570.3,106.7c0.2-0.2,5,0,5.9,0C575.3,107,573.1,106.6,570.3,106.7L570.3,106.7z
		 M446.9,108.7c5.1-0.1,2.5,0.3,1.5,0.4C446.3,109.1,447.1,108.9,446.9,108.7L446.9,108.7z M420.4,109c-0.8-0.1,1.1-0.1,1.5-0.1
		C422.6,109,420.9,109.1,420.4,109L420.4,109z M127.8,109.3c1-0.1,2-0.1,2.9,0C129.8,109.4,128.8,109.4,127.8,109.3z M451.3,109.1
		c-0.8-0.1,1.1-0.1,1.5-0.1C453.5,109.1,451.7,109.2,451.3,109.1z M827.6,109.9h5.9c2,0.2,1.4,0.6,2.9,0.8h-10.3
		C826.3,110.4,825.4,110.1,827.6,109.9L827.6,109.9z"/>
	<path class="st1" d="M35.2,66.9c-0.4,0.4,0.3-0.7,0.5-0.9C36.1,65.6,35.4,66.7,35.2,66.9z"/>
	<path class="st1" d="M31.9,139.4c0.2,0.5-0.5-0.6-0.6-0.9C31,138,31.7,139.1,31.9,139.4z"/>
	<path class="st1" d="M38.6,64.3c-0.4,0.4,0.3-0.7,0.5-0.9C39.5,63,38.9,64.1,38.6,64.3z"/>
	<path class="st1" d="M64.5,165.7c0.4,0.3-0.7-0.2-0.9-0.3C63.1,165.1,64.2,165.5,64.5,165.7z"/>
	<path class="st1" d="M115.6,46.2c-0.4-0.2,0.7,0.1,0.9,0.2C117,46.7,115.8,46.3,115.6,46.2z"/>
	<path class="st1" d="M115.6,46.4c-0.4-0.2,0.7,0.1,0.9,0.2C116.9,46.9,115.8,46.5,115.6,46.4z"/>
	<path class="st1" d="M93,42.5c0.3-0.1,0.7-0.1,1,0C93.7,42.6,93.4,42.6,93,42.5z"/>
	<path class="st1" d="M97.8,42.7c0.6-0.1,1.3-0.1,1.9,0C99.1,42.7,98.5,42.7,97.8,42.7z"/>
	<path class="st1" d="M121.7,49.1l1.7,0.9l-0.1,0.2l-1.7-0.9L121.7,49.1z"/>
	<path class="st1" d="M116.3,47.1c-0.4-0.2,0.7,0.1,0.9,0.2C117.7,47.6,116.5,47.2,116.3,47.1z"/>
	<path class="st1" d="M38.9,90.5c0-0.3,0.1-0.6,0.2-0.8C39.1,90,39,90.3,38.9,90.5z"/>
	<g>
		<path class="st1" d="M85,41.7c-0.2,0-0.4,0.1-0.6,0.1h0.1c0.2,0,0.4-0.1,0.7-0.1C85.1,41.7,85.1,41.7,85,41.7z"/>
		<path class="st1" d="M157.7,122.7c-0.4,0.6-0.8,1.2-1,1.9c-0.4,1-0.9,2.3-1.4,3.5c-0.8,2.2-1.8,4.2-3.2,6.1
			c0.1-0.3,0.2-0.6,0.3-0.9c3.7-8.2,5.8-17.3,5.8-26.9c0-15.1-5.1-29-13.8-40c-0.1-0.2-0.3-0.4-0.4-0.6c-0.5-1.2-1.2-2.4-1.9-3.5
			c-2.5-2.8-5.2-5.5-7.9-8.1c-2.6-2.4-5.4-4.5-8.4-6.3c-0.7-0.6-1.4-1.1-2.2-1.5c-0.7-0.4-1.4-0.8-2-1.3c-2.7-1.4-6.2-2.5-7.6-3.1
			c-0.1,0.4-3.5-0.6-5-0.7c1,0.2,2,0.5,2.8,1c-2.2-0.9-4.5-1.5-6.9-1.9c-3.1-0.2-1.7,0.3-4.1,0.3c-2.6-0.5-7.2-0.4-10.8,0
			c-0.6,0-1.4,0-2.2,0s-1.8,0-2.7,0.1c-1.7,0.1-3.3,0.3-4.9,0.7c0.9-0.1,1.8-0.1,2.8,0c0.6,0.1,1.4,0.2,2,0.2
			c0.4-0.1,0.8-0.1,1.3-0.2c0.7-0.1,1.4-0.1,2.1-0.1c0.3,0,0.6,0,0.9,0c-1.3,0.1-2.5,0.2-3.7,0.3c-0.3,0-0.7,0-1,0
			c-0.6,0.1-1.2,0.2-1.8,0.3c-1.6,0.3-3.1,0.6-4.7,0.9c-0.9-0.1-0.1-0.5,0.3-1c-2.9,0.5-5.8,1.3-8.5,2.5c0.1-0.3-1.1,0.2-1.1-0.1
			c-2.9,1-5.6,2.3-8.3,3.7c-3.2,1.7-6.2,3.7-9,6c-2.8,1.9-5.3,4.1-7.5,6.6c-1.4,0.9-3.7,3.5-4.7,4c1.1-1.2,0.6-1.7-0.4-0.3
			c-0.2,0.4-0.3,0.7-0.6,1.1c-0.2,0.5-0.6,1-1,1.6c-1.4,1.6-1.6,1.4-1.7,1c-0.1-0.4-0.1-1.1-0.8-0.2c-1.7,3.3,0.7,0.3-0.6,3.3
			c-1.8,1.4-2.8,1.6-2.7-0.4c-0.2,0-1.4,2.3-1.4,1.7c0-0.6,0.3-1.6-0.3-1.4c1-2.4,2.1-4.6,3.5-6.8c-1.2,1.7-1.5,1.9-2.5,3.6
			c-0.3-0.1-1.2,1.3-2.1,2.7c-0.9,1.4-1.7,2.8-1.9,2.6c-0.7,1.2-1.3,2.6-2,4.1s-1.2,3-1.7,4.5s-1,2.8-1.3,4.1s-0.6,2.2-0.7,2.8
			c1.1-3.5-0.1,2.3,0.4,1.2c0.6-1,0.7-1,0.8,0.2c0.7-2.5,0.7,0.2,0.7,0.2c0.2,0.1,1.1-1.8,0.1,2.2c-0.5,1.1-0.6,0.3-0.6-0.6
			s0-1.8-0.5-0.8c-0.3,1-0.6,2.1-0.8,3.2c-0.1-0.5,0.1-2.4-0.2-2.3c-0.4,1.9-0.7,3.4-0.9,4.4c0.3,0.4,0.1,2,0.2,3.6s0.1,3,0.4,3.1
			c0,1.4,0.1,2.6,0.2,3.6s0.3,2,0.4,2.9l1.2,6.3c0.8,1.8,1.5,3.6,2.1,5.5c0.4,1.1,0.8,2.4,1.4,3.6l0.8,1.9l0.9,1.9
			c0.2,0,0.5,0.3,1,1c0.6,1.1,1.2,2.3,1.7,3.5c0.9,2.2,2.1,4.8,3,6.6c1.3,2-0.7-1.9,1.3,1.6c1.5,2.3-0.9-0.3,0.7,2
			c0.8,0.4,2.2,2.4,3.7,4.6c1.2,1.8,2.6,3.4,4.1,5c1.3,1,0.6,0.3-0.2-0.7s-1.8-2.2-1.3-2.1c3.3,4.1,7,7.8,11,11.2
			c4.1,3.4,8.6,6.3,13.4,8.5c0.2-0.3-1.8-1.3-2.5-1.9c4.5,1.6,9.1,2.9,13.7,3.8l2.6,0.8l2.5,0.6c2.2,0.5,4.5,0.8,6.8,0.9
			c-0.7-0.6,2.3-0.5,5.1-0.7c0.1,0.3-1.7,0.3,0,0.5c-2.6,0.3-5.3,0.3-7.9,0.2c-1.4-0.1-2.6-0.2-3.6-0.2s-1.6,0-1.8,0.2
			c0.6,0.5,5.8,1.1,6.1,1.4c1.5,0,2.9,0.1,4.3,0.1c0.7,0,1.4,0,2.1,0h2.1c1.4,0,2.9-0.1,4.4-0.1s3-0.2,4.6-0.5
			c0.9-0.8,6.5-2,6.7-2.9c1.1-0.3,2.2-0.7,3.2-1.3c1.1-0.6,2.2-1.1,3.4-1.5c-0.5,0.3-0.9,0.6-1.3,0.9s-0.8,0.5-1,0.8
			c-0.6,0.5-0.9,0.9-1,1.1c4.4-1.2,7.2-2.2,9.1-2.5c1.2-0.6,2.2-1,3.1-1.4l2.5-1.2c1.9-1,3.8-2.1,5.5-3.3c0.8-0.7,1.5-1.6,2.1-2.5
			c0.8-0.7,1.5-1.4,2.2-2.1c0.5-0.5,1-1.1,1.4-1.6c0.8-1,1.4-1.9,2.5-3.3c2.8-3.3,3.3-4.7,6.4-9.2c1.4-2.9,2.8-5.9,4.9-11.1
			c1.2-2.4,2.2-4.9,2.9-7.4C156.4,127.6,157.8,123.4,157.7,122.7z M85.2,41.4c-0.5,0,0.7-0.2,1-0.2C86.7,41.1,85.5,41.4,85.2,41.4z
			 M132.2,160.2c-0.5,0.3,0.5-0.5,0.7-0.7C133.3,159.2,132.4,160.1,132.2,160.2z M124.1,48.9c0.9,0.5,1.9,1,3.2,1.9
			c0.5,0.4,0.7,0.6,0.7,0.7c-2.4-1.5-4.9-2.9-7.5-4.1c0.2,0.1,0.5,0.2,0.8,0.3L124.1,48.9z M110.4,43.3c0.9,0.3,2.1,0.8,3.2,1.3
			c-2.5-0.8-5-1.5-7.5-2c0.1,0,0.1,0,0.2,0C107.6,42.7,109,43,110.4,43.3z M93.1,172.3c-1.6,0.2-3.1,0.2-3.2,0.6
			c-2.8-0.2-5.7-0.6-8.4-1.2l-1.9-0.4l-1.7-0.5c-0.9-0.2-1.7-0.6-2.5-1c-1.3-0.4-2.6-0.8-3.9-1c-0.4-0.1-0.9-0.2-1.3-0.3
			c-0.5-0.2-0.9-0.4-1.4-0.6c-1.7-0.5-2.9-0.9-3.8-1.1c-1.2,0,3,1.8,0.6,1.1c0.3,0.3-0.7,0-1.6-0.4c-0.8-0.6-1.6-1-1.2-0.5
			c-1.1-0.6-2.1-1.2-3.1-1.9l-3.7-2.4c-2.5-2.4-4.3-4.4-7.6-8c-1.3-1-2.5-2.2-3.4-3.5c-1-1.4,0.6,0.2,0.5-0.4
			c0.4,0.5,0.9,0.9,1.3,1.4c2,2.1,4.2,4.2,5.5,5.5c1.4,1.1,1.7,1.1,1.9,0.9c7,5.2,15,9,23.8,11.1l1.9,0.6c0.8,0.2,1.6,0.4,2.6,0.6
			c0.7,0.1,1,0,1.2-0.1c3.1,0.5,6.3,0.7,9.5,0.7c0.6,0,1.1,0,1.7,0c0.4,0,0.8,0,1.1,0C96.1,171.9,94.7,172.1,93.1,172.3z M134,159.2
			c-0.2,0.4-2.1,1.8-3.2,2.5C131,161.4,132.8,160.2,134,159.2z M138.3,156.8c-1.6,1.8-3.4,3.2-5.5,4.2c-0.6-0.2,3.2-3,1.7-2.7
			c0.9-0.6,2-1.5,3-2.3s1.9-1.6,2.5-2.1C140.6,153.8,139.8,155.2,138.3,156.8z"/>
	</g>
	<g class="st2">
		<path class="st3" d="M73.3,111.4c-0.2,0.6-0.3,1.2-0.5,1.8c-0.1,0.4-0.2,0.7-0.4,1.1c-0.4,0.8-0.8,1.7-1.2,2.6
			c-0.1,0.3-0.4,0.5-0.6,0.7c-0.7,0.4-1.4,0.6-2.2,0.7c-0.4,0.1-0.8-0.1-1.2-0.2c-0.8-0.4-1.6-0.9-2.1-1.7c-0.2-0.3-0.3-0.6-0.1-1
			c0.1-0.1,0.1-0.2,0.1-0.4c0.2,0,0.4,0,0.4,0.2c0.1,0.3,0.4,0.5,0.6,0.7c0.6,0.8,1.3,0.9,2.2,0.6c0.9-0.3,1.6-0.8,2.1-1.6
			c0.4-0.7,0.7-1.4,0.9-2.1c0.1-0.5,0.1-0.9,0.1-1.4c0-0.4-0.2-0.7-0.6-0.8c-0.6-0.2-1.3-0.4-2-0.6c-0.2,0-0.4,0-0.5,0.2
			c-0.1,0.1-0.1,0.2-0.2,0.3c-0.4,0.4-0.9,0.4-1.3,0c-0.1-0.1-0.3-0.3-0.4-0.4l0,0c0-0.3-0.1-0.6,0.1-0.8c0.1-0.1,0.1-0.3,0.2-0.4
			c1.3-1.8,2-3.9,2.4-6.1c0-0.4,0.1-0.8,0.2-1.2c0-0.1,0-0.2,0-0.4c0,0-0.1-0.1-0.1,0c-0.1,0.1-0.2,0.2-0.3,0.4
			c-0.9,1.4-1.7,2.9-2.4,4.3c-0.4,0.7-0.8,1.4-1.1,2.2c-0.2,0.9-0.6,1.8-0.9,2.7c-0.4,0.9-0.5,1.9-0.5,2.8c0,0.2,0,0.5,0,0.6
			c-0.3,0.7-0.3,1.4-0.3,2.1c0,0.2,0,0.3-0.1,0.5c0,0,0,0-0.1,0h-0.1c0,0,0,0,0-0.1c-0.1-0.2,0.1-0.5-0.3-0.5
			c-0.2,0-0.2,0.3-0.3,0.6c0,0.1-0.1,0.3-0.1,0.5c0.1,0,0.1,0.1,0.2,0.1c0.1,0.1,0.1,0.2,0,0.3c-0.3,0.3-0.7,0.2-0.8-0.1
			c-0.2-0.6-0.4-1.2-0.5-1.9c-0.1-0.9-0.2-1.8-0.2-2.7c-0.2-2.5-0.2-4.9-0.1-7.4c0.1-2.2,0.2-4.3,0.5-6.4c0.1-1.2,0.2-2.3,0.2-3.5
			c0-0.4,0.1-0.8,0.3-1.2c0-0.1,0.1-0.2,0.3-0.2c0.6,0.2,1.1,0.5,1.6,0.9c0.1,0,0.1,0.1,0.1,0.2c0.4,1,0.7,2.1,0.6,3.2
			c0,0.2,0,0.4,0,0.6c0.1,1.1,0,2.2-0.2,3.3c0,0.1,0,0.3,0,0.5c0,0.1,0,0.4,0.1,0.4c0.2,0.1,0.3-0.2,0.4-0.3
			c0.2-0.5,0.3-0.9,0.8-1.2c0.1,0,0.1-0.2,0.2-0.3c0.5-1.1,1.4-2,1.9-3.1c0.3-0.6,0.8-0.7,1.4-0.6c0.3,0,0.5,0.2,0.7,0.5
			c0.4,0.7,0.6,1.3,0.5,2.1c-0.1,0.7-0.2,1.4-0.3,2c-0.3,1.6-0.7,3.2-1.2,4.8c-0.1,0.4-0.2,0.7,0,1.1c0.1,0.3,0.2,0.4,0.5,0.5
			s0.6,0.1,0.9,0.2c1.2,0.1,1.9,0.9,2.5,1.8C73.4,110.9,73.4,111.2,73.3,111.4z"/>
		<path class="st3" d="M75.7,96.4c0.5,0,0.9,0,1.4,0c0.2,0,0.4,0,0.6,0.1c0.8,0.2,1.1,0.7,1.1,1.5s0,1.5,0,2.3c0,0.1,0,0.3,0.1,0.4
			c0.2,0,0.4-0.2,0.6-0.3s0.4-0.2,0.6-0.4c0.3-0.2,0.6-0.3,0.9-0.4c0.7-0.3,1.4-0.1,2.1,0c0.3,0,0.5,0.2,0.6,0.5
			c0.4,0.9,0.6,1.9,0.4,2.9c-0.1,0.9-0.3,1.8-0.6,2.6c-0.1,0.4-0.3,0.7-0.6,1c-0.4,0.5-0.8,1-1.2,1.4c-0.3,0.3-0.3,0.6-0.2,0.9
			c0.5,1.1,0.6,2.3,1,3.4c0.2,0.8,0.5,1.6,0.8,2.4c0.4,1.2,0.9,2.4,1.4,3.6c0.1,0.4,0.3,0.7,0.3,1.1c0,0.1,0,0.2,0.1,0.4
			c0.7,1.4,1.4,2.8,2.7,3.8c0.2,0.2,0.5,0.4,0.8,0.6c0.4,0.2,0.6,0.5,0.9,0.7s0.3,0.6,0.3,0.8c0.1,0.3-0.3,0.5-0.6,0.4
			c-0.1,0-0.3-0.1-0.4-0.2c-0.9-0.8-2-1.3-2.9-2.1c-1.1-0.9-2.1-1.8-2.8-3c-0.5-0.8-1.1-1.7-1.5-2.6c-0.7-1.4-1.3-2.9-1.8-4.3
			c-0.5-1.3-0.9-2.6-1.2-4c-0.1-0.3-0.2-0.6-0.3-0.9c-0.1-0.2-0.1-0.6-0.4-0.5c-0.2,0-0.2,0.4-0.2,0.6l-0.4,3.5c0,0.1,0,0.3,0,0.5
			c-0.4,0.8-0.3,1.7-0.4,2.6c0,0.6-0.2,1.2-0.4,1.8c-0.1,0.3-0.1,0.7-0.6,0.5c0,0-0.1,0-0.2,0.1c-0.4,0.3-0.6,0.1-1-0.1
			c-0.2-0.1-0.2-0.3-0.2-0.5c0-0.5,0-1,0-1.5c-0.1-1.7,0-3.4,0.1-5.1c0.1-1.8,0.3-3.5,0.5-5.3s0.4-3.5,0.6-5.3
			c0.1-0.6,0.2-1.1,0.2-1.7c0.1-0.6,0.2-1.2,0-1.8C75.7,96.7,75.7,96.5,75.7,96.4z M78,107.3c0.5-0.2,1-0.2,1.4-0.2
			c0.2,0,0.3,0,0.4,0.2c0.1,0.3,0.2,0.3,0.5,0.2c0.4-0.2,0.6-0.4,0.7-0.8c0-0.2,0.1-0.4,0.2-0.6c0.7-1.5,0.9-3,0.9-4.7
			c0-0.1,0-0.2,0-0.3s-0.2-0.2-0.4-0.1c-0.5,0.5-1.2,0.8-1.6,1.4c-0.6,1-1.2,2-1.7,3.1c-0.1,0.3-0.2,0.6-0.3,0.8
			C78,106.7,78,107,78,107.3z"/>
		<path class="st3" d="M86.8,121.2c-0.5-0.6-0.7-1.3-0.8-2.1c0-0.1,0-0.2,0-0.4c0.2-1.4,0-2.9,0.1-4.3c0-1.3,0-2.7,0-4
			c0.1-2.1,0.1-4.2,0.4-6.2c0.1-1.1,0.3-2.2,0.4-3.3c0-0.3,0-0.6,0-0.8c0-0.7,0-1.3,0-2c0-0.3,0.1-0.4,0.2-0.6
			c0.1,0,0.1-0.1,0.2-0.1c0.7-0.2,1.4-0.4,2.1-0.1c0.6,0.3,1.1,0.9,1.1,1.9c0.1,1.3,0,2.5-0.2,3.8c-0.2,1.2-0.4,2.5-0.6,3.7
			c-0.2,1.4-0.4,2.9-0.6,4.3c-0.1,0.5-0.1,1.1-0.2,1.6c-0.1,1.1-0.2,2.2-0.4,3.3c-0.1,0.5,0,1-0.2,1.5c0,0.2,0,0.5-0.1,0.5
			c-0.2,0.2-0.2,0.6-0.5,0.8c-0.2,0.1-0.3,0.4-0.3,0.6C87.3,120,87,120.6,86.8,121.2z"/>
	</g>
	<g class="st2">
		<path class="st3" d="M89.9,113.9c0-0.8,0.1-1.5,0.3-2.3l0.2-1.3c0-0.2,0.1-0.4,0.2-0.6c0.2-0.4,0.4-0.9,0.3-1.4
			c0-0.2,0-0.4,0.1-0.5c0.3-1.4,0.7-2.7,1.1-4.1c0.1-0.4,0.2-0.8,0.3-1.2c0.1-0.5,0.4-1.1,0.6-1.6c0.1-0.2,0.2-0.3,0.4-0.3
			c0.1,0,0.2,0,0.4-0.1c0.5-0.1,1-0.3,1.4,0.1c0.1,0.1,0.3,0.1,0.4,0c0.1,0,0.2-0.1,0.3-0.1c1.6-0.8,3.3-1.3,5-2.1
			c0.6-0.3,1.3-0.4,2-0.6c0.4-0.1,0.7-0.2,1.1-0.3c0.2-0.1,0.4-0.1,0.6-0.1s0.4,0.2,0.3,0.4c-0.2,0.2-0.1,0.6-0.3,0.8
			c-0.1,0.2-0.3,0.4-0.4,0.7c0,0.2-0.3,0.3-0.5,0.4c-0.3,0.1-0.5,0.3-0.7,0.5c-0.3,0.4-0.8,0.6-1.3,0.8c-0.5,0.2-0.9,0.4-1.3,0.6
			c-1.2,0.6-2.4,1.3-3.7,1.8c-0.1,0.1-0.3,0.1-0.4,0.2c-0.6,0-0.7,0.4-0.9,0.9c-0.2,0.8-0.5,1.6-0.7,2.3l-0.4,1.4
			c0,0.1,0.1,0.2,0.2,0.2l1.8-0.5c0.5-0.1,1-0.1,1.5-0.1c0.2,0,0.3,0.1,0.2,0.3c0,0.2-0.1,0.3,0,0.5v0.1c-0.3,0.2-0.4,0.7-0.8,0.9
			c-0.2,0.1-0.5,0.2-0.5,0.6c0,0.1-0.2,0.2-0.3,0.3c-0.5,0.3-1,0.5-1.5,0.6c-0.3,0.1-0.6,0.1-1,0s-0.4-0.1-0.5,0.3
			c-0.3,0.9-0.4,1.9-0.6,2.8c0,0.2,0,0.3,0,0.5c0,0.1,0.2,0.2,0.3,0.1c0.2-0.1,0.4-0.2,0.6-0.4c1.3-1,2.7-1.8,4.2-2.4
			c0.4-0.2,0.8-0.3,1.2-0.4c0.3,0,0.4,0.1,0.5,0.4c0.1,0.4-0.1,0.7-0.1,1.1c0,0.3-0.3,0.5-0.5,0.7c-0.3,0.2-0.6,0.5-0.7,0.8
			c0,0.1-0.1,0.1-0.2,0.2c-1.1,0.7-2.2,1.5-3.3,2.2c-0.5,0.3-1,0.5-1.5,0.6c-0.1,0-0.3,0-0.4,0c-0.7,0-1.3-0.4-1.8-0.9
			c-0.6-0.7-1-1.5-1-2.5v-0.3H89.9z"/>
	</g>
	<g class="st2">
		<path class="st3" d="M110.6,105.8v0.5c0,0.1,0,0.2-0.1,0.3c-0.2,0.1-0.3,0.4-0.4,0.6c-0.5,0.7-0.9,1.4-1.4,2s-1.2,1.1-2.1,1.3
			c-0.1,0-0.2,0-0.3,0c-0.4-0.1-0.8-0.1-1.2-0.2c-0.5-0.1-0.6,0-0.7,0.4c-0.2,0.8-0.2,1.7-0.5,2.4c0,0.1-0.1,0.3-0.1,0.4
			c0,0.6-0.2,1.1-0.3,1.6c-0.2,0.6-0.3,1.2-0.4,1.8c-0.1,0.6-0.3,0.9-0.8,1c-0.6,0.1-0.9-0.1-1.1-0.7c-0.1-0.6-0.3-1.2-0.3-1.8
			c-0.1-1.3-0.2-2.7,0.2-4c0.3-1.2,0.5-2.4,0.7-3.6c0.1-0.7,0.3-1.3,0.5-2c0.3-1.2,0.4-2.5,0.7-3.8c0.1-0.5,0.2-1.1,0.4-1.6
			c0.2-0.6,0.5-0.7,1.1-0.6c0.7,0.1,0.9,0.4,1,1.1c0,0.3,0,0.5,0.1,0.8c0,0.1,0.2,0.2,0.3,0.1c0.2-0.1,0.4-0.3,0.6-0.5
			c2-1.8,4.2-3.2,6.5-4.6c0.9-0.6,1.9-0.9,2.9-1.3c0.3-0.1,0.7-0.2,1.1-0.3c0,0,0.2,0,0.2,0.1c0.1,0.4,0.4,0.9,0.1,1.3
			c-0.3,0.5-0.6,1-1.2,1.3s-1.2,0.7-1.8,1.1c-0.3,0.2-0.6,0.4-0.9,0.6l-3.6,2.8c-0.1,0.1-0.3,0.2-0.4,0.3c-0.7,0.7-1.5,1.2-2.2,1.9
			c-0.3,0.3-0.7,0.6-1.1,0.8c-0.2,0-0.2,0.2-0.3,0.4c-0.2,0.6-0.2,1.1-0.3,1.7c0,0.1,0.1,0.2,0.2,0.2c0.2,0,0.3-0.1,0.5-0.2
			c0.7-0.3,1.5-0.6,2.2-1c0.7-0.3,1.4-0.5,2.1-0.6C110.3,105.7,110.5,105.7,110.6,105.8z"/>
	</g>
	<path class="st1" d="M195.7,66.9c-0.4,0.4,0.3-0.7,0.5-0.9C196.6,65.6,195.9,66.7,195.7,66.9z"/>
	<path class="st1" d="M192.3,139.4c0.2,0.5-0.5-0.6-0.6-0.9C191.5,138,192.2,139.1,192.3,139.4z"/>
	<path class="st1" d="M199.1,64.3c-0.4,0.4,0.3-0.7,0.6-0.9C200,63,199.3,64.1,199.1,64.3z"/>
	<path class="st1" d="M225,165.7c0.4,0.3-0.7-0.2-0.9-0.3C223.6,165.1,224.8,165.5,225,165.7z"/>
	<path class="st1" d="M276.1,46.2c-0.4-0.2,0.7,0.1,0.9,0.2C277.5,46.7,276.4,46.3,276.1,46.2z"/>
	<path class="st1" d="M276.1,46.4c-0.4-0.2,0.7,0.1,0.9,0.2C277.4,46.9,276.3,46.5,276.1,46.4z"/>
	<path class="st1" d="M253.6,42.5c0.3-0.1,0.7-0.1,1,0C254.2,42.6,253.9,42.6,253.6,42.5z"/>
	<path class="st1" d="M258.3,42.7c0.6-0.1,1.3-0.1,1.9,0C259.6,42.7,259,42.7,258.3,42.7z"/>
	<path class="st1" d="M282.2,49.1l1.7,0.9l-0.1,0.2l-1.7-0.9L282.2,49.1z"/>
	<path class="st1" d="M276.9,47.1c-0.4-0.2,0.7,0.1,0.9,0.2C278.2,47.6,277,47.2,276.9,47.1z"/>
	<path class="st1" d="M199.3,90.5c0-0.3,0.1-0.6,0.2-0.8C199.6,90,199.5,90.3,199.3,90.5z"/>
	<g>
		<path class="st1" d="M181.9,88.9L181.9,88.9L181.9,88.9L181.9,88.9z"/>
		<path class="st1" d="M246.7,41.2c-0.3,0-1.5,0.2-1,0.2C246,41.4,247.2,41.1,246.7,41.2z"/>
		<path class="st1" d="M181.9,88.9c-0.1,0.3-0.1,0.6-0.2,0.8C181.8,89.4,181.8,89.1,181.9,88.9z"/>
		<path class="st1" d="M318.4,122.5c-0.4,0.6-0.8,1.2-1,1.9c-0.4,1-0.9,2.3-1.4,3.5c-0.8,2.2-1.8,4.2-3.2,6.1c0.2-0.5,0.3-1,0.5-1.5
			c3.5-8,5.4-16.8,5.4-26.1c0-15.9-5.7-30.5-15.2-41.8c-0.3-0.5-0.6-1-0.9-1.5c-2.5-2.8-5.2-5.5-7.9-8.1c-2.6-2.4-5.4-4.5-8.4-6.3
			c-0.7-0.6-1.4-1.1-2.2-1.5c-0.7-0.4-1.4-0.8-2-1.3c-2.6-1.3-6.1-2.4-7.5-3.1c-0.1,0.4-3.5-0.6-5-0.7c1,0.2,2,0.5,2.8,1
			c-2.2-0.9-4.5-1.5-6.9-1.9c-3.1-0.2-1.7,0.3-4.1,0.3c-2.2-0.4-5.7-0.4-8.9-0.2c-1.3,0-2.5,0.1-3.8,0.2c-0.1,0-0.2,0-0.3,0
			c-0.8,0-1.8,0-2.7,0.1c-1.7,0.1-3.3,0.3-4.9,0.7c0.6-0.1,1.2-0.1,1.8-0.1c-1.3,0.2-2.5,0.5-3.8,0.8l0.1-0.1
			c-2.9,0.5-5.8,1.4-8.5,2.5c0.1-0.3-1.1,0.2-1.1-0.1c-2.9,1-5.6,2.3-8.3,3.7c-3.2,1.7-6.2,3.7-9,6c-2.8,1.9-5.3,4.1-7.5,6.6
			c-1.4,0.9-3.7,3.5-4.6,4c1.1-1.2,0.6-1.7-0.4-0.3c-0.2,0.4-0.3,0.7-0.6,1.1c-0.2,0.5-0.6,1-1,1.6c-1.4,1.6-1.6,1.4-1.7,1
			c-0.1-0.4-0.1-1.1-0.8-0.2c-1.7,3.3,0.7,0.3-0.6,3.3c-1.8,1.4-2.8,1.6-2.7-0.4c-0.2,0-1.4,2.3-1.4,1.7c0-0.6,0.3-1.6-0.3-1.4
			c1-2.4,2.1-4.6,3.4-6.8c-1.2,1.7-1.5,1.9-2.5,3.6c-0.3-0.1-1.2,1.3-2.1,2.7c-0.9,1.4-1.7,2.8-1.9,2.6c-0.7,1.2-1.3,2.6-2,4.1
			s-1.2,3-1.7,4.5s-0.9,2.9-1.2,4.1c-0.2,0.8-0.4,1.5-0.5,2.1c-0.1,0.7-0.2,1.6,0,1.1c0.6-1,0.7-1,0.8,0.2c0.7-2.5,0.7,0.2,0.7,0.2
			c0.2,0.1,1.1-1.8,0.1,2.2c-0.6,1.1-0.6,0.3-0.6-0.6s0-1.8-0.6-0.8c-0.3,1-0.6,2.1-0.8,3.2c-0.1-0.5,0.1-2.4-0.2-2.3
			c-0.3,1.9-0.6,3.4-0.8,4.3c0.3,0.4,0.1,2,0.2,3.6c0.1,1.6,0.1,3,0.4,3.1c0,1.4,0.1,2.6,0.2,3.6s0.3,2,0.4,2.9l1.2,6.3
			c0.8,1.8,1.5,3.6,2.1,5.4c0.4,1.1,0.8,2.4,1.4,3.6l0.8,1.9l0.9,1.9c0.2,0,0.6,0.3,0.9,1c0.6,1.1,1.2,2.3,1.7,3.5
			c0.9,2.2,2.1,4.8,3,6.6c1.3,2-0.7-1.9,1.3,1.6c1.5,2.3-0.9-0.3,0.7,2c0.8,0.4,2.2,2.4,3.8,4.6c1.2,1.8,2.6,3.4,4.1,5
			c1.3,1,0.6,0.3-0.2-0.7s-1.8-2.2-1.3-2.1c3.3,4.1,7,7.8,11.1,11.2c4.1,3.4,8.6,6.3,13.4,8.5c0.2-0.3-1.8-1.3-2.5-1.9
			c4.5,1.6,9.1,2.9,13.7,3.8l2.6,0.8l2.5,0.6c2.2,0.5,4.5,0.8,6.8,0.9c-0.6-0.6,2.3-0.5,5.1-0.7c0.1,0.3-1.7,0.3,0,0.5
			c-2.6,0.3-5.3,0.3-7.9,0.2c-1.4-0.1-2.6-0.2-3.6-0.2s-1.6,0-1.8,0.2c0.6,0.5,5.8,1.1,6.1,1.4c1.5,0,2.9,0.1,4.4,0.1
			c0.7,0,1.4,0,2.1,0h2.1c1.4,0,2.9-0.1,4.4-0.1s3-0.2,4.6-0.5c0.9-0.8,6.5-2,6.7-2.9c1.1-0.3,2.2-0.7,3.1-1.3
			c1.1-0.6,2.2-1.1,3.4-1.5c-0.5,0.3-0.9,0.6-1.3,0.9s-0.8,0.5-1,0.8c-0.6,0.5-0.9,0.9-1,1.1c4.4-1.2,7.2-2.2,9.1-2.5
			c1.2-0.6,2.2-1,3.1-1.4l2.5-1.2c1.9-1,3.8-2.1,5.5-3.3c0.8-0.7,1.5-1.6,2.1-2.5c0.8-0.7,1.5-1.4,2.2-2.1c0.5-0.5,1-1.1,1.4-1.6
			c0.8-1,1.4-1.9,2.5-3.3c2.8-3.3,3.3-4.7,6.4-9.2c1.4-2.9,2.8-5.9,5-11.1c1.2-2.4,2.2-4.9,2.9-7.4
			C317.1,127.4,318.5,123.2,318.4,122.5z M292.7,160.2c-0.5,0.3,0.5-0.5,0.7-0.7C293.9,159.2,292.9,160.1,292.7,160.2z M253.6,172.2
			c-1.6,0.2-3.1,0.2-3.2,0.6c-2.8-0.2-5.7-0.6-8.4-1.2l-1.9-0.4l-1.7-0.5c-0.9-0.2-1.7-0.6-2.5-1c-1.3-0.4-2.6-0.8-3.9-1
			c-0.4-0.1-0.9-0.2-1.3-0.3c-0.5-0.2-0.9-0.4-1.4-0.6c-1.7-0.5-2.9-0.9-3.8-1.1c-1.2,0,3,1.8,0.6,1.1c0.3,0.3-0.7,0-1.6-0.4
			c-0.9-0.4-1.6-0.9-1.3-0.5c-1.1-0.6-2.1-1.2-3.1-1.9l-3.7-2.4c-2.5-2.4-4.3-4.4-7.6-8c-1.3-1-2.5-2.2-3.5-3.5
			c-1.1-1.5,0.8,0.4,0.5-0.5c2.2,2.6,5.3,5.4,6.8,7c1.5,1.1,1.8,1.1,1.9,0.8c7.2,5.4,15.6,9.4,24.7,11.4l1,0.3
			c0.8,0.2,1.6,0.4,2.6,0.6c0.6,0.1,0.9,0,1.1,0c3.2,0.5,6.4,0.7,9.7,0.7c0.9,0,1.9,0,2.8-0.1C256.5,171.8,255.2,172,253.6,172.2z
			 M294.4,159.1c0,0.5-2,1.9-3.2,2.5C291.3,161.3,293.2,160.1,294.4,159.1z M298.7,156.8c-1.5,1.8-3.4,3.2-5.5,4.2
			c-0.6-0.2,3.2-3,1.7-2.7c0.9-0.6,2-1.5,3-2.3s1.9-1.6,2.5-2.1C301,153.8,300.2,155.2,298.7,156.8z"/>
		<path class="st1" d="M181.9,88.9C182.2,87.5,182,88.1,181.9,88.9L181.9,88.9z"/>
	</g>
	<g class="st2">
		<path class="st3" d="M208.8,93.9c0.5,0,0.9,0,1.4,0c0.2,0,0.4,0,0.6,0.1c0.8,0.2,1.1,0.7,1.1,1.5s0,1.5,0,2.3c0,0.1,0,0.3,0.1,0.4
			c0.2,0,0.4-0.2,0.6-0.3c0.2-0.1,0.4-0.2,0.6-0.4c0.3-0.2,0.6-0.3,0.9-0.4c0.7-0.3,1.4-0.1,2.1,0c0.3,0,0.5,0.2,0.6,0.5
			c0.4,0.9,0.6,1.9,0.4,2.9c-0.1,0.9-0.3,1.8-0.6,2.6c-0.1,0.4-0.3,0.7-0.6,1c-0.4,0.5-0.8,1-1.2,1.4c-0.3,0.3-0.3,0.6-0.2,0.9
			c0.5,1.1,0.6,2.3,1,3.4c0.2,0.8,0.5,1.6,0.8,2.4c0.4,1.2,0.9,2.4,1.4,3.6c0.1,0.4,0.3,0.7,0.3,1.1c0,0.1,0,0.2,0.1,0.4
			c0.7,1.4,1.4,2.8,2.7,3.8c0.2,0.2,0.5,0.4,0.8,0.6c0.4,0.2,0.6,0.5,0.9,0.7c0.3,0.2,0.3,0.6,0.3,0.8c0.1,0.3-0.3,0.5-0.6,0.4
			c-0.1,0-0.3-0.1-0.4-0.2c-0.9-0.8-2-1.3-2.9-2.1c-1.1-0.9-2.1-1.8-2.8-3c-0.5-0.8-1.1-1.7-1.5-2.6c-0.7-1.4-1.3-2.9-1.8-4.3
			c-0.5-1.3-0.9-2.6-1.2-4c-0.1-0.3-0.2-0.6-0.3-0.9c-0.1-0.2-0.1-0.6-0.4-0.5c-0.2,0-0.2,0.4-0.2,0.6l-0.4,3.5c0,0.1,0,0.3,0,0.5
			c-0.4,0.8-0.3,1.7-0.4,2.6c0,0.6-0.2,1.2-0.4,1.8c-0.1,0.3-0.1,0.7-0.6,0.5c0,0-0.1,0-0.2,0.1c-0.4,0.3-0.6,0.1-1-0.1
			c-0.2-0.1-0.2-0.3-0.2-0.5c0-0.5,0-1,0-1.5c-0.1-1.7,0-3.4,0.1-5.1c0.1-1.8,0.3-3.5,0.5-5.3s0.4-3.5,0.6-5.3
			c0.1-0.6,0.2-1.1,0.2-1.7c0.1-0.6,0.2-1.2,0-1.8C208.8,94.1,208.8,94,208.8,93.9z M211.1,104.8c0.5-0.2,1-0.2,1.4-0.2
			c0.2,0,0.3,0,0.4,0.2c0.1,0.3,0.2,0.3,0.5,0.2c0.4-0.2,0.6-0.4,0.7-0.8c0-0.2,0.1-0.4,0.2-0.6c0.7-1.5,0.9-3,0.9-4.7
			c0-0.1,0-0.2,0-0.3s-0.2-0.2-0.4-0.1c-0.5,0.5-1.2,0.8-1.6,1.4c-0.6,1-1.2,2-1.7,3.1c-0.1,0.3-0.2,0.6-0.3,0.8
			C211.1,104.2,211.1,104.4,211.1,104.8z"/>
	</g>
	<g class="st2">
		<path class="st3" d="M217.2,111.4c0-0.8,0.1-1.5,0.3-2.3l0.2-1.3c0-0.2,0.1-0.4,0.2-0.6c0.2-0.4,0.4-0.9,0.3-1.4
			c0-0.2,0-0.4,0.1-0.5c0.3-1.4,0.7-2.7,1.1-4.1c0.1-0.4,0.2-0.8,0.3-1.2c0.1-0.5,0.4-1.1,0.6-1.6c0.1-0.2,0.2-0.3,0.4-0.3
			c0.1,0,0.2,0,0.4-0.1c0.5-0.1,1-0.3,1.4,0.1c0.1,0.1,0.3,0.1,0.4,0c0.1,0,0.2-0.1,0.3-0.1c1.6-0.8,3.3-1.3,5-2.1
			c0.6-0.3,1.3-0.4,2-0.6c0.4-0.1,0.7-0.2,1.1-0.3c0.2-0.1,0.4-0.1,0.6-0.1c0.2,0,0.4,0.2,0.3,0.4c-0.2,0.2-0.1,0.6-0.3,0.8
			c-0.1,0.2-0.3,0.4-0.4,0.7c0,0.2-0.3,0.3-0.5,0.4c-0.3,0.1-0.5,0.3-0.7,0.5c-0.3,0.4-0.8,0.6-1.3,0.8c-0.5,0.2-0.9,0.4-1.3,0.6
			c-1.2,0.6-2.4,1.3-3.7,1.8c-0.1,0.1-0.3,0.1-0.4,0.2c-0.6,0-0.7,0.4-0.9,0.9c-0.2,0.8-0.5,1.6-0.7,2.3l-0.4,1.4
			c0,0.1,0.1,0.2,0.2,0.2l1.8-0.5c0.5-0.1,1-0.1,1.5-0.1c0.2,0,0.3,0.1,0.2,0.3c0,0.2-0.1,0.3,0,0.5v0.1c-0.3,0.2-0.4,0.7-0.8,0.9
			c-0.2,0.1-0.5,0.2-0.5,0.6c0,0.1-0.2,0.2-0.3,0.3c-0.5,0.3-1,0.5-1.5,0.6c-0.3,0.1-0.6,0.1-1,0s-0.4-0.1-0.5,0.3
			c-0.3,0.9-0.4,1.9-0.6,2.8c0,0.2,0,0.3,0,0.5c0,0.1,0.2,0.2,0.3,0.1c0.2-0.1,0.4-0.2,0.6-0.4c1.3-1,2.7-1.8,4.2-2.4
			c0.4-0.2,0.8-0.3,1.2-0.4c0.3,0,0.4,0.1,0.5,0.4c0.1,0.4-0.1,0.7-0.1,1.1c0,0.3-0.3,0.5-0.5,0.7c-0.3,0.2-0.6,0.5-0.7,0.8
			c0,0.1-0.1,0.1-0.2,0.2c-1.1,0.7-2.2,1.5-3.3,2.2c-0.5,0.3-1,0.5-1.5,0.6c-0.1,0-0.3,0-0.4,0c-0.7,0-1.3-0.4-1.8-0.9
			c-0.6-0.7-1-1.5-1-2.5v-0.3H217.2z"/>
		<path class="st3" d="M237.9,96.5c-0.2,0.6-0.4,1.3-0.9,1.8c-0.1,0.2-0.2,0.3-0.3,0.5c-0.2,0.5-0.6,0.6-1,0.3c0,0,0,0-0.1,0
			c-0.4-0.2-0.6-0.6-0.4-1c0.2-0.5,0.3-0.9,0.3-1.4c0-0.2,0.1-0.5,0.1-0.7c0.1-0.5-0.2-0.9-0.7-0.9c-0.6,0-1.1,0.2-1.4,0.7
			c-0.5,0.7-0.5,1.5-0.8,2.2c0,0.1,0,0.2,0,0.3c0,1,0.1,1.9,0.7,2.8c0.3,0.5,0.5,1.1,0.7,1.6s0.6,0.9,0.9,1.5
			c0.2,0.5,0.4,1.1,0.5,1.6c0,0.4,0.2,0.7,0.3,1.1c0.5,1,0.7,2.1,0.7,3.2c0,0.5,0,1,0,1.4c-0.1,1.3-0.6,2.5-1.2,3.6c0,0,0,0,0,0.1
			c-0.3,0.9-1.1,1.3-1.8,1.7c-0.4,0.2-0.9,0.5-1.4,0.7c-0.3,0.2-0.6,0.4-0.9,0.3c-0.4,0-0.7-0.1-1-0.3c-0.1,0-0.2-0.1-0.3-0.1
			c-0.6,0-1-0.3-1.3-0.7l0,0c-0.1-0.1-0.2-0.1-0.4-0.2c-0.1-0.1-0.1-0.1,0-0.2c0.1,0,0.2,0,0.2-0.1s-0.1-0.1-0.2-0.1
			c-0.3,0-0.4-0.2-0.5-0.4c-0.1-0.3-0.2-0.5-0.4-0.8c-0.3-0.5-0.4-1.1-0.3-1.7c0.1-0.6,0.2-1.1,0.6-1.6c0.5-0.6,1-1.2,1.2-2
			c0.3-0.3,0.4-0.7,0.7-1.1c0.3-0.3,0.6-0.5,1.1-0.4l0,0c-0.2,0.2-0.3,0.5-0.4,0.7c-0.4,0.8-0.7,1.6-1.2,2.3
			c-0.3,0.5-0.5,1.1-0.8,1.6c-0.1,0.2-0.1,0.4,0,0.6c0.2,0.2,0.2,0.6,0.3,0.9c0.1,0.5,0.2,0.9,0.6,1.2c0.4,0.3,0.7,0.3,1-0.1
			s0.6-0.7,0.9-1c0.3-0.3,0.5-0.5,0.6-0.9c0.5-1.1,1-2.1,1.2-3.3c0.3-1.4,0.2-2.7-0.4-4c0-0.1-0.1-0.2-0.2-0.2
			c-0.1,0-0.1,0.1-0.2,0.1c-0.1,0.2-0.2,0.4-0.3,0.6c-0.1-0.3-0.2-1.3-0.2-1.4c0-0.2,0.2-0.4,0.3-0.5c0.1-0.3,0.2-0.5,0-0.8
			c0-0.1,0-0.2-0.1-0.3c-0.4-0.9-0.7-1.9-0.9-2.9c-0.3-1-0.3-2.1,0-3.1c0.1-0.4,0.2-0.7,0.3-1.1c0.2-0.9,0.7-1.7,1.5-2.2
			c0.1-0.1,0.2-0.2,0.4-0.2c0.7-0.2,1.4-0.3,2-0.2c0.5,0.1,1,0.1,1.4,0.2c0.5,0.1,0.9,0.3,1.2,0.7c0,0.1,0.2,0.2,0.3,0.3
			C237.9,95.7,238.1,96,237.9,96.5z M228.8,116.8h-0.1c-0.1,0-0.1,0.1-0.2,0.1c0.1,0,0.1,0,0.2,0
			C228.7,116.9,228.8,116.9,228.8,116.8z"/>
	</g>
	<g class="st2">
		<path class="st3" d="M236.9,111.4c0-0.8,0.1-1.5,0.3-2.3l0.2-1.3c0-0.2,0.1-0.4,0.2-0.6c0.2-0.4,0.4-0.9,0.3-1.4
			c0-0.2,0-0.4,0.1-0.5c0.3-1.4,0.7-2.7,1.1-4.1c0.1-0.4,0.2-0.8,0.3-1.2c0.1-0.5,0.4-1.1,0.6-1.6c0.1-0.2,0.2-0.3,0.4-0.3
			c0.1,0,0.2,0,0.4-0.1c0.5-0.1,1-0.3,1.4,0.1c0.1,0.1,0.3,0.1,0.4,0c0.1,0,0.2-0.1,0.3-0.1c1.6-0.8,3.3-1.3,5-2.1
			c0.6-0.3,1.3-0.4,2-0.6c0.4-0.1,0.7-0.2,1.1-0.3c0.2-0.1,0.4-0.1,0.6-0.1c0.2,0,0.4,0.2,0.3,0.4c-0.2,0.2-0.1,0.6-0.3,0.8
			c-0.1,0.2-0.3,0.4-0.4,0.7c0,0.2-0.3,0.3-0.5,0.4c-0.3,0.1-0.5,0.3-0.7,0.5c-0.3,0.4-0.8,0.6-1.3,0.8c-0.5,0.2-0.9,0.4-1.3,0.6
			c-1.2,0.6-2.4,1.3-3.7,1.8c-0.1,0.1-0.3,0.1-0.4,0.2c-0.6,0-0.7,0.4-0.9,0.9c-0.2,0.8-0.5,1.6-0.7,2.3l-0.4,1.4
			c0,0.1,0.1,0.2,0.2,0.2l1.8-0.5c0.5-0.1,1-0.1,1.5-0.1c0.2,0,0.3,0.1,0.2,0.3c0,0.2-0.1,0.3,0,0.5v0.1c-0.3,0.2-0.4,0.7-0.8,0.9
			c-0.2,0.1-0.5,0.2-0.5,0.6c0,0.1-0.2,0.2-0.3,0.3c-0.5,0.3-1,0.5-1.5,0.6c-0.3,0.1-0.6,0.1-1,0s-0.4-0.1-0.5,0.3
			c-0.3,0.9-0.4,1.9-0.6,2.8c0,0.2,0,0.3,0,0.5c0,0.1,0.2,0.2,0.3,0.1c0.2-0.1,0.4-0.2,0.6-0.4c1.3-1,2.7-1.8,4.2-2.4
			c0.4-0.2,0.8-0.3,1.2-0.4c0.3,0,0.4,0.1,0.5,0.4c0.1,0.4-0.1,0.7-0.1,1.1c0,0.3-0.3,0.5-0.5,0.7c-0.3,0.2-0.6,0.5-0.7,0.8
			c0,0.1-0.1,0.1-0.2,0.2c-1.1,0.7-2.2,1.5-3.3,2.2c-0.5,0.3-1,0.5-1.5,0.6c-0.1,0-0.3,0-0.4,0c-0.7,0-1.3-0.4-1.8-0.9
			c-0.6-0.7-1-1.5-1-2.5v-0.3H236.9z"/>
	</g>
	<path class="st3" d="M257.4,99.8c0,1.8-0.1,3.1-0.3,4.4c0,0.2,0,0.4,0,0.6c0,1.8-0.3,3.5-0.6,5.3c0,0.4-0.1,0.8-0.1,1.3
		c0,0.6-0.1,1.1-0.2,1.6c-0.1,0.2-0.1,0.4-0.1,0.7c0,0.3,0,0.6-0.3,0.9c-0.2,0.2-0.2,0.6-0.1,0.8c0.1,0.7-0.3,1.2-0.7,1.7
		c0,0.1-0.1,0.1-0.2,0.2c-0.1,0.2-0.3,0.1-0.4,0c-0.6-0.5-1-1-1.1-1.8c-0.1-0.7-0.2-1.3-0.1-2c0.1-0.5,0.1-0.9,0.1-1.4
		c0-1.1,0.2-2.1,0.2-3.2c0-0.2-0.1-0.3-0.3-0.2c-0.7,0.2-1.5,0.1-2.2-0.1c-0.2,0-0.4-0.1-0.7-0.1c-0.4-0.1-0.4-0.1-0.6,0.3
		c-0.3,0.7-0.6,1.4-0.8,2.2c-0.5,1.2-0.9,2.4-1.4,3.6c-0.1,0.2-0.2,0.4-0.3,0.6c-0.3,0.6-0.8,0.8-1.4,0.9c-0.1,0-0.3,0-0.4-0.1
		c-0.4-0.4-0.7-0.8-0.8-1.3c0,0,0-0.1,0-0.2c0.5-0.7,0.6-1.6,0.9-2.4c0.4-1.1,0.8-2.3,1.2-3.4c0.2-0.5,0.3-1,0.6-1.4
		c0.2-0.2-0.3-0.6,0.1-0.8c0.3-0.2,0.4-0.5,0.5-0.8c0.3-0.7,0.6-1.5,1-2.3l1.6-3.6c0.6-1.3,1.2-2.6,1.8-3.9c0.1-0.3,0.2-0.6,0.2-0.9
		s0.2-0.6,0.6-0.7c0.3-0.1,0.7-0.1,1-0.5c0,0,0.1-0.1,0.2,0c0.7,0.1,1.4,0.2,1.8,0.9c0.6,0.9,1.1,1.8,1.2,2.9
		C257.3,98.4,257.4,99.3,257.4,99.8z M250.8,105.9c0.5,0.2,1.1,0.4,1.6,0.7c0.2,0.1,0.5,0.1,0.7,0c0.3,0,0.4-0.1,0.5-0.4
		c0-0.3,0-0.5,0-0.8c0-1.6,0-3.1,0.1-4.7c0-0.6,0-1.2,0-1.9c0,0,0-0.1-0.1-0.1c-0.1-0.1-0.2,0-0.2,0.1c-0.3,0.7-0.7,1.5-1,2.3
		c-0.2,0.4-0.4,0.7-0.4,1.1c-0.1,0.5-0.2,0.9-0.4,1.3l-0.7,1.7C250.9,105.4,250.8,105.6,250.8,105.9z"/>
	<path class="st3" d="M258.2,93.9c0.5,0,0.9,0,1.4,0c0.2,0,0.4,0,0.6,0.1c0.8,0.2,1.1,0.7,1.1,1.5s0,1.5,0,2.3c0,0.1,0,0.3,0.1,0.4
		c0.2,0,0.4-0.2,0.6-0.3s0.4-0.2,0.6-0.4c0.3-0.2,0.6-0.3,0.9-0.4c0.7-0.3,1.4-0.1,2.1,0c0.3,0,0.5,0.2,0.6,0.5
		c0.4,0.9,0.6,1.9,0.4,2.9c-0.1,0.9-0.3,1.8-0.6,2.6c-0.1,0.4-0.3,0.7-0.6,1c-0.4,0.5-0.8,1-1.2,1.4c-0.3,0.3-0.3,0.6-0.2,0.9
		c0.5,1.1,0.6,2.3,1,3.4c0.2,0.8,0.5,1.6,0.8,2.4c0.4,1.2,0.9,2.4,1.4,3.6c0.1,0.4,0.3,0.7,0.3,1.1c0,0.1,0,0.2,0.1,0.4
		c0.7,1.4,1.4,2.8,2.7,3.8c0.2,0.2,0.5,0.4,0.8,0.6c0.4,0.2,0.6,0.5,0.9,0.7s0.3,0.6,0.3,0.8c0.1,0.3-0.3,0.5-0.6,0.4
		c-0.1,0-0.3-0.1-0.4-0.2c-0.9-0.8-2-1.3-2.9-2.1c-1.1-0.9-2.1-1.8-2.8-3c-0.5-0.8-1.1-1.7-1.5-2.6c-0.7-1.4-1.3-2.9-1.8-4.3
		c-0.5-1.3-0.9-2.6-1.2-4c-0.1-0.3-0.2-0.6-0.3-0.9c-0.1-0.2-0.1-0.6-0.4-0.5c-0.2,0-0.2,0.4-0.2,0.6l-0.4,3.5c0,0.1,0,0.3,0,0.5
		c-0.4,0.8-0.3,1.7-0.4,2.6c0,0.6-0.2,1.2-0.4,1.8c-0.1,0.3-0.1,0.7-0.6,0.5c0,0-0.1,0-0.2,0.1c-0.4,0.3-0.6,0.1-1-0.1
		c-0.2-0.1-0.2-0.3-0.2-0.5c0-0.5,0-1,0-1.5c-0.1-1.7,0-3.4,0.1-5.1c0.1-1.8,0.3-3.5,0.5-5.3s0.4-3.5,0.6-5.3
		c0.1-0.6,0.2-1.1,0.2-1.7c0.1-0.6,0.2-1.2,0-1.8C258.2,94.1,258.2,94,258.2,93.9z M260.5,104.8c0.5-0.2,1-0.2,1.4-0.2
		c0.2,0,0.3,0,0.4,0.2c0.1,0.3,0.2,0.3,0.5,0.2c0.4-0.2,0.6-0.4,0.7-0.8c0-0.2,0.1-0.4,0.2-0.6c0.7-1.5,0.9-3,0.9-4.7
		c0-0.1,0-0.2,0-0.3s-0.2-0.2-0.4-0.1c-0.5,0.5-1.2,0.8-1.6,1.4c-0.6,1-1.2,2-1.7,3.1c-0.1,0.3-0.2,0.6-0.3,0.8
		C260.5,104.2,260.5,104.4,260.5,104.8z"/>
	<g class="st2">
		<path class="st3" d="M275.8,110c0,0.2,0.1,0.4,0.1,0.6s0,0.5,0,0.7c-0.1,0.3-0.3,0.6-0.4,0.9s0,0.6-0.2,0.8
			c-0.1,0.1-0.1,0.1-0.1,0.2c-0.1,0.7-0.5,1.3-0.9,1.9c-0.1,0.2-0.1,0.3-0.2,0.5c0,0.1-0.1,0.3-0.2,0.4s-0.2,0.2-0.4,0.3
			c-0.6,0.2-1,0.8-1.8,0.7c-0.1,0-0.3-0.1-0.4-0.2c0-0.1-0.1-0.2-0.2-0.2c-0.7,0.1-1-0.6-1.6-0.9l-0.1-0.1c-0.7-1.2-1.2-2.4-1.1-3.9
			c0.1-1.1,0.1-2.3,0.2-3.4c0.1-0.9,0.2-1.8,0.3-2.7c0-0.3,0.1-0.6,0.1-0.9c0-0.6,0.2-1.3,0.4-1.9c0.3-1.6,0.7-3.2,1.3-4.8
			c0.5-1.3,1.1-2.6,2.1-3.6c0.1-0.1,0.2-0.3,0.3-0.4c0.1-0.2,0.3-0.4,0.5-0.4c0.7-0.1,1.5-0.5,2.3-0.3c0.9,0.2,1.6,0.9,1.7,1.9
			c0,0.9,0.1,1.8-0.1,2.7c0,0.1,0,0.3,0,0.4c0,0.9-0.1,1.8-0.1,2.7c0,0.9-0.2,1.7-0.2,2.5c0,0.6-0.5,0.8-0.8,1.1h-0.2
			c-0.5-0.1-0.9-0.3-1.1-0.8c-0.1-0.4-0.3-0.8,0-1.2c0.1-0.1,0.1-0.3,0.1-0.5c0-0.9,0.1-1.8,0.2-2.6c0-0.7,0.1-1.5,0.1-2.2
			c0-0.5,0-1-0.1-1.4c0-0.1-0.1-0.2-0.1-0.2c-0.1,0-0.2,0-0.2,0c-0.3,0.3-0.5,0.6-0.7,1c-0.5,1.2-1,2.4-1.3,3.6
			c-0.1,0.3-0.1,0.7-0.2,1c-0.2,0.8-0.5,1.7-0.7,2.5c-0.4,1.4-0.7,2.8-0.8,4.2c-0.1,0.8-0.3,1.6-0.3,2.4c0,1.1-0.3,2.1,0,3.2
			c0.1,0.4,0.2,0.8,0.4,1.2c0.1,0.3,0.3,0.3,0.6,0.1c0.3-0.2,0.6-0.4,0.8-0.7c0.9-1.1,1.8-2.2,2.6-3.5c0.1-0.2,0.2-0.3,0.4-0.5
			C275.6,110.3,275.6,110,275.8,110z"/>
		<path class="st3" d="M291.4,104.1c-0.5,0.3-0.6,0.9-1,1.2c-0.1,0.1-0.1,0.3-0.1,0.5c-0.2,0.9-0.3,1.9-0.5,2.8
			c-0.1,0.5-0.3,1-0.4,1.5c-0.1,0.3-0.2,0.7-0.4,1c-0.3,0.6-0.5,1.2-0.6,1.9c-0.2,0.7-0.6,1.2-0.9,1.8c-0.1,0.2-0.2,0.3-0.1,0.6
			c0,0.3-0.2,0.3-0.4,0.3c0-0.1,0-0.2-0.1-0.2c-0.5-0.1-0.6-0.5-0.6-0.9c0-0.6,0-1.1,0.1-1.7c0.3-1.8,0.6-3.6,0.9-5.4v-0.1
			c0.1-0.7,0-0.7-0.7-0.5l-0.8,0.2c-0.8,0.2-1.6,0.4-2.4,0.5c-0.4,0.1-0.5,0.3-0.6,0.6c-0.1,0.4-0.2,0.8-0.2,1.2
			c-0.2,1.1-0.3,2.1-0.7,3.2c-0.1,0.3-0.2,0.6-0.2,1s-0.2,0.7-0.4,1.1c0,0.2-0.3,0.2-0.4,0.1c-0.4-0.2-0.7-0.6-0.9-1
			c-0.4-1-0.5-2.1-0.5-3.1c0-0.5,0-1,0-1.5c0-0.2-0.1-0.3-0.3-0.2c-0.3,0-0.6,0.1-0.8,0.2c-0.5,0.2-0.9,0.1-1.4,0.1
			c-0.6,0-1-0.3-1.3-0.8c-0.1-0.3-0.3-0.5-0.5-0.8c-0.1-0.2-0.1-0.4,0.1-0.6c0.1,0,0.2-0.1,0.3-0.1c1.2-0.4,2.3-0.8,3.5-1.2
			c0.1,0,0.2,0,0.3-0.1c0.4-0.1,0.7-0.4,0.7-0.9c0.3-1.9,0.6-3.7,0.9-5.6c0.1-1,0.2-2,0.4-3c0-0.5,0-0.9-0.1-1.4
			c-0.1-0.6,0-0.6,0.6-0.9s1.1-0.1,1.6,0.3s0.8,0.9,0.9,1.6c0.1,0.8,0.1,1.6,0,2.5c-0.3,1.9-0.5,3.8-0.9,5.7c0,0.1,0,0.2,0,0.3
			c0,0.2,0.1,0.3,0.3,0.3c0.5,0,1,0,1.4-0.1c0.5-0.1,1-0.1,1.5-0.1c0.2,0,0.4,0,0.6-0.1c0.3,0,0.4-0.2,0.4-0.5
			c0.1-0.8,0.2-1.5,0.3-2.3c0.1-1,0.3-2,0.4-3c0.1-0.5,0.1-0.9,0-1.3c-0.2-0.5,0.3-0.9,0.8-0.8c1.7,0.3,2.4,1.6,2.2,2.9
			c-0.2,1-0.3,2-0.5,3l-0.2,1.3c0,0.1,0.1,0.2,0.2,0.2c0.2,0,0.3,0,0.5,0.1C291.4,103.9,291.4,104.1,291.4,104.1z M286.8,115.6
			L286.8,115.6L286.8,115.6L286.8,115.6z"/>
	</g>
	<path class="st1" d="M360.9,66.9c-0.4,0.4,0.3-0.7,0.5-0.9C361.7,65.6,361,66.7,360.9,66.9z"/>
	<path class="st1" d="M357.4,139.4c0.2,0.5-0.5-0.6-0.6-0.9C356.6,138,357.3,139.1,357.4,139.4z"/>
	<path class="st1" d="M364.2,64.3c-0.4,0.4,0.3-0.7,0.5-0.9C365.1,63,364.4,64.1,364.2,64.3z"/>
	<path class="st1" d="M390.1,165.7c0.4,0.3-0.7-0.2-0.9-0.3C388.7,165.1,389.9,165.5,390.1,165.7z"/>
	<path class="st1" d="M441.2,46.2c-0.4-0.2,0.7,0.1,0.9,0.2C442.6,46.7,441.5,46.3,441.2,46.2z"/>
	<path class="st1" d="M441.2,46.4c-0.4-0.2,0.7,0.1,0.9,0.2C442.5,46.9,441.4,46.5,441.2,46.4z"/>
	<path class="st1" d="M418.7,42.5c0.3-0.1,0.7-0.1,1,0C419.3,42.6,419,42.6,418.7,42.5z"/>
	<path class="st1" d="M423.4,42.7c0.6-0.1,1.3-0.1,1.9,0C424.7,42.7,424.1,42.7,423.4,42.7z"/>
	<path class="st1" d="M447.3,49.1L449,50l-0.1,0.2l-1.7-0.9L447.3,49.1z"/>
	<path class="st1" d="M441.9,47.1c-0.4-0.2,0.7,0.1,0.9,0.2C443.3,47.6,442.1,47.2,441.9,47.1z"/>
	<path class="st1" d="M364.4,90.5c0-0.3,0.1-0.6,0.2-0.8C364.7,90,364.6,90.3,364.4,90.5z"/>
	<g>
		<path class="st1" d="M411.9,41.2L411.9,41.2C412,41.2,412,41.2,411.9,41.2z"/>
		<path class="st1" d="M483.5,122.5c-0.4,0.6-0.8,1.2-1,1.9c-0.4,1-0.9,2.3-1.4,3.5c-0.8,2.2-1.8,4.2-3.2,6.1c0.2-0.5,0.3-1,0.5-1.5
			c3.5-8,5.4-16.8,5.4-26.1c0-15.8-5.6-30.3-15-41.6c-0.3-0.6-0.7-1.2-1.1-1.8c-2.5-2.8-5.2-5.5-7.9-8.1c-2.6-2.4-5.4-4.5-8.4-6.3
			c-0.7-0.6-1.4-1.1-2.2-1.5c-0.7-0.4-1.4-0.8-2-1.3c-2.6-1.3-6.1-2.4-7.5-3.1c-0.1,0.4-3.5-0.6-5-0.7c1,0.2,2,0.5,2.8,1
			c-2.2-0.9-4.5-1.5-6.9-1.9c-3.1-0.2-1.7,0.3-4.1,0.3c-2.5-0.5-6.9-0.4-10.5,0c-0.3,0-0.6,0-0.9,0c-0.5,0-1.1,0-1.6,0
			c-0.8,0-1.8,0-2.7,0.1c-1.7,0-3.3,0.2-4.9,0.6c0.9-0.1,1.7-0.1,2.7,0c-1.7,0.3-3.3,0.6-4.9,1c0.1-0.1,0.3-0.2,0.4-0.4
			c-2.9,0.5-5.8,1.4-8.5,2.5c0.1-0.3-1.1,0.2-1.1-0.1c-2.9,1-5.6,2.3-8.3,3.7c-3.2,1.7-6.2,3.7-9,6c-2.8,1.9-5.3,4.1-7.5,6.6
			c-1.4,0.9-3.7,3.5-4.6,4c1.1-1.2,0.6-1.7-0.4-0.3c-0.2,0.4-0.3,0.7-0.6,1.1c-0.2,0.5-0.6,1-1,1.6c-1.4,1.6-1.6,1.4-1.7,1
			s-0.1-1.1-0.8-0.2c-1.7,3.3,0.7,0.3-0.6,3.3c-1.8,1.4-2.8,1.6-2.7-0.4c-0.2,0-1.4,2.3-1.4,1.7c0-0.6,0.3-1.6-0.3-1.4
			c1-2.3,2.2-4.6,3.5-6.8c-1.2,1.7-1.5,1.9-2.5,3.6c-0.3-0.1-1.2,1.3-2.1,2.7c-0.9,1.4-1.7,2.8-1.9,2.6c-0.7,1.2-1.3,2.6-2,4.1
			s-1.2,3-1.7,4.5s-1,2.9-1.2,4.1s-0.6,2.2-0.7,2.9c0.8-4.2-0.5,1.6,0.1,0.5c0.6-1,0.7-1,0.8,0.2c0.7-2.5,0.7,0.2,0.7,0.2
			c0.2,0.1,1.1-1.8,0.1,2.2c-0.5,1.1-0.6,0.3-0.6-0.6s0-1.8-0.5-0.8c-0.3,1-0.6,2.1-0.8,3.2c-0.1-0.5,0.1-2.4-0.2-2.3
			c-0.3,1.9-0.6,3.4-0.8,4.3c0.3,0.4,0.1,2,0.2,3.6s0.1,3,0.4,3.1c0,1.4,0.1,2.6,0.2,3.6s0.3,2,0.4,2.9l1.2,6.3
			c0.8,1.8,1.5,3.6,2.1,5.4c0.4,1.1,0.8,2.4,1.4,3.6l0.8,1.9l0.9,1.9c0.2,0,0.5,0.3,1,1c0.6,1.1,1.2,2.3,1.7,3.5
			c0.9,2.2,2.1,4.8,3,6.6c1.3,2-0.7-1.9,1.3,1.6c1.5,2.3-0.9-0.3,0.7,2c0.8,0.4,2.2,2.4,3.8,4.6c1.2,1.8,2.6,3.4,4.1,5
			c1.3,1,0.6,0.3-0.2-0.7c-0.8-1-1.8-2.2-1.3-2.1c3.3,4.1,7,7.8,11,11.2c4.1,3.4,8.6,6.3,13.4,8.5c0.2-0.3-1.8-1.3-2.5-1.9
			c4.5,1.6,9.1,2.9,13.7,3.8l2.6,0.8l2.5,0.6c2.2,0.5,4.5,0.8,6.8,0.9c-0.6-0.6,2.3-0.5,5-0.7c0.1,0.3-1.7,0.3,0,0.5
			c-2.6,0.3-5.3,0.3-7.9,0.2c-1.4-0.1-2.6-0.2-3.6-0.2s-1.6,0-1.8,0.2c0.6,0.5,5.8,1.1,6.1,1.4c1.5,0,2.9,0.1,4.4,0.1
			c0.7,0,1.4,0,2.1,0h2.1c1.4,0,2.9-0.1,4.4-0.1s3-0.2,4.6-0.5c0.9-0.8,6.5-2,6.7-2.9c1.1-0.3,2.2-0.7,3.1-1.3
			c1.1-0.6,2.2-1.1,3.4-1.5c-0.5,0.3-0.9,0.6-1.3,0.9s-0.8,0.5-1,0.8c-0.6,0.5-0.9,0.9-1,1.1c4.4-1.2,7.2-2.2,9.1-2.5
			c1.2-0.6,2.2-1,3.1-1.4l2.5-1.2c1.9-1,3.8-2.1,5.5-3.3c0.8-0.7,1.5-1.6,2.1-2.5c0.8-0.7,1.5-1.4,2.2-2.1c0.5-0.5,1-1.1,1.4-1.6
			c0.8-1,1.4-1.9,2.5-3.3c2.8-3.3,3.3-4.7,6.4-9.2c1.4-2.9,2.8-5.9,5-11.1c1.2-2.4,2.2-4.9,2.9-7.4
			C482.2,127.4,483.6,123.2,483.5,122.5z M457.8,160.2c-0.5,0.3,0.5-0.5,0.7-0.7C459,159.2,458,160.1,457.8,160.2z M418.7,172.1
			c-1.6,0.2-3.1,0.2-3.2,0.6c-2.8-0.2-5.7-0.6-8.5-1.2l-1.9-0.4l-1.7-0.5c-0.9-0.2-1.7-0.6-2.5-1c-1.3-0.4-2.6-0.8-3.9-1
			c-0.4-0.1-0.9-0.2-1.3-0.3c-0.5-0.2-0.9-0.4-1.4-0.6c-1.7-0.5-2.9-0.9-3.8-1.1c-1.2,0,3,1.8,0.6,1.1c0.3,0.3-0.7,0-1.6-0.4
			s-1.5-0.8-1.1-0.4c-1.1-0.6-2.1-1.2-3.1-1.9l-3.7-2.4c-2.5-2.4-4.3-4.4-7.6-8c-1.3-1-2.5-2.2-3.5-3.5c-1-1.4,0.6,0.2,0.5-0.4
			c0.4,0.4,0.7,0.8,1.1,1.2c2,2.2,4.4,4.4,5.7,5.7c1.4,1,1.7,1.1,1.8,0.9c7.6,5.7,16.4,9.8,26,11.7c0.7,0.2,1.4,0.3,2.2,0.5
			c0.3,0,0.6,0,0.8,0c3.3,0.5,6.6,0.8,10,0.8c0.9,0,1.9,0,2.8-0.1C421.4,171.7,420.1,171.9,418.7,172.1z M459.6,159.1
			c-0.1,0.5-2.1,1.9-3.2,2.5C456.5,161.3,458.4,160.1,459.6,159.1z M463.9,156.8c-1.6,1.8-3.4,3.2-5.5,4.2c-0.6-0.2,3.2-3,1.7-2.7
			c0.9-0.6,2-1.5,3-2.3s1.9-1.6,2.5-2.1C466.2,153.8,465.4,155.2,463.9,156.8z"/>
		<path class="st1" d="M411.9,41.2c-0.3,0-1.5,0.2-1,0.2C411,41.4,411.7,41.3,411.9,41.2z"/>
	</g>
	<g class="st2">
		<path class="st3" d="M392.4,99.4c-0.2,0.6-0.4,1.3-0.9,1.8c-0.1,0.2-0.2,0.3-0.3,0.5c-0.2,0.5-0.6,0.6-1,0.3c0,0,0,0-0.1,0
			c-0.4-0.2-0.6-0.6-0.4-1c0.2-0.5,0.3-0.9,0.3-1.4c0-0.2,0.1-0.5,0.1-0.7c0.1-0.5-0.2-0.9-0.7-0.9c-0.6,0-1.1,0.2-1.4,0.7
			c-0.5,0.7-0.5,1.5-0.8,2.2c0,0.1,0,0.2,0,0.3c0,1,0.1,1.9,0.7,2.8c0.3,0.5,0.5,1.1,0.7,1.6s0.6,0.9,0.9,1.5
			c0.2,0.5,0.4,1.1,0.5,1.6c0,0.4,0.2,0.7,0.3,1.1c0.5,1,0.7,2.1,0.7,3.2c0,0.5,0,1,0,1.4c-0.1,1.3-0.6,2.5-1.2,3.6c0,0,0,0,0,0.1
			c-0.3,0.9-1.1,1.3-1.8,1.7c-0.4,0.2-0.9,0.5-1.4,0.7c-0.3,0.2-0.6,0.4-0.9,0.3c-0.4,0-0.7-0.1-1-0.3c-0.1,0-0.2-0.1-0.3-0.1
			c-0.6,0-1-0.3-1.3-0.7l0,0c-0.1-0.1-0.2-0.1-0.4-0.2c-0.1-0.1-0.1-0.1,0-0.2c0.1,0,0.2,0,0.2-0.1s-0.1-0.1-0.2-0.1
			c-0.3,0-0.4-0.2-0.5-0.4c-0.1-0.3-0.2-0.5-0.4-0.8c-0.3-0.5-0.4-1.1-0.3-1.7s0.2-1.1,0.6-1.6c0.5-0.6,1-1.2,1.2-2
			c0.3-0.3,0.4-0.7,0.7-1.1c0.3-0.3,0.6-0.5,1.1-0.4l0,0c-0.2,0.2-0.3,0.5-0.4,0.7c-0.4,0.8-0.7,1.6-1.2,2.3
			c-0.3,0.5-0.5,1.1-0.8,1.6c-0.1,0.2-0.1,0.4,0,0.6c0.2,0.2,0.2,0.6,0.3,0.9c0.1,0.5,0.2,0.9,0.6,1.2c0.4,0.3,0.7,0.3,1-0.1
			s0.6-0.7,0.9-1s0.5-0.5,0.6-0.9c0.5-1.1,1-2.1,1.2-3.3c0.3-1.4,0.2-2.7-0.4-4c0-0.1-0.1-0.2-0.2-0.2s-0.1,0.1-0.2,0.1
			c-0.1,0.2-0.2,0.4-0.3,0.6c-0.1-0.3-0.2-1.3-0.2-1.4c0-0.2,0.2-0.4,0.3-0.5c0.1-0.3,0.2-0.5,0-0.8c0-0.1,0-0.2-0.1-0.3
			c-0.4-0.9-0.7-1.9-0.9-2.9c-0.3-1-0.3-2.1,0-3.1c0.1-0.4,0.2-0.7,0.3-1.1c0.2-0.9,0.7-1.7,1.5-2.2c0.1-0.1,0.2-0.2,0.4-0.2
			c0.7-0.2,1.4-0.3,2-0.2c0.5,0.1,1,0.1,1.4,0.2c0.5,0.1,0.9,0.3,1.2,0.7c0,0.1,0.2,0.2,0.3,0.3C392.5,98.5,392.6,98.9,392.4,99.4z
			 M383.3,119.7h-0.1c-0.1,0-0.1,0.1-0.2,0.1c0.1,0,0.1,0,0.2,0C383.2,119.8,383.3,119.8,383.3,119.7z"/>
		<path class="st3" d="M396.2,108.5C396.2,108.5,396.2,108.6,396.2,108.5c0.3,0.6,0.2,1.2,0.8,1.6c0.5,0.3,0.8,0.9,1.2,1.3
			c0.6,0.7,1.3,1.3,1.9,2.1s1.1,1.7,1.6,2.6c0.2,0.4,0.4,0.8,0.6,1.2c0.3,0.6,0.7,1.2,1.2,1.6c0.4,0.3,0.3,0.7,0,1
			c-0.3,0.2-0.7,0.3-1,0.4c-0.1,0-0.2,0-0.3-0.1c-0.7-0.3-1.3-0.6-1.8-1.2l-1.1-1.6c-0.4-0.6-0.8-1.3-1.3-1.9
			c-0.7-0.9-1.4-1.7-2.1-2.5c-0.3-0.3-0.4-0.8-0.9-0.9c-0.1,0-0.1,0.1-0.1,0.2c0,0.4-0.1,0.7-0.2,1c-0.2,0.5-0.3,1.1-0.5,1.6
			c-0.1,0.4-0.4,0.9-0.4,1.4c0,0.1,0,0.1,0,0.2c0,0.5-0.1,0.9-0.5,0.9l-0.1,0.1c0,0-0.1,0-0.1-0.1s-0.6-0.2-0.6-0.2
			c-0.1-1.2,0-2.4,0-3.6s0.2-2.4,0.1-3.7c0-1,0.1-1.9,0.3-2.9c0.2-2.2,0.7-4.3,1.1-6.5c0.1-0.8,0.3-1.5,0.2-2.3c0-0.1,0-0.2,0-0.3
			c0.1-0.1,0.2-0.2,0.3-0.1c0.4,0.2,0.8,0.5,1.1,0.9c0.7,1,0.9,2.1,0.7,3.4c-0.1,0.5-0.1,1-0.1,1.4s0,0.8-0.1,1.3
			c0,0.1-0.1,0.4,0.1,0.5s0.3-0.1,0.4-0.2c0.5-0.5,1.1-0.9,1.6-1.4c1.1-1.1,2.2-2.2,3.3-3.3c0.1-0.1,0.2-0.1,0.3-0.2
			c0.2-0.1,0.4-0.1,0.5,0c0,0,0,0,0.1,0c0.3,0.2,0.6,0.4,0.6,0.8c0,0.5-0.1,1-0.5,1.3l-1.3,1.3c-1,1-2.1,2-3.1,3
			c-0.3,0.4-0.6,0.8-0.9,1.1C396.9,107.9,396.5,108.1,396.2,108.5z"/>
		<path class="st3" d="M402.4,114.3c0-0.8,0.1-1.5,0.3-2.3l0.2-1.3c0-0.2,0.1-0.4,0.2-0.6c0.2-0.4,0.4-0.9,0.3-1.4
			c0-0.2,0-0.4,0.1-0.5c0.3-1.4,0.7-2.7,1.1-4.1c0.1-0.4,0.2-0.8,0.3-1.2c0.1-0.5,0.4-1.1,0.6-1.6c0.1-0.2,0.2-0.3,0.4-0.3
			c0.1,0,0.2,0,0.4-0.1c0.5-0.1,1-0.3,1.4,0.1c0.1,0.1,0.3,0.1,0.4,0c0.1,0,0.2-0.1,0.3-0.1c1.6-0.8,3.3-1.3,5-2.1
			c0.6-0.3,1.3-0.4,2-0.6c0.4-0.1,0.7-0.2,1.1-0.3c0.2-0.1,0.4-0.1,0.6-0.1s0.4,0.2,0.3,0.4c-0.2,0.2-0.1,0.6-0.3,0.8
			c-0.1,0.2-0.3,0.4-0.4,0.7c0,0.2-0.3,0.3-0.5,0.4c-0.3,0.1-0.5,0.3-0.7,0.5c-0.3,0.4-0.8,0.6-1.3,0.8c-0.5,0.2-0.9,0.4-1.3,0.6
			c-1.2,0.6-2.4,1.3-3.7,1.8c-0.1,0.1-0.3,0.1-0.4,0.2c-0.6,0-0.7,0.4-0.9,0.9c-0.2,0.8-0.5,1.6-0.7,2.3l-0.4,1.4
			c0,0.1,0.1,0.2,0.2,0.2l1.8-0.5c0.5-0.1,1-0.1,1.5-0.1c0.2,0,0.3,0.1,0.2,0.3c0,0.2-0.1,0.3,0,0.5v0.1c-0.3,0.2-0.4,0.7-0.8,0.9
			c-0.2,0.1-0.5,0.2-0.5,0.6c0,0.1-0.2,0.2-0.3,0.3c-0.5,0.3-1,0.5-1.5,0.6c-0.3,0.1-0.6,0.1-1,0s-0.4-0.1-0.5,0.3
			c-0.3,0.9-0.4,1.9-0.6,2.8c0,0.2,0,0.3,0,0.5c0,0.1,0.2,0.2,0.3,0.1c0.2-0.1,0.4-0.2,0.6-0.4c1.3-1,2.7-1.8,4.2-2.4
			c0.4-0.2,0.8-0.3,1.2-0.4c0.3,0,0.4,0.1,0.5,0.4c0.1,0.4-0.1,0.7-0.1,1.1c0,0.3-0.3,0.5-0.5,0.7c-0.3,0.2-0.6,0.5-0.7,0.8
			c0,0.1-0.1,0.1-0.2,0.2c-1.1,0.7-2.2,1.5-3.3,2.2c-0.5,0.3-1,0.5-1.5,0.6c-0.1,0-0.3,0-0.4,0c-0.7,0-1.3-0.4-1.8-0.9
			c-0.6-0.7-1-1.5-1-2.5v-0.3H402.4z"/>
		<path class="st3" d="M431.4,99.2c-0.5,0.2-1,0.4-1.5,0.6c-0.3,0.1-0.6,0.3-0.8,0.5c-0.5,0.6-1.1,0.9-1.8,1.2
			c-0.2,0.1-0.4,0.1-0.6,0.2c-1,0.7-2.2,1.1-3.2,1.6l-1.7,0.8c-0.4,0.1-0.6,0.4-0.6,0.8c0,1.5-0.2,3-0.6,4.4c0,0.2-0.1,0.3-0.1,0.5
			c-0.1,1.1-0.4,2.1-0.7,3.1c-0.3,1.1-0.6,2.3-0.9,3.5c-0.1,0.5-0.3,0.9-0.5,1.3c-0.3,0.5-0.5,1.1-0.8,1.6c-0.1,0.2-0.3,0.3-0.4,0.4
			c-0.3,0.2-0.7,0.1-0.8-0.3c-0.1-0.2-0.1-0.4-0.1-0.6c0-0.6,0-1.1,0.1-1.7c0.2-0.8,0.2-1.7,0.4-2.5c0.2-1.2,0.5-2.3,0.8-3.4
			c0.4-1.4,0.8-2.8,1.2-4.2c0.1-0.4,0.3-0.8,0.2-1.3c-0.3,0-0.5,0.1-0.6,0.2c-0.6,0.4-1.1,0.8-1.7,1.1c-0.9,0.5-1.8,0.8-2.8,0.9
			c-0.7,0.1-1.2-0.2-1.8-0.5H412c0-0.5-0.4-0.7-0.6-1.1c0-0.1,0-0.2,0.1-0.3c1.1-0.2,2-0.9,3-1.5l1.2-0.6c2.5-1.3,5.2-2.4,7.9-3.5
			c1.9-0.7,3.9-1.3,5.9-1.9c0.8-0.2,1.6-0.4,2.4-0.6c0.1,0,0.3,0,0.4,0l0.1,0.1v0.1c0,0.1-0.1,0.1-0.2,0.2c-0.4,0.2-0.7,0.3-1.1,0.5
			c-0.2,0.1-0.2,0.1,0,0.3C431.3,99.1,431.3,99.2,431.4,99.2z"/>
		<path class="st3" d="M432,112.8c0,0.2,0.1,0.4,0.1,0.6s0,0.5,0,0.7c-0.1,0.3-0.3,0.6-0.4,0.9s0,0.6-0.2,0.8
			c-0.1,0.1-0.1,0.1-0.1,0.2c-0.1,0.7-0.5,1.3-0.9,1.9c-0.1,0.2-0.1,0.3-0.2,0.5c0,0.1-0.1,0.3-0.2,0.4s-0.2,0.2-0.4,0.3
			c-0.6,0.2-1,0.8-1.8,0.7c-0.1,0-0.3-0.1-0.4-0.2c0-0.1-0.1-0.2-0.2-0.2c-0.7,0.1-1-0.6-1.6-0.9l-0.1-0.1c-0.7-1.2-1.2-2.4-1.1-3.9
			c0.1-1.1,0.1-2.3,0.2-3.4c0.1-0.9,0.2-1.8,0.3-2.7c0-0.3,0.1-0.6,0.1-0.9c0-0.6,0.2-1.3,0.4-1.9c0.3-1.6,0.7-3.2,1.3-4.8
			c0.5-1.3,1.1-2.6,2.1-3.6c0.1-0.1,0.2-0.3,0.3-0.4c0.1-0.2,0.3-0.4,0.5-0.4c0.7-0.1,1.5-0.5,2.3-0.3c0.9,0.2,1.6,0.9,1.7,1.9
			c0,0.9,0.1,1.8-0.1,2.7c0,0.1,0,0.3,0,0.4c0,0.9-0.1,1.8-0.1,2.7c0,0.9-0.2,1.7-0.2,2.5c0,0.6-0.5,0.8-0.8,1.1h-0.2
			c-0.5-0.1-0.9-0.3-1.1-0.8c-0.1-0.4-0.3-0.8,0-1.2c0.1-0.1,0.1-0.3,0.1-0.5c0-0.9,0.1-1.8,0.2-2.6c0-0.7,0.1-1.5,0.1-2.2
			c0-0.5,0-1-0.1-1.4c0-0.1-0.1-0.2-0.1-0.2c-0.1,0-0.2,0-0.2,0c-0.3,0.3-0.5,0.6-0.7,1c-0.5,1.2-1,2.4-1.3,3.6
			c-0.1,0.3-0.1,0.7-0.2,1c-0.2,0.8-0.5,1.7-0.7,2.5c-0.4,1.4-0.7,2.8-0.8,4.2c-0.1,0.8-0.3,1.6-0.3,2.4c0,1.1-0.3,2.1,0,3.2
			c0.1,0.4,0.2,0.8,0.4,1.2c0.1,0.3,0.3,0.3,0.6,0.1c0.3-0.2,0.6-0.4,0.8-0.7c0.9-1.1,1.8-2.2,2.6-3.5c0.1-0.2,0.2-0.3,0.4-0.5
			C431.9,113.1,431.8,112.9,432,112.8z"/>
		<path class="st3" d="M447.6,107c-0.5,0.3-0.6,0.9-1,1.2c-0.1,0.1-0.1,0.3-0.1,0.5c-0.2,0.9-0.3,1.9-0.5,2.8
			c-0.1,0.5-0.3,1-0.4,1.5c-0.1,0.3-0.2,0.7-0.4,1c-0.3,0.6-0.5,1.2-0.6,1.9c-0.2,0.7-0.6,1.2-0.9,1.8c-0.1,0.2-0.2,0.3-0.1,0.6
			c0,0.3-0.2,0.3-0.4,0.3c0-0.1,0-0.2-0.1-0.2c-0.5-0.1-0.6-0.5-0.6-0.9c0-0.6,0-1.1,0.1-1.7c0.3-1.8,0.6-3.6,0.9-5.4v-0.1
			c0.1-0.7,0-0.7-0.7-0.5L442,110c-0.8,0.2-1.6,0.4-2.4,0.5c-0.4,0.1-0.5,0.3-0.6,0.6c-0.1,0.4-0.2,0.8-0.2,1.2
			c-0.2,1.1-0.3,2.1-0.7,3.2c-0.1,0.3-0.2,0.6-0.2,1s-0.2,0.7-0.4,1.1c0,0.2-0.3,0.2-0.4,0.1c-0.4-0.2-0.7-0.6-0.9-1
			c-0.4-1-0.5-2.1-0.5-3.1c0-0.5,0-1,0-1.5c0-0.2-0.1-0.3-0.3-0.2c-0.3,0-0.6,0.1-0.8,0.2c-0.5,0.2-0.9,0.1-1.4,0.1
			c-0.6,0-1-0.3-1.3-0.8c-0.1-0.3-0.3-0.5-0.5-0.8c-0.1-0.2-0.1-0.4,0.1-0.6c0.1,0,0.2-0.1,0.3-0.1c1.2-0.4,2.3-0.8,3.5-1.2
			c0.1,0,0.2,0,0.3-0.1c0.4-0.1,0.7-0.4,0.7-0.9c0.3-1.9,0.6-3.7,0.9-5.6c0.1-1,0.2-2,0.4-3c0-0.5,0-0.9-0.1-1.4
			c-0.1-0.6,0-0.6,0.6-0.9s1.1-0.1,1.6,0.3s0.8,0.9,0.9,1.6c0.1,0.8,0.1,1.6,0,2.5c-0.3,1.9-0.5,3.8-0.9,5.7c0,0.1,0,0.2,0,0.3
			c0,0.2,0.1,0.3,0.3,0.3c0.5,0,1,0,1.4-0.1c0.5-0.1,1-0.1,1.5-0.1c0.2,0,0.4,0,0.6-0.1c0.3,0,0.4-0.2,0.4-0.5
			c0.1-0.8,0.2-1.5,0.3-2.3c0.1-1,0.3-2,0.4-3c0.1-0.5,0.1-0.9,0-1.3c-0.2-0.5,0.3-0.9,0.8-0.8c1.7,0.3,2.4,1.6,2.2,2.9
			c-0.2,1-0.3,2-0.5,3l-0.2,1.3c0,0.1,0.1,0.2,0.2,0.2c0.2,0,0.3,0,0.5,0.1C447.7,106.8,447.7,106.9,447.6,107z M443.1,118.5
			L443.1,118.5L443.1,118.5L443.1,118.5z"/>
	</g>
	<path class="st1" d="M760.3,175.6c0.5,0-0.7,0.3-1,0.3C758.8,175.9,760,175.6,760.3,175.6z"/>
	<path class="st1" d="M813.6,126.5c0.2-0.5-0.1,0.8-0.2,1C813.2,128,813.5,126.8,813.6,126.5z"/>
	<path class="st1" d="M756,175.1c0.5,0-0.7,0.2-1,0.2C754.5,175.3,755.7,175.1,756,175.1z"/>
	<path class="st1" d="M808.9,84.8c-0.1-0.5,0.4,0.6,0.4,0.9C809.4,86.2,809,85,808.9,84.8z"/>
	<path class="st1" d="M688.5,133.8c0.1,0.5-0.4-0.6-0.5-0.8C687.8,132.5,688.5,133.5,688.5,133.8z"/>
	<path class="st1" d="M688.8,133.7c0.2,0.5-0.4-0.6-0.5-0.8C688.1,132.4,688.7,133.4,688.8,133.7z"/>
	<path class="st1" d="M702,152.3c-0.3-0.2-0.5-0.4-0.7-0.7C701.6,151.8,701.8,152,702,152.3z"/>
	<path class="st1" d="M698.7,148.8c-0.1,0.1-0.8-0.8-1.3-1.4C697.9,147.9,698.3,148.3,698.7,148.8z"/>
	<path class="st1" d="M686.3,127.5l-0.6-1.8l0.2-0.1l0.6,1.8L686.3,127.5z"/>
	<path class="st1" d="M688.7,132.7c0.1,0.5-0.4-0.6-0.5-0.8C688.1,131.4,688.6,132.4,688.7,132.7z"/>
	<path class="st1" d="M774.3,156.3c-0.2,0.2-0.4,0.4-0.7,0.4C773.8,156.5,774,156.3,774.3,156.3z"/>
	<g>
		<path class="st1" d="M706,158.1c0.1,0.2,0.8,0.6,0.9,0.6c-0.2-0.2-0.4-0.3-0.6-0.5C706,158,705.8,157.9,706,158.1z"/>
		<path class="st1" d="M815.2,109c-0.2-1.6-0.2-0.6-0.3,0.6c-0.1,1.3-0.3,2.8-0.5,2.4c0.5-5.3,0.5-10.5,0-15.8s-1.7-10.5-3.5-15.5
			c-0.3,0.1,0.3,2.2,0.4,3.1c-2-4.3-4.4-8.4-7.1-12.3l-1.3-2.4l-1.3-2.2c-1-1.7-2.3-3.2-3.6-4.8c0.5,0.5,1,1,1.4,1.5
			c0.9,1,1.8,2,2.4,2.6c0.6,0.6,1.2,1.1,1.4,1.1c0-0.8-3.4-4.9-3.3-5.3c-1-1.1-2-2.1-3-3.1c-0.5-0.5-1-1-1.5-1.5l-1.5-1.5
			c-1-1-2.1-1.9-3.2-3c-1.1-1.1-2.3-2-3.6-2.9c-1.1-0.1-6-3.1-6.8-2.6c-1-0.6-2-1-3.1-1.3c-1.2-0.3-2.4-0.8-3.5-1.3l1.6,0.2
			c0.5,0.1,0.9,0.2,1.3,0.2c0.5,0.1,1,0.1,1.5-0.1c-4-2.2-6.6-3.5-8.2-4.6c-1.2-0.4-2.3-0.8-3.2-1.1l-2.7-0.9
			c-2-0.7-4.1-1.2-6.2-1.5c-1.1,0-2.2,0.1-3.2,0.3c-1-0.1-2.1-0.1-3.1-0.1c-0.7,0-1.4,0.1-2.2,0.2c-1.3,0.2-2.3,0.4-4.1,0.6
			c-4.3,0.4-5.6,1-11.1,2c-3,1.1-6.1,2.2-11.3,4.4c-2.5,0.8-5,1.9-7.3,3.2c1.1-0.1-2.8,1.8-3.2,2.4c0.7-0.1,1.4-0.3,2.1-0.7
			c1-0.4,2.2-1,3.5-1.5c2.1-1,4.3-1.7,6.6-2.1c-0.1,0.1-0.3,0.1-0.4,0.2c-8.6,3.2-16.6,8.3-23.5,15.2C689.3,72.5,683.2,87,682,101.8
			c-0.2,0.6-0.3,1.2-0.4,1.8c-0.2,3.8-0.2,7.5,0,11.3c0.1,3.5,0.7,7,1.5,10.4c0,0.9,0.2,1.7,0.5,2.6c0.3,0.8,0.4,1.6,0.5,2.4
			c1,2.8,2.7,6.1,3.2,7.4c0.4-0.2,2.1,2.9,3.1,4c-0.6-0.8-1-1.7-1.3-2.7c1,2.1,2.1,4.2,3.5,6.1c2.1,2.3,1.5,0.9,3.2,2.6
			c1.5,2.2,4.8,5.3,7.6,7.5l0.1,0.1c0.4,0.5,1,1,1.5,1.5c0.4,0.4,0.8,0.8,1.2,1.2c0.2,0.1,0.4,0.3,0.5,0.4s0.1,0.1,0.1,0.1
			c0.1,0.1,0.1,0.1,0.2,0.2c1.2,1.1,2.6,2.1,4,3c-0.7-0.6-1.4-1.2-2-1.9c-0.1-0.1-0.1-0.1-0.2-0.2c1.5,1.1,3.1,2.1,4.7,3.1
			c-0.2,0-0.6,0-0.9,0c2.4,1.7,5.1,3.1,7.8,4.2c-0.3,0.1,0.9,0.7,0.7,0.8c2.8,1.3,5.6,2.3,8.5,3.2c3.5,1,7,1.7,10.7,2
			c3.3,0.6,6.7,0.8,10,0.6c1.6,0.3,5.1,0.1,6.1,0.4c-1.7,0.1-1.6,0.8,0.1,0.5c0.4-0.2,0.8-0.3,1.2-0.4c0.5-0.1,1.1-0.3,1.8-0.5
			c2.1-0.2,2.1,0.1,1.9,0.5c-0.2,0.4-0.7,0.8,0.4,0.8c3.6-1.2-0.3-0.7,2.8-1.9c2.2,0.3,3.1,0.9,1.7,2.1c0.1,0.2,2.6-0.6,2.2-0.2
			c-0.4,0.4-1.3,0.9-0.8,1.2c-2.4,1-4.8,1.8-7.3,2.4c2-0.4,2.4-0.3,4.3-0.8c0.2,0.3,1.8-0.1,3.5-0.4s3.2-0.8,3.2-0.5
			c1.3-0.4,2.8-1,4.3-1.5s3-1.3,4.4-2s2.7-1.4,3.8-2.1s2-1.2,2.5-1.6c-4,2,1-1.2-0.2-0.8c-1.2,0.3-1.2,0.2-0.5-0.7
			c-2.3,1.3-0.4-0.6-0.4-0.6c0-0.2-2.1,0.5,1.5-1.7c1.2-0.4,0.7,0.2,0.1,0.9s-1.2,1.2-0.2,0.9c1-0.5,1.9-1.1,2.8-1.7
			c-0.2,0.5-1.8,1.6-1.5,1.8c1.6-1.1,2.8-1.9,3.6-2.5c0.1-0.5,1.3-1.5,2.4-2.7s2.1-2.2,1.9-2.5c1-1,1.8-1.9,2.4-2.7s1.2-1.6,1.7-2.3
			l3.6-5.3c0.7-1.8,1.4-3.6,2.3-5.4c0.5-1.1,1.1-2.3,1.6-3.5l0.8-1.9l0.7-1.9c-0.2-0.2-0.2-0.6,0-1.4c0.3-1.2,0.8-2.5,1.3-3.7
			c0.9-2.1,1.9-4.9,2.5-6.7c0.4-2.4-0.9,1.8,0.2-2.1c0.5-2.7,0.4,0.9,0.9-1.9c-0.3-0.8,0.2-3.3,0.5-5.9
			C815,113.3,815.2,111.2,815.2,109z M793.6,58.2c1.3,1.1,2.6,2.2,3.8,3.4c-0.1,0.7-2.1-1.4-4.1-3.1
			C793.5,58.2,794.7,59.5,793.6,58.2z M757,41.1c0.4,0.1-0.8,0-1,0C755.5,41,756.7,41.1,757,41.1z M759,41.1c-0.3,0.1-2.5-0.4-4-0.5
			C755.3,40.3,757.7,40.7,759,41.1z M750.3,39.1c2.3-0.1,4.6,0.2,6.8,0.9c0.3,0.5-4.4-0.1-3.1,0.7c-1-0.2-2.4-0.3-3.7-0.5
			s-2.6-0.1-3.3-0.2C746.5,39.6,748.1,39.2,750.3,39.1z M812.6,108.9c-0.2,1.7-0.3-0.5-0.6-0.1c0-0.4,0-0.8,0-1.2
			c0.1-3.1-0.1-6.6-0.1-8.5c-0.2-1.6-0.4-1.9-0.6-1.9c-1.5-9.7-5.1-19.1-11-27.5c-0.2-0.4-0.5-0.7-0.7-1.2c-0.2-0.2-0.3-0.4-0.5-0.5
			c-1.9-2.6-4.1-5.1-6.4-7.4c-0.4-0.4-0.9-0.8-1.3-1.2c-0.3-0.3-0.6-0.6-0.9-1c0.1-0.4,1.3,0.5,2.5,1.4s2.4,2,2.6,1.8
			c1.9,2.2,3.6,4.4,5.2,6.8l1,1.6l0.8,1.5c0.5,0.8,0.8,1.6,1.1,2.4c0.6,1.2,1.3,2.4,2.1,3.5c0.3,0.4,0.5,0.7,0.7,1.1
			c0.2,0.5,0.4,0.9,0.5,1.4c0.8,1.5,1.4,2.7,1.9,3.5c0.8,0.9-0.9-3.4,0.3-1.2c0.1-0.4,0.5,0.5,0.8,1.4s1,2.1,1.1,1.5
			c0.3,1.2,0.6,2.3,0.8,3.5l0.9,4.3c0.1,3.4-0.1,6.1-0.2,11.1C812.8,105.6,812.8,107.3,812.6,108.9z"/>
	</g>
	<g class="st2">
		<path class="st3" d="M717.6,97.5c0.5,0,0.9,0,1.4,0c0.2,0,0.4,0,0.6,0.1c0.8,0.2,1.1,0.7,1.1,1.5s0,1.5,0,2.3c0,0.1,0,0.3,0.1,0.4
			c0.2,0,0.4-0.2,0.6-0.3c0.2-0.1,0.4-0.2,0.6-0.4c0.3-0.2,0.6-0.3,0.9-0.4c0.7-0.3,1.4-0.1,2.1,0c0.3,0,0.5,0.2,0.6,0.5
			c0.4,0.9,0.6,1.9,0.4,2.9c-0.1,0.9-0.3,1.8-0.6,2.6c-0.1,0.4-0.3,0.7-0.6,1c-0.4,0.5-0.8,1-1.2,1.4c-0.3,0.3-0.3,0.6-0.2,0.9
			c0.5,1.1,0.6,2.3,1,3.4c0.2,0.8,0.5,1.6,0.8,2.4c0.4,1.2,0.9,2.4,1.4,3.6c0.1,0.4,0.3,0.7,0.3,1.1c0,0.1,0,0.2,0.1,0.4
			c0.7,1.4,1.4,2.8,2.7,3.8c0.2,0.2,0.5,0.4,0.8,0.6c0.4,0.2,0.6,0.5,0.9,0.7c0.3,0.2,0.3,0.6,0.3,0.8c0.1,0.3-0.3,0.5-0.6,0.4
			c-0.1,0-0.3-0.1-0.4-0.2c-0.9-0.8-2-1.3-2.9-2.1c-1.1-0.9-2.1-1.8-2.8-3c-0.5-0.8-1.1-1.7-1.5-2.6c-0.7-1.4-1.3-2.9-1.8-4.3
			c-0.5-1.3-0.9-2.6-1.2-4c-0.1-0.3-0.2-0.6-0.3-0.9c-0.1-0.2-0.1-0.6-0.4-0.5c-0.2,0-0.2,0.4-0.2,0.6l-0.4,3.5c0,0.1,0,0.3,0,0.5
			c-0.4,0.8-0.3,1.7-0.4,2.6c0,0.6-0.2,1.2-0.4,1.8c-0.1,0.3-0.1,0.7-0.6,0.5c0,0-0.1,0-0.2,0.1c-0.4,0.3-0.6,0.1-1-0.1
			c-0.2-0.1-0.2-0.3-0.2-0.5c0-0.5,0-1,0-1.5c-0.1-1.7,0-3.4,0.1-5.1c0.1-1.8,0.3-3.5,0.5-5.3s0.4-3.5,0.6-5.3
			c0.1-0.6,0.2-1.1,0.2-1.7c0.1-0.6,0.2-1.2,0-1.8C717.5,97.7,717.6,97.6,717.6,97.5z M719.9,108.4c0.5-0.2,1-0.2,1.4-0.2
			c0.2,0,0.3,0,0.4,0.2c0.1,0.3,0.2,0.3,0.5,0.2c0.4-0.2,0.6-0.4,0.7-0.8c0-0.2,0.1-0.4,0.2-0.6c0.7-1.5,0.9-3,0.9-4.7
			c0-0.1,0-0.2,0-0.3c0-0.1-0.2-0.2-0.4-0.1c-0.5,0.5-1.2,0.8-1.6,1.4c-0.6,1-1.2,2-1.7,3.1c-0.1,0.3-0.2,0.6-0.3,0.8
			C719.8,107.7,719.8,108,719.9,108.4z"/>
	</g>
	<g class="st2">
		<path class="st3" d="M725.9,115c0-0.8,0.1-1.5,0.3-2.3l0.2-1.3c0-0.2,0.1-0.4,0.2-0.6c0.2-0.4,0.4-0.9,0.3-1.4
			c0-0.2,0-0.4,0.1-0.5c0.3-1.4,0.7-2.7,1.1-4.1c0.1-0.4,0.2-0.8,0.3-1.2c0.1-0.5,0.4-1.1,0.6-1.6c0.1-0.2,0.2-0.3,0.4-0.3
			c0.1,0,0.2,0,0.4-0.1c0.5-0.1,1-0.3,1.4,0.1c0.1,0.1,0.3,0.1,0.4,0c0.1,0,0.2-0.1,0.3-0.1c1.6-0.8,3.3-1.3,5-2.1
			c0.6-0.3,1.3-0.4,2-0.6c0.4-0.1,0.7-0.2,1.1-0.3c0.2-0.1,0.4-0.1,0.6-0.1c0.2,0,0.4,0.2,0.3,0.4c-0.2,0.2-0.1,0.6-0.3,0.8
			c-0.1,0.2-0.3,0.4-0.4,0.7c0,0.2-0.3,0.3-0.5,0.4c-0.3,0.1-0.5,0.3-0.7,0.5c-0.3,0.4-0.8,0.6-1.3,0.8c-0.5,0.2-0.9,0.4-1.3,0.6
			c-1.2,0.6-2.4,1.3-3.7,1.8c-0.1,0.1-0.3,0.1-0.4,0.2c-0.6,0-0.7,0.4-0.9,0.9c-0.2,0.8-0.5,1.6-0.7,2.3l-0.4,1.4
			c0,0.1,0.1,0.2,0.2,0.2l1.8-0.5c0.5-0.1,1-0.1,1.5-0.1c0.2,0,0.3,0.1,0.2,0.3c0,0.2-0.1,0.3,0,0.5v0.1c-0.3,0.2-0.4,0.7-0.8,0.9
			c-0.2,0.1-0.5,0.2-0.5,0.6c0,0.1-0.2,0.2-0.3,0.3c-0.5,0.3-1,0.5-1.5,0.6c-0.3,0.1-0.6,0.1-1,0s-0.4-0.1-0.5,0.3
			c-0.3,0.9-0.4,1.9-0.6,2.8c0,0.2,0,0.3,0,0.5c0,0.1,0.2,0.2,0.3,0.1c0.2-0.1,0.4-0.2,0.6-0.4c1.3-1,2.7-1.8,4.2-2.4
			c0.4-0.2,0.8-0.3,1.2-0.4c0.3,0,0.4,0.1,0.5,0.4c0.1,0.4-0.1,0.7-0.1,1.1c0,0.3-0.3,0.5-0.5,0.7c-0.3,0.2-0.6,0.5-0.7,0.8
			c0,0.1-0.1,0.1-0.2,0.2c-1.1,0.7-2.2,1.5-3.3,2.2c-0.5,0.3-1,0.5-1.5,0.6c-0.1,0-0.3,0-0.4,0c-0.7,0-1.3-0.4-1.8-0.9
			c-0.6-0.7-1-1.5-1-2.5V115H725.9z"/>
	</g>
	<g class="st2">
		<path class="st3" d="M746.7,106.8v0.5c0,0.1,0,0.2-0.1,0.3c-0.2,0.1-0.3,0.4-0.4,0.6c-0.5,0.7-0.9,1.4-1.4,2s-1.2,1.1-2.1,1.3
			c-0.1,0-0.2,0-0.3,0c-0.4-0.1-0.8-0.1-1.2-0.2c-0.5-0.1-0.6,0-0.7,0.4c-0.2,0.8-0.2,1.7-0.5,2.4c0,0.1-0.1,0.3-0.1,0.4
			c0,0.6-0.2,1.1-0.3,1.6c-0.2,0.6-0.3,1.2-0.4,1.8c-0.1,0.6-0.3,0.9-0.8,1c-0.6,0.1-0.9-0.1-1.1-0.7c-0.1-0.6-0.3-1.2-0.3-1.8
			c-0.1-1.3-0.2-2.7,0.2-4c0.3-1.2,0.5-2.4,0.7-3.6c0.1-0.7,0.3-1.3,0.5-2c0.3-1.2,0.4-2.5,0.7-3.8c0.1-0.5,0.2-1.1,0.4-1.6
			c0.2-0.6,0.5-0.7,1.1-0.6c0.7,0.1,0.9,0.4,1,1.1c0,0.3,0,0.5,0.1,0.8c0,0.1,0.2,0.2,0.3,0.1c0.2-0.1,0.4-0.3,0.6-0.5
			c2-1.8,4.2-3.2,6.5-4.6c0.9-0.6,1.9-0.9,2.9-1.3c0.3-0.1,0.7-0.2,1.1-0.3c0,0,0.2,0,0.2,0.1c0.1,0.4,0.4,0.9,0.1,1.3
			c-0.3,0.5-0.6,1-1.2,1.3c-0.6,0.3-1.2,0.7-1.8,1.1c-0.3,0.2-0.6,0.4-0.9,0.6l-3.6,2.8c-0.1,0.1-0.3,0.2-0.4,0.3
			c-0.7,0.7-1.5,1.2-2.2,1.9c-0.3,0.3-0.7,0.6-1.1,0.8c-0.2,0-0.2,0.2-0.3,0.4c-0.2,0.6-0.2,1.1-0.3,1.7c0,0.1,0.1,0.2,0.2,0.2
			c0.2,0,0.3-0.1,0.5-0.2c0.7-0.3,1.5-0.6,2.2-1C745.2,107.1,745.9,106.9,746.7,106.8C746.4,106.7,746.5,106.7,746.7,106.8z"/>
		<path class="st3" d="M749.2,122.2c-0.5-0.6-0.7-1.3-0.8-2.1c0-0.1,0-0.2,0-0.4c0.2-1.4,0-2.9,0.1-4.3c0-1.3,0-2.7,0-4
			c0.1-2.1,0.1-4.2,0.4-6.2c0.1-1.1,0.3-2.2,0.4-3.3c0-0.3,0-0.6,0-0.8c0-0.7,0-1.3,0-2c0-0.3,0.1-0.4,0.2-0.6
			c0.1,0,0.1-0.1,0.2-0.1c0.7-0.2,1.4-0.4,2.1-0.1c0.6,0.3,1.1,0.9,1.1,1.9c0.1,1.3,0,2.5-0.2,3.8c-0.2,1.2-0.4,2.5-0.6,3.7
			c-0.2,1.4-0.4,2.9-0.6,4.3c-0.1,0.5-0.1,1.1-0.2,1.6c-0.1,1.1-0.2,2.2-0.4,3.3c-0.1,0.5,0,1-0.2,1.5c0,0.2,0,0.5-0.1,0.5
			c-0.2,0.2-0.2,0.6-0.5,0.8c-0.2,0.1-0.3,0.4-0.3,0.6C749.8,121.1,749.5,121.6,749.2,122.2z"/>
		<path class="st3" d="M768.3,101.2c-0.3,0.1-0.4,0.4-0.4,0.7c0,0.4-0.2,0.7-0.4,1.1c-0.5,0.8-0.9,1.7-1.4,2.6s-0.8,1.8-1.2,2.7
			c0,0.1-0.1,0.2-0.1,0.3c0,0.6-0.3,1.1-0.4,1.7c-0.2,0.6-0.6,1.2-0.7,1.9c-0.3,1.1-0.7,2.1-0.9,3.3c0,0.2-0.1,0.4-0.1,0.6
			c-0.1,0.3-0.1,0.6,0.1,0.9c0.1,0.1,0.1,0.2,0.1,0.3c0,0.2,0,0.5-0.2,0.6c-0.2,0.2-0.5,0.3-0.8,0.4s-0.6,0.1-0.9-0.1
			c-0.2-0.1-0.5-0.2-0.7-0.3c-0.4-0.1-0.7-0.4-0.9-0.9c-0.4-0.9-0.6-1.8-0.7-2.7c-0.2-1.3-0.4-2.6-0.7-4c-0.1-0.4-0.2-0.7-0.3-1.1
			l-0.1-0.1c0,0-0.1,0-0.1,0.1c-0.2,1-0.4,1.9-0.5,2.9c-0.1,0.9-0.3,1.8-0.6,2.7c-0.1,0.3-0.1,0.6-0.2,0.9c0,0.1,0,0.2-0.1,0.3
			c-0.5,0.6-0.7,1.4-1,2.1c-0.2,0.4-0.3,0.9-0.4,1.3c-0.1,0.1-0.2,0.2-0.3,0.3c-0.1,0-0.2,0-0.2,0c-0.2-0.3-0.5-0.5-0.6-0.8
			c-0.1-0.6-0.3-1.2-0.3-1.9c0-1.6-0.1-3.3,0.2-4.9c0.2-1.6,0.4-3.2,0.5-4.8l0.2-1c0.1-0.5,0.1-1.1,0.2-1.6c0-0.8,0.2-1.6,0.4-2.4
			c0.1-0.5,0.4-0.7,0.8-0.7c0.5,0,1-0.1,1.4,0c0.4,0.2,0.8,0.4,1,0.8c0.1,0.3,0.3,0.6,0.6,0.8c0.4,0.3,0.6,0.8,0.8,1.3
			c0.6,1.3,1.1,2.7,1.6,4.1c0.2,0.6,0.4,1.2,0.4,1.9c0,0.3,0,0.6,0.3,0.9c0.4-0.8,1.1-1.5,1.6-2.3c0.1-0.1,0.2-0.3,0.2-0.5
			c0.7-2,1.9-3.7,2.8-5.6c0-0.1,0.1-0.2,0.1-0.2c0.5-0.5,0.9-1.1,1.2-1.7C767.8,101.1,768.1,101.1,768.3,101.2z"/>
		<path class="st3" d="M765.1,115c0-0.8,0.1-1.5,0.3-2.3l0.2-1.3c0-0.2,0.1-0.4,0.2-0.6c0.2-0.4,0.4-0.9,0.3-1.4
			c0-0.2,0-0.4,0.1-0.5c0.3-1.4,0.7-2.7,1.1-4.1c0.1-0.4,0.2-0.8,0.3-1.2c0.1-0.5,0.4-1.1,0.6-1.6c0.1-0.2,0.2-0.3,0.4-0.3
			c0.1,0,0.2,0,0.4-0.1c0.5-0.1,1-0.3,1.4,0.1c0.1,0.1,0.3,0.1,0.4,0c0.1,0,0.2-0.1,0.3-0.1c1.6-0.8,3.3-1.3,5-2.1
			c0.6-0.3,1.3-0.4,2-0.6c0.4-0.1,0.7-0.2,1.1-0.3c0.2-0.1,0.4-0.1,0.6-0.1c0.2,0,0.4,0.2,0.3,0.4c-0.2,0.2-0.1,0.6-0.3,0.8
			c-0.1,0.2-0.3,0.4-0.4,0.7c0,0.2-0.3,0.3-0.5,0.4c-0.3,0.1-0.5,0.3-0.7,0.5c-0.3,0.4-0.8,0.6-1.3,0.8c-0.5,0.2-0.9,0.4-1.3,0.6
			c-1.2,0.6-2.4,1.3-3.7,1.8c-0.1,0.1-0.3,0.1-0.4,0.2c-0.6,0-0.7,0.4-0.9,0.9c-0.2,0.8-0.5,1.6-0.7,2.3l-0.4,1.4
			c0,0.1,0.1,0.2,0.2,0.2l1.8-0.5c0.5-0.1,1-0.1,1.5-0.1c0.2,0,0.3,0.1,0.2,0.3c0,0.2-0.1,0.3,0,0.5v0.1c-0.3,0.2-0.4,0.7-0.8,0.9
			c-0.2,0.1-0.5,0.2-0.5,0.6c0,0.1-0.2,0.2-0.3,0.3c-0.5,0.3-1,0.5-1.5,0.6c-0.3,0.1-0.6,0.1-1,0s-0.4-0.1-0.5,0.3
			c-0.3,0.9-0.4,1.9-0.6,2.8c0,0.2,0,0.3,0,0.5c0,0.1,0.2,0.2,0.3,0.1c0.2-0.1,0.4-0.2,0.6-0.4c1.3-1,2.7-1.8,4.2-2.4
			c0.4-0.2,0.8-0.3,1.2-0.4c0.3,0,0.4,0.1,0.5,0.4c0.1,0.4-0.1,0.7-0.1,1.1c0,0.3-0.3,0.5-0.5,0.7c-0.3,0.2-0.6,0.5-0.7,0.8
			c0,0.1-0.1,0.1-0.2,0.2c-1.1,0.7-2.2,1.5-3.3,2.2c-0.5,0.3-1,0.5-1.5,0.6c-0.1,0-0.3,0-0.4,0c-0.7,0-1.3-0.4-1.8-0.9
			c-0.6-0.7-1-1.5-1-2.5V115H765.1z"/>
	</g>
	<path class="st1" d="M858.2,66.9c-0.4,0.4,0.3-0.7,0.5-0.9C859,65.6,858.4,66.7,858.2,66.9z"/>
	<path class="st1" d="M854.8,139.4c0.2,0.5-0.5-0.6-0.6-0.9C854,138,854.7,139.1,854.8,139.4z"/>
	<path class="st1" d="M861.6,64.3c-0.4,0.4,0.3-0.7,0.5-0.9C862.5,63,861.8,64.1,861.6,64.3z"/>
	<path class="st1" d="M887.4,165.7c0.4,0.3-0.7-0.2-0.9-0.3C886.1,165.1,887.2,165.5,887.4,165.7z"/>
	<path class="st1" d="M938.6,46.2c-0.4-0.2,0.7,0.1,0.9,0.2C940,46.7,938.8,46.3,938.6,46.2z"/>
	<path class="st1" d="M938.5,46.4c-0.4-0.2,0.7,0.1,0.9,0.2C939.8,46.9,938.8,46.5,938.5,46.4z"/>
	<path class="st1" d="M916,42.5c0.3-0.1,0.7-0.1,1,0C916.7,42.6,916.3,42.6,916,42.5z"/>
	<path class="st1" d="M920.8,42.7c0.6-0.1,1.3-0.1,1.9,0C922.1,42.7,921.4,42.7,920.8,42.7z"/>
	<path class="st1" d="M944.7,49.1l1.7,0.9l-0.1,0.2l-1.7-0.9L944.7,49.1z"/>
	<path class="st1" d="M939.3,47.1c-0.4-0.2,0.7,0.1,0.9,0.2C940.6,47.6,939.5,47.2,939.3,47.1z"/>
	<path class="st1" d="M861.8,90.5c0-0.3,0.1-0.6,0.2-0.8C862.1,90,862,90.3,861.8,90.5z"/>
	<g>
		<path class="st1" d="M907.4,41.8c0.3,0,0.5,0,0.7,0c-0.1,0-0.3,0-0.4,0S907.5,41.8,907.4,41.8z"/>
		<path class="st1" d="M980.8,122.6c-0.4,0.6-0.8,1.2-1,1.9c-0.4,1-0.8,2.3-1.4,3.5c-0.8,2.2-1.8,4.2-3.2,6.1
			c0.2-0.6,0.4-1.2,0.6-1.8c3.4-7.9,5.3-16.7,5.3-25.9c0-7.1-1.2-13.9-3.3-20.3c-0.2-1-0.8-2.7-0.8-3.3c-0.5-0.8-0.9-1.7-1.4-2.6
			c-0.8-1.9-1.8-3.8-2.8-5.6c-1.5-3.1-3.3-6-5.4-8.7c-0.5-1.2-1.2-2.4-1.9-3.5c-2.5-2.8-5.2-5.5-7.9-8.1c-2.6-2.4-5.4-4.5-8.4-6.3
			c-0.7-0.6-1.4-1.1-2.2-1.5c-0.7-0.4-1.4-0.8-2-1.3c-2.6-1.3-6.2-2.4-7.5-3.1c-0.1,0.4-3.5-0.6-5-0.7c1,0.2,2,0.5,2.8,1
			c-2.2-0.9-4.5-1.5-6.9-1.9c-3.1-0.2-1.7,0.3-4.1,0.3c-2.6-0.5-7.2-0.4-10.8,0c-0.6,0-1.4,0-2.2,0s-1.8,0-2.7,0.1
			c-1.7,0.1-3.3,0.3-4.9,0.7c0.9-0.1,1.8-0.1,2.8,0c0.4,0.1,0.8,0.1,1.2,0.1c0.5-0.1,1-0.2,1.6-0.2c0.7-0.1,1.4-0.1,2.1-0.1
			c0.3,0,0.6,0,0.8,0c-1.3,0.1-2.6,0.2-3.8,0.3c-0.1,0-0.2,0-0.3,0h0.1c-2.4,0.3-4.8,0.7-7.1,1.3c-0.1-0.2,0.4-0.5,0.7-0.8
			c-2.9,0.5-5.8,1.3-8.5,2.5c0.1-0.3-1.1,0.2-1.1-0.1c-2.9,1-5.6,2.3-8.3,3.7c-3.2,1.7-6.2,3.7-9,6c-2.8,1.9-5.4,4.1-7.6,6.7
			c-1.4,0.9-3.7,3.5-4.7,4c1.1-1.2,0.6-1.7-0.4-0.3c-0.2,0.4-0.3,0.7-0.6,1.1c-0.2,0.5-0.6,1-1,1.6c-1.4,1.6-1.6,1.4-1.7,1
			c-0.1-0.4-0.1-1.1-0.8-0.2c-1.7,3.3,0.7,0.3-0.7,3.3c-1.8,1.4-2.8,1.6-2.7-0.4c-0.2,0-1.4,2.3-1.4,1.7s0.3-1.6-0.3-1.4
			c1-2.4,2.1-4.6,3.5-6.8c-1.2,1.7-1.5,1.9-2.5,3.6c-0.3-0.1-1.2,1.3-2.1,2.7c-0.9,1.4-1.6,2.8-1.8,2.6c-0.7,1.2-1.3,2.6-2,4.1
			s-1.2,3-1.7,4.5s-1,2.9-1.2,4.1s-0.6,2.2-0.7,2.9c0.6-3.8-0.7,2-0.1,0.9c0.6-1,0.7-1,0.8,0.2c0.7-2.5,0.7,0.2,0.7,0.2
			c0.2,0.1,1.1-1.8,0.1,2.2c-0.5,1.1-0.6,0.3-0.6-0.6s0-1.8-0.5-0.8c-0.3,1-0.6,2.1-0.8,3.2c-0.1-0.5,0.1-2.4-0.2-2.3
			c-0.3,1.9-0.6,3.4-0.8,4.3c0.3,0.4,0.1,2,0.2,3.6c0.1,1.6,0.1,3,0.4,3.1c0,1.4,0.1,2.6,0.2,3.6s0.3,2,0.4,2.9l1.2,6.3
			c0.8,1.8,1.5,3.6,2.1,5.5c0.4,1.1,0.8,2.4,1.4,3.6l0.8,1.9l0.8,1.9c0.2,0,0.5,0.3,1,1c0.6,1.1,1.2,2.3,1.7,3.5
			c0.8,2.2,2.1,4.8,3,6.6c1.3,2-0.7-1.9,1.3,1.6c1.5,2.3-0.9-0.3,0.7,2c0.8,0.4,2.2,2.4,3.8,4.6c1.2,1.8,2.6,3.4,4.1,5
			c1.3,1,0.6,0.3-0.2-0.7s-1.8-2.2-1.3-2.1c3.3,4.1,7,7.8,11,11.2c4.1,3.4,8.6,6.3,13.4,8.5c0.2-0.3-1.8-1.3-2.5-1.9
			c4.5,1.6,9.1,2.9,13.7,3.8l2.6,0.8l2.5,0.6c2.2,0.5,4.5,0.8,6.8,0.9c-0.7-0.6,2.3-0.5,5-0.7c0.1,0.3-1.7,0.3,0,0.5
			c-2.6,0.3-5.3,0.3-7.9,0.2c-1.4-0.1-2.6-0.2-3.6-0.2s-1.6,0-1.8,0.2c0.6,0.5,5.8,1.1,6.1,1.4c1.5,0,2.9,0.1,4.3,0.1
			c0.7,0,1.4,0,2.1,0h2.1c1.4,0,2.9-0.1,4.4-0.1s3-0.2,4.6-0.5c0.9-0.8,6.5-2,6.7-2.9c1.1-0.3,2.2-0.7,3.2-1.3
			c1.1-0.6,2.2-1.1,3.4-1.5c-0.5,0.3-0.9,0.6-1.3,0.9s-0.8,0.5-1,0.8c-0.6,0.5-0.9,0.9-1,1.1c4.4-1.2,7.2-2.2,9.1-2.5
			c1.2-0.6,2.2-1,3.1-1.4l2.5-1.2c1.9-1,3.8-2.1,5.5-3.3c0.8-0.7,1.5-1.6,2.1-2.5c0.8-0.7,1.5-1.4,2.2-2.1c0.5-0.5,1-1.1,1.4-1.6
			c0.8-1,1.4-1.9,2.5-3.3c2.8-3.3,3.3-4.7,6.4-9.2c1.4-2.9,2.8-5.9,5-11.1c1.2-2.4,2.2-4.9,2.9-7.4
			C979.5,127.5,980.9,123.3,980.8,122.6z M908.2,41.4c-0.5,0,0.7-0.2,1-0.2C909.7,41.1,908.5,41.4,908.2,41.4z M955.2,160.2
			c-0.5,0.3,0.4-0.5,0.7-0.7C956.4,159.2,955.4,160.1,955.2,160.2z M947.2,48.9c0.9,0.5,1.9,1,3.2,1.9c0.8,0.6,0.8,0.7,0.6,0.7
			c-2.5-1.6-5.1-3-7.9-4.3c0.4,0.1,0.8,0.2,1.3,0.4L947.2,48.9z M933.5,43.3c1,0.4,2.6,1,3.7,1.6c-2.7-0.9-5.5-1.7-8.3-2.3
			c0.1,0,0.2,0,0.3,0C930.7,42.7,932.1,43,933.5,43.3z M915.7,172.1c-1.6,0.2-3.1,0.2-3.2,0.6c-2.8-0.2-5.7-0.6-8.5-1.2l-1.9-0.4
			l-1.7-0.5c-0.9-0.2-1.7-0.6-2.5-1c-1.3-0.4-2.6-0.8-3.9-1c-0.4-0.1-0.9-0.2-1.3-0.3c-0.5-0.2-0.9-0.4-1.4-0.6
			c-1.7-0.5-2.9-0.9-3.8-1.1c-1.2,0,3,1.8,0.6,1.1c0.3,0.3-0.7,0-1.6-0.4c-0.9-0.4-1.2-0.8-0.8-0.4c-1.1-0.6-2.1-1.2-3.1-1.9
			l-3.8-2.4c-2.5-2.4-4.3-4.4-7.7-8c-1.3-1-2.5-2.2-3.5-3.5c-1.1-1.5,0.8,0.4,0.5-0.5c2.2,2.6,5.3,5.4,6.8,7c1.6,1.2,1.8,1,1.9,0.8
			c0.4,0.3,0.9,0.7,1.4,1l0.1,0.1c0.1,0.1,0.2,0.1,0.4,0.2c6.9,4.9,14.8,8.4,23.4,10.3l0.4,0.1c0.8,0.2,1.6,0.4,2.6,0.6
			c0.4,0.1,0.7,0,0.9,0c3.3,0.5,6.7,0.8,10.1,0.8c0.8,0,1.7,0,2.5-0.1C918.4,171.7,917.1,171.9,915.7,172.1z M956.9,159.1
			c-0.1,0.5-2.1,1.9-3.2,2.5C953.9,161.3,955.7,160.1,956.9,159.1z M961.3,156.8c-1.6,1.8-3.5,3.2-5.5,4.2c-0.6-0.2,3.2-3,1.7-2.7
			c0.9-0.6,2-1.5,3-2.3s1.9-1.6,2.5-2.1C963.6,153.8,962.8,155.2,961.3,156.8z"/>
	</g>
	<g class="st2">
		<path class="st3" d="M872.5,110.8c0,0.3,0.4,0.4,0.1,0.6c0.1,0.5-0.1,0.9,0,1.4c0.1,0.8,0,1.5-0.4,2.3c-0.1,0.2-0.3,0.4-0.3,0.7
			c0,0.2-0.1,0.4-0.3,0.6c-0.2,0.3-0.4,0.6-0.5,1c0,0.1-0.1,0.3-0.2,0.4c-0.5,0.5-0.8,1.2-1.2,1.8c-0.7,1-2.2,1.5-3.4,1.1
			c-0.5-0.2-0.9-0.5-1.2-0.9c-0.7-1-1.1-2.1-1.3-3.2c-0.4-1.7-0.3-3.3-0.2-5c0.1-0.9,0.3-1.8,0.6-2.7c0.7-2.3,1.6-4.6,2.7-6.7
			c0.7-1.6,1.7-3,2.8-4.3c0.2-0.3,0.5-0.5,0.7-0.7c0.7-0.8,2.4-0.7,3.1-0.2c0.2,0.2,0.5,0.3,0.7,0.5c0.7,0.5,1,1.1,1,1.8
			c-0.1,1.6-0.4,3.1-1,4.6c-0.1,0.4-0.3,0.8-0.4,1.2c-0.2,0.7-0.7,1.2-1.2,1.6c-0.1,0.1-0.3,0.2-0.5,0.1s-0.2-0.3-0.1-0.5
			c0.2-0.3,0.1-0.6,0.2-0.9c0-0.8,0.4-1.6,0.7-2.4c0.4-1,0.5-2,0.3-3.1c-0.1-0.3,0-0.7,0-1c0,0,0-0.1-0.1-0.1c0,0-0.1,0-0.2,0
			c-0.5,0.6-1,1.1-1.2,1.8c-0.2,0.7-0.5,1.3-0.8,1.9c-0.9,1.8-1.8,3.6-2.5,5.5c-0.3,0.8-0.6,1.7-0.8,2.5c-0.3,1.1-0.6,2.1-0.8,3.3
			c-0.2,1.3-0.2,2.7,0,4c0,0,0,0.1,0,0.2c0,0.2,0.2,0.3,0.4,0.2c0.3-0.1,0.5-0.3,0.7-0.5c1.6-1.3,2.8-3,3.4-4.9
			C871.8,112,872.2,111.5,872.5,110.8z"/>
		<path class="st3" d="M883.9,107.3c0.2,1-0.1,2-0.2,3.1c-0.1,0.8-0.5,1.6-0.9,2.3c-0.4,0.6-0.8,1.2-1.2,1.8
			c-0.2,0.3-0.5,0.5-0.8,0.7c-0.6,0.6-1.3,1.2-1.9,1.8c-0.7,0.7-1.5,0.9-2.3,1.2c-0.7,0.2-1.4,0-2-0.4c-0.1,0-0.2-0.1-0.2-0.2
			c-0.6-0.7-1.2-1.3-1.4-2.3c-0.3-1-0.4-1.9-0.5-2.9c0-1.4,0.2-2.8,0.6-4.1c0.6-2,1.5-3.9,2.4-5.7c0.4-0.8,0.8-1.5,1.4-2.2
			c0.3-0.3,0.6-0.6,1-0.6c0.2,0,0.3,0,0.5-0.1s0.4-0.1,0.6,0c0.3,0.1,0.5,0.1,0.7,0.1c0.6-0.1,1.3,0.6,1.2,1.3
			c0,0.4,0.1,0.6,0.4,0.7c0.5,0.1,0.9,0.4,1.1,1c0,0.1,0.1,0.2,0.2,0.3c1,1.1,1.2,2.5,1.1,4v0.2H883.9z M878.3,108.7
			c-0.5-0.2-0.8-0.4-1.2-0.8c-0.2-0.2-0.4-0.1-0.5,0.2c-0.2,0.6-0.4,1.2-0.6,1.8c-0.5,1.1-0.6,2.3-0.7,3.6c0,0.5,0.1,0.9,0.1,1.3
			c0,0.3,0.2,0.5,0.4,0.6c0.2,0.3,0.4,0.3,0.7,0.1c0.2-0.1,0.5-0.3,0.7-0.5c1.4-1.3,2.7-2.8,3.6-4.6c0.7-1.3,1.1-2.8,1.2-4.4
			c0-0.6,0-1.2-0.1-1.8c-0.1-0.3-0.2-0.6-0.3-0.8c-0.2-0.2-0.3-0.3-0.5-0.1c-0.5,0.4-0.9,0.7-1.2,1.3c-0.4,0.8-0.8,1.6-1.2,2.5
			C878.6,107.6,878.2,108,878.3,108.7z"/>
		<path class="st3" d="M894,110.8c0.3-0.2,0.5-0.4,0.7-0.6c1.2-1.3,2.2-2.7,3.2-4.1c0.4-0.5,0.8-1.1,1.2-1.6
			c0.3-0.4,0.6-0.6,1.2-0.6c0.4,0,0.8,0,1.2,0.1c0.2,0.1,0.3,0.1,0.3,0.3c0,0.4,0.2,0.7,0.4,1c0.3,0.4,0.3,0.9,0.1,1.3
			c-0.2,0.5-0.4,0.9-0.5,1.4c-0.1,0.6-0.3,1.2-0.3,1.8c0,0.9-0.2,1.8-0.3,2.6c-0.1,1.3-0.2,2.5-0.3,3.8c0,0.2,0.1,0.3,0.3,0.3
			c0.1,0,0.1,0,0.2,0c0.2,0,0.3-0.1,0.5,0c0.1,0.1,0,0.4-0.2,0.6c-0.4,0.3-0.7,0.7-1.1,1.1c-0.1,0.2-0.4,0.2-0.6,0.1
			c-0.1-0.1-0.2-0.1-0.4-0.1s-0.5-0.1-0.6-0.2c-0.2-0.2-0.5-0.4-0.7-0.6c-0.2-0.1-0.3-0.2-0.3-0.4c-0.1-0.7-0.5-1.3-0.5-2.1
			c0.1-1.1,0-2.1,0.1-3.2c0-0.2,0-0.4,0-0.6c0-0.1-0.2-0.2-0.3-0.1c-0.5,0.4-1.1,0.8-1.6,1.3c-0.4,0.4-0.8,0.7-1.2,1.1
			c-0.3,0.3-0.6,0.6-0.9,0.9c-0.5,0.6-1.1,0.6-1.6,0.2c-0.4-0.4-0.6-0.9-0.6-1.4c0-0.1,0-0.3,0.1-0.3c0.3-0.2,0.3-0.5,0.1-0.7
			c-0.1-0.1-0.1-0.3-0.1-0.4l0.5-3.4c0.1-0.5,0.2-1.1,0.3-1.6c0-0.1,0-0.3,0-0.4l-0.1-0.1c0,0-0.1,0-0.1,0.1
			c-0.1,0.1-0.2,0.2-0.2,0.4c-0.3,0.6-0.5,1.2-0.8,1.9c-0.1,0.3-0.2,0.6-0.3,0.8c-0.6,0.9-1.1,1.9-1.8,2.8c-0.4,0.5-0.7,1.1-0.7,1.7
			c0,1-0.2,1.9-0.3,2.9c0,0.2,0,0.5,0,0.7c0,0.3-0.1,0.5-0.4,0.6c-0.1,0-0.2,0-0.2,0.1c-0.4,0.4-0.8,0.3-1.2,0.1
			c-0.3-0.1-0.6-0.3-0.8-0.6c-0.1-0.1-0.2-0.2-0.2-0.4c-0.1-0.6-0.3-1.2-0.2-1.8c0.1-0.2,0.1-0.4,0.1-0.6c-0.1-1.3,0.1-2.6,0.3-3.8
			c0.2-1.4,0.4-2.7,0.6-4.1c0.2-1.3,0.4-2.6,0.6-3.9c0.1-0.9,0.3-1.7,0.4-2.6c0-0.3,0-0.6-0.1-0.8c-0.1-0.4,0-0.4,0.4-0.7
			c0.5-0.3,1-0.3,1.6-0.1c0.8,0.2,1.2,0.8,1.3,1.6c0.1,0.5,0.1,1,0.1,1.5c0,0.7,0,1.4-0.2,2c-0.1,0.6-0.1,1.2-0.2,1.8
			c-0.1,0.5-0.3,1-0.4,1.6c0,0.1,0,0.2,0,0.2s0.1,0.1,0.1,0l0.1-0.1c0.3-0.5,0.6-0.9,0.9-1.4c0.3-0.6,0.6-1.2,1.1-1.7l0.1-0.1
			c0.2-0.9,0.8-1.5,1.2-2.2c0.2-0.4,0.6-0.5,1-0.6c0.3-0.1,0.5,0.2,0.8,0.2c0,0,0.1,0.1,0.2,0.2c0.1,0.4,0.3,0.7,0.2,1.2
			c-0.1,0.8-0.3,1.6-0.3,2.4c0,0.9-0.2,1.8-0.4,2.7c-0.1,0.8-0.3,1.6-0.4,2.4C893.9,110.6,894,110.7,894,110.8z"/>
		<path class="st3" d="M913.3,108.3c0.3-1,0.8-1.9,1.2-2.8c0.5-0.9,0.5-1.8,0.5-2.8c0-0.3-0.2-0.5-0.5-0.3c-0.8,0.3-1.4,0.7-1.9,1.3
			c-0.8,0.8-1.6,1.5-2.4,2.4c-0.5,0.5-0.9,1-1.3,1.6c-0.4,0.5-0.5,1.1-0.6,1.7c-0.5,1.7-0.8,3.4-1.5,5c-0.1,0.1-0.1,0.3-0.1,0.5
			c-0.2,0.6-0.3,1.3-0.5,2c-0.1,0.2-0.1,0.4-0.1,0.7c0,0.5-0.1,0.9-0.5,1.2c-0.1,0.1-0.3,0.3-0.4,0.4c-0.8-0.8-1.3-1.8-1.4-2.9
			c-0.1-1.2,0-2.5,0.1-3.7c0.2-1.6,0.6-3.1,0.9-4.7c0.2-1,0.4-2,0.7-2.9c0.5-1.5,0.7-3,1.1-4.5c0.1-0.5,0.2-1,0.1-1.6
			c-0.1-0.5,0.4-0.9,0.9-0.7c0.9,0.2,1.5,0.7,1.9,1.5c0.1,0.2,0.2,0.4,0.3,0.6c0.5,0.9,0.5,1.8,0.2,2.7c-0.1,0.5-0.2,0.9-0.3,1.5
			c0.4-0.1,0.6-0.4,0.9-0.6c0.4-0.5,0.9-0.9,1.3-1.3c0.6-0.6,1.2-0.9,2-1.2c1.1-0.3,1.9,0,2.6,0.8c0.7,0.8,1,1.7,0.8,2.8
			c0,0.1,0,0.3,0,0.4c0.1,1-0.4,1.8-0.8,2.7c-0.3,0.6-0.7,1.3-1,1.9c-0.4,0.9-1.1,1.6-1.8,2.2c-0.1,0.1-0.2,0.2-0.3,0.2
			c-0.5,0-0.8,0.2-1.2,0.4c-0.5,0.3-0.9,0.3-1.4,0c-0.2-0.1-0.4-0.3-0.7-0.4c-0.1,0-0.2-0.1-0.2-0.2c-0.3-0.6-0.8-1.1-0.9-1.8
			c0-0.1,0-0.2,0-0.3c0,0,0-0.1,0.1-0.2c0,0,0.1,0,0.2,0c0.3,0.2,0.6,0.4,0.9,0.6c0.8,0.4,1.2,0.3,1.8-0.3
			C912.4,109.6,912.9,109,913.3,108.3L913.3,108.3L913.3,108.3z"/>
		<path class="st3" d="M924.7,117c-0.2,0.3-0.4,0.5-0.7,0.6c-0.4,0.2-0.8,0.4-1.2,0.6c-0.4,0.1-0.9,0.3-1.3,0.4
			c-0.4,0.1-0.9,0.2-1.3,0.2c-1.1,0-2-0.3-2.7-1.2c-0.5-0.6-0.8-1.2-1.1-1.8c-0.1-0.3-0.2-0.6-0.2-0.9c0.2-1.8,0.5-3.6,0.8-5.3
			c0.3-1.8,0.6-3.6,0.9-5.4c0.2-1.4,0.5-2.8,0.7-4.1c0.1-0.5,0.1-1,0.1-1.4s0.2-0.5,0.6-0.4c0.4,0.1,0.7,0.2,1.1,0.3
			c1,0.2,1.9,1.2,1.9,2.5c0,0.8-0.2,1.5-0.3,2.3c-0.1,0.6-0.3,1.2-0.4,1.8c-0.2,1-0.4,2-0.6,3l-0.4,2.3c-0.2,1.5-0.5,2.9-0.7,4.4
			c-0.1,0.4-0.1,0.8-0.2,1.2c0,0.5,0.1,0.6,0.5,0.7c1.3,0.4,2.7,0.5,4.1,0.2c0.1,0,0.2,0,0.2,0C924.6,117,924.6,117,924.7,117z"/>
		<path class="st3" d="M924.5,114.1c0-0.8,0.1-1.5,0.3-2.3l0.2-1.3c0-0.2,0.1-0.4,0.2-0.6c0.2-0.4,0.4-0.9,0.3-1.4
			c0-0.2,0-0.4,0.1-0.5c0.3-1.4,0.7-2.7,1.1-4.1c0.1-0.4,0.2-0.8,0.3-1.2c0.1-0.5,0.4-1.1,0.6-1.6c0.1-0.2,0.2-0.3,0.4-0.3
			c0.1,0,0.2,0,0.4-0.1c0.5-0.1,1-0.3,1.4,0.1c0.1,0.1,0.3,0.1,0.4,0c0.1,0,0.2-0.1,0.3-0.1c1.6-0.8,3.3-1.3,5-2.1
			c0.6-0.3,1.3-0.4,2-0.6c0.4-0.1,0.7-0.2,1.1-0.3c0.2-0.1,0.4-0.1,0.6-0.1c0.2,0,0.4,0.2,0.3,0.4c-0.2,0.2-0.1,0.6-0.3,0.8
			c-0.1,0.2-0.3,0.4-0.4,0.7c0,0.2-0.3,0.3-0.5,0.4c-0.3,0.1-0.5,0.3-0.7,0.5c-0.3,0.4-0.8,0.6-1.3,0.8c-0.5,0.2-0.9,0.4-1.3,0.6
			c-1.2,0.6-2.4,1.3-3.7,1.8c-0.1,0.1-0.3,0.1-0.4,0.2c-0.6,0-0.7,0.4-0.9,0.9c-0.2,0.8-0.5,1.6-0.7,2.3l-0.4,1.4
			c0,0.1,0.1,0.2,0.2,0.2l1.8-0.5c0.5-0.1,1-0.1,1.5-0.1c0.2,0,0.3,0.1,0.2,0.3c0,0.2-0.1,0.3,0,0.5v0.1c-0.3,0.2-0.4,0.7-0.8,0.9
			c-0.2,0.1-0.5,0.2-0.5,0.6c0,0.1-0.2,0.2-0.3,0.3c-0.5,0.3-1,0.5-1.5,0.6c-0.3,0.1-0.6,0.1-1,0s-0.4-0.1-0.5,0.3
			c-0.3,0.9-0.4,1.9-0.6,2.8c0,0.2,0,0.3,0,0.5c0,0.1,0.2,0.2,0.3,0.1c0.2-0.1,0.4-0.2,0.6-0.4c1.3-1,2.7-1.8,4.2-2.4
			c0.4-0.2,0.8-0.3,1.2-0.4c0.3,0,0.4,0.1,0.5,0.4c0.1,0.4-0.1,0.7-0.1,1.1c0,0.3-0.3,0.5-0.5,0.7c-0.3,0.2-0.6,0.5-0.7,0.8
			c0,0.1-0.1,0.1-0.2,0.2c-1.1,0.7-2.2,1.5-3.3,2.2c-0.5,0.3-1,0.5-1.5,0.6c-0.1,0-0.3,0-0.4,0c-0.7,0-1.3-0.4-1.8-0.9
			c-0.6-0.7-1-1.5-1-2.5v-0.3H924.5z"/>
		<path class="st3" d="M953.4,99c-0.5,0.2-1,0.4-1.5,0.6c-0.3,0.1-0.6,0.3-0.8,0.5c-0.5,0.6-1.1,0.9-1.8,1.2
			c-0.2,0.1-0.4,0.1-0.6,0.2c-1,0.7-2.2,1.1-3.2,1.6l-1.7,0.8c-0.4,0.1-0.6,0.4-0.6,0.8c0,1.5-0.2,3-0.6,4.4c0,0.2-0.1,0.3-0.1,0.5
			c-0.1,1.1-0.4,2.1-0.7,3.1c-0.3,1.1-0.6,2.3-0.9,3.5c-0.1,0.5-0.3,0.9-0.5,1.3c-0.3,0.5-0.5,1.1-0.8,1.6c-0.1,0.2-0.3,0.3-0.4,0.4
			c-0.3,0.2-0.7,0.1-0.8-0.3c-0.1-0.2-0.1-0.4-0.1-0.6c0-0.6,0-1.1,0.1-1.7c0.2-0.8,0.2-1.7,0.4-2.5c0.2-1.2,0.5-2.3,0.8-3.4
			c0.4-1.4,0.8-2.8,1.2-4.2c0.1-0.4,0.3-0.8,0.2-1.3c-0.3,0-0.5,0.1-0.6,0.2c-0.6,0.4-1.1,0.8-1.7,1.1c-0.9,0.5-1.8,0.8-2.8,0.9
			c-0.7,0.1-1.2-0.2-1.8-0.5H934c0-0.5-0.4-0.7-0.6-1.1c0-0.1,0-0.2,0.1-0.3c1.1-0.2,2-0.9,3-1.5l1.2-0.6c2.5-1.3,5.2-2.4,7.9-3.5
			c1.9-0.7,3.9-1.3,5.9-1.9c0.8-0.2,1.6-0.4,2.4-0.6c0.1,0,0.3,0,0.4,0l0.1,0.1v0.1c0,0.1-0.1,0.1-0.2,0.2c-0.4,0.2-0.7,0.3-1.1,0.5
			c-0.2,0.1-0.2,0.1,0,0.3C953.3,98.9,953.4,98.9,953.4,99z"/>
		<path class="st3" d="M945.6,114.1c0-0.8,0.1-1.5,0.3-2.3l0.2-1.3c0-0.2,0.1-0.4,0.2-0.6c0.2-0.4,0.4-0.9,0.3-1.4
			c0-0.2,0-0.4,0.1-0.5c0.3-1.4,0.7-2.7,1.1-4.1c0.1-0.4,0.2-0.8,0.3-1.2c0.1-0.5,0.4-1.1,0.6-1.6c0.1-0.2,0.2-0.3,0.4-0.3
			c0.1,0,0.2,0,0.4-0.1c0.5-0.1,1-0.3,1.4,0.1c0.1,0.1,0.3,0.1,0.4,0c0.1,0,0.2-0.1,0.3-0.1c1.6-0.8,3.3-1.3,5-2.1
			c0.6-0.3,1.3-0.4,2-0.6c0.4-0.1,0.7-0.2,1.1-0.3c0.2-0.1,0.4-0.1,0.6-0.1c0.2,0,0.4,0.2,0.3,0.4c-0.2,0.2-0.1,0.6-0.3,0.8
			c-0.1,0.2-0.3,0.4-0.4,0.7c0,0.2-0.3,0.3-0.5,0.4c-0.3,0.1-0.5,0.3-0.7,0.5c-0.3,0.4-0.8,0.6-1.3,0.8c-0.5,0.2-0.9,0.4-1.3,0.6
			c-1.2,0.6-2.4,1.3-3.7,1.8c-0.1,0.1-0.3,0.1-0.4,0.2c-0.6,0-0.7,0.4-0.9,0.9c-0.2,0.8-0.5,1.6-0.7,2.3l-0.4,1.4
			c0,0.1,0.1,0.2,0.2,0.2l1.8-0.5c0.5-0.1,1-0.1,1.5-0.1c0.2,0,0.3,0.1,0.2,0.3c0,0.2-0.1,0.3,0,0.5v0.1c-0.3,0.2-0.4,0.7-0.8,0.9
			c-0.2,0.1-0.5,0.2-0.5,0.6c0,0.1-0.2,0.2-0.3,0.3c-0.5,0.3-1,0.5-1.5,0.6c-0.3,0.1-0.6,0.1-1,0s-0.4-0.1-0.5,0.3
			c-0.3,0.9-0.4,1.9-0.6,2.8c0,0.2,0,0.3,0,0.5c0,0.1,0.2,0.2,0.3,0.1c0.2-0.1,0.4-0.2,0.6-0.4c1.3-1,2.7-1.8,4.2-2.4
			c0.4-0.2,0.8-0.3,1.2-0.4c0.3,0,0.4,0.1,0.5,0.4c0.1,0.4-0.1,0.7-0.1,1.1c0,0.3-0.3,0.5-0.5,0.7c-0.3,0.2-0.6,0.5-0.7,0.8
			c0,0.1-0.1,0.1-0.2,0.2c-1.1,0.7-2.2,1.5-3.3,2.2c-0.5,0.3-1,0.5-1.5,0.6c-0.1,0-0.3,0-0.4,0c-0.7,0-1.3-0.4-1.8-0.9
			c-0.6-0.7-1-1.5-1-2.5v-0.3H945.6z"/>
	</g>
	<path class="st1" d="M594.6,41.3c-0.5-0.1,0.8-0.1,1.1,0C596.2,41.4,594.8,41.3,594.6,41.3z"/>
	<path class="st1" d="M530.2,74.5c-0.3,0.4,0.3-0.7,0.5-0.9C531,73.2,530.4,74.3,530.2,74.5z"/>
	<path class="st1" d="M598.6,42.9c-0.5-0.1,0.8,0,1,0C600.2,43.1,598.8,43,598.6,42.9z"/>
	<path class="st1" d="M523.7,116c0,0.5-0.2-0.7-0.2-1C523.6,114.5,523.7,115.7,523.7,116z"/>
	<path class="st1" d="M652.8,100.5c0-0.5,0.2,0.7,0.3,0.9C653.1,102,652.8,100.8,652.8,100.5z"/>
	<path class="st1" d="M652.5,100.6c0-0.5,0.2,0.7,0.3,0.9C652.8,102,652.5,100.9,652.5,100.6z"/>
	<path class="st1" d="M644.7,79.1c0.2,0.2,0.4,0.5,0.5,0.8C644.9,79.7,644.8,79.4,644.7,79.1z"/>
	<path class="st1" d="M646.9,83.4c0.4,0.5,0.7,1.1,0.9,1.7C647.5,84.5,647.2,84,646.9,83.4z"/>
	<path class="st1" d="M653.3,107.2l0.1,1.9h-0.2l-0.1-1.9H653.3z"/>
	<path class="st1" d="M652.3,101.6c0-0.5,0.2,0.7,0.3,0.9C652.6,103,652.3,101.9,652.3,101.6z"/>
	<path class="st1" d="M576,56.2c0.2-0.2,0.5-0.2,0.8-0.2C576.6,56.2,576.3,56.2,576,56.2z"/>
	<g>
		<path class="st1" d="M642.5,72.5c-0.1-0.1-0.2-0.2-0.3-0.4C642.3,72.3,642.3,72.4,642.5,72.5C642.5,72.7,642.6,72.7,642.5,72.5z"
			/>
		<path class="st1" d="M655.8,104.4c-0.2-2.9-1-6.6-1.1-8c-0.4,0.1-1.2-3.3-1.9-4.7c0.4,1,0.5,2,0.5,3c-0.4-2.3-1-4.6-1.8-6.8
			c-1.4-2.8-1.2-1.3-2.3-3.4c-0.9-2.5-3.3-6.5-5.4-9.4c-0.3-0.6-0.7-1.2-1.1-2c-0.1-0.2-0.2-0.3-0.3-0.5c-0.2-0.2-0.6-0.6-0.6-0.8
			c-0.2-0.3,0.1,0,0.4,0.3c-0.3-0.5-0.6-0.9-0.9-1.3c-0.9-1.4-1.9-2.7-3-3.9c0.6,0.7,1,1.5,1.4,2.4c0.1,0.3,0.3,0.6,0.4,1
			c-1.3-1.7-2.7-3.2-4.2-4.7c0.2-0.1,0.7,0.1,1,0.2c-1.9-2.3-4.1-4.3-6.5-6.1c0.3,0-0.7-0.9-0.5-1c-2.3-2-4.8-3.7-7.4-5.3
			c-3.1-1.9-6.3-3.5-9.7-4.8c-3-1.5-6.2-2.6-9.5-3.2c-1.5-0.8-4.9-1.5-5.8-2c1.6,0.3,1.7-0.3,0.1-0.5c-0.4,0-0.8,0.1-1.2,0
			c-0.5,0-1.1,0-1.9,0c-2.1-0.4-2-0.6-1.7-1s0.9-0.6-0.2-0.9c-3.8,0.2,0.1,0.8-3.2,1.1c-2.1-0.9-2.8-1.7-1-2.5
			c-0.1-0.2-2.7-0.1-2.1-0.3c0.6-0.2,1.5-0.6,1.1-1c2.5-0.3,5.1-0.5,7.6-0.4c-2.1-0.2-2.4-0.3-4.4-0.4c-0.1-0.3-1.8-0.4-3.4-0.5
			c-1.6-0.1-3.3-0.1-3.2-0.4c-1.4,0-2.9,0.2-4.5,0.3s-3.3,0.4-4.8,0.8s-3,0.6-4.2,1s-2.2,0.6-2.8,0.8c4.4-0.3-1.2,1.5,0,1.5
			s1.2,0.1,0.2,0.8c2.5-0.6,0.2,0.7,0.2,0.7c0,0.2,2.1,0-1.9,1.2c-1.2,0.1-0.6-0.4,0.2-0.8s1.5-0.9,0.4-0.9
			c-1.1,0.2-2.1,0.5-3.2,0.9c0.4-0.4,2.1-1.1,1.9-1.3c-1.8,0.7-3.2,1.1-4.2,1.5c-0.2,0.4-1.7,1.1-3,1.9c-1.3,0.8-2.6,1.6-2.5,1.9
			c-1.2,0.7-2.2,1.3-3,2s-1.5,1.2-2.3,1.8l-4.9,4.2c-1.1,1.6-2.3,3.1-3.6,4.6c-0.8,0.9-1.6,1.9-2.5,3l-1.3,1.6l-1.2,1.7
			c0.1,0.2,0,0.6-0.4,1.3c-0.7,1.1-1.4,2.2-2.2,3.2c-1.5,1.8-3.1,4.2-4.2,5.8c-1,2.2,1.3-1.5-0.7,2c-1.2,2.5-0.2-0.9-1.4,1.6
			c0,0.8-1,3.1-2.1,5.5c-0.9,1.9-1.7,3.9-2.3,6c-0.3,1.6,0.1,0.7,0.5-0.5s1.1-2.6,1.2-2.2c-1.9,4.9-3.3,10-4.2,15.2
			s-1.1,10.6-0.6,15.9c0.4,0,0.2-2.2,0.4-3.1c0.8,4.7,2,9.3,3.6,13.8l0.7,2.6l0.7,2.5c0.5,1.7,1.2,3.3,1.9,4.8
			c-0.2-0.4-0.4-0.7-0.6-1.1c-0.6-1.2-1.2-2.4-1.7-3.2s-0.8-1.4-1.1-1.4c-0.2,0.8,2,5.6,1.8,6c0.7,1.3,1.4,2.6,2.1,3.8
			c0.3,0.6,0.7,1.2,1,1.9l1.1,1.8c0.7,1.2,1.5,2.4,2.3,3.7s1.7,2.5,2.7,3.8c1.1,0.4,5,4.6,5.9,4.3c0.8,0.8,1.7,1.5,2.7,2.1
			c1.1,0.7,2.1,1.4,3,2.2c-0.5-0.2-1-0.5-1.5-0.7s-0.8-0.4-1.2-0.5c-0.4-0.2-1-0.3-1.5-0.3c3.2,3.2,5.5,5.1,6.7,6.6
			c1.1,0.7,2,1.4,2.8,1.9l2.3,1.6c1.8,1.2,3.7,2.2,5.6,3.1c1,0.3,2.1,0.5,3.2,0.6c1,0.4,2,0.7,3,0.9c0.7,0.2,1.4,0.3,2.1,0.4
			c1.3,0.1,2.4,0.3,4.2,0.5c4.2,0.7,5.7,0.5,11.2,1c3.2-0.3,6.5-0.6,12.1-1.3c2.7-0.1,5.3-0.5,7.9-1.2c-1.1-0.2,3.2-1,3.7-1.5
			c-0.7-0.1-1.5-0.1-2.2,0.1c-1.1,0.1-2.4,0.4-3.8,0.6c-2.3,0.4-4.6,0.5-6.9,0.3c0.3-0.1,0.7-0.2,1-0.2c8.9-0.9,17.8-3.6,26.1-8.4
			c16.7-9.6,27.5-25.5,31.2-43c0.4-1.5,0.8-3,1.1-4.5c0.8-3.4,1.2-6.9,1.3-10.5c0.2-0.9,0.3-1.7,0.2-2.6
			C655.7,106,655.7,105.2,655.8,104.4z M562.3,171.9c-0.5-0.3,0.7,0.1,1,0.3C563.8,172.5,562.6,172.1,562.3,171.9z M641.4,71.9
			c0.1,0.1,0.1,0.2,0.2,0.3c-0.4-0.6-0.8-1.1-1.2-1.6C640.7,71,641.1,71.4,641.4,71.9z M531.4,145.8c-1-1.4-1.9-2.8-2.8-4.3
			c0.3-0.5,1.6,2,3.2,4.1C531.6,145.8,530.7,144.3,531.4,145.8z M532.5,144.1c-0.9-1.2-1.7-2.6-2.1-2.4c-1.2-2.6-2.3-5.2-3.2-7.9
			l-0.6-1.9l-0.4-1.7c-0.2-0.9-0.3-1.7-0.4-2.6c-0.3-1.3-0.6-2.6-1.1-3.9c-0.2-0.4-0.3-0.8-0.4-1.3c-0.1-0.5-0.1-1-0.1-1.5
			c-0.4-1.7-0.6-3-1-3.9c-0.6-1.1-0.1,3.6-0.6,1.1c-0.2,0.4-0.3-0.6-0.4-1.6c-0.1-1-0.3-1.9-0.5-1.4c0-1.2,0-2.4,0.1-3.6l0.2-4.4
			c0.8-3.3,1.7-5.9,3.1-10.6c0.2-1.6,0.6-3.2,1.3-4.8c0.7-1.7,0.1,0.9,0.7,0.2c-1.2,3.2-2,7.3-2.6,9.4c-0.3,2.1,0,2.1,0.3,2
			c-0.1,0.5-0.1,1-0.1,1.4c0,0.1-0.1,0.3-0.1,0.4c0,0.3,0,0.5,0,0.7c-0.7,8.3,0.3,16.8,2.9,25l0.1,0.4c0.2,0.8,0.5,1.6,0.8,2.6
			c0.2,0.4,0.3,0.6,0.5,0.8c1.2,3,2.6,6,4.3,8.8c0.4,0.8,0.9,1.5,1.4,2.3c0,0.1,0.1,0.1,0.1,0.2
			C534.3,146.5,533.4,145.3,532.5,144.1z M560.3,171.4c0.4,0,2.3,1,3.7,1.5C563.7,173.1,561.5,172.1,560.3,171.4z M568.2,175.6
			c-2.3-0.6-4.4-1.5-6.3-2.7c-0.2-0.6,4.2,1.3,3.2,0.2c1,0.5,2.3,0.9,3.5,1.4s2.4,0.8,3,1.1C572,176.1,570.3,176.1,568.2,175.6z"/>
	</g>
	<g class="st2">
		<path class="st3" d="M556.5,118.4c-0.8,0-1.5-0.1-2.2-0.7c-0.1-0.1-0.3-0.2-0.4-0.2c-0.4,0-0.6-0.3-0.8-0.6
			c-0.2-0.4-0.5-0.9-0.7-1.3c0-0.1-0.1-0.2-0.1-0.3c0.2-0.6-0.1-1.3-0.1-1.9s0-1.3,0-2c-0.1-1.8,0-3.6,0.1-5.3
			c0-0.4-0.1-0.8-0.2-1.1c-0.1-0.4-0.3-0.8-0.5-1.2c-0.1-0.2,0-0.4,0.2-0.4c0.6,0,0.8-0.5,1-1.1c0.1-0.9,0.3-1.7,0.1-2.6
			c-0.1-0.3,0-0.5,0.3-0.5c0.4,0,0.7-0.2,1-0.4c0.2-0.1,0.4-0.2,0.6,0c0.3,0.3,0.6,0.2,0.9-0.1c0.5-0.6,1.1-1.2,1.8-1.6
			c1.1-0.7,2.2-1.1,3.4-1.1c0.6,0,1.2,0.2,1.7,0.6c0.5,0.3,0.8,0.7,1.1,1.2c0.4,0.5,0.6,1.1,0.6,1.8c0.1,1.4,0.1,2.7-0.2,4
			c-0.3,1.6-0.8,3.2-1.2,4.8c-0.1,0.5-0.4,1-0.6,1.5c-0.5,1.5-1,3-1.5,4.5c-0.3,0.9-0.7,1.8-1.2,2.6c-0.6,1-1.3,1.5-2.4,1.6
			C557.1,118.5,556.8,118.4,556.5,118.4z M561.7,99.8v-0.4c0-0.4-0.2-0.5-0.5-0.4c-0.9,0.2-1.8,0.6-2.6,1.3c-1,0.9-1.8,2.1-2.5,3.3
			c-0.1,0.2-0.2,0.5-0.2,0.7c-0.2,1.5-0.4,2.9-0.6,4.4c-0.1,0.6-0.1,1.1-0.1,1.7c0,0.7,0,1.5,0,2.3c-0.1,1.1-0.4,2.3-0.2,3.4
			c0,0,0,0,0,0.1c-0.1,0.3,0,0.4,0.2,0.4c0.6,0.1,1.3,0,1.8-0.4s0.9-0.8,1.2-1.4c0.3-0.7,0.7-1.4,0.9-2.1c0.5-1.5,0.9-3,1.3-4.6
			c0.3-1.3,0.6-2.7,0.8-4C561.5,102.6,561.6,101.2,561.7,99.8z"/>
		<path class="st3" d="M564,113.5c0-0.8,0.1-1.5,0.3-2.3l0.2-1.3c0-0.2,0.1-0.4,0.2-0.6c0.2-0.4,0.4-0.9,0.3-1.4
			c0-0.2,0-0.4,0.1-0.5c0.3-1.4,0.7-2.7,1.1-4.1c0.1-0.4,0.2-0.8,0.3-1.2c0.1-0.5,0.4-1.1,0.6-1.6c0.1-0.2,0.2-0.3,0.4-0.3
			c0.1,0,0.2,0,0.4-0.1c0.5-0.1,1-0.3,1.4,0.1c0.1,0.1,0.3,0.1,0.4,0c0.1,0,0.2-0.1,0.3-0.1c1.6-0.8,3.3-1.3,5-2.1
			c0.6-0.3,1.3-0.4,2-0.6c0.4-0.1,0.7-0.2,1.1-0.3c0.2-0.1,0.4-0.1,0.6-0.1c0.2,0,0.4,0.2,0.3,0.4c-0.2,0.2-0.1,0.6-0.3,0.8
			c-0.1,0.2-0.3,0.4-0.4,0.7c0,0.2-0.3,0.3-0.5,0.4c-0.3,0.1-0.5,0.3-0.7,0.5c-0.3,0.4-0.8,0.6-1.3,0.8c-0.5,0.2-0.9,0.4-1.3,0.6
			c-1.2,0.6-2.4,1.3-3.7,1.8c-0.1,0.1-0.3,0.1-0.4,0.2c-0.6,0-0.7,0.4-0.9,0.9c-0.2,0.8-0.5,1.6-0.7,2.3l-0.4,1.4
			c0,0.1,0.1,0.2,0.2,0.2l1.8-0.5c0.5-0.1,1-0.1,1.5-0.1c0.2,0,0.3,0.1,0.2,0.3c0,0.2-0.1,0.3,0,0.5v0.1c-0.3,0.2-0.4,0.7-0.8,0.9
			c-0.2,0.1-0.5,0.2-0.5,0.6c0,0.1-0.2,0.2-0.3,0.3c-0.5,0.3-1,0.5-1.5,0.6c-0.3,0.1-0.6,0.1-1,0s-0.4-0.1-0.5,0.3
			c-0.3,0.9-0.4,1.9-0.6,2.8c0,0.2,0,0.3,0,0.5c0,0.1,0.2,0.2,0.3,0.1c0.2-0.1,0.4-0.2,0.6-0.4c1.3-1,2.7-1.8,4.2-2.4
			c0.4-0.2,0.8-0.3,1.2-0.4c0.3,0,0.4,0.1,0.5,0.4c0.1,0.4-0.1,0.7-0.1,1.1c0,0.3-0.3,0.5-0.5,0.7c-0.3,0.2-0.6,0.5-0.7,0.8
			c0,0.1-0.1,0.1-0.2,0.2c-1.1,0.7-2.2,1.5-3.3,2.2c-0.5,0.3-1,0.5-1.5,0.6c-0.1,0-0.3,0-0.4,0c-0.7,0-1.3-0.4-1.8-0.9
			c-0.6-0.7-1-1.5-1-2.5v-0.3H564z"/>
	</g>
	<g class="st2">
		<path class="st3" d="M586.7,97.1c-0.2,0.4-0.3,0.7-0.6,1s-0.6,0.6-0.4,1.1c0,0.1,0,0.2-0.1,0.3s-0.2,0-0.3,0s-0.2,0-0.2,0.2
			c0,0.4-0.2,0.6-0.2,1c-0.1,0.1-0.1,0.2,0,0.3l0,0c-0.1,0.1-0.1,0.3-0.2,0.5c-0.4,0.6-0.8,1.3-1.1,2.1c-0.4,1-0.8,1.9-1.2,2.8
			c-0.5,1.4-1.1,2.8-1.6,4.2c-0.6,1.4-1.1,2.8-1.6,4.2c-0.1,0.3-0.2,0.6-0.3,0.9c-0.2,0.4-0.4,0.8-0.5,1.3s-0.4,0.8-0.8,1.1
			c-0.3,0.2-0.6,0.2-0.9,0c-0.3-0.2-0.6-0.5-0.9-0.8c-0.3-0.4-0.5-0.9-0.3-1.3c0.4-1,0.4-2.1,0.4-3.1c0-1.3-0.2-2.6-0.1-3.9
			c0-1.2,0-2.4,0.1-3.5c0.1-1.3,0-2.6,0.1-3.9c0-0.5,0-1.1,0-1.6c0-0.2,0.1-0.5,0.1-0.7c0.1-0.5,0.1-0.5,0.6-0.3
			c0.2,0.1,0.4,0.1,0.6,0.3c0.8,0.5,1.2,1.2,1.4,2c0.1,0.5,0.2,1,0.1,1.5c0,1.3,0,2.6-0.2,3.9c-0.1,0.4,0,0.8,0,1.2
			c0.4-0.2,0.6-0.4,0.8-0.7c0.4-0.8,0.8-1.6,1.2-2.4c0.3-0.5,0.6-1,0.9-1.5c0.2-0.2,0.3-0.5,0.4-0.7c0.3-0.7,0.8-1.3,1.2-1.9
			c0.1-0.2,0.4-0.3,0.6-0.4c0.1-0.2,0.2-0.3,0.4-0.3v0.1c0.1,0,0.2-0.1,0.2-0.2c0.6-0.7,1.2-1.4,1.8-2.1
			C586.2,97.4,586.5,97.2,586.7,97.1z M583.6,100.1c-0.1,0.1-0.1,0.2-0.2,0.4v0.1h0.1C583.8,100.4,583.8,100.3,583.6,100.1z
			 M584,99.8L584,99.8L584,99.8z M584.9,100.7L584.9,100.7L584.9,100.7z"/>
	</g>
	<g class="st2">
		<path class="st3" d="M583,113.5c0-0.8,0.1-1.5,0.3-2.3l0.2-1.3c0-0.2,0.1-0.4,0.2-0.6c0.2-0.4,0.4-0.9,0.3-1.4
			c0-0.2,0-0.4,0.1-0.5c0.3-1.4,0.7-2.7,1.1-4.1c0.1-0.4,0.2-0.8,0.3-1.2c0.1-0.5,0.4-1.1,0.6-1.6c0.1-0.2,0.2-0.3,0.4-0.3
			c0.1,0,0.2,0,0.4-0.1c0.5-0.1,1-0.3,1.4,0.1c0.1,0.1,0.3,0.1,0.4,0c0.1,0,0.2-0.1,0.3-0.1c1.6-0.8,3.3-1.3,5-2.1
			c0.6-0.3,1.3-0.4,2-0.6c0.4-0.1,0.7-0.2,1.1-0.3c0.2-0.1,0.4-0.1,0.6-0.1c0.2,0,0.4,0.2,0.3,0.4c-0.2,0.2-0.1,0.6-0.3,0.8
			c-0.1,0.2-0.3,0.4-0.4,0.7c0,0.2-0.3,0.3-0.5,0.4c-0.3,0.1-0.5,0.3-0.7,0.5c-0.3,0.4-0.8,0.6-1.3,0.8c-0.5,0.2-0.9,0.4-1.3,0.6
			c-1.2,0.6-2.4,1.3-3.7,1.8c-0.1,0.1-0.3,0.1-0.4,0.2c-0.6,0-0.7,0.4-0.9,0.9c-0.2,0.8-0.5,1.6-0.7,2.3l-0.4,1.4
			c0,0.1,0.1,0.2,0.2,0.2l1.8-0.5c0.5-0.1,1-0.1,1.5-0.1c0.2,0,0.3,0.1,0.2,0.3c0,0.2-0.1,0.3,0,0.5v0.1c-0.3,0.2-0.4,0.7-0.8,0.9
			c-0.2,0.1-0.5,0.2-0.5,0.6c0,0.1-0.2,0.2-0.3,0.3c-0.5,0.3-1,0.5-1.5,0.6c-0.3,0.1-0.6,0.1-1,0s-0.4-0.1-0.5,0.3
			c-0.3,0.9-0.4,1.9-0.6,2.8c0,0.2,0,0.3,0,0.5c0,0.1,0.2,0.2,0.3,0.1c0.2-0.1,0.4-0.2,0.6-0.4c1.3-1,2.7-1.8,4.2-2.4
			c0.4-0.2,0.8-0.3,1.2-0.4c0.3,0,0.4,0.1,0.5,0.4c0.1,0.4-0.1,0.7-0.1,1.1c0,0.3-0.3,0.5-0.5,0.7c-0.3,0.2-0.6,0.5-0.7,0.8
			c0,0.1-0.1,0.1-0.2,0.2c-1.1,0.7-2.2,1.5-3.3,2.2c-0.5,0.3-1,0.5-1.5,0.6c-0.1,0-0.3,0-0.4,0c-0.7,0-1.3-0.4-1.8-0.9
			c-0.6-0.7-1-1.5-1-2.5v-0.3H583z"/>
		<path class="st3" d="M601.7,116.4c-0.2,0.3-0.4,0.5-0.7,0.6c-0.4,0.2-0.8,0.4-1.2,0.6c-0.4,0.1-0.9,0.3-1.3,0.4
			c-0.4,0.1-0.9,0.2-1.3,0.2c-1.1,0-2-0.3-2.7-1.2c-0.5-0.6-0.8-1.2-1.1-1.8c-0.1-0.3-0.2-0.6-0.2-0.9c0.2-1.8,0.5-3.6,0.8-5.3
			c0.3-1.8,0.6-3.6,0.9-5.4c0.2-1.4,0.5-2.8,0.7-4.1c0.1-0.5,0.1-1,0.1-1.4s0.2-0.5,0.6-0.4c0.4,0.1,0.7,0.2,1.1,0.3
			c1,0.2,1.9,1.2,1.9,2.5c0,0.8-0.2,1.5-0.3,2.3c-0.1,0.6-0.3,1.2-0.4,1.8c-0.2,1-0.4,2-0.6,3l-0.4,2.3c-0.2,1.5-0.5,2.9-0.7,4.4
			c-0.1,0.4-0.1,0.8-0.2,1.2c0,0.5,0.1,0.6,0.5,0.7c1.3,0.4,2.7,0.5,4.1,0.2c0.1,0,0.2,0,0.2,0C601.6,116.4,601.6,116.4,601.7,116.4
			z"/>
	</g>
	<g class="st2">
		<path class="st3" d="M612,106.7c0.2,1-0.1,2-0.2,3.1c-0.1,0.8-0.5,1.6-0.9,2.3c-0.4,0.6-0.8,1.2-1.2,1.8c-0.2,0.3-0.5,0.5-0.8,0.7
			c-0.6,0.6-1.3,1.2-1.9,1.8c-0.7,0.7-1.5,0.9-2.3,1.2c-0.7,0.2-1.4,0-2-0.4c-0.1,0-0.2-0.1-0.2-0.2c-0.6-0.7-1.2-1.3-1.4-2.3
			c-0.3-1-0.4-1.9-0.5-2.9c0-1.4,0.2-2.8,0.6-4.1c0.6-2,1.5-3.9,2.4-5.7c0.4-0.8,0.8-1.5,1.4-2.2c0.3-0.3,0.6-0.6,1-0.6
			c0.2,0,0.3,0,0.5-0.1s0.4-0.1,0.6,0c0.3,0.1,0.5,0.1,0.7,0.1c0.6-0.1,1.3,0.6,1.2,1.3c0,0.4,0.1,0.6,0.4,0.7
			c0.5,0.1,0.9,0.4,1.1,1c0,0.1,0.1,0.2,0.2,0.3c1,1.1,1.2,2.5,1.1,4v0.2L612,106.7L612,106.7z M606.4,108.1
			c-0.5-0.2-0.8-0.4-1.2-0.8c-0.2-0.2-0.4-0.1-0.5,0.2c-0.2,0.6-0.4,1.2-0.6,1.8c-0.5,1.1-0.6,2.3-0.7,3.6c0,0.5,0.1,0.9,0.1,1.3
			c0,0.3,0.2,0.5,0.4,0.6c0.2,0.3,0.4,0.3,0.7,0.1c0.2-0.1,0.5-0.3,0.7-0.5c1.4-1.3,2.7-2.8,3.6-4.6c0.7-1.3,1.1-2.8,1.2-4.4
			c0-0.6,0-1.2-0.1-1.8c-0.1-0.3-0.2-0.6-0.3-0.8c-0.2-0.2-0.3-0.3-0.5-0.1c-0.5,0.4-0.9,0.7-1.2,1.3c-0.4,0.8-0.8,1.6-1.2,2.5
			C606.7,107,606.3,107.4,606.4,108.1z"/>
	</g>
	<g class="st2">
		<path class="st3" d="M621.5,107.7c0.3-1,0.8-1.9,1.2-2.8c0.5-0.9,0.5-1.8,0.5-2.8c0-0.3-0.2-0.5-0.5-0.3c-0.8,0.3-1.4,0.7-1.9,1.3
			c-0.8,0.8-1.6,1.5-2.4,2.4c-0.5,0.5-0.9,1-1.3,1.6c-0.4,0.5-0.5,1.1-0.6,1.7c-0.5,1.7-0.8,3.4-1.5,5c-0.1,0.1-0.1,0.3-0.1,0.5
			c-0.2,0.6-0.3,1.3-0.5,2c-0.1,0.2-0.1,0.4-0.1,0.7c0,0.5-0.1,0.9-0.5,1.2c-0.1,0.1-0.3,0.3-0.4,0.4c-0.8-0.8-1.3-1.8-1.4-2.9
			c-0.1-1.2,0-2.5,0.1-3.7c0.2-1.6,0.6-3.1,0.9-4.7c0.2-1,0.4-2,0.7-2.9c0.5-1.5,0.7-3,1.1-4.5c0.1-0.5,0.2-1,0.1-1.6
			c-0.1-0.5,0.4-0.9,0.9-0.7c0.9,0.2,1.5,0.7,1.9,1.5c0.1,0.2,0.2,0.4,0.3,0.6c0.5,0.9,0.5,1.8,0.2,2.7c-0.1,0.5-0.2,0.9-0.3,1.5
			c0.4-0.1,0.6-0.4,0.9-0.6c0.4-0.5,0.9-0.9,1.3-1.3c0.6-0.6,1.2-0.9,2-1.2c1.1-0.3,1.9,0,2.6,0.8c0.7,0.8,1,1.7,0.8,2.8
			c0,0.1,0,0.3,0,0.4c0.1,1-0.4,1.8-0.8,2.7c-0.3,0.6-0.7,1.3-1,1.9c-0.4,0.9-1.1,1.6-1.8,2.2c-0.1,0.1-0.2,0.2-0.3,0.2
			c-0.5,0-0.8,0.2-1.2,0.4c-0.5,0.3-0.9,0.3-1.4,0c-0.2-0.1-0.4-0.3-0.7-0.4c-0.1,0-0.2-0.1-0.2-0.2c-0.3-0.6-0.8-1.1-0.9-1.8
			c0-0.1,0-0.2,0-0.3c0,0,0-0.1,0.1-0.2c0,0,0.1,0,0.2,0c0.3,0.2,0.6,0.4,0.9,0.6c0.8,0.4,1.2,0.3,1.8-0.3
			C620.6,109,621.1,108.4,621.5,107.7C621.5,107.7,621.6,107.7,621.5,107.7L621.5,107.7z"/>
	</g>
	<path class="st4" d="M588.6,108.4"/>
</g>
</svg>
