<svg xmlns="http://www.w3.org/2000/svg" viewBox="0 0 961.16 141.88"><title>sketchbook</title><path d="M617,116.45c1.55,0,1.16-.13-1.47-.1-1.7.15-1.7.25,0,.4-4.42.1-6.56.35-13.23.3,1.62-.38-5.2-.35-1.47-.59h-7.36c-2,.28,7.79.25,2.94.39-10.42.15-12.46-.28-19.11-.39-6.81.42-15.36.12-23.53.31.45-.2-2-.2-2.94-.3-8.54-.17-17.62.16-26.46-.09-3.65,0-4.56.16-7.35.2-5.92-.6-15.64,0-22.05.21-2.85-.08-8.91-.45-11.76-.19,2.4,0,2.4.54,0,.5-4.61-.35-16.18-.23-23.52-.39-4.87.24-13.12-.25-20.59,0-.47-.23-4.55-.22-5.88-.4-5.44.2-8.75-.06-16.17,0-1.95,0-1.35-.17-2.95-.2-1,.14-3.14.19-5.88.2-14.39-.07-15.67,0-30.87,0,0,.46-6.89.46-11.76.6-2.37-.2-7.94-.19-7.35-.59-7.36-.13-15.91-.18-22-.39-3.8.5-14-.26-20.59.11-3.05-.2-15.21-.36-17.64,0-2-.26-8.24-.24-11.76-.39a18.07,18.07,0,0,1-2.94.1c-4.86.2,3.64.42,0,.5-6.84,0-9.81-.19-16.18-.19a76.72,76.72,0,0,1-10.29.6c-2-.1-5.47-.09-5.88-.3,3.07-.22,1.15-.66-1.47-.79-4.63,0-3.32.3-8.82.2l-13.23-.29c-9.37.09-13.47.25-23.52.11-1.22.28,2.07.26,1.46.5-3.82.24-6.54.55-11.76.7h-5.88c-5.71.23-11.61.22-20.58.4-4.92-.26-14.58-.2-17.64-.59-10.69.06-15.57-.27-23.52-.39a23,23,0,0,0-4.41.4c-1.73,0-4.17,0-4.41.1,4.51.1-.66.33-1.47.4,2.59,0,3.35.17,2.94.4-3.62,0-7.08,0-8.82.1.19-.18-1.46-.23-4.41-.2,2.6.22-.17.64,1.47.69a65.1,65.1,0,0,1,7.35-.3c.76.15,2.18.25,2.94.39-6.28.13-1.26.4-5.88.6-.33.19,1.66.22,1.47.39a59.21,59.21,0,0,0-8.82.2c6.68.18,2,.29,0,.59,8.38.22,11,.84,17.64,1.18-1.89.29-3.65.59-4.41.7-8.64,0-15.23-.24-19.11.21,4.4.06-1.41.21,0,.4,8.42,0,9.54.54,16.17.69,0,.18,6.94-.16,8.82.1-1.24.12-1.94.27-1.47.5,20.13-.25,23.2,1.17,39.7.58,7,.45,21.05.42,30.87.68.34-.42-2.26-.64-2.94-1,5.15-.15,8.31-.43,13.23-.6,1.73.26,1.27.31,5.88.2.43.2,4,.19,4.41.39-1.71,0-1.6.16-1.47.3,2.56,0,4.58,0,5.88.1-1.82-.48-1.87-.76,1.47-1.09,7.81-.17,15.54.45,25,.49,3.59-.06,3.14-.38,8.82-.3a179,179,0,0,0,19.12.39c1.94.5,8.65.67,19.11.59,4.68.28,10.17.5,16.18.69,3.81-.13-1.13-.59,1.47-.6,2.8.31,6.38-.16,10.29-.1,7.83,0,13.15.1,17.64.29,3.65,0,4.55-.16,7.35-.2a65.23,65.23,0,0,0,7.35.3c3.16-.15,8.28-.17,10.29-.4,1.88.14,6.94.06,8.82.2-3.19.21.18.32,1.47.49,11.13-.09,15.61,0,25-.21.84-.51-2.76-.85,0-1,4.71,0,2.4.43,7.35.39,2.1-.19,10.8,0,16.17.09a39.21,39.21,0,0,1,5.88-.5c4.87.43,18.19.29,19.11,1,7.56-.18,11-.06,17.64-.2.17.12.44.23,2.95.2,5.09-.42,11.17-.17,19.11-.4,3.09.09,6.53.15,8.82.29,1.24-.29,4.74.06,7.35,0-.17-.47,1.84-.8,7.35-.9,9.92.05,13.24.55,23.52.59.25-.15-.53-.37,1.47-.4,3,0,2.89.27,5.88.29,2-.06.22-.38,2.94-.4,13.24,0,17.94.69,32.35.38,3.67.08,5.77.27,10.29.29,5.09.08,6.21-.11,8.82-.2,2.81,0,2.67.28,7.36.2,0-.29,2.53-.41,7.36-.6-.65-.37,3.1-.45,5.88-.6-.47-.23-2.33-.37-1.47-.69,2.56,0,4.57,0,5.88-.1,2.55.12,3.86.33,8.82.29,1.33.17,3.29.31,5.88.39,2.94,0,6.28.42,7.36.19-4.68-.29,4.69-.47,7.35-.6,2.37.2,7.37.23,13.23.19-.11.17.33.31,1.47.39,2.56,0,4.57,0,5.88.1,0,.33,5.9.26,7.35.49h20.58c3.56.12,7.14.24,11.76.29a85.84,85.84,0,0,0,10.3.69c5.38.06,5.64-.22,10.29-.2,8.36.12,14.65.39,20.58.69a35.62,35.62,0,0,1,4.41-.1c2-.06.22-.38,2.93-.4h2.94c.54-.53,8.56-.55,14.7-.7,4.12.25,11.06.31,14.71.59,8.81,0,24.78-.08,33.81,0,2.8,0,3.69-.22,7.35-.2,6.61-.06,12.55.27,17.64,0a25.74,25.74,0,0,0,2.95.3c2.27-.31,12-.12,11.75-.6a110.66,110.66,0,0,0-13.23-.39c.8-.35-5.2-.24-4.4-.59,5.88-.07,12.8-.07,17.64-.2,6,.2,9.69.19,17.64.39-.45-.56,8.91-.46,7.35-1.09-7.19.06-7.56-.35-11.76-.49,0-.2,4-.13,2.94-.4-4.92.07-7.18.31-11.76.4.45-.23-4.25-.11-4.41-.3-.54-.46-5.63-.61-7.35-1,2-.23,5.25-.37,8.82-.5-1.48,0-1.85-.17,0-.2,2.67.12,1.15.52,2.94.69,3.69.11,10.09,0,10.3.39,5-.15,9-.09,11.76-.2-5.46-.08-.31-.35,1.47-.5,7.41-.07,7.32.36,13.23.39,2.82-.31,7.31-.5,7.35-1-4.8,0-7.27-.24-5.88-.69-4.82-.33-19.14,0-20.58-.59-5.19.35-5-.52-10.29-.49-1.29-.29-2.2.23-5.88.1-3.48-.39-8.47-.68-13.23-1-9.91.11-26.09-.21-36.76-.38-9.22.83-27.48.31-39.69.41-2.33.58-10.26.3-13.23.7-5.33-.25-.33-.66-2.94-1-7.36,0-10.28-.23-17.64-.19-2.47-.29-6.73-.47-10.29-.69-15.46.06-27.53-.12-38.22-.38-4.81.14-9.75.27-16.17.3-5.72-.06-11.2-.33-14.71,0,.51-.36-5.36-.3-8.81-.39a58.53,58.53,0,0,1-7.36.1c.45.26-3.07.26-5.88.3-4.38,0-7.46-.15-10.3-.29C630.42,116.1,621.19,116.53,617,116.45Zm61.75,1.46a20.35,20.35,0,0,1,2.94,0A12.84,12.84,0,0,1,678.71,117.92Zm4.41.1h2.94v.2h-2.94Zm-424.87.55c14.17.24,18.41-.41,30.87-.31,2,.06.22.38,2.94.39-1.11.19-4.69-.27-10.29-.09-1.43,0-1.14.12-1.47.2a84,84,0,0,0-8.82.1C266.81,118.67,260.73,119,258.25,118.57Zm176.42-.36c3.74,0,5.7.14,5.88.39C434.76,118.7,432,118.38,434.67,118.2Zm-198.48.47c-.76-.05,1.07-.13,1.47-.1C238.42,118.62,236.6,118.7,236.19,118.67Zm2.95,0a24.18,24.18,0,0,1,2.94-.1c2.63,0,5.34.12,7.35.2,1.15,0,5.67.11,4.41.3C246.38,119.11,243.09,118.87,239.14,118.67Zm69.1-.12c2.8,0,3.69.21,7.35.2-2.67.18-8.87.13-11.76.3C301.07,119,308.09,118.75,308.23,118.55Zm-77.92.23c-.76-.05,1.07-.13,1.47-.1C232.54,118.73,230.72,118.8,230.31,118.77ZM442,118.6c5.92,0,8.28.69,11.76.49,4.09.25-3.7.54-8.82.5a17.14,17.14,0,0,0-4.41-.3C440.56,119,440,118.73,442,118.6Zm14.7.09c.63-.27,4.62,0,2.94.2a16.89,16.89,0,0,0,4.4-.3c5.38-.07,5.65.21,10.29.19-1.52.26-5.83.34-7.35.6-4.9,0-5-.32-10.29-.3C457.15,119,460.38,118.7,456.72,118.69Zm-163.19.16c-.42-.16,7.94-.14,4.41.1C298.51,118.91,293.51,118.84,293.53,118.85Zm267.57-.2c-1.57.37,3.65.28,2.95.59-3.54,0-3.2-.18-7.35-.1-.24-.12.32-.18,1.47-.2a24.23,24.23,0,0,0-2.94-.1C556.19,118.72,558.36,118.67,561.1,118.65Zm182.3.92c-1.75.49-12.78.49-16.17.1a27.52,27.52,0,0,1,4.41-.2c-1.1-.22-8.25,0-11.76-.09.18-.18-1.8-.21-1.47-.4a35.5,35.5,0,0,1,4.41.1c3.15,0,2.8-.28,4.41-.3C734.84,118.69,736.76,119.44,743.4,119.58Zm-391.06-.45c1.58-.19,12.2-.17,10.29.2C359.28,119.25,355.11,119.23,352.34,119.12Zm213.18.22c.22-.25,5,0,5.88,0C570.43,119.64,568.25,119.25,565.52,119.35Zm-123.49,2c5.13-.09,2.51.32,1.46.4C441.49,121.74,442.27,121.52,442,121.37Zm-26.47.31c-.76-.05,1.06-.13,1.47-.1C417.79,121.63,416,121.71,415.55,121.68ZM123,121.89a19.72,19.72,0,0,1,2.94,0A12.81,12.81,0,0,1,123,121.89Zm323.43-.12c-.76-.05,1.07-.13,1.47-.1C448.66,121.72,446.84,121.79,446.43,121.77Zm376.37.75h5.88c2,.19,1.4.57,2.94.79H821.32C821.5,123,820.52,122.67,822.79,122.52Z" transform="translate(-15.15 -49.62)" style="fill:#fff;fill-rule:evenodd"/><circle cx="73.06" cy="69.37" r="65.14" style="fill:#fff"/><path d="M30.35,79.54c-.36.4.31-.71.51-.93C31.23,78.21,30.55,79.33,30.35,79.54Z" transform="translate(-15.15 -49.62)" style="fill:#fff;fill-rule:evenodd"/><path d="M27,152c.19.51-.48-.6-.58-.87C26.18,150.57,26.85,151.68,27,152Z" transform="translate(-15.15 -49.62)" style="fill:#fff;fill-rule:evenodd"/><path d="M33.77,76.89c-.38.38.34-.68.55-.89C34.69,75.63,34,76.69,33.77,76.89Z" transform="translate(-15.15 -49.62)" style="fill:#fff;fill-rule:evenodd"/><path d="M59.63,178.31c.43.28-.7-.18-.93-.34C58.28,177.69,59.4,178.16,59.63,178.31Z" transform="translate(-15.15 -49.62)" style="fill:#fff;fill-rule:evenodd"/><path d="M110.79,58.81c-.44-.24.7.11.93.24C112.17,59.29,111,58.93,110.79,58.81Z" transform="translate(-15.15 -49.62)" style="fill:#fff;fill-rule:evenodd"/><path d="M110.71,59c-.44-.24.69.11.93.24C112.08,59.51,110.94,59.16,110.71,59Z" transform="translate(-15.15 -49.62)" style="fill:#fff;fill-rule:evenodd"/><path d="M88.2,55.07a1.54,1.54,0,0,1,1,0A1.51,1.51,0,0,1,88.2,55.07Z" transform="translate(-15.15 -49.62)" style="fill:#fff;fill-rule:evenodd"/><path d="M93,55.27a8,8,0,0,1,1.92,0A9.39,9.39,0,0,1,93,55.27Z" transform="translate(-15.15 -49.62)" style="fill:#fff;fill-rule:evenodd"/><path d="M116.85,61.72l1.7.87-.11.21-1.7-.87Z" transform="translate(-15.15 -49.62)" style="fill:#fff;fill-rule:evenodd"/><path d="M111.46,59.72c-.43-.24.7.11.93.24C112.83,60.19,111.7,59.84,111.46,59.72Z" transform="translate(-15.15 -49.62)" style="fill:#fff;fill-rule:evenodd"/><path d="M34,103.14a1.2,1.2,0,0,1,.23-.81A1.19,1.19,0,0,1,34,103.14Z" transform="translate(-15.15 -49.62)" style="fill:#fff;fill-rule:evenodd"/><path d="M16.56,102.64c.59-1,.74-1,.82.19.73-2.51.72.18.7.16.16.13,1.09-1.82.13,2.22-.55,1.13-.6.31-.64-.56s0-1.77-.55-.79a26.64,26.64,0,0,0-.83,3.17c-.14-.5.12-2.38-.2-2.27-.34,1.89-.64,3.36-.83,4.33.26.39.12,2,.18,3.57s.08,3,.42,3.06c0,1.41.07,2.58.19,3.61s.27,2,.41,2.86l1.17,6.34A57,57,0,0,1,19.64,134c.44,1.14.84,2.38,1.37,3.62l.76,1.9.85,1.89c.25,0,.55.3.95,1a32,32,0,0,1,1.67,3.5c.85,2.17,2.11,4.8,3,6.55,1.34,2-.67-1.92,1.33,1.6,1.54,2.32-.89-.32.68,2,.76.38,2.19,2.45,3.75,4.55a44.85,44.85,0,0,0,4.06,5c1.26,1,.62.28-.2-.69s-1.75-2.25-1.28-2.07A82,82,0,0,0,47.61,174a59.44,59.44,0,0,0,13.44,8.46c.18-.32-1.79-1.32-2.51-1.92a91.34,91.34,0,0,0,13.72,3.76l2.63.75,2.49.62a39.53,39.53,0,0,0,6.78.89c-.65-.59,2.34-.53,5.05-.73.1.32-1.67.28,0,.48a50.55,50.55,0,0,1-7.93.17c-1.37-.1-2.63-.16-3.59-.16s-1.6,0-1.75.22c.59.53,5.84,1.07,6.06,1.42,1.49,0,2.93.09,4.35.08.71,0,1.42,0,2.13,0l2.13,0c1.43,0,2.87-.1,4.36-.15s3-.23,4.6-.46c.86-.75,6.46-2,6.72-2.94a11.8,11.8,0,0,0,3.15-1.29,25.74,25.74,0,0,1,3.39-1.52c-.47.33-.91.65-1.31.95s-.75.53-1,.77c-.59.47-.94.86-1,1.13,4.4-1.22,7.17-2.17,9.09-2.47,1.17-.57,2.16-1,3.07-1.44l2.52-1.23a40.43,40.43,0,0,0,5.52-3.31,13.56,13.56,0,0,0,2.07-2.48,22.54,22.54,0,0,0,2.24-2.11,16.2,16.2,0,0,0,1.4-1.64c.76-1,1.42-1.91,2.52-3.33,2.75-3.29,3.27-4.67,6.44-9.25,1.38-2.93,2.76-5.87,4.95-11.09a42.38,42.38,0,0,0,2.94-7.45c-.73.88.74-3.3.59-4a6.59,6.59,0,0,0-1,1.93c-.4,1-.85,2.26-1.4,3.54a26.46,26.46,0,0,1-3.16,6.13,49.16,49.16,0,0,0,1.55-5.64c1.93-6.76,3.44-12.08,4.05-18.82-.67.19-1.18,4.27-1.95,5.6.12-2.11.51-5.11.39-5.66a23.35,23.35,0,0,1-1.22,4.61c.08-2.52-.36-.21-.4-1.91.08-3.12.7-3.93.38-5.54-.15,1.41-.26,2.64-.48,3.7a24.21,24.21,0,0,1-.69,2.68,5.87,5.87,0,0,1-.11,1.83c-.36,1.23-.87,2.51-1.3,3.6a7.49,7.49,0,0,1-1.39,2.32,9.65,9.65,0,0,0,.51-3.57c-.08-.54-.29-.64-.45-.94a24.05,24.05,0,0,0,.38-5.25c-.16,1.66-.45,1.55-.71,4.32a16.42,16.42,0,0,0-1.91,5.79c.52-2.25,1.11-2.13.58.15-.8,2-2,5.88-3.74,9.7-.2,1.18,1.76-3,.79-.59-.62.78-2.38,4.42-2.55,3.58-1.27,2.18-1.06,2.45-2.47,4.57a9.24,9.24,0,0,1-1.14,1.34,25.55,25.55,0,0,0-1.58,2,29.61,29.61,0,0,1-7.09,7.55,3.92,3.92,0,0,1-1.56.81,28.29,28.29,0,0,1-4.55,3.36l-4.69,2.76c-2,.92-2.82.91-5.58,2.09a40,40,0,0,1-4.66,2,50.19,50.19,0,0,1-8,3.06c-2.71.77-4.3,1.57-8.58,1.84a25.12,25.12,0,0,1-3.72-.2c-1-.15-1.89-.31-3.27-.45a11.36,11.36,0,0,1-3.68-.21,43.76,43.76,0,0,1-4.94-1.22c.68.63-.09.56.65,1-.91-.14-1.69-.34-2.46-.48s-1.52-.3-2.33-.53a24.14,24.14,0,0,1-2.72-.84L65,174.18l-1.9-.89a5.17,5.17,0,0,0-2.3-1.4c-2.29-2.08-8.4-6.33-14.15-11.92a24.19,24.19,0,0,1-4.87-7.23,31.83,31.83,0,0,1-4.31-7.28l-.74-1.63c-.23-.54-.45-1.07-.69-1.59-.51-1-1-2.06-1.57-3.07.24.63.59,2.58,0,.93a43.3,43.3,0,0,1-2.34-8c-.49-2.32-.83-4.6-1.29-7.92-.16-1.19-.47-.09-.61-1.69a5.33,5.33,0,0,0-.07-1.74c.39-2.28,1-.52,1.5-5.14a43.8,43.8,0,0,1,1.59-11.79c0,.66.31-.25.58-1.16s.61-1.8.61-1.14c.71-2,1.26-3.48,1.79-4.88L37,94.5c.34-.73.74-1.5,1.21-2.39.25-1.15-1.87,2.83-.81.54a40.63,40.63,0,0,1,4.64-6.89c.75-1,1.62-1.85,2.45-2.83S46.3,81,47.38,80c2.54-3,5.18-4.8,8.25-7.26,0-.23-.51-.18.42-.89a106.29,106.29,0,0,1,9.81-5.11c-.21-.27-1.79.08-3.1.41s-2.37.58-1.56-.17c.57-.17,1.21-.43,1.89-.66l2.06-.66A6.22,6.22,0,0,1,68,65.19c1.26-.45,2.38-.8,3.41-1.12s2-.57,2.87-.77,1.76-.41,2.64-.57,1.76-.3,2.71-.43a33,33,0,0,1,6.82-1.19c1.25-.25,1.27-.7,3.49-.72a7.51,7.51,0,0,1,3,.59c.51.25.75.5,1.28.76a31.15,31.15,0,0,1,8.44,1.64c1.47.33,1.49-.07,3.44.52a43.87,43.87,0,0,1,5.26,3c2.89,1.45,6.47,3.58,7.88,5a24.5,24.5,0,0,1,3.49,2.56l1.17,1.05c.38.36.76.75,1.22,1.17a19.2,19.2,0,0,1,4.14,4.18,24.11,24.11,0,0,1,4.41,4.7,52,52,0,0,1,4.19,6.68c.74.86.67.39.42-.43a11.17,11.17,0,0,1-.75-2.33c-.31-1.13,1.69,2,.51-.31a4.14,4.14,0,0,1-.92-1.47c.88.61,2.52,3.12,4,6.09a85,85,0,0,1,3.58,8.63c.39-.76-1.74-5.95-.38-4.56a21.65,21.65,0,0,1-1.13-3.37,18.93,18.93,0,0,0-.33-1.88c-.7-1.34-1.36-2.71-2.14-4a4.38,4.38,0,0,0-.49-1.54c-.33-.68-.78-1.51-1.28-2.39l-1.66-2.61c-.58-.83-1.11-1.61-1.51-2.27-.31,0-1.22-1-2.61-2.61a43.68,43.68,0,0,0-6.51-6.53,4.3,4.3,0,0,0-1-1.31c-.58-.57-1.37-1.19-2.2-1.87s-1.77-1.29-2.58-1.9-1.59-1.1-2.09-1.53c1.11.66,1.83,1,2.49,1.32,1.45,1,.37.64,2.3,1.64-.81-.27,2.26,2.15,2.15,1.83-1.31-1.18-.82-1,.12-.5s2.24,1.44,2.62,1.59c-1.84-1.87-3.31-2.34-5.48-3.74a15.53,15.53,0,0,0-3.1-2.19,24.54,24.54,0,0,1-2.77-.84,8,8,0,0,0-1.83-1.09c-.87-.41-1.66-.8-1.41-.87-.71-.34-1.44-.65-2.18-.92s-1.46-.6-2.21-.85c-.51-.29-1.25-.62-2.07-1s-1.77-.64-2.67-1-1.8-.56-2.54-.83A11,11,0,0,1,100.6,56c-3.53-.72-2.13.06-4.8-.26-3-.45-2,.13-3.82,0a35.24,35.24,0,0,0-7.6-.48c-1,0-.33-.43-2.89-.13-2.31.45,1.74.14-.9.6l-3.19.37a2.58,2.58,0,0,1-1,0c-.35-.1-.44-.37-2.53,0,2.18-.47,1-.58,2.77-.93.42-.09,1-.19,1.59-.29l1.88-.22a9.82,9.82,0,0,0,2.29-.38,24.15,24.15,0,0,1-2.92.21c.51-.12,1.18-.24,1.88-.33s1.44-.1,2.09-.11c1.3,0,2.24.13,1.86.39a44.58,44.58,0,0,1,6.73.65c.15-.23,2.44-.14,4.8.23.13-.11.33-.28,1.94,0a10.65,10.65,0,0,1,2.5-.1,29,29,0,0,1,4.32.74c1.76.74,5.11,2,5.28,2.59,3.3,1.27,3.57,1,5.58,1.73l2.79,1.32c.9.49,1.91,1,3.24,1.87,2,1.47-1.07,0,.5,1a6.64,6.64,0,0,1,1.75.86c2.33,1.77,2.52,2.28,5.89,5,1.35,1.52,3,3.48,4.8,5.65a78.44,78.44,0,0,1,5.08,7.25c.17,1,1.75,3.79,2.15,5.3.89,1.79,1.84,4,2.77,6.37a74.81,74.81,0,0,1,2.43,7.83A86.91,86.91,0,0,1,150.2,119h.48c.06-2.06-.08-3.77.28-4.71-.13-1.49-.27-2.6-.35-3.48s-.09-1.55-.13-2.14a21,21,0,0,0-.33-3.82c0-.81,0-1.3.37-1.07-.24-1.08-.54-2-.72-2.72l-.47-1.93c1,1.1-.48-2.9-.63-3.88-1.28-2.21-2.64-5.14-4.21-8.17a54.32,54.32,0,0,0-5.39-8.68,24.71,24.71,0,0,0-1.89-3.54,105.07,105.07,0,0,0-7.94-8.07,48.87,48.87,0,0,0-8.43-6.34A9.59,9.59,0,0,0,118.68,59a11.6,11.6,0,0,1-2-1.34c-2.62-1.3-6.15-2.44-7.49-3.07-.12.39-3.52-.61-5-.68a9,9,0,0,1,2.84,1A33.14,33.14,0,0,0,100.17,53c-3.1-.18-1.7.35-4.08.35-2.63-.5-7.25-.36-10.83,0-.62,0-1.39,0-2.24,0s-1.78,0-2.7.06a23.75,23.75,0,0,0-4.9.67,14,14,0,0,1,2.77,0,19,19,0,0,0,2.24.23,18.12,18.12,0,0,0-3.18.6c-.85.24-1.76.41-3.5.79-1.63,0-.61-.53-.24-1.05A37.82,37.82,0,0,0,65,57.12c.13-.29-1.13.16-1.1-.08a64.54,64.54,0,0,0-8.31,3.7,52.51,52.51,0,0,0-9,6,37.16,37.16,0,0,0-7.49,6.62c-1.4.93-3.71,3.47-4.65,4,1.09-1.24.59-1.66-.38-.29a7.53,7.53,0,0,1-.56,1.07q-.37.68-1,1.6c-1.37,1.61-1.58,1.45-1.71,1s-.09-1.08-.84-.25c-1.74,3.35.73.31-.65,3.27-1.8,1.38-2.8,1.56-2.69-.37-.22,0-1.43,2.31-1.37,1.68s.28-1.6-.31-1.4a55.35,55.35,0,0,1,3.45-6.82c-1.19,1.69-1.46,1.93-2.52,3.58-.3-.08-1.23,1.34-2.14,2.74S22.06,86,21.83,85.79c-.68,1.19-1.29,2.64-2,4.1s-1.25,3-1.73,4.54-.95,2.91-1.24,4.14-.57,2.21-.67,2.86C17.25,97.91,16,103.74,16.56,102.64Zm111.39,71c-.57-.16,3.21-3,1.74-2.68.9-.58,2-1.5,3-2.31s1.9-1.65,2.49-2.05c.64-.06-.22,1.33-1.73,2.94A19.67,19.67,0,0,1,127.95,173.69ZM57.9,179.58a33.38,33.38,0,0,1-3.1-1.92l-3.72-2.43c-2.49-2.38-4.26-4.4-7.65-8A17.55,17.55,0,0,1,40,163.76c-1.11-1.47.77.37.53-.49,2.16,2.62,5.29,5.42,6.84,7,2,1.54,1.77.88,2,.64a7.91,7.91,0,0,1,1.44,1.33c1,.64,1.44.78,1.54.7s-.13-.38-.34-.73a17.76,17.76,0,0,0,2.83,1.92c1.07.53,2.23,1.21,3.79,2A30.07,30.07,0,0,0,61.48,178a36.39,36.39,0,0,0,3.89,1.89c1.53.62,1.76.51,1.91.42l1.61.57,1.41.46c.88.29,1.64.6,2.39.82l2.24.71c.78.22,1.61.41,2.58.62,1.61.16,1.13-.35,2-.43,1.63.25,1.82.14,1.94,0,1.89.24,2.54.52,2.85.82,1.77.06,3.07.09,4.12.15s1.87.08,2.69.14c.21.36-1.24.56-2.76.75s-3.11.23-3.16.57a64.83,64.83,0,0,1-8.45-1.22l-1.9-.43-1.67-.51a13.27,13.27,0,0,1-2.47-1,29.36,29.36,0,0,0-3.93-1,13,13,0,0,1-1.31-.29,7.1,7.1,0,0,1-1.37-.65c-1.67-.51-2.92-.94-3.83-1.12-1.21,0,3,1.84.61,1.06.26.34-.69,0-1.6-.41S57.52,179.13,57.9,179.58Zm68-5.31c.15-.33,2-1.49,3.16-2.46C129,172.23,127.07,173.64,125.89,174.27Zm2.16-2.13c.45-.26-.48.55-.74.68C126.86,173.07,127.81,172.29,128,172.14ZM67.89,59.52a7.66,7.66,0,0,1,1.75-.71A9.45,9.45,0,0,1,67.89,59.52Zm26.57,119a42.88,42.88,0,0,1-5.37-.06,6,6,0,0,1,1.86-.34c.82-.07,1.76-.16,2.55-.16C95.1,177.93,96.13,178,94.47,178.51Zm48.43-39a7.18,7.18,0,0,1-.53,1.67A7,7,0,0,1,142.89,139.52ZM80.39,54c-.51,0,.69-.24,1-.24C81.86,53.75,80.66,54,80.39,54Z" transform="translate(-15.15 -49.62)" style="fill:#fff;fill-rule:evenodd"/><text transform="translate(40.99 81.14)" style="font-size:24px;fill:#f5ae1b;font-family:SummerHearts-Regular, Summer Hearts">bri<tspan x="29.76" y="0" style="letter-spacing:-0.019999186197916668em">e</tspan><tspan x="39.36" y="0">f</tspan></text><circle cx="233.55" cy="69.37" r="65.14" style="fill:#fff"/><path d="M190.84,79.54c-.36.4.31-.71.51-.93C191.72,78.21,191,79.33,190.84,79.54Z" transform="translate(-15.15 -49.62)" style="fill:#fff;fill-rule:evenodd"/><path d="M187.45,152c.19.51-.48-.6-.58-.87C186.68,150.57,187.35,151.68,187.45,152Z" transform="translate(-15.15 -49.62)" style="fill:#fff;fill-rule:evenodd"/><path d="M194.26,76.89c-.38.38.34-.68.55-.89C195.18,75.63,194.46,76.69,194.26,76.89Z" transform="translate(-15.15 -49.62)" style="fill:#fff;fill-rule:evenodd"/><path d="M220.13,178.31c.43.28-.7-.18-.93-.34C218.77,177.69,219.9,178.16,220.13,178.31Z" transform="translate(-15.15 -49.62)" style="fill:#fff;fill-rule:evenodd"/><path d="M271.29,58.81c-.44-.24.7.11.93.24C272.66,59.29,271.52,58.93,271.29,58.81Z" transform="translate(-15.15 -49.62)" style="fill:#fff;fill-rule:evenodd"/><path d="M271.2,59c-.44-.24.69.11.93.24C272.57,59.51,271.43,59.16,271.2,59Z" transform="translate(-15.15 -49.62)" style="fill:#fff;fill-rule:evenodd"/><path d="M248.7,55.07a1.54,1.54,0,0,1,1,0A1.51,1.51,0,0,1,248.7,55.07Z" transform="translate(-15.15 -49.62)" style="fill:#fff;fill-rule:evenodd"/><path d="M253.47,55.27a8,8,0,0,1,1.92,0A9.39,9.39,0,0,1,253.47,55.27Z" transform="translate(-15.15 -49.62)" style="fill:#fff;fill-rule:evenodd"/><path d="M277.34,61.72l1.7.87-.11.21-1.7-.87Z" transform="translate(-15.15 -49.62)" style="fill:#fff;fill-rule:evenodd"/><path d="M272,59.72c-.43-.24.7.11.93.24C273.33,60.19,272.19,59.84,272,59.72Z" transform="translate(-15.15 -49.62)" style="fill:#fff;fill-rule:evenodd"/><path d="M194.47,103.14a1.2,1.2,0,0,1,.23-.81A1.19,1.19,0,0,1,194.47,103.14Z" transform="translate(-15.15 -49.62)" style="fill:#fff;fill-rule:evenodd"/><path d="M177,102.64c.59-1,.74-1,.82.19.73-2.51.72.18.7.16.16.13,1.09-1.82.13,2.22-.55,1.13-.6.31-.64-.56s0-1.77-.55-.79a26.64,26.64,0,0,0-.83,3.17c-.14-.5.12-2.38-.2-2.27-.34,1.89-.64,3.36-.83,4.33.26.39.12,2,.18,3.57s.08,3,.42,3.06c0,1.41.07,2.58.19,3.61s.27,2,.41,2.86l1.17,6.34a57,57,0,0,1,2.12,5.43c.44,1.14.84,2.38,1.37,3.62l.76,1.9.85,1.89c.25,0,.55.3.95,1a32.05,32.05,0,0,1,1.67,3.5c.85,2.17,2.11,4.8,3,6.55,1.34,2-.67-1.92,1.33,1.6,1.54,2.32-.89-.32.68,2,.76.38,2.19,2.45,3.75,4.55a44.85,44.85,0,0,0,4.06,5c1.26,1,.62.28-.2-.69s-1.75-2.25-1.28-2.07A82,82,0,0,0,208.1,174a59.44,59.44,0,0,0,13.44,8.46c.18-.32-1.79-1.32-2.51-1.92a91.34,91.34,0,0,0,13.72,3.76l2.63.75,2.49.62a39.53,39.53,0,0,0,6.78.89c-.65-.59,2.34-.53,5.05-.73.1.32-1.67.28,0,.48a50.55,50.55,0,0,1-7.93.17c-1.37-.1-2.63-.16-3.59-.16s-1.6,0-1.75.22c.59.53,5.84,1.07,6.06,1.42,1.49,0,2.93.09,4.35.08.71,0,1.42,0,2.13,0l2.13,0c1.43,0,2.87-.1,4.36-.15s3-.23,4.6-.46c.86-.75,6.46-2,6.72-2.94a11.8,11.8,0,0,0,3.15-1.29,25.74,25.74,0,0,1,3.39-1.52c-.47.33-.91.65-1.31.95s-.75.53-1,.77c-.59.47-.94.86-1,1.13,4.4-1.22,7.17-2.17,9.09-2.47,1.17-.57,2.16-1,3.07-1.44l2.52-1.23a40.43,40.43,0,0,0,5.52-3.31,13.56,13.56,0,0,0,2.07-2.48,22.54,22.54,0,0,0,2.24-2.11,16.19,16.19,0,0,0,1.4-1.64c.76-1,1.42-1.91,2.52-3.33,2.75-3.29,3.27-4.67,6.44-9.25,1.38-2.93,2.76-5.87,4.95-11.09a42.38,42.38,0,0,0,2.94-7.45c-.73.88.74-3.3.59-4a6.59,6.59,0,0,0-1,1.93c-.4,1-.85,2.26-1.4,3.54a26.47,26.47,0,0,1-3.16,6.13,49.16,49.16,0,0,0,1.55-5.64c1.93-6.76,3.44-12.08,4.05-18.82-.67.19-1.18,4.27-1.95,5.6.12-2.11.51-5.11.39-5.66a23.35,23.35,0,0,1-1.22,4.61c.08-2.52-.36-.21-.4-1.91.08-3.12.7-3.93.38-5.54-.15,1.41-.26,2.64-.48,3.7a24.21,24.21,0,0,1-.69,2.68,5.87,5.87,0,0,1-.11,1.83c-.36,1.23-.87,2.51-1.3,3.6a7.49,7.49,0,0,1-1.39,2.32,9.65,9.65,0,0,0,.51-3.57c-.08-.54-.29-.64-.45-.94a24.05,24.05,0,0,0,.38-5.25c-.16,1.66-.45,1.55-.71,4.32a16.42,16.42,0,0,0-1.91,5.79c.52-2.25,1.11-2.13.58.15-.8,2-2,5.88-3.74,9.7-.2,1.18,1.76-3,.79-.59-.62.78-2.38,4.42-2.55,3.58-1.27,2.18-1.06,2.45-2.47,4.57a9.24,9.24,0,0,1-1.14,1.34,25.54,25.54,0,0,0-1.58,2,29.61,29.61,0,0,1-7.09,7.55,3.92,3.92,0,0,1-1.56.81,28.29,28.29,0,0,1-4.55,3.36l-4.69,2.76c-2,.92-2.82.91-5.58,2.09a40,40,0,0,1-4.66,2,50.19,50.19,0,0,1-8,3.06c-2.71.77-4.3,1.57-8.58,1.84a25.12,25.12,0,0,1-3.72-.2c-1-.15-1.89-.31-3.27-.45a11.36,11.36,0,0,1-3.68-.21,43.76,43.76,0,0,1-4.94-1.22c.68.63-.09.56.65,1-.91-.14-1.69-.34-2.46-.48s-1.52-.3-2.33-.53a24.14,24.14,0,0,1-2.72-.84l-1.66-.63-1.9-.89a5.17,5.17,0,0,0-2.3-1.4c-2.29-2.08-8.4-6.33-14.15-11.92a24.19,24.19,0,0,1-4.87-7.23,31.83,31.83,0,0,1-4.31-7.28l-.74-1.63c-.23-.54-.45-1.07-.69-1.59-.51-1-1-2.06-1.57-3.07.24.63.59,2.58,0,.93a43.3,43.3,0,0,1-2.34-8c-.49-2.32-.83-4.6-1.29-7.92-.16-1.19-.47-.09-.61-1.69a5.33,5.33,0,0,0-.07-1.74c.39-2.28,1-.52,1.5-5.14a43.8,43.8,0,0,1,1.59-11.79c0,.66.31-.25.58-1.16s.61-1.8.61-1.14c.71-2,1.26-3.48,1.79-4.88l.88-2.12c.34-.73.74-1.5,1.21-2.39.25-1.15-1.87,2.83-.81.54a40.63,40.63,0,0,1,4.64-6.89c.75-1,1.62-1.85,2.45-2.83s1.79-1.93,2.88-3c2.54-3,5.18-4.8,8.25-7.26,0-.23-.51-.18.42-.89a106.29,106.29,0,0,1,9.81-5.11c-.21-.27-1.79.08-3.1.41s-2.37.58-1.56-.17c.57-.17,1.21-.43,1.89-.66l2.06-.66a6.22,6.22,0,0,1,2.87-.42c1.26-.45,2.38-.8,3.41-1.12s2-.57,2.87-.77,1.76-.41,2.64-.57,1.76-.3,2.71-.43A33,33,0,0,1,247,61.1c1.25-.25,1.27-.7,3.49-.72a7.51,7.51,0,0,1,3,.59c.51.25.75.5,1.28.76a31.15,31.15,0,0,1,8.44,1.64c1.47.33,1.49-.07,3.44.52a43.87,43.87,0,0,1,5.26,3c2.89,1.45,6.47,3.58,7.88,5a24.5,24.5,0,0,1,3.49,2.56l1.17,1.05c.38.36.76.75,1.22,1.17a19.2,19.2,0,0,1,4.14,4.18,24.11,24.11,0,0,1,4.41,4.7,52,52,0,0,1,4.19,6.68c.74.86.67.39.42-.43a11.17,11.17,0,0,1-.75-2.33c-.31-1.13,1.69,2,.51-.31a4.14,4.14,0,0,1-.92-1.47c.88.61,2.52,3.12,4,6.09a85,85,0,0,1,3.58,8.63c.39-.76-1.74-5.95-.38-4.56a21.65,21.65,0,0,1-1.13-3.37,18.93,18.93,0,0,0-.33-1.88c-.7-1.34-1.36-2.71-2.14-4a4.38,4.38,0,0,0-.49-1.54c-.33-.68-.78-1.51-1.28-2.39l-1.66-2.61c-.58-.83-1.11-1.61-1.51-2.27-.31,0-1.22-1-2.61-2.61a43.68,43.68,0,0,0-6.51-6.53,4.3,4.3,0,0,0-1-1.31c-.58-.57-1.37-1.19-2.2-1.87s-1.77-1.29-2.58-1.9-1.59-1.1-2.09-1.53c1.11.66,1.83,1,2.49,1.32,1.45,1,.37.64,2.3,1.64-.81-.27,2.26,2.15,2.15,1.83-1.31-1.18-.82-1,.12-.5S288.61,69.84,289,70c-1.84-1.87-3.31-2.34-5.48-3.74a15.53,15.53,0,0,0-3.1-2.19,24.54,24.54,0,0,1-2.77-.84,8,8,0,0,0-1.83-1.09c-.87-.41-1.66-.8-1.41-.87-.71-.34-1.44-.65-2.18-.92s-1.46-.6-2.21-.85c-.51-.29-1.25-.62-2.07-1s-1.77-.64-2.67-1-1.8-.56-2.54-.83A11,11,0,0,1,261.1,56c-3.53-.72-2.13.06-4.8-.26-3-.45-2,.13-3.82,0a35.24,35.24,0,0,0-7.6-.48c-1,0-.33-.43-2.89-.13-2.31.45,1.74.14-.9.6l-3.19.37a2.58,2.58,0,0,1-1,0c-.35-.1-.44-.37-2.53,0,2.18-.47,1-.58,2.77-.93.42-.09,1-.19,1.59-.29l1.88-.22a9.82,9.82,0,0,0,2.29-.38,24.15,24.15,0,0,1-2.92.21c.51-.12,1.18-.24,1.88-.33s1.44-.1,2.09-.11c1.3,0,2.24.13,1.86.39a44.58,44.58,0,0,1,6.73.65c.15-.23,2.44-.14,4.8.23.13-.11.33-.28,1.94,0a10.65,10.65,0,0,1,2.5-.1,29,29,0,0,1,4.32.74c1.76.74,5.11,2,5.28,2.59,3.3,1.27,3.57,1,5.58,1.73l2.79,1.32c.9.49,1.91,1,3.24,1.87,2,1.47-1.07,0,.5,1a6.64,6.64,0,0,1,1.75.86c2.33,1.77,2.52,2.28,5.89,5,1.35,1.52,3,3.48,4.8,5.65A78.45,78.45,0,0,1,301,83.32c.17,1,1.75,3.79,2.15,5.3.89,1.79,1.84,4,2.77,6.37a74.81,74.81,0,0,1,2.43,7.83A86.91,86.91,0,0,1,310.7,119h.48c.06-2.06-.08-3.77.28-4.71-.13-1.49-.27-2.6-.35-3.48s-.09-1.55-.13-2.14a21,21,0,0,0-.33-3.82c0-.81,0-1.3.37-1.07-.24-1.08-.54-2-.72-2.72l-.47-1.93c1,1.1-.48-2.9-.63-3.88-1.28-2.21-2.64-5.14-4.21-8.17a54.32,54.32,0,0,0-5.39-8.68,24.71,24.71,0,0,0-1.89-3.54,105.07,105.07,0,0,0-7.94-8.07,48.87,48.87,0,0,0-8.43-6.34A9.59,9.59,0,0,0,279.17,59a11.6,11.6,0,0,1-2-1.34c-2.62-1.3-6.15-2.44-7.49-3.07-.12.39-3.52-.61-5-.68a9,9,0,0,1,2.84,1A33.14,33.14,0,0,0,260.66,53c-3.1-.18-1.7.35-4.08.35-2.63-.5-7.25-.36-10.83,0-.62,0-1.39,0-2.24,0s-1.78,0-2.7.06a23.75,23.75,0,0,0-4.9.67,14,14,0,0,1,2.77,0,19,19,0,0,0,2.24.23,18.12,18.12,0,0,0-3.18.6c-.85.24-1.76.41-3.5.79-1.63,0-.61-.53-.24-1.05a37.82,37.82,0,0,0-8.52,2.54c.13-.29-1.13.16-1.1-.08a64.54,64.54,0,0,0-8.31,3.7,52.51,52.51,0,0,0-9,6,37.16,37.16,0,0,0-7.49,6.62c-1.4.93-3.71,3.47-4.65,4,1.09-1.24.59-1.66-.38-.29a7.53,7.53,0,0,1-.56,1.07q-.37.68-1,1.6c-1.37,1.61-1.58,1.45-1.71,1s-.09-1.08-.84-.25c-1.74,3.35.73.31-.65,3.27-1.8,1.38-2.8,1.56-2.69-.37-.22,0-1.43,2.31-1.37,1.68s.28-1.6-.31-1.4a55.35,55.35,0,0,1,3.45-6.82c-1.19,1.69-1.46,1.93-2.52,3.58-.3-.08-1.23,1.34-2.14,2.74s-1.69,2.81-1.92,2.58c-.68,1.19-1.29,2.64-2,4.1s-1.25,3-1.73,4.54-.95,2.91-1.24,4.14-.57,2.21-.67,2.86C177.74,97.91,176.47,103.74,177,102.64Zm111.39,71c-.57-.16,3.21-3,1.74-2.68.9-.58,2-1.5,3-2.31s1.9-1.65,2.49-2.05c.64-.06-.22,1.33-1.73,2.94A19.67,19.67,0,0,1,288.44,173.69Zm-70.05,5.89a33.38,33.38,0,0,1-3.1-1.92l-3.72-2.43c-2.49-2.38-4.26-4.4-7.65-8a17.55,17.55,0,0,1-3.48-3.48c-1.11-1.47.77.37.53-.49,2.16,2.62,5.29,5.42,6.84,7,2,1.54,1.77.88,2,.64a7.91,7.91,0,0,1,1.44,1.33c1,.64,1.44.78,1.54.7s-.13-.38-.34-.73a17.76,17.76,0,0,0,2.83,1.92c1.07.53,2.23,1.21,3.79,2A30.07,30.07,0,0,0,222,178a36.39,36.39,0,0,0,3.89,1.89c1.53.62,1.76.51,1.91.42l1.61.57,1.41.46c.88.29,1.64.6,2.39.82l2.24.71c.78.22,1.61.41,2.58.62,1.61.16,1.13-.35,2-.43,1.63.25,1.82.14,1.94,0,1.89.24,2.54.52,2.85.82,1.77.06,3.07.09,4.12.15s1.87.08,2.69.14c.21.36-1.24.56-2.76.75s-3.11.23-3.16.57a64.83,64.83,0,0,1-8.45-1.22l-1.9-.43-1.67-.51a13.27,13.27,0,0,1-2.47-1,29.36,29.36,0,0,0-3.93-1A13,13,0,0,1,226,181a7.1,7.1,0,0,1-1.37-.65c-1.67-.51-2.92-.94-3.83-1.12-1.21,0,3,1.84.61,1.06.26.34-.69,0-1.6-.41S218,179.13,218.39,179.58Zm68-5.31c.15-.33,2-1.49,3.16-2.46C289.52,172.23,287.57,173.64,286.39,174.27Zm2.16-2.13c.45-.26-.48.55-.74.68C287.35,173.07,288.31,172.29,288.54,172.14ZM228.39,59.52a7.66,7.66,0,0,1,1.75-.71A9.45,9.45,0,0,1,228.39,59.52Zm26.57,119a42.88,42.88,0,0,1-5.37-.06,6,6,0,0,1,1.86-.34c.82-.07,1.76-.16,2.55-.16C255.59,177.93,256.62,178,255,178.51Zm48.43-39a7.18,7.18,0,0,1-.53,1.67A7,7,0,0,1,303.39,139.52ZM240.88,54c-.51,0,.69-.24,1-.24C242.35,53.75,241.16,54,240.88,54Z" transform="translate(-15.15 -49.62)" style="fill:#fff;fill-rule:evenodd"/><text transform="translate(187.54 78.63)" style="font-size:24px;fill:#f5ae1b;font-family:SummerHearts-Regular, Summer Hearts"><tspan style="letter-spacing:-0.030008951822916668em">r</tspan><tspan x="10.56" y="0">es</tspan><tspan x="30.24" y="0" style="letter-spacing:-0.19999186197916666em">e</tspan><tspan x="35.52" y="0" style="letter-spacing:-0.059977213541666664em">ar</tspan><tspan x="60.65" y="0">ch</tspan></text><circle cx="398.66" cy="69.37" r="65.14" style="fill:#fff"/><path d="M356,79.54c-.36.4.31-.71.51-.93C356.83,78.21,356.15,79.33,356,79.54Z" transform="translate(-15.15 -49.62)" style="fill:#fff;fill-rule:evenodd"/><path d="M352.56,152c.19.51-.48-.6-.58-.87C351.79,150.57,352.46,151.68,352.56,152Z" transform="translate(-15.15 -49.62)" style="fill:#fff;fill-rule:evenodd"/><path d="M359.37,76.89c-.38.38.34-.68.55-.89C360.3,75.63,359.58,76.69,359.37,76.89Z" transform="translate(-15.15 -49.62)" style="fill:#fff;fill-rule:evenodd"/><path d="M385.24,178.31c.43.28-.7-.18-.93-.34C383.88,177.69,385,178.16,385.24,178.31Z" transform="translate(-15.15 -49.62)" style="fill:#fff;fill-rule:evenodd"/><path d="M436.4,58.81c-.44-.24.7.11.93.24C437.77,59.29,436.63,58.93,436.4,58.81Z" transform="translate(-15.15 -49.62)" style="fill:#fff;fill-rule:evenodd"/><path d="M436.31,59c-.44-.24.69.11.93.24C437.69,59.51,436.55,59.16,436.31,59Z" transform="translate(-15.15 -49.62)" style="fill:#fff;fill-rule:evenodd"/><path d="M413.81,55.07a1.54,1.54,0,0,1,1,0A1.51,1.51,0,0,1,413.81,55.07Z" transform="translate(-15.15 -49.62)" style="fill:#fff;fill-rule:evenodd"/><path d="M418.59,55.27a8,8,0,0,1,1.92,0A9.39,9.39,0,0,1,418.59,55.27Z" transform="translate(-15.15 -49.62)" style="fill:#fff;fill-rule:evenodd"/><path d="M442.45,61.72l1.7.87-.11.21-1.7-.87Z" transform="translate(-15.15 -49.62)" style="fill:#fff;fill-rule:evenodd"/><path d="M437.07,59.72c-.43-.24.7.11.93.24C438.44,60.19,437.3,59.84,437.07,59.72Z" transform="translate(-15.15 -49.62)" style="fill:#fff;fill-rule:evenodd"/><path d="M359.58,103.14a1.2,1.2,0,0,1,.23-.81A1.2,1.2,0,0,1,359.58,103.14Z" transform="translate(-15.15 -49.62)" style="fill:#fff;fill-rule:evenodd"/><path d="M342.16,102.64c.59-1,.74-1,.82.19.73-2.51.72.18.7.16.16.13,1.09-1.82.13,2.22-.55,1.13-.6.31-.64-.56s0-1.77-.55-.79a26.64,26.64,0,0,0-.83,3.17c-.14-.5.12-2.38-.2-2.27-.34,1.89-.64,3.36-.83,4.33.26.39.12,2,.18,3.57s.08,3,.42,3.06c0,1.41.07,2.58.19,3.61s.27,2,.41,2.86l1.17,6.34a57,57,0,0,1,2.12,5.43c.44,1.14.84,2.38,1.37,3.62l.76,1.9.85,1.89c.25,0,.55.3.95,1a32,32,0,0,1,1.67,3.5c.85,2.17,2.11,4.8,3,6.55,1.34,2-.67-1.92,1.33,1.6,1.54,2.32-.89-.32.68,2,.76.38,2.19,2.45,3.75,4.55a44.85,44.85,0,0,0,4.06,5c1.26,1,.62.28-.2-.69s-1.75-2.25-1.28-2.07A82,82,0,0,0,373.21,174a59.44,59.44,0,0,0,13.44,8.46c.18-.32-1.79-1.32-2.51-1.92a91.34,91.34,0,0,0,13.72,3.76l2.63.75,2.49.62a39.53,39.53,0,0,0,6.78.89c-.65-.59,2.34-.53,5.05-.73.1.32-1.67.28,0,.48a50.56,50.56,0,0,1-7.93.17c-1.37-.1-2.63-.16-3.59-.16s-1.6,0-1.75.22c.59.53,5.84,1.07,6.06,1.42,1.49,0,2.93.09,4.35.08.71,0,1.42,0,2.13,0l2.13,0c1.43,0,2.87-.1,4.36-.15s3-.23,4.6-.46c.86-.75,6.46-2,6.72-2.94a11.8,11.8,0,0,0,3.15-1.29,25.74,25.74,0,0,1,3.39-1.52c-.47.33-.91.65-1.31.95s-.75.53-1,.77c-.59.47-.94.86-1,1.13,4.4-1.22,7.17-2.17,9.09-2.47,1.17-.57,2.16-1,3.07-1.44l2.52-1.23a40.43,40.43,0,0,0,5.52-3.31,13.56,13.56,0,0,0,2.07-2.48,22.54,22.54,0,0,0,2.24-2.11,16.2,16.2,0,0,0,1.4-1.64c.76-1,1.42-1.91,2.52-3.33,2.75-3.29,3.27-4.67,6.44-9.25,1.38-2.93,2.76-5.87,4.95-11.09a42.38,42.38,0,0,0,2.94-7.45c-.73.88.74-3.3.59-4a6.59,6.59,0,0,0-1,1.93c-.4,1-.85,2.26-1.4,3.54a26.46,26.46,0,0,1-3.16,6.13,49.16,49.16,0,0,0,1.55-5.64c1.93-6.76,3.44-12.08,4.05-18.82-.67.19-1.18,4.27-1.95,5.6.12-2.11.51-5.11.39-5.66a23.35,23.35,0,0,1-1.22,4.61c.08-2.52-.36-.21-.4-1.91.08-3.12.7-3.93.38-5.54-.15,1.41-.26,2.64-.48,3.7a24.21,24.21,0,0,1-.69,2.68,5.87,5.87,0,0,1-.11,1.83c-.36,1.23-.87,2.51-1.3,3.6a7.49,7.49,0,0,1-1.39,2.32,9.65,9.65,0,0,0,.51-3.57c-.08-.54-.29-.64-.45-.94a24.05,24.05,0,0,0,.38-5.25c-.16,1.66-.45,1.55-.71,4.32a16.42,16.42,0,0,0-1.91,5.79c.52-2.25,1.11-2.13.58.15-.8,2-2,5.88-3.74,9.7-.2,1.18,1.76-3,.79-.59-.62.78-2.38,4.42-2.55,3.58-1.27,2.18-1.06,2.45-2.47,4.57a9.24,9.24,0,0,1-1.14,1.34,25.54,25.54,0,0,0-1.58,2,29.61,29.61,0,0,1-7.09,7.55,3.92,3.92,0,0,1-1.56.81,28.29,28.29,0,0,1-4.55,3.36l-4.69,2.76c-2,.92-2.82.91-5.58,2.09a40,40,0,0,1-4.66,2,50.19,50.19,0,0,1-8,3.06c-2.71.77-4.3,1.57-8.58,1.84a25.12,25.12,0,0,1-3.72-.2c-1-.15-1.89-.31-3.27-.45a11.36,11.36,0,0,1-3.68-.21,43.76,43.76,0,0,1-4.94-1.22c.68.63-.09.56.65,1-.91-.14-1.69-.34-2.46-.48s-1.52-.3-2.33-.53a24.14,24.14,0,0,1-2.72-.84l-1.66-.63-1.9-.89a5.17,5.17,0,0,0-2.3-1.4c-2.29-2.08-8.4-6.33-14.15-11.92a24.19,24.19,0,0,1-4.87-7.23,31.83,31.83,0,0,1-4.31-7.28l-.74-1.63c-.23-.54-.45-1.07-.69-1.59-.51-1-1-2.06-1.57-3.07.24.63.59,2.58,0,.93a43.3,43.3,0,0,1-2.34-8c-.49-2.32-.83-4.6-1.29-7.92-.16-1.19-.47-.09-.61-1.69a5.33,5.33,0,0,0-.07-1.74c.39-2.28,1-.52,1.5-5.14a43.8,43.8,0,0,1,1.59-11.79c0,.66.32-.25.58-1.16s.61-1.8.61-1.14c.71-2,1.26-3.48,1.79-4.88l.88-2.12c.34-.73.74-1.5,1.21-2.39.25-1.15-1.87,2.83-.81.54a40.63,40.63,0,0,1,4.64-6.89c.75-1,1.62-1.85,2.45-2.83S371.9,81,373,80c2.54-3,5.18-4.8,8.25-7.26,0-.23-.51-.18.42-.89a106.29,106.29,0,0,1,9.81-5.11c-.21-.27-1.79.08-3.1.41s-2.37.58-1.56-.17c.57-.17,1.21-.43,1.89-.66l2.06-.66a6.22,6.22,0,0,1,2.87-.42c1.26-.45,2.38-.8,3.41-1.12s2-.57,2.87-.77,1.76-.41,2.64-.57,1.76-.3,2.71-.43a33,33,0,0,1,6.82-1.19c1.25-.25,1.27-.7,3.49-.72a7.51,7.51,0,0,1,3,.59c.51.25.75.5,1.28.76a31.15,31.15,0,0,1,8.44,1.64c1.47.33,1.49-.07,3.44.52a43.87,43.87,0,0,1,5.26,3c2.89,1.45,6.47,3.58,7.88,5a24.5,24.5,0,0,1,3.49,2.56l1.17,1.05c.38.36.76.75,1.22,1.17a19.2,19.2,0,0,1,4.14,4.18,24.11,24.11,0,0,1,4.41,4.7,52,52,0,0,1,4.19,6.68c.74.86.67.39.42-.43a11.17,11.17,0,0,1-.75-2.33c-.31-1.13,1.69,2,.51-.31a4.14,4.14,0,0,1-.92-1.47c.88.61,2.52,3.12,4,6.09a85,85,0,0,1,3.58,8.63c.39-.76-1.74-5.95-.38-4.56a21.65,21.65,0,0,1-1.13-3.37,18.93,18.93,0,0,0-.33-1.88c-.7-1.34-1.36-2.71-2.14-4a4.38,4.38,0,0,0-.49-1.54c-.33-.68-.78-1.51-1.28-2.39l-1.66-2.61c-.58-.83-1.11-1.61-1.51-2.27-.31,0-1.22-1-2.61-2.61a43.68,43.68,0,0,0-6.51-6.53,4.3,4.3,0,0,0-1-1.31c-.58-.57-1.37-1.19-2.2-1.87s-1.77-1.29-2.58-1.9-1.59-1.1-2.09-1.53c1.11.66,1.83,1,2.49,1.32,1.45,1,.37.64,2.3,1.64-.81-.27,2.26,2.15,2.15,1.83-1.31-1.18-.82-1,.12-.5s2.24,1.44,2.62,1.59c-1.84-1.87-3.31-2.34-5.48-3.74a15.53,15.53,0,0,0-3.1-2.19,24.54,24.54,0,0,1-2.77-.84,8,8,0,0,0-1.83-1.09c-.87-.41-1.66-.8-1.41-.87-.71-.34-1.44-.65-2.18-.92s-1.46-.6-2.21-.85c-.51-.29-1.25-.62-2.07-1s-1.77-.64-2.67-1-1.8-.56-2.54-.83a11,11,0,0,1-1.64-.68c-3.53-.72-2.13.06-4.8-.26-3-.45-2,.13-3.82,0a35.24,35.24,0,0,0-7.6-.48c-1,0-.33-.43-2.89-.13-2.31.45,1.74.14-.9.6l-3.19.37a2.58,2.58,0,0,1-1,0c-.35-.1-.44-.37-2.53,0,2.18-.47,1-.58,2.77-.93.42-.09,1-.19,1.59-.29l1.88-.22a9.82,9.82,0,0,0,2.29-.38,24.15,24.15,0,0,1-2.92.21c.51-.12,1.18-.24,1.88-.33S408.4,54,409,54c1.3,0,2.24.13,1.86.39a44.58,44.58,0,0,1,6.73.65c.15-.23,2.44-.14,4.8.23.13-.11.33-.28,1.94,0a10.65,10.65,0,0,1,2.5-.1,29,29,0,0,1,4.32.74c1.76.74,5.11,2,5.28,2.59,3.3,1.27,3.57,1,5.58,1.73l2.79,1.32c.9.49,1.91,1,3.24,1.87,2,1.47-1.07,0,.5,1a6.64,6.64,0,0,1,1.75.86c2.33,1.77,2.52,2.28,5.89,5,1.35,1.52,3,3.48,4.8,5.65a78.44,78.44,0,0,1,5.08,7.25c.17,1,1.75,3.79,2.15,5.3.89,1.79,1.84,4,2.77,6.37a74.82,74.82,0,0,1,2.43,7.83A86.91,86.91,0,0,1,475.81,119h.48c.06-2.06-.08-3.77.28-4.71-.13-1.49-.27-2.6-.35-3.48s-.09-1.55-.13-2.14a21,21,0,0,0-.33-3.82c0-.81,0-1.3.37-1.07-.24-1.08-.54-2-.72-2.72l-.47-1.93c1,1.1-.48-2.9-.63-3.88-1.28-2.21-2.64-5.14-4.21-8.17a54.31,54.31,0,0,0-5.39-8.68,24.71,24.71,0,0,0-1.89-3.54,105.08,105.08,0,0,0-7.94-8.07,48.87,48.87,0,0,0-8.43-6.34A9.59,9.59,0,0,0,444.29,59a11.6,11.6,0,0,1-2-1.34c-2.62-1.3-6.15-2.44-7.49-3.07-.12.39-3.52-.61-5-.68a9,9,0,0,1,2.84,1A33.14,33.14,0,0,0,425.78,53c-3.1-.18-1.7.35-4.08.35-2.63-.5-7.25-.36-10.83,0-.62,0-1.39,0-2.24,0s-1.78,0-2.7.06A23.75,23.75,0,0,0,401,54a14,14,0,0,1,2.77,0,19,19,0,0,0,2.24.23,18.12,18.12,0,0,0-3.18.6c-.85.24-1.76.41-3.5.79-1.63,0-.61-.53-.24-1.05a37.82,37.82,0,0,0-8.52,2.54c.13-.29-1.13.16-1.1-.08a64.54,64.54,0,0,0-8.31,3.7,52.51,52.51,0,0,0-9,6,37.16,37.16,0,0,0-7.49,6.62c-1.4.93-3.71,3.47-4.65,4,1.09-1.24.59-1.66-.38-.29a7.53,7.53,0,0,1-.56,1.07q-.37.68-1,1.6c-1.37,1.61-1.58,1.45-1.71,1s-.09-1.08-.84-.25c-1.74,3.35.73.31-.65,3.27-1.8,1.38-2.8,1.56-2.69-.37-.22,0-1.43,2.31-1.37,1.68s.28-1.6-.31-1.4A55.35,55.35,0,0,1,354,76.89c-1.19,1.69-1.46,1.93-2.52,3.58-.3-.08-1.23,1.34-2.14,2.74s-1.69,2.81-1.92,2.58c-.68,1.19-1.29,2.64-2,4.1s-1.25,3-1.73,4.54-.95,2.91-1.24,4.14-.57,2.21-.67,2.86C342.85,97.91,341.58,103.74,342.16,102.64Zm111.39,71c-.57-.16,3.21-3,1.74-2.68.9-.58,2-1.5,3-2.31s1.9-1.65,2.49-2.05c.64-.06-.22,1.33-1.73,2.94A19.67,19.67,0,0,1,453.55,173.69Zm-70.05,5.89a33.38,33.38,0,0,1-3.1-1.92l-3.72-2.43c-2.49-2.38-4.26-4.4-7.65-8a17.55,17.55,0,0,1-3.48-3.48c-1.11-1.47.77.37.53-.49,2.16,2.62,5.29,5.42,6.84,7,2,1.54,1.77.88,2,.64a7.91,7.91,0,0,1,1.44,1.33c1,.64,1.44.78,1.54.7s-.13-.38-.34-.73a17.76,17.76,0,0,0,2.83,1.92c1.07.53,2.23,1.21,3.79,2a30.07,30.07,0,0,0,2.93,1.82,36.39,36.39,0,0,0,3.89,1.89c1.53.62,1.76.51,1.91.42l1.61.57,1.41.46c.88.29,1.64.6,2.39.82l2.24.71c.78.22,1.61.41,2.58.62,1.61.16,1.13-.35,2-.43,1.63.25,1.82.14,1.94,0,1.89.24,2.54.52,2.85.82,1.77.06,3.07.09,4.12.15s1.87.08,2.69.14c.21.36-1.24.56-2.76.75s-3.11.23-3.16.57a64.83,64.83,0,0,1-8.45-1.22l-1.9-.43-1.67-.51a13.27,13.27,0,0,1-2.47-1,29.36,29.36,0,0,0-3.93-1,13,13,0,0,1-1.31-.29,7.11,7.11,0,0,1-1.37-.65c-1.67-.51-2.92-.94-3.83-1.12-1.21,0,3,1.84.61,1.06.26.34-.69,0-1.6-.41S383.13,179.13,383.5,179.58Zm68-5.31c.15-.33,2-1.49,3.16-2.46C454.63,172.23,452.68,173.64,451.5,174.27Zm2.16-2.13c.45-.26-.48.55-.74.68C452.46,173.07,453.42,172.29,453.66,172.14ZM393.5,59.52a7.66,7.66,0,0,1,1.75-.71A9.45,9.45,0,0,1,393.5,59.52Zm26.57,119a42.88,42.88,0,0,1-5.37-.06,6,6,0,0,1,1.86-.34c.82-.07,1.76-.16,2.55-.16C420.7,177.93,421.73,178,420.07,178.51Zm48.43-39a7.18,7.18,0,0,1-.53,1.67A7,7,0,0,1,468.5,139.52ZM406,54c-.51,0,.69-.24,1-.24C407.46,53.75,406.27,54,406,54Z" transform="translate(-15.15 -49.62)" style="fill:#fff;fill-rule:evenodd"/><text transform="translate(362.69 81.51)" style="font-size:24px;fill:#f5ae1b;font-family:SummerHearts-Regular, Summer Hearts">sketch</text><circle cx="742.06" cy="119.49" r="65.14" transform="translate(120.27 513.61) rotate(-45.33)" style="fill:#fff"/><path d="M755.47,188.21c.54,0-.72.28-1,.3C753.91,188.54,755.18,188.23,755.47,188.21Z" transform="translate(-15.15 -49.62)" style="fill:#fff;fill-rule:evenodd"/><path d="M808.79,139.1c.22-.5-.08.76-.2,1C808.37,140.62,808.67,139.37,808.79,139.1Z" transform="translate(-15.15 -49.62)" style="fill:#fff;fill-rule:evenodd"/><path d="M751.18,187.69c.54,0-.72.24-1,.25C749.63,187.94,750.89,187.69,751.18,187.69Z" transform="translate(-15.15 -49.62)" style="fill:#fff;fill-rule:evenodd"/><path d="M804.08,97.38c-.11-.5.37.62.42.9C804.6,98.78,804.14,97.65,804.08,97.38Z" transform="translate(-15.15 -49.62)" style="fill:#fff;fill-rule:evenodd"/><path d="M683.68,146.41c.14.48-.42-.57-.5-.83C683,145.1,683.61,146.15,683.68,146.41Z" transform="translate(-15.15 -49.62)" style="fill:#fff;fill-rule:evenodd"/><path d="M683.9,146.31c.15.48-.42-.57-.49-.83C683.26,145,683.83,146.05,683.9,146.31Z" transform="translate(-15.15 -49.62)" style="fill:#fff;fill-rule:evenodd"/><path d="M697.12,164.94a1.54,1.54,0,0,1-.66-.69A1.51,1.51,0,0,1,697.12,164.94Z" transform="translate(-15.15 -49.62)" style="fill:#fff;fill-rule:evenodd"/><path d="M693.86,161.44c-.1.05-.84-.82-1.34-1.37A9.38,9.38,0,0,1,693.86,161.44Z" transform="translate(-15.15 -49.62)" style="fill:#fff;fill-rule:evenodd"/><path d="M681.43,140.08l-.6-1.82.23-.07.6,1.81Z" transform="translate(-15.15 -49.62)" style="fill:#fff;fill-rule:evenodd"/><path d="M683.85,145.29c.14.48-.42-.57-.5-.83C683.21,144,683.77,145,683.85,145.29Z" transform="translate(-15.15 -49.62)" style="fill:#fff;fill-rule:evenodd"/><path d="M769.48,168.88a1.2,1.2,0,0,1-.73.42A1.19,1.19,0,0,1,769.48,168.88Z" transform="translate(-15.15 -49.62)" style="fill:#fff;fill-rule:evenodd"/><path d="M781.52,181.48c-1.15.33-1.23.19-.45-.71-2.29,1.27-.38-.63-.39-.61,0-.21-2.06.53,1.47-1.67,1.18-.42.65.2.07.85s-1.25,1.25-.16.95a26.64,26.64,0,0,0,2.82-1.67c-.25.46-1.75,1.61-1.45,1.75,1.57-1.11,2.82-1.95,3.63-2.5.09-.46,1.34-1.52,2.38-2.67s2.06-2.2,1.86-2.47c1-1,1.76-1.88,2.41-2.7s1.18-1.58,1.72-2.32l3.62-5.34a57,57,0,0,1,2.31-5.35c.49-1.12,1.08-2.28,1.57-3.54l.79-1.88.72-1.94c-.16-.19-.18-.6,0-1.39a32,32,0,0,1,1.27-3.66c.92-2.14,1.87-4.89,2.5-6.74.44-2.35-.88,1.83.18-2.07.54-2.73.41.85.91-1.9-.28-.8.17-3.28.53-5.87a44.85,44.85,0,0,0,.6-6.39c-.17-1.63-.24-.64-.34.63s-.34,2.83-.54,2.38a82,82,0,0,0,0-15.79A59.43,59.43,0,0,0,806,93.4c-.35.1.35,2.2.43,3.14a91.34,91.34,0,0,0-7.11-12.32L798,81.84l-1.33-2.2a39.54,39.54,0,0,0-4.19-5.4c0,.88-2-1.27-4.11-3,.16-.3,1.39,1,.33-.35a50.55,50.55,0,0,1,5.76,5.45c.91,1,1.76,2,2.44,2.64s1.15,1.12,1.4,1.08c0-.8-3.4-4.86-3.31-5.27-1-1.06-2-2.12-3-3.12-.51-.5-1-1-1.49-1.52l-1.53-1.48c-1-1-2.11-1.94-3.2-3s-2.31-2-3.6-2.9c-1.14-.07-6-3.1-6.85-2.63a11.8,11.8,0,0,0-3.14-1.3,25.74,25.74,0,0,1-3.48-1.3l1.6.24c.48.09.91.15,1.28.19a2.32,2.32,0,0,0,1.48-.13c-4-2.23-6.63-3.5-8.2-4.63-1.23-.41-2.26-.79-3.19-1.14l-2.66-.9a40.43,40.43,0,0,0-6.25-1.53,13.56,13.56,0,0,0-3.22.31,22.54,22.54,0,0,0-3.08-.07,16.2,16.2,0,0,0-2.15.19c-1.27.2-2.35.37-4.14.6-4.27.41-5.61,1-11.08,2.05-3,1.12-6.09,2.24-11.31,4.4a42.38,42.38,0,0,0-7.33,3.23c1.14-.11-2.85,1.83-3.22,2.42a6.59,6.59,0,0,0,2.07-.66c1-.43,2.19-1,3.48-1.53a26.46,26.46,0,0,1,6.56-2.14,49.15,49.15,0,0,0-5.07,2.93c-6.12,3.45-10.94,6.18-16.11,10.54.61.34,3.84-2.21,5.32-2.61-1.57,1.41-4,3.27-4.26,3.75a23.35,23.35,0,0,1,4.11-2.42c-1.83,1.74.11.4-1.06,1.64C700,74.47,699,74.61,698,76c1.1-.9,2-1.7,2.94-2.3a24.22,24.22,0,0,1,2.38-1.42A5.87,5.87,0,0,1,704.74,71c1.12-.63,2.39-1.17,3.45-1.65a7.49,7.49,0,0,1,2.63-.67,9.65,9.65,0,0,0-2.87,2.18c-.33.44-.24.66-.34,1a24,24,0,0,0-4,3.47c1.29-1.07,1.41-.78,3.54-2.57A16.42,16.42,0,0,0,712.61,70c-2,1.23-2.29.73-.31-.51,2-.85,5.54-2.79,9.48-4.27,1-.69-3.35.88-1-.14,1-.12,4.8-1.47,4.33-.76,2.44-.65,2.48-1,5-1.52a9.24,9.24,0,0,1,1.75-.15,25.54,25.54,0,0,0,2.55-.34,29.61,29.61,0,0,1,10.35-.39,3.92,3.92,0,0,1,1.68.52,28.29,28.29,0,0,1,5.6.81l5.28,1.33c2.1.78,2.65,1.34,5.44,2.44a40,40,0,0,1,4.72,1.86,50.19,50.19,0,0,1,7.87,3.47c2.47,1.35,4.17,1.91,7.39,4.72a25.12,25.12,0,0,1,2.51,2.76c.6.79,1.12,1.55,2,2.62a11.36,11.36,0,0,1,2.47,2.73,43.75,43.75,0,0,1,2.66,4.34c0-.93.46-.33.25-1.18.55.74,1,1.43,1.41,2.07s.87,1.28,1.29,2A24.14,24.14,0,0,1,796.66,95l.73,1.61.73,2a5.17,5.17,0,0,0,.65,2.61c.17,3.09,1.53,10.41,1.69,18.43a24.19,24.19,0,0,1-1.61,8.57,31.83,31.83,0,0,1-2,8.21l-.62,1.68c-.22.54-.43,1.08-.63,1.62-.36,1.09-.77,2.14-1,3.29.28-.62,1.39-2.25.67-.65a43.3,43.3,0,0,1-4,7.35c-1.28,2-2.64,3.86-4.65,6.54-.72,1,.27.39-.76,1.63-.22.05-.69.68-1.18,1.29-1.88,1.35-1.11-.37-4.68,2.6a43.8,43.8,0,0,1-9.42,7.27c.43-.5-.4,0-1.23.42s-1.7.85-1.24.38c-1.94,1-3.34,1.59-4.7,2.21l-2.12.88c-.75.27-1.58.54-2.54.85-1,.64,3.32-.7,1,.19a40.63,40.63,0,0,1-8.14,1.64c-1.23.17-2.45.18-3.73.29s-2.63.11-4.13.08c-3.92.35-7.06-.23-11-.63-.17.15.23.48-.92.34a106.29,106.29,0,0,1-10.57-3.26c0,.34,1.33,1.2,2.49,1.89s2.09,1.25,1,1.22c-.52-.28-1.16-.55-1.81-.86l-1.93-1a6.22,6.22,0,0,1-2.34-1.72c-1.21-.57-2.26-1.11-3.21-1.6s-1.8-1-2.59-1.47-1.54-.94-2.28-1.44-1.46-1-2.23-1.6a33,33,0,0,1-5.69-3.95c-1.06-.7-1.39-.4-3-1.94a7.51,7.51,0,0,1-1.71-2.52c-.19-.54-.18-.88-.38-1.44a31.15,31.15,0,0,1-4.85-7.1c-.82-1.27-1.11-1-2.08-2.79a43.86,43.86,0,0,1-1.6-5.87c-1-3.06-2.08-7.09-2.09-9.09a24.5,24.5,0,0,1-.68-4.27l-.09-1.57c0-.52,0-1.07,0-1.69a19.2,19.2,0,0,1,0-5.88,24.11,24.11,0,0,1,.17-6.44,52,52,0,0,1,1.72-7.7c.08-1.13-.2-.75-.6,0a11.17,11.17,0,0,1-1.1,2.18c-.58,1,.17-2.58-.58-.14a4.14,4.14,0,0,1-.38,1.69c-.2-1.05.4-4,1.41-7.16a85,85,0,0,1,3.53-8.66c-.81.27-2.95,5.45-2.94,3.5a21.64,21.64,0,0,1-1.57,3.19,18.93,18.93,0,0,0-1.09,1.57c-.45,1.44-.94,2.88-1.29,4.35a4.38,4.38,0,0,0-.74,1.44c-.24.72-.51,1.63-.77,2.6l-.65,3c-.17,1-.34,1.93-.52,2.67.2.24.14,1.6,0,3.69a43.69,43.69,0,0,0,0,9.21,4.3,4.3,0,0,0-.18,1.66c0,.81.14,1.81.25,2.88s.35,2.16.49,3.16.36,1.89.41,2.55c-.33-1.25-.63-2-.84-2.7-.3-1.76.19-.72-.49-2.78.39.76-.09-3.12-.24-2.82.1,1.76-.12,1.29-.44.27s-.58-2.6-.74-3c0,2.62.7,4,1.27,6.51a15.53,15.53,0,0,0,.66,3.74,24.54,24.54,0,0,1,1.38,2.54,8,8,0,0,0,.53,2.07c.33.9.62,1.73.39,1.61.27.74.57,1.47.9,2.19s.62,1.45,1,2.15c.17.56.45,1.31.79,2.14s.81,1.7,1.22,2.57.89,1.67,1.22,2.37a11,11,0,0,1,.69,1.64c2,3,1.56,1.45,3.23,3.56,1.84,2.45,1.51,1.31,2.72,2.67a35.24,35.24,0,0,0,5.07,5.68c.71.74-.07.53,2,2.13,2,1.3-1.14-1.33,1.06.21l2.53,2a2.58,2.58,0,0,1,.7.76c.18.32.05.57,1.79,1.78-1.88-1.2-1.1-.27-2.62-1.29-.36-.23-.83-.55-1.34-.91l-1.49-1.17a9.82,9.82,0,0,0-1.9-1.34,24.15,24.15,0,0,1,2.22,1.9c-.45-.27-1-.66-1.57-1.09s-1.1-.94-1.57-1.39c-.95-.89-1.5-1.67-1-1.59a44.58,44.58,0,0,1-4.33-5.19c-.27.05-1.83-1.62-3.25-3.54-.17,0-.44,0-1.35-1.4a10.65,10.65,0,0,1-1.85-1.68,29,29,0,0,1-2.55-3.57c-.73-1.77-2.23-5-1.94-5.56-1.45-3.23-1.81-3.25-2.76-5.15l-1.06-2.9c-.3-1-.65-2.06-1-3.61-.4-2.46.77.74.37-1.09a6.63,6.63,0,0,1-.64-1.84c-.41-2.9-.19-3.4-.65-7.72.11-2,.3-4.6.56-7.39a78.45,78.45,0,0,1,1.48-8.73c.59-.84,1.42-3.93,2.2-5.28.62-1.9,1.48-4.12,2.51-6.48A74.82,74.82,0,0,1,688.26,89,86.91,86.91,0,0,1,698,75.9l-.34-.34c-1.49,1.42-2.59,2.73-3.51,3.15-1,1.15-1.64,2-2.2,2.72s-1,1.16-1.41,1.61A21,21,0,0,0,688.05,86c-.54.6-.93.9-1,.5-.59.94-1,1.77-1.4,2.44l-1,1.71c.1-1.46-1.7,2.4-2.28,3.2-.65,2.47-1.74,5.51-2.75,8.77a54.32,54.32,0,0,0-2.26,10,24.71,24.71,0,0,0-1.14,3.84,105.06,105.06,0,0,0,0,11.32,48.87,48.87,0,0,0,1.54,10.43,9.58,9.58,0,0,0,.5,2.57,11.6,11.6,0,0,1,.51,2.4c.95,2.76,2.66,6.06,3.17,7.45.36-.19,2.07,2.91,3.11,4a9,9,0,0,1-1.31-2.71,33.14,33.14,0,0,0,3.52,6.06c2.08,2.31,1.46.95,3.15,2.62,1.51,2.2,4.91,5.35,7.67,7.65.41.46,1,1,1.57,1.6s1.25,1.26,2,1.86a23.75,23.75,0,0,0,4,3,14,14,0,0,1-2-1.92,19,19,0,0,0-1.43-1.74,18.12,18.12,0,0,0,2.68,1.81c.77.42,1.54,1,3,1.89,1.15,1.16.06.8-.57.92a37.82,37.82,0,0,0,7.84,4.18c-.3.12.92.68.72.83a64.54,64.54,0,0,0,8.51,3.21,52.51,52.51,0,0,0,10.65,2,37.16,37.16,0,0,0,10,.56c1.64.32,5.07.14,6.12.42-1.65.12-1.58.77.06.47a7.53,7.53,0,0,1,1.15-.37q.74-.22,1.82-.46c2.11-.18,2.14.08,1.92.48s-.7.83.42.77c3.6-1.16-.3-.74,2.76-1.87,2.24.28,3.09.86,1.65,2.15.14.16,2.64-.64,2.15-.23s-1.33.94-.76,1.21a55.35,55.35,0,0,1-7.26,2.42c2-.37,2.39-.34,4.31-.77.15.26,1.82-.09,3.45-.44s3.18-.81,3.18-.49c1.32-.37,2.77-1,4.28-1.53s3-1.28,4.42-2,2.72-1.41,3.79-2.07,2-1.17,2.49-1.56C777.71,184.36,782.71,181.11,781.52,181.48ZM752.25,52.64c.29.51-4.4-.11-3.12.69-1.05-.22-2.44-.31-3.74-.45s-2.51-.16-3.22-.3c-.49-.41,1.09-.79,3.29-.88A19.67,19.67,0,0,1,752.25,52.64Zm54,45.06a33.38,33.38,0,0,1,.85,3.54l.94,4.35c.1,3.44-.06,6.12-.18,11.06a17.55,17.55,0,0,1,0,4.92c-.25,1.83-.29-.81-.72,0,.31-3.38,0-7.58.05-9.78-.33-2.49-.64-1.87-1-1.84a7.91,7.91,0,0,1-.09-2c-.28-1.17-.47-1.57-.6-1.58s-.17.36-.27.76a17.76,17.76,0,0,0-.66-3.35c-.39-1.13-.74-2.42-1.27-4.1a30.06,30.06,0,0,0-.81-3.36,36.38,36.38,0,0,0-1.44-4.07c-.65-1.52-.89-1.6-1.06-1.64l-.74-1.54-.68-1.32c-.42-.82-.75-1.57-1.13-2.26l-1.09-2.08c-.4-.7-.86-1.42-1.4-2.26-1-1.25-1-.54-1.74-1.12-1-1.32-1.2-1.38-1.38-1.37-1.17-1.5-1.44-2.15-1.44-2.59-1.22-1.29-2.12-2.22-2.83-3s-1.27-1.37-1.82-2c.1-.4,1.27.47,2.49,1.41s2.37,2,2.64,1.82a64.83,64.83,0,0,1,5.16,6.81l1,1.64.83,1.54A13.27,13.27,0,0,1,799,86.73a29.37,29.37,0,0,0,2.08,3.48,12.94,12.94,0,0,1,.73,1.12,7.1,7.1,0,0,1,.52,1.43c.83,1.54,1.41,2.72,1.94,3.49.83.88-.87-3.45.31-1.19.06-.43.46.51.85,1.42S806.15,98.28,806.2,97.7Zm-52.09-44c-.34.13-2.48-.36-4-.47C750.46,52.92,752.83,53.29,754.12,53.67Zm-3,0c-.5-.13.73-.05,1,0C752.58,53.85,751.36,53.74,751.09,53.67ZM714.7,176.05a7.66,7.66,0,0,1-1.74-.72A9.45,9.45,0,0,1,714.7,176.05Zm64.75-103.3a42.89,42.89,0,0,1,3.78,3.82,6,6,0,0,1-1.56-1.07c-.64-.53-1.36-1.12-1.93-1.68C778.59,72.72,777.9,72,779.45,72.75Zm-61.85-6.31a7.18,7.18,0,0,1,1.55-.81A7,7,0,0,1,717.59,66.44ZM701.93,171.2c.37.36-.66-.31-.85-.5C700.71,170.34,701.73,171,701.93,171.2Z" transform="translate(-15.15 -49.62)" style="fill:#fff;fill-rule:evenodd"/><text transform="translate(696.27 82.18)" style="font-size:24px;fill:#f5ae1b;font-family:SummerHearts-Regular, Summer Hearts"><tspan style="letter-spacing:-0.029988606770833332em">r</tspan><tspan x="10.56" y="0" style="letter-spacing:-0.019978841145833332em">e</tspan><tspan x="20.16" y="0">fine</tspan></text><circle cx="896.02" cy="69.37" r="65.14" style="fill:#fff"/><path d="M853.32,79.54c-.36.4.31-.71.51-.93C854.19,78.21,853.51,79.33,853.32,79.54Z" transform="translate(-15.15 -49.62)" style="fill:#fff;fill-rule:evenodd"/><path d="M849.93,152c.19.51-.48-.6-.58-.87C849.15,150.57,849.82,151.68,849.93,152Z" transform="translate(-15.15 -49.62)" style="fill:#fff;fill-rule:evenodd"/><path d="M856.74,76.89c-.38.38.34-.68.55-.89C857.66,75.63,856.94,76.69,856.74,76.89Z" transform="translate(-15.15 -49.62)" style="fill:#fff;fill-rule:evenodd"/><path d="M882.6,178.31c.43.28-.7-.18-.93-.34C881.25,177.69,882.37,178.16,882.6,178.31Z" transform="translate(-15.15 -49.62)" style="fill:#fff;fill-rule:evenodd"/><path d="M933.76,58.81c-.44-.24.7.11.93.24C935.14,59.29,934,58.93,933.76,58.81Z" transform="translate(-15.15 -49.62)" style="fill:#fff;fill-rule:evenodd"/><path d="M933.68,59c-.44-.24.69.11.93.24C935,59.51,933.91,59.16,933.68,59Z" transform="translate(-15.15 -49.62)" style="fill:#fff;fill-rule:evenodd"/><path d="M911.17,55.07a1.54,1.54,0,0,1,1,0A1.51,1.51,0,0,1,911.17,55.07Z" transform="translate(-15.15 -49.62)" style="fill:#fff;fill-rule:evenodd"/><path d="M915.95,55.27a8,8,0,0,1,1.92,0A9.39,9.39,0,0,1,915.95,55.27Z" transform="translate(-15.15 -49.62)" style="fill:#fff;fill-rule:evenodd"/><path d="M939.82,61.72l1.7.87-.11.21-1.7-.87Z" transform="translate(-15.15 -49.62)" style="fill:#fff;fill-rule:evenodd"/><path d="M934.43,59.72c-.43-.24.7.11.93.24C935.8,60.19,934.67,59.84,934.43,59.72Z" transform="translate(-15.15 -49.62)" style="fill:#fff;fill-rule:evenodd"/><path d="M856.95,103.14a1.2,1.2,0,0,1,.23-.81A1.2,1.2,0,0,1,856.95,103.14Z" transform="translate(-15.15 -49.62)" style="fill:#fff;fill-rule:evenodd"/><path d="M839.52,102.64c.59-1,.74-1,.82.19.73-2.51.72.18.7.16.16.13,1.09-1.82.13,2.22-.55,1.13-.6.31-.64-.56s0-1.77-.55-.79a26.63,26.63,0,0,0-.83,3.17c-.14-.5.12-2.38-.2-2.27-.34,1.89-.64,3.36-.83,4.33.26.39.12,2,.18,3.57s.08,3,.42,3.06c0,1.41.07,2.58.19,3.61s.27,2,.41,2.86l1.17,6.34A57.06,57.06,0,0,1,842.6,134c.44,1.14.84,2.38,1.37,3.62l.76,1.9.85,1.89c.25,0,.55.3.95,1a32,32,0,0,1,1.67,3.5c.85,2.17,2.11,4.8,3,6.55,1.34,2-.67-1.92,1.33,1.6,1.54,2.32-.89-.32.68,2,.76.38,2.19,2.45,3.75,4.55a44.84,44.84,0,0,0,4.06,5c1.26,1,.62.28-.2-.69s-1.75-2.25-1.28-2.07A82,82,0,0,0,870.58,174,59.44,59.44,0,0,0,884,182.5c.18-.32-1.79-1.32-2.51-1.92a91.34,91.34,0,0,0,13.72,3.76l2.63.75,2.49.62a39.53,39.53,0,0,0,6.78.89c-.65-.59,2.34-.53,5.05-.73.1.32-1.67.28,0,.48a50.55,50.55,0,0,1-7.93.17c-1.37-.1-2.63-.16-3.59-.16s-1.6,0-1.75.22c.59.53,5.84,1.07,6.06,1.42,1.49,0,2.93.09,4.35.08.71,0,1.42,0,2.13,0l2.13,0c1.43,0,2.87-.1,4.36-.15s3-.23,4.6-.46c.86-.75,6.46-2,6.72-2.94a11.8,11.8,0,0,0,3.15-1.29,25.75,25.75,0,0,1,3.39-1.52c-.47.33-.91.65-1.31.95s-.75.53-1,.77c-.59.47-.94.86-1,1.13,4.4-1.22,7.17-2.17,9.09-2.47,1.17-.57,2.16-1,3.07-1.44l2.52-1.23a40.43,40.43,0,0,0,5.52-3.31,13.55,13.55,0,0,0,2.07-2.48,22.53,22.53,0,0,0,2.24-2.11,16.2,16.2,0,0,0,1.4-1.64c.76-1,1.42-1.91,2.52-3.33,2.75-3.29,3.27-4.67,6.44-9.25,1.38-2.93,2.76-5.87,4.95-11.09a42.38,42.38,0,0,0,2.94-7.45c-.73.88.74-3.3.59-4a6.59,6.59,0,0,0-1,1.93c-.4,1-.85,2.26-1.4,3.54a26.46,26.46,0,0,1-3.16,6.13,49.16,49.16,0,0,0,1.55-5.64c1.93-6.76,3.44-12.08,4.05-18.82-.67.19-1.18,4.27-1.95,5.6.12-2.11.51-5.11.39-5.66a23.35,23.35,0,0,1-1.22,4.61c.08-2.52-.36-.21-.4-1.91.08-3.12.7-3.93.38-5.54-.15,1.41-.26,2.64-.48,3.7a24.21,24.21,0,0,1-.69,2.68,5.87,5.87,0,0,1-.11,1.83c-.36,1.23-.87,2.51-1.3,3.6a7.49,7.49,0,0,1-1.39,2.32,9.65,9.65,0,0,0,.51-3.57c-.08-.54-.29-.64-.45-.94a24.05,24.05,0,0,0,.38-5.25c-.16,1.66-.45,1.55-.71,4.32a16.42,16.42,0,0,0-1.91,5.79c.52-2.25,1.11-2.13.58.15-.8,2-2,5.88-3.74,9.7-.2,1.18,1.76-3,.79-.59-.62.78-2.38,4.42-2.55,3.58-1.27,2.18-1.06,2.45-2.47,4.57a9.23,9.23,0,0,1-1.14,1.34,25.55,25.55,0,0,0-1.58,2,29.61,29.61,0,0,1-7.09,7.55,3.92,3.92,0,0,1-1.56.81A28.29,28.29,0,0,1,943.6,166l-4.69,2.76c-2,.92-2.82.91-5.58,2.09a40,40,0,0,1-4.66,2,50.19,50.19,0,0,1-8,3.06c-2.71.77-4.3,1.57-8.58,1.84a25.12,25.12,0,0,1-3.72-.2c-1-.15-1.89-.31-3.27-.45a11.36,11.36,0,0,1-3.68-.21,43.77,43.77,0,0,1-4.94-1.22c.68.63-.09.56.65,1-.91-.14-1.69-.34-2.46-.48s-1.52-.3-2.33-.53a24.14,24.14,0,0,1-2.72-.84l-1.66-.63-1.9-.89a5.17,5.17,0,0,0-2.3-1.4c-2.29-2.08-8.4-6.33-14.15-11.92a24.19,24.19,0,0,1-4.87-7.23,31.83,31.83,0,0,1-4.31-7.28l-.74-1.63c-.23-.54-.45-1.07-.69-1.59-.51-1-1-2.06-1.57-3.07.24.63.59,2.58,0,.93a43.3,43.3,0,0,1-2.34-8c-.49-2.32-.83-4.6-1.29-7.92-.16-1.19-.47-.09-.61-1.69a5.33,5.33,0,0,0-.07-1.74c.39-2.28,1-.52,1.5-5.14a43.8,43.8,0,0,1,1.59-11.79c0,.66.31-.25.58-1.16s.61-1.8.61-1.14c.71-2,1.26-3.48,1.79-4.88L860,94.5c.34-.73.74-1.5,1.21-2.39.25-1.15-1.87,2.83-.81.54A40.63,40.63,0,0,1,865,85.75c.75-1,1.62-1.85,2.45-2.83s1.79-1.93,2.88-3c2.54-3,5.18-4.8,8.25-7.26,0-.23-.51-.18.42-.89a106.29,106.29,0,0,1,9.81-5.11c-.21-.27-1.79.08-3.1.41s-2.37.58-1.56-.17c.57-.17,1.21-.43,1.89-.66l2.06-.66a6.22,6.22,0,0,1,2.87-.42c1.26-.45,2.38-.8,3.41-1.12s2-.57,2.87-.77,1.76-.41,2.64-.57,1.76-.3,2.71-.43a33,33,0,0,1,6.82-1.19c1.25-.25,1.27-.7,3.49-.72a7.51,7.51,0,0,1,3,.59c.51.25.75.5,1.28.76a31.15,31.15,0,0,1,8.44,1.64c1.47.33,1.49-.07,3.44.52a43.87,43.87,0,0,1,5.26,3c2.89,1.45,6.47,3.58,7.88,5a24.5,24.5,0,0,1,3.49,2.56l1.17,1.05c.38.36.76.75,1.22,1.17a19.2,19.2,0,0,1,4.14,4.18,24.11,24.11,0,0,1,4.41,4.7,52,52,0,0,1,4.19,6.68c.74.86.67.39.42-.43a11.17,11.17,0,0,1-.75-2.33c-.31-1.13,1.69,2,.51-.31a4.14,4.14,0,0,1-.92-1.47c.88.61,2.52,3.12,4,6.09a85,85,0,0,1,3.58,8.63c.39-.76-1.74-5.95-.38-4.56a21.65,21.65,0,0,1-1.13-3.37,18.92,18.92,0,0,0-.33-1.88c-.7-1.34-1.36-2.71-2.14-4a4.38,4.38,0,0,0-.49-1.54c-.33-.68-.78-1.51-1.28-2.39l-1.66-2.61c-.58-.83-1.11-1.61-1.51-2.27-.31,0-1.22-1-2.61-2.61a43.68,43.68,0,0,0-6.51-6.53,4.3,4.3,0,0,0-1-1.31c-.58-.57-1.37-1.19-2.2-1.87s-1.77-1.29-2.58-1.9-1.59-1.1-2.09-1.53c1.11.66,1.83,1,2.49,1.32,1.45,1,.37.64,2.3,1.64-.81-.27,2.26,2.15,2.15,1.83-1.31-1.18-.82-1,.12-.5s2.24,1.44,2.62,1.59c-1.84-1.87-3.31-2.34-5.48-3.74a15.53,15.53,0,0,0-3.1-2.19,24.53,24.53,0,0,1-2.77-.84,8,8,0,0,0-1.83-1.09c-.87-.41-1.66-.8-1.41-.87-.71-.34-1.44-.65-2.18-.92s-1.46-.6-2.21-.85c-.51-.29-1.25-.62-2.07-1s-1.77-.64-2.67-1-1.8-.56-2.54-.83a11,11,0,0,1-1.64-.68c-3.53-.72-2.13.06-4.8-.26-3-.45-2,.13-3.82,0a35.24,35.24,0,0,0-7.6-.48c-1,0-.33-.43-2.89-.13-2.31.45,1.74.14-.9.6l-3.19.37a2.58,2.58,0,0,1-1,0c-.35-.1-.44-.37-2.53,0,2.18-.47,1-.58,2.77-.93.42-.09,1-.19,1.59-.29l1.88-.22a9.82,9.82,0,0,0,2.29-.38,24.15,24.15,0,0,1-2.92.21c.51-.12,1.18-.24,1.88-.33s1.44-.1,2.09-.11c1.3,0,2.24.13,1.86.39a44.58,44.58,0,0,1,6.73.65c.15-.23,2.44-.14,4.8.23.13-.11.33-.28,1.94,0a10.65,10.65,0,0,1,2.5-.1,29,29,0,0,1,4.32.74c1.76.74,5.11,2,5.28,2.59,3.3,1.27,3.57,1,5.58,1.73l2.79,1.32c.9.49,1.91,1,3.24,1.87,2,1.47-1.07,0,.5,1a6.64,6.64,0,0,1,1.75.86c2.33,1.77,2.52,2.28,5.89,5,1.35,1.52,3,3.48,4.8,5.65a78.44,78.44,0,0,1,5.08,7.25c.17,1,1.75,3.79,2.15,5.3.89,1.79,1.84,4,2.77,6.37a74.81,74.81,0,0,1,2.43,7.83A86.92,86.92,0,0,1,973.17,119h.48c.06-2.06-.08-3.77.28-4.71-.13-1.49-.27-2.6-.35-3.48s-.09-1.55-.13-2.14a21,21,0,0,0-.33-3.82c0-.81,0-1.3.37-1.07-.24-1.08-.54-2-.72-2.72l-.47-1.93c1,1.1-.48-2.9-.63-3.88-1.28-2.21-2.64-5.14-4.21-8.17a54.32,54.32,0,0,0-5.39-8.68,24.7,24.7,0,0,0-1.89-3.54,105.07,105.07,0,0,0-7.94-8.07,48.87,48.87,0,0,0-8.43-6.34A9.59,9.59,0,0,0,941.65,59a11.6,11.6,0,0,1-2-1.34c-2.62-1.3-6.15-2.44-7.49-3.07-.12.39-3.52-.61-5-.68a9,9,0,0,1,2.84,1A33.14,33.14,0,0,0,923.14,53c-3.1-.18-1.7.35-4.08.35-2.63-.5-7.25-.36-10.83,0-.62,0-1.39,0-2.24,0s-1.78,0-2.7.06a23.75,23.75,0,0,0-4.9.67,14,14,0,0,1,2.77,0,18.94,18.94,0,0,0,2.24.23,18.12,18.12,0,0,0-3.18.6c-.85.24-1.76.41-3.5.79-1.63,0-.61-.53-.24-1.05A37.82,37.82,0,0,0,888,57.12c.13-.29-1.13.16-1.1-.08a64.54,64.54,0,0,0-8.31,3.7,52.51,52.51,0,0,0-9,6A37.16,37.16,0,0,0,862,73.4c-1.4.93-3.71,3.47-4.65,4,1.09-1.24.59-1.66-.38-.29a7.53,7.53,0,0,1-.56,1.07q-.37.68-1,1.6c-1.37,1.61-1.58,1.45-1.71,1s-.09-1.08-.84-.25c-1.74,3.35.73.31-.65,3.27-1.8,1.38-2.8,1.56-2.69-.37-.22,0-1.43,2.31-1.37,1.68s.28-1.6-.31-1.4a55.35,55.35,0,0,1,3.45-6.82c-1.19,1.69-1.46,1.93-2.52,3.58-.3-.08-1.23,1.34-2.14,2.74S845,86,844.8,85.79c-.68,1.19-1.29,2.64-2,4.1s-1.25,3-1.73,4.54-.95,2.91-1.24,4.14-.57,2.21-.67,2.86C840.22,97.91,838.94,103.74,839.52,102.64Zm111.39,71c-.57-.16,3.21-3,1.74-2.68.9-.58,2-1.5,3-2.31s1.9-1.65,2.49-2.05c.64-.06-.22,1.33-1.73,2.94A19.67,19.67,0,0,1,950.92,173.69Zm-70.05,5.89a33.37,33.37,0,0,1-3.1-1.92L874,175.23c-2.49-2.38-4.26-4.4-7.65-8a17.55,17.55,0,0,1-3.48-3.48c-1.11-1.47.77.37.53-.49,2.16,2.62,5.29,5.42,6.84,7,2,1.54,1.77.88,2,.64a7.91,7.91,0,0,1,1.44,1.33c1,.64,1.44.78,1.54.7s-.13-.38-.34-.73a17.75,17.75,0,0,0,2.83,1.92c1.07.53,2.23,1.21,3.79,2a30.07,30.07,0,0,0,2.93,1.82,36.38,36.38,0,0,0,3.89,1.89c1.53.62,1.76.51,1.91.42l1.61.57,1.41.46c.88.29,1.64.6,2.39.82l2.24.71c.78.22,1.61.41,2.58.62,1.61.16,1.13-.35,2-.43,1.63.25,1.82.14,1.94,0,1.89.24,2.54.52,2.85.82,1.77.06,3.07.09,4.12.15s1.87.08,2.69.14c.21.36-1.24.56-2.76.75s-3.11.23-3.16.57a64.83,64.83,0,0,1-8.45-1.22l-1.9-.43-1.67-.51a13.27,13.27,0,0,1-2.47-1,29.36,29.36,0,0,0-3.93-1,13,13,0,0,1-1.31-.29,7.11,7.11,0,0,1-1.37-.65c-1.67-.51-2.92-.94-3.83-1.12-1.21,0,3,1.84.61,1.06.26.34-.69,0-1.6-.41S880.49,179.13,880.87,179.58Zm68-5.31c.15-.33,2-1.49,3.16-2.46C952,172.23,950,173.64,948.86,174.27Zm2.16-2.13c.45-.26-.48.55-.74.68C949.83,173.07,950.78,172.29,951,172.14ZM890.86,59.52a7.66,7.66,0,0,1,1.75-.71A9.45,9.45,0,0,1,890.86,59.52Zm26.57,119a42.88,42.88,0,0,1-5.37-.06,6,6,0,0,1,1.86-.34c.82-.07,1.76-.16,2.55-.16C918.07,177.93,919.1,178,917.43,178.51Zm48.43-39a7.18,7.18,0,0,1-.53,1.67A7,7,0,0,1,965.86,139.52ZM903.36,54c-.51,0,.69-.24,1-.24C904.83,53.75,903.63,54,903.36,54Z" transform="translate(-15.15 -49.62)" style="fill:#fff;fill-rule:evenodd"/><text transform="translate(843.67 81.29)" style="font-size:24px;fill:#f5ae1b;font-family:SummerHearts-Regular, Summer Hearts">Complete</text><circle cx="584.52" cy="123.7" r="65.14" transform="translate(1.31 259.21) rotate(-30)" style="fill:#fff"/><path d="M589.75,53.88c-.53-.11.77-.08,1.06,0C591.35,54,590,53.94,589.75,53.88Z" transform="translate(-15.15 -49.62)" style="fill:#fff;fill-rule:evenodd"/><path d="M525.35,87.14c-.35.42.28-.71.46-.94C526.16,85.78,525.54,86.92,525.35,87.14Z" transform="translate(-15.15 -49.62)" style="fill:#fff;fill-rule:evenodd"/><path d="M593.76,55.51c-.52-.14.76,0,1,0C595.31,55.68,594,55.59,593.76,55.51Z" transform="translate(-15.15 -49.62)" style="fill:#fff;fill-rule:evenodd"/><path d="M518.86,128.62c0,.52-.19-.7-.17-1C518.72,127.14,518.88,128.35,518.86,128.62Z" transform="translate(-15.15 -49.62)" style="fill:#fff;fill-rule:evenodd"/><path d="M647.93,113.17c0-.5.25.66.26.93C648.21,114.61,647.94,113.44,647.93,113.17Z" transform="translate(-15.15 -49.62)" style="fill:#fff;fill-rule:evenodd"/><path d="M647.7,113.21c0-.5.25.66.26.93C648,114.64,647.7,113.48,647.7,113.21Z" transform="translate(-15.15 -49.62)" style="fill:#fff;fill-rule:evenodd"/><path d="M639.87,91.74a1.54,1.54,0,0,1,.46.84A1.51,1.51,0,0,1,639.87,91.74Z" transform="translate(-15.15 -49.62)" style="fill:#fff;fill-rule:evenodd"/><path d="M642.09,96a8,8,0,0,1,.93,1.68A9.39,9.39,0,0,1,642.09,96Z" transform="translate(-15.15 -49.62)" style="fill:#fff;fill-rule:evenodd"/><path d="M648.44,119.87l.1,1.91h-.24l-.1-1.91Z" transform="translate(-15.15 -49.62)" style="fill:#fff;fill-rule:evenodd"/><path d="M647.48,114.21c0-.5.25.66.26.93C647.75,115.63,647.49,114.48,647.48,114.21Z" transform="translate(-15.15 -49.62)" style="fill:#fff;fill-rule:evenodd"/><path d="M571.13,68.82a1.2,1.2,0,0,1,.82-.21A1.19,1.19,0,0,1,571.13,68.82Z" transform="translate(-15.15 -49.62)" style="fill:#fff;fill-rule:evenodd"/><path d="M562.85,53.48c1.2,0,1.23.14.25.8,2.54-.62.2.71.21.69,0,.21,2.12,0-1.86,1.23-1.25.09-.57-.37.16-.83s1.53-.88.41-.87a26.63,26.63,0,0,0-3.16.86c.36-.37,2.12-1.08,1.86-1.31-1.8.65-3.23,1.13-4.16,1.45-.21.42-1.69,1.11-3,1.94S551,59,551.11,59.33c-1.21.73-2.19,1.35-3,2s-1.55,1.21-2.27,1.79l-4.91,4.19a57,57,0,0,1-3.64,4.55c-.77.95-1.64,1.91-2.45,3l-1.26,1.61-1.21,1.68c.11.22,0,.63-.4,1.33a32.05,32.05,0,0,1-2.2,3.2c-1.46,1.82-3.1,4.23-4.19,5.84-1,2.15,1.33-1.54-.72,2-1.24,2.49-.17-.93-1.38,1.59.05.85-1,3.12-2.06,5.52a44.85,44.85,0,0,0-2.27,6c-.27,1.61.07.68.5-.52s1.07-2.64,1.15-2.15a82,82,0,0,0-4.21,15.22,59.44,59.44,0,0,0-.61,15.88c.37,0,.24-2.21.41-3.14a91.34,91.34,0,0,0,3.6,13.76l.66,2.65.71,2.47a39.53,39.53,0,0,0,2.62,6.31c.19-.86,1.63,1.76,3.16,4-.23.25-1.08-1.31-.41.25a50.56,50.56,0,0,1-4.12-6.78c-.6-1.23-1.18-2.36-1.65-3.19s-.81-1.38-1.06-1.41c-.17.78,2,5.59,1.8,6,.72,1.3,1.38,2.58,2.11,3.81.35.62.68,1.25,1,1.86l1.09,1.83c.69,1.25,1.52,2.43,2.31,3.7s1.71,2.49,2.7,3.75c1.08.37,5,4.58,5.91,4.34a11.8,11.8,0,0,0,2.69,2.08,25.74,25.74,0,0,1,3,2.17c-.53-.24-1-.47-1.47-.66s-.84-.39-1.19-.52a2.32,2.32,0,0,0-1.46-.27c3.25,3.2,5.46,5.13,6.69,6.63,1.08.72,2,1.36,2.78,1.94l2.33,1.57a40.43,40.43,0,0,0,5.62,3.13,13.55,13.55,0,0,0,3.18.55,22.54,22.54,0,0,0,3,.88,16.2,16.2,0,0,0,2.12.39c1.28.14,2.37.27,4.15.52,4.22.73,5.68.5,11.23,1,3.23-.27,6.46-.55,12.07-1.26a42.38,42.38,0,0,0,7.93-1.18c-1.12-.19,3.23-1,3.74-1.48a6.59,6.59,0,0,0-2.17.09c-1.06.15-2.38.39-3.76.56a26.46,26.46,0,0,1-6.89.33,49.16,49.16,0,0,0,5.66-1.48c6.82-1.71,12.18-3.06,18.33-5.9-.5-.49-4.28,1.11-5.82,1.11,1.88-.95,4.68-2.11,5.1-2.49A23.35,23.35,0,0,1,609,181c2.23-1.19,0-.41,1.45-1.3,2.74-1.49,3.75-1.36,5-2.44-1.3.58-2.42,1.1-3.45,1.44a24.22,24.22,0,0,1-2.67.74,5.87,5.87,0,0,1-1.64.82c-1.25.31-2.61.5-3.76.67a7.49,7.49,0,0,1-2.71,0,9.65,9.65,0,0,0,3.34-1.34c.43-.34.41-.57.59-.85a24,24,0,0,0,4.74-2.3c-1.52.69-1.57.38-4.09,1.55a16.42,16.42,0,0,0-6,1.24c2.21-.67,2.4-.1.16.58-2.12.3-6.08,1.23-10.28,1.61-1.12.41,3.46,0,.91.39-1-.15-5,.15-4.38-.41-2.52,0-2.65.31-5.19.15a9.24,9.24,0,0,1-1.73-.31,25.54,25.54,0,0,0-2.55-.35,29.61,29.61,0,0,1-10.08-2.36,3.92,3.92,0,0,1-1.48-1,28.3,28.3,0,0,1-5.19-2.26l-4.74-2.68c-1.82-1.31-2.2-2-4.6-3.79a40,40,0,0,1-4.06-3,50.19,50.19,0,0,1-6.67-5.43c-2-2-3.51-2.94-5.88-6.51a25.12,25.12,0,0,1-1.69-3.32c-.36-.92-.67-1.79-1.24-3.06a11.36,11.36,0,0,1-1.65-3.29,43.76,43.76,0,0,1-1.41-4.89c-.2.91-.53.2-.55,1.07-.33-.86-.55-1.63-.81-2.37s-.5-1.47-.71-2.28a24.14,24.14,0,0,1-.63-2.77l-.28-1.75-.18-2.09a5.17,5.17,0,0,0,.06-2.69c.66-3,1.28-10.44,3.25-18.22a24.19,24.19,0,0,1,3.82-7.83A31.83,31.83,0,0,1,536.19,93l1-1.46c.35-.47.7-.92,1-1.39.63-1,1.31-1.86,1.88-2.9-.43.52-1.94,1.8-.81.45a43.3,43.3,0,0,1,5.77-6c1.76-1.59,3.57-3,6.22-5.08.95-.74-.16-.45,1.16-1.37a5.33,5.33,0,0,0,1.48-.93c2.17-.8,1,.65,5.21-1.27a43.8,43.8,0,0,1,11-4.52c-.55.37.37.15,1.3-.08s1.86-.37,1.29,0c2.13-.41,3.64-.65,5.12-.89l2.27-.29c.8-.06,1.67-.11,2.67-.15,1.12-.36-3.38-.2-.87-.44a40.63,40.63,0,0,1,8.29.57c1.23.16,2.42.48,3.68.7s2.56.59,4,1c3.87.69,6.75,2.09,10.42,3.51.21-.1-.1-.53,1-.08a106.29,106.29,0,0,1,9.33,5.94c.13-.32-1-1.51-1.9-2.48S615,74,616.1,74.28c.43.41,1,.84,1.52,1.31l1.6,1.45a6.22,6.22,0,0,1,1.8,2.28c1,.87,1.88,1.66,2.67,2.39s1.48,1.42,2.11,2.1,1.24,1.32,1.81,2,1.14,1.38,1.73,2.13a33,33,0,0,1,4.44,5.31c.84,1,1.24.75,2.37,2.66a7.5,7.5,0,0,1,1,2.88c0,.57-.06.9,0,1.49a31.15,31.15,0,0,1,2.8,8.13c.45,1.44.81,1.26,1.27,3.24a43.87,43.87,0,0,1,0,6.08c.19,3.22.13,7.39-.39,9.32a24.5,24.5,0,0,1-.48,4.3l-.33,1.54c-.13.51-.27,1-.41,1.64a19.21,19.21,0,0,1-1.55,5.67,24.11,24.11,0,0,1-1.86,6.17,52,52,0,0,1-3.69,7c-.38,1.07,0,.77.58.15a11.17,11.17,0,0,1,1.64-1.81c.82-.83-.84,2.44.52.29a4.14,4.14,0,0,1,.81-1.53c-.09,1.07-1.44,3.74-3.26,6.53a85,85,0,0,1-5.69,7.42c.85,0,4.28-4.48,3.76-2.6a21.65,21.65,0,0,1,2.36-2.66,18.93,18.93,0,0,0,1.47-1.23c.82-1.27,1.67-2.53,2.4-3.85a4.38,4.38,0,0,0,1.09-1.19c.42-.63.92-1.44,1.43-2.31l1.43-2.74c.43-.91.84-1.77,1.21-2.44-.13-.29.29-1.58,1-3.56a43.68,43.68,0,0,0,2.4-8.9,4.3,4.3,0,0,0,.62-1.55c.21-.78.34-1.79.52-2.84s.23-2.17.36-3.18.16-1.92.28-2.57c0,1.29.09,2.07.1,2.82-.18,1.78-.37.64-.27,2.81-.17-.83-.74,3-.51,2.78.37-1.73.46-1.21.5-.14s-.13,2.66-.07,3.06c.7-2.53.38-4,.5-6.62a15.53,15.53,0,0,0,.35-3.78,24.54,24.54,0,0,1-.66-2.82,8,8,0,0,0,0-2.14c-.08-1-.14-1.83,0-1.65-.07-.79-.16-1.57-.29-2.35s-.21-1.56-.37-2.33c0-.59-.09-1.39-.2-2.28s-.33-1.85-.5-2.8-.42-1.84-.55-2.61a11,11,0,0,1-.23-1.76c-1.14-3.42-1.12-1.81-2.17-4.29-1.13-2.85-1.11-1.66-1.92-3.3a35.24,35.24,0,0,0-3.39-6.82c-.48-.9.21-.49-1.33-2.57-1.55-1.77.75,1.58-1-.48l-1.91-2.58a2.58,2.58,0,0,1-.48-.92c-.09-.35.1-.56-1.26-2.19,1.49,1.65,1,.55,2.19,1.93.29.32.66.75,1,1.23l1.13,1.52a9.82,9.82,0,0,0,1.48,1.79A24.16,24.16,0,0,1,636,83.88c.36.38.79.9,1.23,1.47s.81,1.2,1.14,1.76c.68,1.11,1,2,.59,1.81a44.58,44.58,0,0,1,2.8,6.15c.27,0,1.34,2,2.2,4.27.16.05.41.15.93,1.71a10.65,10.65,0,0,1,1.34,2.11,29,29,0,0,1,1.52,4.11c.24,1.9.83,5.42.4,5.87.55,3.5.89,3.61,1.3,5.7l.26,3.08c0,1,.09,2.16,0,3.74-.27,2.48-.54-.92-.64,1a6.64,6.64,0,0,1,.13,1.95c-.37,2.9-.72,3.32-1.41,7.62-.64,1.93-1.51,4.36-2.5,7a78.44,78.44,0,0,1-3.74,8c-.79.65-2.41,3.42-3.52,4.51-1.1,1.67-2.52,3.58-4.13,5.59a74.8,74.8,0,0,1-5.56,6,86.91,86.91,0,0,1-12.83,10.1l.24.42c1.81-1,3.22-2,4.22-2.11,1.23-.86,2.12-1.53,2.84-2s1.3-.85,1.79-1.18a21,21,0,0,0,3.14-2.2c.68-.44,1.14-.62,1.11-.21.82-.75,1.42-1.45,2-2l1.44-1.38c-.48,1.38,2.28-1.86,3-2.49,1.28-2.21,3.13-4.85,5-7.73a54.31,54.31,0,0,0,4.82-9,24.7,24.7,0,0,0,2.12-3.4,105.09,105.09,0,0,0,3-10.91,48.88,48.88,0,0,0,1.28-10.47,9.59,9.59,0,0,0,.2-2.61,11.6,11.6,0,0,1,.14-2.45c-.18-2.91-1-6.55-1.09-8-.4.09-1.23-3.35-1.93-4.71a9,9,0,0,1,.55,3,33.14,33.14,0,0,0-1.79-6.77c-1.4-2.78-1.16-1.3-2.35-3.36-.88-2.53-3.32-6.46-5.37-9.41-.27-.56-.68-1.21-1.09-2s-.88-1.55-1.4-2.31a23.75,23.75,0,0,0-3-3.91,14,14,0,0,1,1.42,2.38,19,19,0,0,0,.92,2.05,18.12,18.12,0,0,0-2.11-2.45c-.63-.61-1.23-1.32-2.44-2.63-.8-1.42.15-.79.79-.73a37.82,37.82,0,0,0-6.46-6.1c.32,0-.71-.9-.48-1a64.53,64.53,0,0,0-7.36-5.35,52.51,52.51,0,0,0-9.74-4.78,37.16,37.16,0,0,0-9.48-3.18c-1.5-.75-4.86-1.48-5.79-2,1.62.32,1.73-.32.06-.47a7.53,7.53,0,0,1-1.21.05q-.77,0-1.87,0c-2.08-.39-2-.64-1.73-1s.89-.62-.2-.86c-3.77.17.1.79-3.15,1.07-2.09-.87-2.75-1.65-1-2.51-.1-.2-2.72-.08-2.14-.34s1.53-.56,1.06-1a55.35,55.35,0,0,1,7.64-.42c-2.06-.19-2.4-.3-4.36-.39-.08-.3-1.78-.4-3.44-.49s-3.28-.06-3.19-.37c-1.37,0-2.93.2-4.54.35s-3.26.44-4.8.77-3,.64-4.2,1-2.2.61-2.81.85C567.29,51.72,561.61,53.52,562.85,53.48Zm-5.83,132c-.15-.57,4.22,1.27,3.19.16,1,.49,2.27.94,3.49,1.42s2.38.82,3,1.13c.37.52-1.26.48-3.41,0A19.67,19.67,0,0,1,557,185.47Zm-40.12-57.72a33.37,33.37,0,0,1,.11-3.64l.25-4.44c.82-3.34,1.68-5.88,3.09-10.61a17.55,17.55,0,0,1,1.27-4.76c.72-1.7.06.86.69.21-1.19,3.18-2,7.29-2.64,9.42-.34,2.48.12,2,.43,2a7.91,7.91,0,0,1-.43,1.91c0,1.21,0,1.64.17,1.68s.26-.31.46-.66a17.76,17.76,0,0,0-.25,3.41c.07,1.19.07,2.53.14,4.29a30.07,30.07,0,0,0-.11,3.45,36.39,36.39,0,0,0,.31,4.31c.23,1.64.44,1.78.59,1.86l.31,1.68.3,1.45c.19.91.3,1.72.49,2.48l.5,2.29c.2.78.45,1.6.75,2.55.67,1.48.86.8,1.38,1.54.6,1.53.79,1.65,1,1.69.73,1.75.82,2.46.71,2.88.84,1.56,1.46,2.7,1.93,3.65s.87,1.66,1.23,2.4c-.2.36-1.1-.79-2-2s-1.75-2.58-2.07-2.45a64.84,64.84,0,0,1-3.17-7.93l-.57-1.86-.4-1.7a13.27,13.27,0,0,1-.39-2.63,29.35,29.35,0,0,0-1.09-3.91,13,13,0,0,1-.4-1.28,7.1,7.1,0,0,1-.12-1.52c-.39-1.7-.64-3-.95-3.87-.57-1.07-.07,3.56-.62,1.06-.17.4-.31-.62-.44-1.59S517.1,127.2,516.89,127.75ZM555.49,184c.36,0,2.3,1,3.71,1.51C558.82,185.67,556.63,184.69,555.49,184Zm2.92.8c.45.26-.72-.14-1-.3C557,184.22,558.17,184.65,558.41,184.79ZM625.86,76.38a7.66,7.66,0,0,1,1.49,1.16A9.45,9.45,0,0,1,625.86,76.38Zm-89.76,82.5a42.87,42.87,0,0,1-2.64-4.68,6,6,0,0,1,1.22,1.44c.47.68,1,1.44,1.42,2.13C536.92,159.14,537.39,160.06,536.1,158.89Zm58,22.44a7.18,7.18,0,0,1-1.71.38A7,7,0,0,1,594.09,181.33ZM636.9,84.44c-.26-.44.55.47.69.71C637.84,85.59,637,84.67,636.9,84.44Z" transform="translate(-15.15 -49.62)" style="fill:#fff;fill-rule:evenodd"/><text transform="translate(531.95 80.68)" style="font-size:24px;fill:#f5ae1b;font-family:SummerHearts-Regular, Summer Hearts">De<tspan x="23.04" y="0" style="letter-spacing:-0.019999186197916668em">v</tspan><tspan x="31.92" y="0">el</tspan><tspan x="50.4" y="0" style="letter-spacing:-0.039957682291666664em">o</tspan><tspan x="60" y="0">p</tspan></text><path d="M583.77,121" transform="translate(-15.15 -49.62)" style="fill:none;stroke:#fff;stroke-miterlimit:10"/></svg>