<?xml version="1.0" encoding="utf-8"?>
<!-- Generator: Adobe Illustrator 19.1.0, SVG Export Plug-In . SVG Version: 6.00 Build 0)  -->
<!DOCTYPE svg PUBLIC "-//W3C//DTD SVG 1.1//EN" "http://www.w3.org/Graphics/SVG/1.1/DTD/svg11.dtd">
<svg version="1.1" id="Layer_1" xmlns="http://www.w3.org/2000/svg" xmlns:xlink="http://www.w3.org/1999/xlink" x="0px" y="0px"
	 viewBox="0 0 77 77" enable-background="new 0 0 77 77" xml:space="preserve">
<g>
	<defs>
		<circle id="SVGID_1_" cx="38.5" cy="38.5" r="38.5"/>
	</defs>
	<use xlink:href="#SVGID_1_"  overflow="visible" fill="#FFFFFF"/>
	<clipPath id="SVGID_2_">
		<use xlink:href="#SVGID_1_"  overflow="visible"/>
	</clipPath>
	<g clip-path="url(#SVGID_2_)">
		<path fill="#F7AE00" d="M71.7,69.7c0-12.2-4.1-16.4-4.1-16.4c-5.9-4.3-18.5-3.9-18.5-3.9s-7.5,1.4-10.4,1.4
			c-2.9,0-10.4-1.4-10.4-1.4S15.7,49,9.9,53.3c0,0-4.1,4.2-4.1,16.4V77h66V69.7z"/>
		<path fill="#FDD995" d="M48.4,42.5c0,0-0.3,4.5,0.6,6.1s-0.6,8.7-10,8.7h-0.4c-9.5,0-10.9-7.2-10-8.7s0.6-6.1,0.6-6.1"/>
		<path fill="#FDD995" d="M50.6,29.3c0,0,0.8-2.3,2.7-1.8c1.7,0.4,1.7,4.9,0.5,5.7c-1.2,0.8,1.1,5.1-3.2,5.1"/>
		<path fill="#FDD995" d="M26.8,29.3c0,0-0.8-2.3-2.7-1.8c-1.7,0.4-1.7,4.9-0.5,5.7c1.2,0.8-1.1,5.1,3.2,5.1"/>
		<path fill="#575756" d="M25.4,38.3"/>
		<path fill="#575756" d="M25.5,29.3"/>
		<path fill="#D0AF72" d="M49,22.5c-1.8-2-5-4-10.1-4s-8.3,2-10.1,4c-1.8,2-2.6,8.9-2,11.6c0.5,2.7-0.1,8.6,3.8,11.8
			c1.9,1.6,3.9,2.4,5.5,2.7c0.4,0.4,1.6,0.7,2.9,0.7c1.3,0,2.4-0.3,2.9-0.7c1.6-0.4,3.6-1.2,5.5-2.7c3.9-3.3,3.3-9.1,3.8-11.8
			C51.6,31.4,50.8,24.5,49,22.5z"/>
		<path fill="#D0AF72" d="M25.4,28.3c-1.8,4.3,0.9,10.2,0.9,10.2c0.7-1.5,1.9-4.4,1.9-4.4"/>
		<path fill="#D0AF72" d="M52,28.6c1.8,4.3-0.9,10.2-0.9,10.2c-0.7-1.5-1.9-4.4-1.9-4.4"/>
		<path fill="#FDD995" d="M49.7,21.8c-2-2-5.4-4-11-4s-9,2-11,4s-2.8,8.9-2.2,11.6c0.6,2.7-0.1,8.6,4.1,11.8c2,1.6,4.2,2.4,6,2.7
			c0.5,0.4,1.7,0.7,3.1,0.7c1.4,0,2.6-0.3,3.1-0.7c1.7-0.4,3.9-1.2,6-2.7c4.2-3.3,3.5-9.1,4.1-11.8C52.5,30.6,51.7,23.7,49.7,21.8z"
			/>
		<path opacity="0.8" fill="#774E1E" d="M47,43.5c-2.8,1.9-6.3,1.7-7.7,2.7c-0.2,0.1-0.4,0.2-0.6,0.2c-0.2,0-0.4-0.1-0.6-0.2
			c-1.4-1-4.9-0.9-7.7-2.7c-3-2-4.9-10.2-4.9-10.2c0.6,2.7-0.1,8.6,4.1,11.8c2,1.5,4.1,2.3,5.8,2.7c0.1,0,0.2,0.1,0.3,0.1
			c0.5,0.4,1.7,0.6,3,0.6c1.3,0,2.5-0.3,3-0.6c0.1-0.1,0.2-0.1,0.3-0.1c1.7-0.4,3.8-1.2,5.8-2.7c4.2-3.3,3.5-9.1,4.1-11.8
			C51.9,33.3,50,41.5,47,43.5z"/>
		<polygon fill="#774E1E" points="37.5,44.2 38.7,45.6 40,44.2 		"/>
		<path id="XMLID_1_" fill="#D0AF72" d="M41.1,37.8c-0.2,0.4,0.2,0.7,0.6,0.5c0.4-0.3,0.7-0.8,0-2c-1-1.8-1-4.1-1-4.8
			c0-0.1-0.1-0.3-0.2-0.4c-0.5-0.3-1.9-1-3.3,0c-0.1,0.1-0.2,0.2-0.2,0.3c0,0.7,0.1,3-1,4.8c-0.6,1.1-0.4,1.7,0,2
			c0.3,0.2,0.8-0.2,0.6-0.5l0,0c0,0,0.8-0.1,0.8,0.2c0,0.2,0.6,0.6,1.4,0.6l0,0c0.8,0,1.3-0.4,1.4-0.6
			C40.3,37.7,41.1,37.8,41.1,37.8L41.1,37.8z"/>
		<path opacity="0.8" fill="#774E1E" d="M38.5,39.2c0,0-3.2-0.2-5.6,1.8c0,0-0.3,0.6-0.2,1.1c0,0,3.8-2,5.7-1.7"/>
		<path opacity="0.8" fill="#774E1E" d="M39.2,39.2c0,0,3.2-0.2,5.6,1.8c0,0,0.3,0.6,0.2,1.1c0,0-3.8-2-5.7-1.7"/>
		<path fill="none" stroke="#1D1D1B" stroke-miterlimit="10" d="M17.4,32.6"/>
		<path fill="#774E1E" d="M25.6,29.1c0.1,0.2,0.3,0.2,0.4,0.1c1-1.3,3-6.5,5.2-7c2.4-0.6,4.9,1.2,7.1,1.7c0,0,0,0,0.1,0
			c0.2,0,0.9,0,1.2-0.2c2.1-0.9,4.4-2.1,6.7-1.6c2.3,0.5,4.1,6,5.1,7.1c0.1,0.1,0.3,0.1,0.4-0.1l0.9-1.6c0,0,0,0,0-0.1
			c0.4-1.8,1.9-5,1.1-8.6c0-0.2-0.3-0.3-0.4-0.1c0,0,0,0,0,0c-0.1,0.2-0.4,0.1-0.4-0.1c-0.1-1.8-0.8-7.3-6.7-11.5
			c-0.1-0.1-0.4,0-0.4,0.2c0,0.2-0.1,0.6-0.2,1c0,0.1-0.2,0.2-0.3,0.2c-0.7-0.2-3.1-1.2-3.3-4.2c0-0.2-0.3-0.3-0.4-0.1
			c-0.2,0.2-0.4,0.5-0.6,0.8c-0.1,0.2-0.4,0.1-0.4-0.1c-0.3-1.3-0.9-2.2-1.4-2.8c-0.1-0.2-0.4-0.1-0.4,0.2c0.2,3-3.1,5.1-4.1,5.6
			c-0.1,0.1-0.3,0-0.3-0.1c-0.1-0.4-0.3-0.8-0.4-1.2c-0.1-0.2-0.4-0.2-0.4,0.1c-0.4,3-3.6,4.2-4.5,4.5c-0.1,0-0.3,0-0.3-0.2
			c-0.1-0.7,0.1-1.6,0.3-2.4c0.1-0.3-0.3-0.4-0.4-0.2c-3.8,5.1-4.4,11-4.4,11c-0.1-0.1-0.2-0.2-0.2-0.4c-0.1-0.2-0.4-0.2-0.4,0
			c-0.4,3.5,1.1,6.7,1.4,8.5c0,0,0,0,0,0L25.6,29.1z"/>
		<g>
			<g>
				<path fill="#D9D9D9" d="M36.3,30.7v1.9c0,0.4-0.3,0.7-0.7,0.7h-6.1c-0.4,0-0.7-0.3-0.7-0.7v-1.9l0-1l0.5-0.5h6.2l0.8,0.4V30.7z"
					/>
				<path fill="none" stroke="#B1B1B1" stroke-width="0.75" stroke-miterlimit="10" d="M36.3,31.7v-1.8c0-0.4-0.3-0.7-0.7-0.7h-6.1
					c-0.4,0-0.7,0.3-0.7,0.7v1.8"/>
			</g>
			<g>
				<path fill="#D9D9D9" d="M48.9,30.7v1.9c0,0.4-0.3,0.7-0.7,0.7h-6.1c-0.4,0-0.7-0.3-0.7-0.7v-1.9l0-1l0.5-0.5h6.2l0.8,0.4V30.7z"
					/>
				<path fill="none" stroke="#B1B1B1" stroke-width="0.75" stroke-miterlimit="10" d="M48.9,31.7v-1.8c0-0.4-0.3-0.7-0.7-0.7h-6.1
					c-0.4,0-0.7,0.3-0.7,0.7v1.8"/>
			</g>
		</g>
		<line fill="none" stroke="#B1B1B1" stroke-width="0.75" stroke-miterlimit="10" x1="25.5" y1="28.7" x2="28.8" y2="30.7"/>
		<line fill="none" stroke="#B1B1B1" stroke-width="0.75" stroke-miterlimit="10" x1="52.3" y1="29.1" x2="48.9" y2="31.2"/>
		<path fill="none" stroke="#B1B1B1" stroke-width="0.75" stroke-miterlimit="10" d="M36.3,30.7c0,0,2.1-0.9,5.2,0"/>
		<path fill="#630D13" d="M34.5,42c0,0,4.3,2.9,8.7,0c0,0-2.9-0.7-4.4-0.7C37.4,41.4,34.5,42,34.5,42z"/>
		<path fill="#774E1E" d="M28.8,28.3c0,0,3.8-0.3,7.5,0c0,0,1.1-0.9,0.6-1.6c-0.5-0.7-2.4-0.4-2.4-0.4s0.3,0.2,0.2,0.2
			c-0.2,0-2.8-0.2-3.1-0.3c-0.3-0.1,0.3,0.3,0,0.4c-0.3,0.1-2,0-2.7,0.5s0.2,0.2,0,0.4c-0.2,0.2-0.7,0.9-0.6,1.2
			C28.4,29,28.3,28.3,28.8,28.3z"/>
		<path fill="#774E1E" d="M48.9,28c0,0-3.7-0.9-7.4-1.2c0,0-0.9-1.1-0.3-1.7c0.6-0.7,2.5,0,2.5,0s-0.4,0.2-0.2,0.2s2.8,0.2,3.1,0.2
			c0.3,0-0.3,0.2,0,0.4c0.3,0.1,2,0.3,2.5,1c0.5,0.7-0.2,0.2-0.1,0.4c0.1,0.2,0.5,1,0.4,1.3C49.2,28.7,49.3,28.1,48.9,28z"/>
	</g>
</g>
</svg>
